<?xml version="1.0" encoding="utf-8"?>
<!-- Generator: Adobe Illustrator 16.0.0, SVG Export Plug-In . SVG Version: 6.00 Build 0)  -->
<!DOCTYPE svg PUBLIC "-//W3C//DTD SVG 1.1//EN" "http://www.w3.org/Graphics/SVG/1.1/DTD/svg11.dtd">
<svg version="1.1" id="Capa_1" xmlns="http://www.w3.org/2000/svg" xmlns:xlink="http://www.w3.org/1999/xlink" x="0px" y="0px"
	 width="38.125px" height="37.5px" viewBox="0 0 38.125 37.5" enable-background="new 0 0 38.125 37.5" xml:space="preserve">
<path fill="#9BC9DD" d="M30.417,35.761V1.765c0,0,6.079-0.473,6.079,4.11s0,21.916,0,25.416S35.421,35.761,30.417,35.761z"/>
<path fill="#9BC9DD" d="M28.417,35.761V1.765c0,0-14.416,0-18.083,0c-4.75,0-4.667,4.943-4.667,4.943h5v8.917h-4.5v5.5h4.5v8.917
	h-4.5c0,0-0.667,5.719,4.333,5.719C14.584,35.761,28.417,35.761,28.417,35.761z"/>
<path fill="#9BC9DD" d="M9.5,28.688v-6H4c0,0-2.5-0.291-2.5,2.792s2.625,3.208,2.625,3.208H9.5z"/>
<path fill="#9BC9DD" d="M9.5,13.063v-6H4c0,0-2.5-0.291-2.5,2.792s2.625,3.208,2.625,3.208H9.5z"/>
</svg>
