<?xml version="1.0" encoding="utf-8"?>
<!-- Generator: Adobe Illustrator 16.0.0, SVG Export Plug-In . SVG Version: 6.00 Build 0)  -->
<!DOCTYPE svg PUBLIC "-//W3C//DTD SVG 1.1//EN" "http://www.w3.org/Graphics/SVG/1.1/DTD/svg11.dtd">
<svg version="1.1" id="Capa_1" xmlns="http://www.w3.org/2000/svg" xmlns:xlink="http://www.w3.org/1999/xlink" x="0px" y="0px"
	 width="58.121px" height="73.992px" viewBox="0 0 58.121 73.992" enable-background="new 0 0 58.121 73.992" xml:space="preserve">
<circle fill="#99A449" cx="29.402" cy="29.85" r="25.903"/>
<g>
	<g>
		<g>
			<path fill="#EFECDA" d="M29.402,71.245c-0.653,0-1.182-0.528-1.182-1.182v-48.19c0-0.653,0.529-1.182,1.182-1.182
				s1.182,0.529,1.182,1.182v48.19C30.583,70.716,30.055,71.245,29.402,71.245L29.402,71.245z"/>
		</g>
		<g>
			<path fill="#EFECDA" d="M29.401,38.416c-0.274,0-0.55-0.094-0.773-0.288c-0.493-0.427-0.546-1.174-0.119-1.667l7.68-8.862
				c0.427-0.494,1.174-0.547,1.667-0.119c0.493,0.427,0.546,1.174,0.119,1.667l-7.68,8.862
				C30.061,38.278,29.732,38.416,29.401,38.416L29.401,38.416z"/>
		</g>
		<g>
			<path fill="#EFECDA" d="M29.402,42.356c-0.331,0-0.66-0.138-0.894-0.407l-7.681-8.862c-0.427-0.493-0.374-1.239,0.119-1.667
				c0.494-0.428,1.239-0.374,1.667,0.119l7.681,8.861c0.427,0.494,0.374,1.24-0.119,1.668
				C29.952,42.261,29.677,42.356,29.402,42.356L29.402,42.356z"/>
		</g>
		<g>
			<path fill="#EFECDA" d="M29.401,49.447c-0.274,0-0.55-0.095-0.773-0.289c-0.493-0.427-0.546-1.174-0.119-1.666l7.68-8.865
				c0.427-0.492,1.173-0.547,1.667-0.119c0.493,0.428,0.546,1.174,0.119,1.668l-7.68,8.863
				C30.062,49.308,29.732,49.447,29.401,49.447L29.401,49.447z"/>
		</g>
	</g>
</g>
</svg>
