<?xml version="1.0" encoding="utf-8"?>
<!-- Generator: Adobe Illustrator 16.0.0, SVG Export Plug-In . SVG Version: 6.00 Build 0)  -->
<!DOCTYPE svg PUBLIC "-//W3C//DTD SVG 1.1//EN" "http://www.w3.org/Graphics/SVG/1.1/DTD/svg11.dtd">
<svg version="1.1" id="Capa_1" xmlns="http://www.w3.org/2000/svg" xmlns:xlink="http://www.w3.org/1999/xlink" x="0px" y="0px"
	 width="71.46px" height="84.554px" viewBox="0 0 71.46 84.554" enable-background="new 0 0 71.46 84.554" xml:space="preserve">
<circle fill="#8D982D" cx="35.642" cy="36.331" r="32.57"/>
<g>
	<g>
		<g>
			<path fill="#EFECDA" d="M35.642,81.726c-0.653,0-1.182-0.529-1.182-1.182V32.353c0-0.652,0.528-1.182,1.182-1.182
				c0.652,0,1.182,0.529,1.182,1.182v48.191C36.824,81.196,36.294,81.726,35.642,81.726L35.642,81.726z"/>
		</g>
		<g>
			<path fill="#EFECDA" d="M35.641,48.896c-0.274,0-0.55-0.095-0.773-0.288c-0.493-0.428-0.546-1.174-0.119-1.668l7.68-8.861
				c0.429-0.494,1.174-0.547,1.667-0.119s0.547,1.174,0.119,1.667l-7.68,8.862C36.3,48.759,35.972,48.896,35.641,48.896
				L35.641,48.896z"/>
		</g>
		<g>
			<path fill="#EFECDA" d="M35.642,52.837c-0.33,0-0.66-0.139-0.894-0.408l-7.681-8.861c-0.428-0.493-0.374-1.239,0.119-1.667
				s1.239-0.374,1.667,0.119l7.681,8.861c0.428,0.493,0.374,1.239-0.119,1.667C36.192,52.741,35.917,52.837,35.642,52.837
				L35.642,52.837z"/>
		</g>
		<g>
			<path fill="#EFECDA" d="M35.641,59.927c-0.274,0-0.55-0.094-0.773-0.288c-0.493-0.427-0.546-1.174-0.119-1.667l7.68-8.864
				c0.427-0.493,1.173-0.547,1.667-0.119c0.493,0.427,0.547,1.174,0.119,1.667l-7.68,8.864
				C36.301,59.789,35.972,59.927,35.641,59.927L35.641,59.927z"/>
		</g>
	</g>
</g>
</svg>
