<?xml version="1.0" encoding="utf-8"?>
<!-- Generator: Adobe Illustrator 16.0.0, SVG Export Plug-In . SVG Version: 6.00 Build 0)  -->
<!DOCTYPE svg PUBLIC "-//W3C//DTD SVG 1.1//EN" "http://www.w3.org/Graphics/SVG/1.1/DTD/svg11.dtd">
<svg version="1.1" id="Capa_1" xmlns="http://www.w3.org/2000/svg" xmlns:xlink="http://www.w3.org/1999/xlink" x="0px" y="0px"
	 width="57.667px" height="33.167px" viewBox="0 0 57.667 33.167" enable-background="new 0 0 57.667 33.167" xml:space="preserve">
<path fill="#8D982D" d="M37.822,10.647l-3.222-2.804c-0.805-0.698-2.126-1.848-2.934-2.552l-3.216-2.799
	c-0.807-0.704-2.129-0.704-2.932,0L22.3,5.292c-0.807,0.704-2.127,1.854-2.934,2.552l-3.219,2.804
	c-0.807,0.7-0.591,1.277,0.478,1.277h1.734v10.547c0,0.514,0.417,0.932,0.932,0.932h1.632v-9.466h4.896v9.466h8.856
	c0.517,0,0.934-0.418,0.934-0.932V11.924h1.733C38.411,11.924,38.627,11.347,37.822,10.647z M32.928,16.293h-4.429v-3.731h4.429
	V16.293z"/>
<path fill="#8D982D" d="M55.137,21.184L52.626,19c-0.627-0.545-1.656-1.44-2.285-1.989l-2.506-2.182
	c-0.629-0.548-1.66-0.548-2.285,0l-2.509,2.182c-0.629,0.548-1.657,1.444-2.286,1.989l-2.508,2.184
	c-0.629,0.547-0.461,0.996,0.372,0.996h1.351v8.218c0,0.401,0.326,0.726,0.727,0.726h1.271h3.816h6.9
	c0.402,0,0.728-0.324,0.728-0.726V22.18h1.351C55.596,22.18,55.764,21.73,55.137,21.184z M51.323,25.584h-3.451v-2.908h3.451V25.584
	z"/>
<path fill="#8D982D" d="M19.422,21.004l-2.511-2.184c-0.627-0.545-1.656-1.44-2.285-1.989L12.12,14.65
	c-0.629-0.548-1.66-0.548-2.285,0l-2.509,2.182C6.697,17.38,5.669,18.275,5.04,18.82l-2.508,2.184C1.903,21.551,2.071,22,2.904,22
	h1.351v8.218c0,0.401,0.326,0.726,0.727,0.726h1.271h3.816h6.9c0.402,0,0.728-0.324,0.728-0.726V22h1.351
	C19.881,22,20.049,21.551,19.422,21.004z"/>
</svg>
