<?xml version="1.0" encoding="utf-8"?>
<!-- Generator: Adobe Illustrator 16.0.0, SVG Export Plug-In . SVG Version: 6.00 Build 0)  -->
<!DOCTYPE svg PUBLIC "-//W3C//DTD SVG 1.1//EN" "http://www.w3.org/Graphics/SVG/1.1/DTD/svg11.dtd">
<svg version="1.1" id="Capa_1" xmlns="http://www.w3.org/2000/svg" xmlns:xlink="http://www.w3.org/1999/xlink" x="0px" y="0px"
	 width="889.412px" height="172.941px" viewBox="0 0 889.412 172.941" enable-background="new 0 0 889.412 172.941"
	 xml:space="preserve">
<path fill="#9EAB31" d="M867.644,148.179c-2.371,0.459-202.432-0.087-205.008-0.087c-62.13,0-62.13-139.318-124.259-139.318
	c-62.126,0-62.126,139.318-124.252,139.318S351.999,8.774,289.872,8.774c-56.514,0-59.178,122.062-108.844,136.106
	c-25.082,7.094-123.318,2.629-128.678,4.414l-34.783,14.873h849.391L867.644,148.179z"/>
<path fill="#8D982D" d="M286.349,8.956c-0.463,0.042-0.927,0.082-1.382,0.141c-0.441,0.059-0.875,0.137-1.31,0.21
	c-0.336,0.057-0.674,0.108-1.006,0.174c-0.5,0.1-0.994,0.217-1.484,0.337c-0.247,0.06-0.496,0.117-0.74,0.182
	c-0.547,0.146-1.086,0.308-1.621,0.479c-0.174,0.055-0.349,0.109-0.521,0.167c-0.582,0.196-1.16,0.407-1.729,0.632
	c-0.11,0.043-0.221,0.087-0.331,0.132c-0.614,0.25-1.223,0.514-1.823,0.796c-0.052,0.024-0.104,0.05-0.155,0.075
	c-0.645,0.306-1.279,0.627-1.906,0.97c0.101-0.001,0.197-0.013,0.299-0.013c49.074,0,56.266,137.979,98.537,137.979
	c8.304,0,43.515,2.418,50.958-3.949c-2.553,0.537-5.216,0.823-8.008,0.823c-59.067,0-61.978-125.929-115.514-138.333
	c-0.269-0.059-0.535-0.123-0.804-0.177c-0.223-0.046-0.444-0.092-0.669-0.134c-0.73-0.134-1.464-0.253-2.2-0.348
	c-0.042-0.005-0.084-0.01-0.125-0.016c-0.788-0.099-1.579-0.174-2.373-0.226c-0.054-0.003-0.107-0.005-0.16-0.008
	c-0.8-0.049-1.602-0.077-2.408-0.077c-0.847,0-1.679,0.031-2.5,0.084C287.026,8.881,286.69,8.923,286.349,8.956z"/>
<path fill="#8D982D" d="M662.636,148.092c-62.13,0-62.13-139.318-124.259-139.318c-17.325,0-29.818,10.838-40.176,26.465
	c22.907,39.258,32.146,117.319,68.88,117.319c2.035,0,189.512-0.245,191.386-0.705h108.491l0.017-3.674
	C864.603,148.638,665.212,148.092,662.636,148.092z"/>
<path fill="#9EAB31" d="M92.971,156.476c0,4.15-3.366,7.516-7.517,7.516H17.169c-4.152,0-7.517-3.365-7.517-7.516l0,0
	c0-4.151,3.364-7.516,7.517-7.516h68.285C89.604,148.96,92.971,152.325,92.971,156.476L92.971,156.476z"/>
<path fill="#9EAB31" d="M879.761,156.13c0,4.4-3.567,7.968-7.968,7.968h-51.116c-4.401,0-7.969-3.567-7.969-7.968l0,0
	c0-4.401,3.567-7.969,7.969-7.969h51.116C876.193,148.162,879.761,151.729,879.761,156.13L879.761,156.13z"/>
<path fill="#8D982D" d="M871.946,150.023c0,0.957-0.775,1.733-1.732,1.733H754.225c-0.957,0-1.733-0.776-1.733-1.733l0,0
	c0-0.957,0.776-1.732,1.733-1.732h115.989C871.171,148.291,871.946,149.066,871.946,150.023L871.946,150.023z"/>
</svg>
