<?xml version="1.0" encoding="utf-8"?>
<!-- Generator: Adobe Illustrator 16.0.0, SVG Export Plug-In . SVG Version: 6.00 Build 0)  -->
<!DOCTYPE svg PUBLIC "-//W3C//DTD SVG 1.1//EN" "http://www.w3.org/Graphics/SVG/1.1/DTD/svg11.dtd">
<svg version="1.1" id="Layer_4" xmlns="http://www.w3.org/2000/svg" xmlns:xlink="http://www.w3.org/1999/xlink" x="0px" y="0px"
	 width="31.824px" height="29.904px" viewBox="0 0 31.824 29.904" enable-background="new 0 0 31.824 29.904" xml:space="preserve">
<g>
	<g>
		<g>
			<path fill="#BDCE31" d="M14.153,10.97c0.143,1.577,0.294,3.243,0.415,4.964c0.043,0.607,0.39,1.354,0.828,1.778
				c0.104,0.096,0.213,0.17,0.324,0.217c0.254,0.108,0.523,0.086,0.742-0.059c0.201-0.133,0.436-0.428,0.426-1.063
				c-0.027-1.808-0.027-3.596-0.029-5.356c0.001-2.582,0-5.021-0.089-7.346c0.003-0.017,0.104-1.784-0.862-2.196
				c-0.221-0.094-0.576-0.149-1.032,0.117c-1.294,0.771-1.195,3.363-1.143,3.614C13.819,7.253,13.981,9.059,14.153,10.97z"/>
			<path fill="#BDCE31" d="M14.794,18.115c-0.212-0.09-0.571-0.133-1.098,0.177c-1.558,0.933-3.112,1.832-4.64,2.714
				c-2.231,1.29-4.338,2.507-6.303,3.741c-0.015,0.006-1.449,0.731-1.477,1.7c-0.006,0.231,0.066,0.665,0.625,0.981L2.047,27.5
				c1.33,0.568,3.386-0.736,3.557-0.889c1.362-0.884,2.853-1.934,4.431-3.044c1.285-0.907,2.646-1.863,4.066-2.825
				c0.505-0.344,0.978-1.018,1.126-1.609C15.359,18.576,15.075,18.236,14.794,18.115z"/>
			<path fill="#BDCE31" d="M30.387,25.964c-0.021-1.597-2.514-2.752-2.559-2.798c-1.441-0.734-3.086-1.496-4.829-2.302
				c-1.435-0.667-2.949-1.368-4.589-2.163c-0.535-0.229-1.318-0.285-1.867-0.129c-0.55,0.165-0.65,0.551-0.669,0.708
				c-0.021,0.225,0.036,0.66,0.704,1.037c1.586,0.878,3.137,1.777,4.663,2.656c2.235,1.289,4.345,2.507,6.398,3.592
				c0.125,0.084,0.346,0.208,0.601,0.317c0.721,0.308,1.29,0.329,1.686,0.065C30.138,26.805,30.393,26.521,30.387,25.964z"/>
		</g>
		<path fill="#BDCE31" d="M18.264,18.484c0.063,1.52-1.12,2.804-2.639,2.872c-1.521,0.061-2.804-1.117-2.871-2.638
			c-0.062-1.521,1.115-2.805,2.638-2.87C16.91,15.783,18.197,16.963,18.264,18.484z"/>
	</g>
	<path fill="#FFFFFF" d="M16.698,18.549c0.028,0.661-0.482,1.212-1.14,1.241s-1.213-0.48-1.238-1.138
		c-0.027-0.657,0.48-1.213,1.137-1.241C16.114,17.383,16.67,17.895,16.698,18.549z"/>
</g>
</svg>
