<?xml version="1.0" encoding="utf-8"?>
<!-- Generator: Adobe Illustrator 16.0.0, SVG Export Plug-In . SVG Version: 6.00 Build 0)  -->
<!DOCTYPE svg PUBLIC "-//W3C//DTD SVG 1.1//EN" "http://www.w3.org/Graphics/SVG/1.1/DTD/svg11.dtd">
<svg version="1.1" id="Capa_1" xmlns="http://www.w3.org/2000/svg" xmlns:xlink="http://www.w3.org/1999/xlink" x="0px" y="0px"
	 width="81.25px" height="65.75px" viewBox="0 0 81.25 65.75" enable-background="new 0 0 81.25 65.75" xml:space="preserve">
<path fill="#0F4C57" d="M26.313,60.732c0,0-25.345,1.896-23.61-18.427s23.61-17.948,23.61-17.948V60.732z"/>
<path fill="#57AAC3" d="M37.563,59.357h32.25c0,0,4-0.625,4.125-4.125s-1.5-5.312-1.5-5.312s3.875,0.312,4-3.063
	s-1.625-4.552-1.625-4.552s3.75-1.073,3.875-4.948s-2.5-4.25-2.5-4.25s3.17-0.307,3.179-3.923s-2.653-4.913-4.337-4.913
	s-15.841,0-15.841,0s2.5-5.04,2.125-10.165s-0.625-12.22-6.875-12.22s-1.125,9.845-2.75,14.72s-4.5,7.665-4.5,7.665h-9.625V59.357z"
	/>
<rect x="26.313" y="21.732" fill="#1E7687" width="12.375" height="41.147"/>
<circle fill="#FFFFFF" cx="32.5" cy="53.233" r="3.313"/>
</svg>
