<?xml version="1.0" encoding="utf-8"?>
<!-- Generator: Adobe Illustrator 16.0.0, SVG Export Plug-In . SVG Version: 6.00 Build 0)  -->
<!DOCTYPE svg PUBLIC "-//W3C//DTD SVG 1.1//EN" "http://www.w3.org/Graphics/SVG/1.1/DTD/svg11.dtd">
<svg version="1.1" id="Capa_1" xmlns="http://www.w3.org/2000/svg" xmlns:xlink="http://www.w3.org/1999/xlink" x="0px" y="0px"
	 width="19px" height="21.489px" viewBox="0 0 19 21.489" enable-background="new 0 0 19 21.489" xml:space="preserve">
<g>
	<path fill="#B16924" d="M18.446,6.33c0,0-4.579,0.023-5.088-0.003c-1.224-0.013-1.121-1.3-1.121-1.3V0.503L18.446,6.33z"/>
	<path fill="#B16924" d="M12.766,7.013c-1.224-0.013-1.122-1.3-1.122-1.3l-0.049-5.218H1.625c-0.591,0-1.071,0.479-1.071,1.071
		v18.357c0,0.592,0.48,1.071,1.071,1.071h15.731c0.591,0,1.07-0.479,1.07-1.071V7.029l-0.017-0.016
		C18.095,7.015,13.259,7.039,12.766,7.013z M3.042,5.624h6.291v1.147H3.042V5.624z M3.042,8.187h6.291v1.148H3.042V8.187z
		 M15.165,17.036H3.042v-1.148h12.123V17.036z M15.165,14.473H3.042v-1.146h12.123V14.473z M15.165,11.891H3.042v-1.146h12.123
		V11.891z"/>
</g>
</svg>
