<?xml version="1.0" encoding="utf-8"?>
<!-- Generator: Adobe Illustrator 16.0.0, SVG Export Plug-In . SVG Version: 6.00 Build 0)  -->
<!DOCTYPE svg PUBLIC "-//W3C//DTD SVG 1.1//EN" "http://www.w3.org/Graphics/SVG/1.1/DTD/svg11.dtd">
<svg version="1.1" id="Layer_4" xmlns="http://www.w3.org/2000/svg" xmlns:xlink="http://www.w3.org/1999/xlink" x="0px" y="0px"
	 width="860px" height="159.9px" viewBox="0 0 860 159.9" enable-background="new 0 0 860 159.9" xml:space="preserve">
<g>
	<path fill="#BDCE31" d="M846.2,164.5c-72.2-20.7-90.8-77.7-193.5-77.7c-101.2,0-117.3,58.1-189.3,77.7H846.2z"/>
	<path fill="#BDCE31" d="M508.6,164.5c-31.3-29.6-39.3-111.2-83.8-111.2c-43.8,0-50.8,83.2-81.9,111.2H508.6z"/>
	<path fill="#A1B400" d="M385.9,101.5c-2.5,0.9-4.6,2.3-6,4.1c1.4-2.1,3.5-3.8,6.3-4.9c2.4-1,4.9-1.2,7.1-0.9
		c-1.4-2.3-4.3-3.2-6.8-2.2c-7.3,2.8-8,10.5-8,10.5c2.5-3.1,8.2,1.4,12.1-0.1c2.7-1,4.1-4,3.3-6.7
		C393.9,101.2,389.6,100.2,385.9,101.5z"/>
	<path fill="#BDCE31" d="M373.9,75.5c-1.7-1.1-3.1-2.6-3.8-4.2c0.7,1.8,2,3.5,3.8,4.8c1.7,1.2,3.5,1.8,5.2,1.9
		c-1.5,1.4-3.8,1.7-5.5,0.5c-5-3.4-4.1-9.3-4.1-9.3c1.3,2.7,6.5,0.4,9.1,2.2c1.8,1.3,2.4,3.7,1.3,5.6
		C379.8,77.2,376.4,77.2,373.9,75.5z"/>
	<path fill="#A1B400" d="M394.8,85.7c-0.1-1.3,0.2-2.6,0.7-3.6c-0.7,1.1-1.1,2.4-1,3.9c0,1.3,0.4,2.5,1,3.5
		c-1.3-0.2-2.4-1.3-2.4-2.7c-0.2-4,3.3-5.9,3.3-5.9c-0.9,1.8,2.3,3.6,2.4,5.7c0.1,1.5-1,2.7-2.5,2.9C396.3,89.5,395,87.7,394.8,85.7
		z"/>
	<path fill="#BDCE31" d="M357.5,73.2c-1.2-0.7-2.4-1-3.6-1c1.3-0.1,2.7,0.1,4,0.8c1.2,0.6,2.1,1.5,2.7,2.5c0.4-1.3-0.1-2.7-1.4-3.4
		c-3.5-1.9-6.7,0.4-6.7,0.4c2-0.1,2.2,3.7,4,4.7c1.3,0.7,2.9,0.3,3.7-0.9C360.3,76.2,359.3,74.2,357.5,73.2z"/>
	<path fill="#A1B400" d="M411.8,100.4c-3.1-1.8-6.3-2.7-9.4-2.6c3.3-0.3,7,0.4,10.4,2.2c3.1,1.7,5.5,4,7,6.6c1.1-3.4-0.3-7.2-3.6-9
		c-9.1-5.1-17.7,0.8-17.7,0.8c5.3-0.1,5.6,9.7,10.5,12.4c3.4,1.9,7.6,0.8,9.8-2.3C419.1,108.4,416.4,103.1,411.8,100.4z"/>
	<g>
		<path fill="#8FA000" d="M537.4,8.7l-3.2-2.8c-0.8-0.7-2.1-1.8-2.9-2.6l-3.2-2.8c-0.8-0.7-2.1-0.7-2.9,0l-3.2,2.8
			c-0.8,0.7-2.1,1.9-2.9,2.6l-3.2,2.8c-0.8,0.7-0.6,1.3,0.5,1.3h1.7v10.5c0,0.5,0.4,0.9,0.9,0.9h1.6V12h4.9v9.5h8.9
			c0.5,0,0.9-0.4,0.9-0.9V10h1.7C538,10,538.2,9.4,537.4,8.7z M532.6,14.3h-4.4v-3.7h4.4V14.3z"/>
	</g>
	<g>
		<path fill="#8FA000" d="M554.8,19.2l-2.5-2.2c-0.6-0.5-1.7-1.4-2.3-2l-2.5-2.2c-0.6-0.5-1.7-0.5-2.3,0l-2.5,2.2
			c-0.6,0.5-1.7,1.4-2.3,2l-2.5,2.2c-0.6,0.5-0.5,1,0.4,1h1.4v8.2c0,0.4,0.3,0.7,0.7,0.7h1.3h3.8h6.9c0.4,0,0.7-0.3,0.7-0.7v-8.2
			h1.4C555.2,20.2,555.4,19.8,554.8,19.2z M550.9,23.6h-3.5v-2.9h3.5V23.6z"/>
	</g>
	<path fill="#8FA000" d="M519,19l-2.5-2.2c-0.6-0.5-1.7-1.4-2.3-2l-2.5-2.2c-0.6-0.5-1.7-0.5-2.3,0l-2.5,2.2c-0.6,0.5-1.7,1.4-2.3,2
		l-2.5,2.2c-0.6,0.5-0.5,1,0.4,1h1.4v8.2c0,0.4,0.3,0.7,0.7,0.7h1.3h3.8h6.9c0.4,0,0.7-0.3,0.7-0.7V20h1.4
		C519.5,20,519.7,19.6,519,19z"/>
	<path fill="#BDCE31" d="M264.1,162.7c-36.3-15.3-45.7-57.4-97.4-57.4c-50.9,0-59.1,42.9-95.2,57.4H264.1z"/>
	<path fill="#A1B400" d="M855.7,157c-2.4,0.5-202.4-0.1-205-0.1c-62.1,0-62.1-139.3-124.3-139.3c-62.1,0-62.1,139.3-124.3,139.3
		C340,156.9,340,17.6,277.9,17.6c-56.5,0-59.2,122.1-108.8,136.1c-25.1,7.1-123.3,2.6-128.7,4.4L5.6,173H855L855.7,157z"/>
	<path fill="#8FA000" d="M274.4,17.7c-0.5,0-0.9,0.1-1.4,0.1c-0.4,0.1-0.9,0.1-1.3,0.2c-0.3,0.1-0.7,0.1-1,0.2
		c-0.5,0.1-1,0.2-1.5,0.3c-0.2,0.1-0.5,0.1-0.7,0.2c-0.5,0.1-1.1,0.3-1.6,0.5c-0.2,0.1-0.3,0.1-0.5,0.2c-0.6,0.2-1.2,0.4-1.7,0.6
		c-0.1,0-0.2,0.1-0.3,0.1c-0.6,0.3-1.2,0.5-1.8,0.8c-0.1,0-0.1,0-0.2,0.1c-0.6,0.3-1.3,0.6-1.9,1c0.1,0,0.2,0,0.3,0
		c49.1,0,56.3,138,98.5,138c8.3,0,43.5,2.4,51-3.9c-2.6,0.5-5.2,0.8-8,0.8c-59.1,0-62-125.9-115.5-138.3c-0.3-0.1-0.5-0.1-0.8-0.2
		c-0.2,0-0.4-0.1-0.7-0.1c-0.7-0.1-1.5-0.3-2.2-0.3c0,0-0.1,0-0.1,0c-0.8-0.1-1.6-0.2-2.4-0.2c-0.1,0-0.1,0-0.2,0
		c-0.8,0-1.6-0.1-2.4-0.1c-0.8,0-1.7,0-2.5,0.1C275.1,17.7,274.7,17.7,274.4,17.7z"/>
	<g>
		<path fill="#8FA000" d="M650.7,156.9c-62.1,0-62.1-139.3-124.3-139.3c-17.3,0-29.8,10.8-40.2,26.5
			c22.9,39.3,32.1,117.3,68.9,117.3c2,0,189.5-0.2,191.4-0.7H855l0-3.7C852.6,157.4,653.3,156.9,650.7,156.9z"/>
	</g>
	<path fill="#A1B400" d="M81,165.3c0,4.2-3.4,7.5-7.5,7.5H5.2c-4.2,0-7.5-3.4-7.5-7.5l0,0c0-4.2,3.4-7.5,7.5-7.5h68.3
		C77.6,157.7,81,161.1,81,165.3L81,165.3z"/>
	<path fill="#A1B400" d="M867.8,164.9c0,4.4-3.6,8-8,8h-51.1c-4.4,0-8-3.6-8-8l0,0c0-4.4,3.6-8,8-8h51.1
		C864.2,156.9,867.8,160.5,867.8,164.9L867.8,164.9z"/>
	<path fill="#8FA000" d="M860,158.8c0,1-0.8,1.7-1.7,1.7h-116c-1,0-1.7-0.8-1.7-1.7l0,0c0-1,0.8-1.7,1.7-1.7h116
		C859.2,157.1,860,157.9,860,158.8L860,158.8z"/>
	<g>
		<circle fill="#9CAC3C" cx="106.5" cy="123" r="25.9"/>
		<g>
			<g>
				<g>
					<path fill="#F2EFDC" d="M106.5,164.4c-0.7,0-1.2-0.5-1.2-1.2V115c0-0.7,0.5-1.2,1.2-1.2c0.7,0,1.2,0.5,1.2,1.2v48.2
						C107.7,163.8,107.2,164.4,106.5,164.4L106.5,164.4z"/>
				</g>
				<g>
					<path fill="#F2EFDC" d="M106.5,131.5c-0.3,0-0.5-0.1-0.8-0.3c-0.5-0.4-0.5-1.2-0.1-1.7l7.7-8.9c0.4-0.5,1.2-0.5,1.7-0.1
						s0.5,1.2,0.1,1.7l-7.7,8.9C107.2,131.4,106.9,131.5,106.5,131.5L106.5,131.5z"/>
				</g>
				<g>
					<path fill="#F2EFDC" d="M106.5,135.5c-0.3,0-0.7-0.1-0.9-0.4l-7.7-8.9c-0.4-0.5-0.4-1.2,0.1-1.7c0.5-0.4,1.2-0.4,1.7,0.1
						l7.7,8.9c0.4,0.5,0.4,1.2-0.1,1.7C107.1,135.4,106.8,135.5,106.5,135.5L106.5,135.5z"/>
				</g>
				<g>
					<path fill="#F2EFDC" d="M106.5,142.6c-0.3,0-0.5-0.1-0.8-0.3c-0.5-0.4-0.5-1.2-0.1-1.7l7.7-8.9c0.4-0.5,1.2-0.5,1.7-0.1
						c0.5,0.4,0.5,1.2,0.1,1.7l-7.7,8.9C107.2,142.4,106.9,142.6,106.5,142.6L106.5,142.6z"/>
				</g>
			</g>
		</g>
	</g>
	<g>
		<circle fill="#8FA000" cx="149.7" cy="117" r="32.6"/>
		<g>
			<g>
				<g>
					<path fill="#F2EFDC" d="M149.7,162.4c-0.7,0-1.2-0.5-1.2-1.2V113c0-0.7,0.5-1.2,1.2-1.2c0.7,0,1.2,0.5,1.2,1.2v48.2
						C150.9,161.8,150.3,162.4,149.7,162.4L149.7,162.4z"/>
				</g>
				<g>
					<path fill="#F2EFDC" d="M149.7,129.5c-0.3,0-0.5-0.1-0.8-0.3c-0.5-0.4-0.5-1.2-0.1-1.7l7.7-8.9c0.4-0.5,1.2-0.5,1.7-0.1
						s0.5,1.2,0.1,1.7l-7.7,8.9C150.3,129.4,150,129.5,149.7,129.5L149.7,129.5z"/>
				</g>
				<g>
					<path fill="#F2EFDC" d="M149.7,133.5c-0.3,0-0.7-0.1-0.9-0.4l-7.7-8.9c-0.4-0.5-0.4-1.2,0.1-1.7s1.2-0.4,1.7,0.1l7.7,8.9
						c0.4,0.5,0.4,1.2-0.1,1.7C150.2,133.4,149.9,133.5,149.7,133.5L149.7,133.5z"/>
				</g>
				<g>
					<path fill="#F2EFDC" d="M149.7,140.6c-0.3,0-0.5-0.1-0.8-0.3c-0.5-0.4-0.5-1.2-0.1-1.7l7.7-8.9c0.4-0.5,1.2-0.5,1.7-0.1
						c0.5,0.4,0.5,1.2,0.1,1.7l-7.7,8.9C150.3,140.4,150,140.6,149.7,140.6L149.7,140.6z"/>
				</g>
			</g>
		</g>
	</g>
	<path fill="#BDCE31" d="M37.3,148.9c-1.4,1.5-2.4,3.1-2.8,4.9c0.3-1.9,1.2-3.9,2.7-5.5c1.4-1.5,3-2.5,4.7-3c-1.7-1.1-4-0.8-5.5,0.7
		c-4.1,4.4-2.1,10-2.1,10c0.7-3,6.2-1.7,8.4-4.1c1.5-1.6,1.5-4.1,0.1-5.8C42.8,146,39.5,146.8,37.3,148.9z"/>
	<path fill="#BDCE31" d="M47.3,133.8c-1-1-1.7-2.1-2-3.3c0.2,1.3,0.9,2.6,2,3.7c1,1,2.1,1.6,3.2,1.9c-1.2,0.8-2.7,0.6-3.8-0.4
		c-2.9-2.9-1.6-6.7-1.6-6.7c0.5,2,4.3,1.1,5.8,2.6c1.1,1.1,1.1,2.8,0.2,3.9C51,135.7,48.8,135.3,47.3,133.8z"/>
	<path fill="#BDCE31" d="M66.8,143c-2.6-1.6-5.5-2.4-8.1-2.3c2.8-0.3,6,0.3,9,1.9c2.6,1.4,4.7,3.4,6,5.7c1-2.9-0.3-6.2-3.1-7.7
		c-7.9-4.4-15.2,0.7-15.2,0.7c4.5-0.1,4.8,8.4,9,10.7c2.9,1.6,6.5,0.7,8.4-2C73,149.8,70.7,145.3,66.8,143z"/>
	<g>
		<g>
			<path fill="#8FA000" d="M676.6,141.6c0.8,0,1.6,0.1,2.4,0.3l2.4-5.1c0.2-0.4,0.6-0.7,1-0.7h12l-1.6-2.9h-2.7
				c-0.7,0-1.3-0.6-1.3-1.3c0-0.7,0.6-1.3,1.3-1.3h3.8c0.7,0,1.3,0.6,1.3,1.3c0,0.2-0.1,0.4-0.2,0.6l5.2,9.6c1-0.4,2.1-0.6,3.3-0.6
				c4.9,0,8.9,4,8.9,8.9c0,4.9-4,8.9-8.9,8.9c-4.9,0-8.9-4-8.9-8.9c0-2.9,1.4-5.5,3.6-7.2l-2.4-4.5l-4.6,9.8
				c0.4,0.5,0.7,1.1,0.7,1.8c0,1.6-1.3,2.8-2.8,2.8c-1.1,0-2-0.6-2.5-1.5h-1.1c-0.6,4.4-4.3,7.8-8.9,7.8c-4.9,0-8.9-4-8.9-8.9
				C667.7,145.6,671.7,141.6,676.6,141.6z M697.1,150.6c0,3.5,2.9,6.4,6.4,6.4c3.5,0,6.4-2.9,6.4-6.4s-2.9-6.4-6.4-6.4
				c-0.7,0-1.4,0.1-2.1,0.4l3,5.5c0.3,0.6,0.1,1.3-0.5,1.6c-0.2,0.1-0.4,0.1-0.5,0.1c-0.4,0-0.8-0.2-1-0.6l-3-5.5
				C698,146.8,697.1,148.6,697.1,150.6z M681.1,142.8c2.3,1.4,4,3.8,4.4,6.6h0.9c0.1-0.3,0.2-0.5,0.4-0.7l-4.4-8.7L681.1,142.8z
				 M678.1,149.4h4.9c-0.3-1.8-1.4-3.3-2.9-4.3L678.1,149.4z M684.3,138.5l4.6,9.1c0.1,0,0.1,0,0.2,0c0,0,0.1,0,0.1,0l4.2-9.1H684.3
				L684.3,138.5z M676.6,157c3.1,0,5.8-2.3,6.3-5.3h-6.7c-0.4,0-0.8-0.2-1-0.5c-0.2-0.3-0.2-0.8-0.1-1.1l2.7-5.8
				c-0.4-0.1-0.8-0.1-1.3-0.1c-3.5,0-6.4,2.9-6.4,6.4C670.2,154.1,673.1,157,676.6,157z"/>
			<path fill="#8FA000" d="M685,135.5h-3.8c-0.7,0-1.3-0.6-1.3-1.3c0-0.7,0.6-1.3,1.3-1.3h3.8c0.7,0,1.3,0.6,1.3,1.3
				C686.3,135,685.7,135.5,685,135.5z"/>
			<path fill="#8FA000" d="M698,137.1c-0.3-1,0.3-2.1,1.3-2.4c0.1,0,0.2,0,0.3,0l1,3.6c-0.1,0-0.2,0.1-0.2,0.1
				C699.4,138.8,698.3,138.2,698,137.1z"/>
		</g>
	</g>
</g>
<g>
	<g>
		<g>
			<g>
				<path fill="#FDC896" d="M413,52.2c0,1-1.2,3.9-0.6,4.6c0.7,1,1.5-0.1,2-1.5c0.4-1,0.5-2.1,0.5-2.3c-0.1-1.1-0.7-1.2-1.7-1.1
					L413,52.2z"/>
				<path fill="#FDC896" d="M416.1,52.4c0.2,1,0,4,0.9,4.6c1.7,1.2,1.6-3.7,1.2-4.4c-0.4-1-1.1-1-2-0.5L416.1,52.4z"/>
				<g>
					<path fill="#DEE466" d="M412.2,55.4c0,0,0,0.1,0.6,0.1c0.7,0,1.3-0.1,1.3-0.1s-0.4,0.7-0.2,1c0.1,0.2-1.8,0.5-1.8,0.5
						S412.1,56.3,412.2,55.4z"/>
					<ellipse fill="#AFBA36" cx="413.2" cy="56.7" rx="1.1" ry="0.9"/>
					<path fill="#828936" d="M414.3,56.6c0,0.5-0.5,0.9-1.1,0.9c-0.5,0-1-0.4-1.1-0.6l0,0c0,0.5,0.5,0.9,1.1,0.9s1.1-0.4,1.1-0.9
						C414.4,56.7,414.3,56.7,414.3,56.6z"/>
					<path fill="#828936" d="M414.2,56.2c-0.1-0.1-0.1-0.2-0.1-0.2s0-0.1,0-0.2c0,0-0.2,0.1-1.2,0.1c-1.3,0-1.1,1.3-0.7,0.9
						C412.6,56.2,414.3,56.3,414.2,56.2z"/>
					<path fill="#AFBA36" d="M414.2,56.2c0-0.1,0-0.2,0-0.2s0-0.1,0-0.2c0,0-0.2,0.1-1.3,0.1c-1.3,0-1.1,1.3-0.7,0.9
						C412.5,56.2,414.1,56.3,414.2,56.2z"/>
					<path fill="#DEE466" d="M412.4,56l0.2,0.5c0,0-0.2,0-0.4,0.2c-0.1-0.1-0.2-0.4-0.2-0.4S412.1,56,412.4,56z"/>
				</g>
				<g>
					<path fill="#DEE466" d="M416.5,55.6c0,0,0,0.1,0.6,0c0.6-0.1,1.3-0.4,1.3-0.4s-0.1,0.7,0,1c0.1,0.2-1.7,1-1.7,1
						S416.5,56.6,416.5,55.6z"/>
					
						<ellipse transform="matrix(-0.2196 -0.9756 0.9756 -0.2196 454.2019 476.7072)" fill="#AFBA36" cx="417.8" cy="56.7" rx="0.9" ry="1.1"/>
					<path fill="#828936" d="M418.8,56.3c0.1,0.5-0.4,0.9-0.9,1c-0.5,0.1-1-0.1-1.2-0.4l0,0c0.1,0.5,0.6,0.7,1.2,0.6
						c0.6-0.1,1-0.6,0.9-1.1C418.8,56.5,418.8,56.5,418.8,56.3z"/>
					<path fill="#828936" d="M418.6,56.1c-0.1-0.1-0.1-0.2-0.1-0.2s0-0.1,0-0.2c0,0-0.2,0.1-1.2,0.4c-1.3,0.4-0.7,1.6-0.5,1
						C417,56.5,418.7,56.1,418.6,56.1z"/>
					<path fill="#AFBA36" d="M418.5,56c-0.1-0.1-0.1-0.2-0.1-0.2s0-0.1,0-0.2c0,0-0.2,0.1-1.2,0.4c-1.3,0.4-0.7,1.6-0.5,1
						C416.9,56.3,418.5,56.1,418.5,56z"/>
					<path fill="#DEE466" d="M416.8,56.1l0.4,0.4c0,0-0.2,0.1-0.4,0.2c-0.1-0.1-0.2-0.4-0.2-0.4S416.5,56.2,416.8,56.1z"/>
				</g>
				<path opacity="0.2" enable-background="new    " d="M416.4,53.9v0.4c0,0,1.5-0.4,2-0.6c0-0.1,0-0.1,0-0.1S416.9,53.8,416.4,53.9
					z"/>
				<path opacity="0.2" enable-background="new    " d="M412.6,53.9l-0.1,0.5c0,0,1.6,0,2.2-0.1c0-0.1,0.1-0.7,0.1-0.7
					S413.1,53.9,412.6,53.9z"/>
				<path fill="#69452A" d="M422.3,40.7c0.1-0.5,0.1-1.1,0.2-1.6c0.1-1.1,0.2-2.1,0.2-2.9c0.1-0.5,0.1-1,0.1-1.5
					c0-5.9-4.8-10.6-10.6-10.6c-5.9,0-10.6,4.8-10.6,10.6c0,0.2,0,0.4,0,0.6c-0.2,1.6-0.2,3.3,0,4.8c0.7,3.8,2.3,5.6,4.5,7.6
					c0.2,0.2,0.6,0.5,1,0.7c1.1,0.6,2.4,0.7,3.7,0.9c2.3,0.1,4.9-0.5,7.1-1.7c2.7-1.5,4.3-3.9,5.1-7.5
					C422.7,40.3,422.5,40.5,422.3,40.7z"/>
				<g>
					<path fill="#D4A65B" d="M410.8,42.7c0,0-2.3-0.5-3.5,3.4c0,0-1,2.6-1,3.8c0,0,0.9,2.4,2.8,2.6l1.5-7l1.8-0.5l1.7-0.1l0.7-1.6
						l-1-0.9L410.8,42.7z"/>
					<path fill="#A2782B" d="M406.6,47.9c1.5,2,2.2,1.7,2.2,1.7l-0.1,1.1c-0.6,0.2-2.1-1.1-2.3-2C406.5,48.5,406.6,48.2,406.6,47.9z
						"/>
					<path fill="#A2782B" d="M413.8,44.2l-2.7,0.1c0,0-1.1,0-1.7,2.4c0,0-1,3.9-0.7,5.5c0,0,0.7,0.4,1.1,0l1.8-4.3l1.7-1.6l0.7-1.5
						C414.1,45,414.3,44.7,413.8,44.2z"/>
				</g>
				<path opacity="0.2" enable-background="new    " d="M408.1,48c-0.1,0-0.1,0-0.1,0c-0.4-0.1-0.1-0.4,0.4-0.5
					c0.2,0,0.4-0.1,0.4-0.1c0.5-0.9,1.7-2,2.2-2.3l1.7,0.9c-0.2,0.2-1.2,1.5-2.1,2.3l0,0c0,0-0.4,0.4-0.4,0.6l0,0V49
					c0,0.4-0.2,0.6-0.5,0.2c-0.2-0.4-0.2-0.2-0.9,0.1c-0.6,0.2-0.9,0-0.4-0.4c-0.1,0.1-0.2,0.1-0.4,0.1c-0.4,0-0.2-0.2,0.1-0.5
					c-0.1,0-0.2,0-0.4,0C407.6,48.5,407.7,48.2,408.1,48z"/>
				<path fill="#FDC896" d="M408,47.9c-0.1,0-0.1,0-0.1,0c-0.4-0.1-0.1-0.4,0.4-0.5c0.2,0,0.4-0.1,0.4-0.1c0.5-0.9,1.7-2,2.2-2.3
					l1.7,0.9c-0.2,0.2-1.2,1.5-2.1,2.3l0,0c0,0-0.4,0.4-0.4,0.6l0,0v0.1c0,0.4-0.2,0.6-0.5,0.2c-0.2-0.4-0.2-0.2-0.9,0.1
					c-0.6,0.2-0.9,0-0.4-0.4c-0.1,0.1-0.2,0.1-0.4,0.1c-0.4,0-0.2-0.2,0.1-0.5c-0.1,0-0.2,0-0.4,0C407.5,48.4,407.6,48,408,47.9z"/>
				<path fill="#FDC896" d="M422.3,46.8c0.1,0,0.1,0,0.1,0c0.4-0.1,0-0.4-0.4-0.4c-0.2,0-0.4,0-0.5-0.1c-0.6-0.7-2-1.6-2.6-2
					l-1.6,1.1c0.4,0.1,1.5,1.2,2.4,2l0,0c0,0,0.4,0.2,0.4,0.5l0,0V48c0,0.4,0.4,0.5,0.5,0.1c0.1-0.4,0.2-0.2,0.9-0.1
					c0.6,0.1,0.9-0.2,0.4-0.5c0.1,0,0.4,0,0.5,0c0.4,0,0.1-0.4-0.2-0.5c0.1,0,0.2,0,0.4,0C422.9,47.2,422.7,46.9,422.3,46.8z"/>
				<path fill="#FFFFFF" d="M419.8,44.6c-0.6,0.6-1.1,1.3-1.8,1.8c-1,0.6-1.7,0.5-2.7,0.4c-0.7,0-1.3,0-2.1,0.2
					c0.5-0.7,1.2-1.2,1.7-2c0.5-0.9,1.1-1.1,1.8-1.8C417.6,42.8,419.8,44.6,419.8,44.6z"/>
				<path fill="#FFFFFF" d="M414.1,43.1l-1.3,0.5c-1.1,0.4-0.7,0.1-2.7,1.7c0.4,0,1.6,1.1,1.8,2c0.6-0.1,1.2-0.5,1.8-0.7
					c0.1-0.6,0-1.1,0.1-1.8C414.1,44.2,414.1,43.8,414.1,43.1z"/>
				<path fill="#FFFFFF" d="M416.3,44.9c0,1-0.4,1.7-1.3,2.1c-2.2,0.7-2.4-2.8-1.5-4c0.5-0.6,1.6-1.1,2.3-0.6
					C416.9,42.9,416.3,44,416.3,44.9z"/>
				<path fill="#AFBA36" d="M412.5,43.3c0.4-0.1,0.9-0.1,1.1-0.1c0,0.7,0.4,4.3,2.2,2.8c0.6-0.5,0.2-2.4,0.2-3.2
					c0.2,0.1,0.7,0.1,1.1,0.2c0.2,1.3,0.4,1.3,0.5,2.1c0.7,4.9,3.5,6.2,3.7,6.6l0,0c-3.3,3.4-12,2.2-12.3,2.2l0,0
					c0.4-1.5,2.2-4.4,3.5-8.8C412.7,44.5,412.8,43.1,412.5,43.3L412.5,43.3z"/>
				<path fill="#CED728" d="M420.8,51.3c-3.3,2.4-9.8,1.8-11.4,1.5c-0.1,0.1-0.5,0.9-0.5,1.2c0.4,0,9,1.2,12.3-2.2
					C421.3,51.8,421,51.7,420.8,51.3z"/>
				<path opacity="0.2" enable-background="new    " d="M412.6,43.1c0,0,1.6,5.9-2.6,6.1l-0.2,0.9c0,0,5,0.9,3.7-6.6L412.6,43.1z"/>
				<path fill="#A2782B" d="M412.4,43c0,0,1.6,5.9-2.6,6.1l-0.2,0.9c0,0,5.1,0.7,3.8-6.7L412.4,43z"/>
				<path fill="#A2782B" d="M416.5,42.9c0,0,1.8,1.8,2.2,6c0,0-1-2.7-2.8-5.5L416.5,42.9z"/>
				<path fill="#FDC896" d="M421.3,34.6c-0.1,0.6-0.2,1.3-0.1,2.2c1.5-0.5,1.5,1.5,0.1,1.5c0.1,1.7-1.1,3.4-2.6,4.2
					c-0.7,0.4-1.7,0.4-2.3,0.9c-0.6,0.5-0.6,1.1-0.9,1.7c-0.6,1.3-1.3-0.4-1.8-1.1c-0.6-0.4-1.6,0.1-2.2,0.1c-4.4,0-5-2.2-5.4-3.7
					c-1.3,0.6-1.6-1.5-0.5-1.3c0-0.6-0.2-1.2-0.1-2c0.7-0.2,1.5-0.2,2.1-0.4c1.1-0.2,2.3-0.7,3.3-1.2c0.4-0.1,2.4-2,2.1-2.3
					C412.8,33,416,35.8,421.3,34.6z"/>
				<path opacity="0.2" enable-background="new    " d="M418.2,27.9c-2.6-0.4-4.8,0.4-5.9,1.5c-1.5-0.7-3.8-0.7-6,0.2
					c-3.2,1.3-5,4-4.2,5.9c0.9,1.8,4,2.2,7.2,0.9c1.6-0.7,2.9-1.8,3.7-2.9c1,0.9,2.6,1.5,4.4,1.7c1.8,0.2,3.7-0.1,4.9-0.7
					C423.1,34,421.6,28.2,418.2,27.9z"/>
				<path fill="#69452A" d="M418.2,27.6c-2.6-0.4-4.8,0.4-5.9,1.5c-1.5-0.7-3.8-0.7-6,0.2c-3.2,1.3-5.1,4.4-4.4,6.2
					c0.5,1.1,1.3,1.7,2.8,1.7c1.2,0,3.1-0.6,4.5-1.2c1.6-0.7,2.9-1.8,3.7-2.9c1,0.9,2.6,1.5,4.4,1.7c1.8,0.2,3.9,0.1,5.1-0.5
					C423.5,34,421.6,28,418.2,27.6z"/>
				<path fill="#DCA576" d="M406,39.8c0,0-0.5-0.9-1-0.4C405.3,39.4,405.9,39.6,406,39.8z"/>
				<path fill="#DCA576" d="M421.3,37.8c0,0,0.4-1,0.9-0.6C421.9,37.2,421.4,37.5,421.3,37.8z"/>
				<path opacity="0.2" enable-background="new    " d="M415.9,43.8c0,0,0.9-0.6,1.2-0.6c0.6-0.2,1-0.5,1-0.5S416.3,42.8,415.9,43.8
					z"/>
				
					<ellipse transform="matrix(-0.2191 -0.9757 0.9757 -0.2191 463.0573 447.3441)" fill="#4B3021" cx="410.5" cy="38.4" rx="1" ry="0.6"/>
				
					<ellipse transform="matrix(-0.2184 -0.9759 0.9759 -0.2184 471.9223 453.0177)" fill="#4B3021" cx="417.4" cy="37.5" rx="1" ry="0.6"/>
				<path fill="#F79A7A" d="M413.7,41.2c0.1,0.5,0.5,0.7,1.1,0.7c0.5-0.1,0.9-0.5,0.9-1c-0.1-0.5-0.4-0.1-0.9-0.1
					C414.2,40.9,413.6,40.7,413.7,41.2z"/>
				<path fill="#F79A7A" d="M409.4,40.8c0.1,0,0.1,0.1,0.2,0.1c0.6,0.2,2.3-0.1,1.3-0.9C410.4,39.7,408.4,40,409.4,40.8z"/>
				<path fill="#F79A7A" d="M419.1,39.8c0,0.1-0.1,0.1-0.2,0.2c-0.6,0.4-2.6,0.6-1.6-0.5C417.6,39,419.8,38.7,419.1,39.8z"/>
			</g>
		</g>
	</g>
	<g>
		<g>
			<g>
				<g>
					<g>
						<path fill="#69452A" d="M423.2,52.2c0.1,0.7,6.5,4,7.1,3.9c0.6-0.1,2.4-3.9,2.2-4.4c-0.1-0.4-6.1-3.5-6.6-3.4
							c0,0-0.2,0.1-0.4,0.1C424.8,49,423.1,51.7,423.2,52.2z"/>
						<path fill="#3F2B1E" d="M432.2,51.8l-2,4.5c0,0,0.2,0,0.7-0.2c0.5-0.2,1.6-4.3,1.6-4.3H432.2z"/>
						<path fill="#A2782B" d="M423,52.6c0.1,0.7,6.5,3.9,7.2,3.8c0.6-0.1,1.8-3.7,2-4.6c-0.1-0.4-6-3.4-6.5-3.3
							C425.1,48.5,423,51.9,423,52.6z"/>
						<path fill="#D4A65B" d="M424.5,52.6c0,0.5,4.8,2.8,5.3,2.8c0-0.1,1.1-2.6,1.5-3.2c-0.1-0.2-4.9-0.9-4.9-2.8
							C425.8,49.4,424.3,52.2,424.5,52.6z"/>
						<path fill="#D4A65B" d="M429.2,48.3c-1-0.1-1.7,0.9-1.7,0.9l0.6,0.2c0.2-0.2,0.6-0.7,1.1-0.6c0.9,0.1,1.1,0.9,0.7,1.6l0.5,0.2
							C430.7,49.6,430.8,48.4,429.2,48.3z"/>
					</g>
					<path fill="#6E5224" d="M431.1,52.2c0,0-4.6-2.4-4.9-2.7c0,0.2,0.2,1.3,3.2,2.2C430.5,51.9,431.1,52.2,431.1,52.2z"/>
				</g>
				<path opacity="0.2" enable-background="new    " d="M434.5,53.3l-1.8,0.5V54c0,0,1.6-0.1,1.8-0.2
					C434.5,53.4,434.5,53.3,434.5,53.3z"/>
				<path fill="#FDC896" d="M433.3,51.5c-0.1,1.1-1.5,4.2-1,5c1,2,2.7-3.1,2.6-3.9c0-1.2-0.5-1.3-1.5-1.3L433.3,51.5z"/>
				<g>
					<path fill="#CBD3E0" d="M432,55.4c0,0,0,0.1,0.6,0.1s1.5-0.1,1.5-0.1s-0.4,0.7-0.2,1c0.1,0.2-2,0.5-2,0.5S431.8,56.3,432,55.4z
						"/>
					<ellipse fill="#445E87" cx="433.1" cy="56.7" rx="1.1" ry="0.9"/>
					<path fill="#FFFFFF" d="M434.2,56.7c0,0.5-0.5,0.9-1.1,0.9s-1.1-0.4-1.1-0.9c0.1,0.5,0.7,0.7,1.2,0.2
						C433.8,56.6,434.1,56.6,434.2,56.7z"/>
					<path fill="#2B4263" d="M434.2,56.6c0,0.5-0.5,0.9-1.1,0.9c-0.5,0-1-0.4-1.1-0.7l0,0c0,0.5,0.5,0.9,1.1,0.9s1.1-0.4,1.1-0.9
						C434.2,56.7,434.2,56.7,434.2,56.6z"/>
					<path fill="#2B4263" d="M434,56.2c-0.1-0.1-0.1-0.2-0.1-0.2s0-0.1,0-0.2c0,0-0.2,0.1-1.3,0.1c-1.3,0-1.1,1.5-0.7,1
						C432.4,56.2,434.1,56.3,434,56.2z"/>
					<path fill="#445E87" d="M434,56.2c0-0.1,0-0.2,0-0.2s0-0.1,0-0.2c0,0-0.4,0.1-1.3,0.1c-1.3,0-1.1,1.5-0.7,1
						C432.3,56.2,433.9,56.3,434,56.2z"/>
					<path fill="#6D96CE" d="M432.2,56l0.2,0.5c0,0-0.2,0-0.5,0.2c-0.1-0.2-0.2-0.5-0.2-0.5S431.9,56,432.2,56z"/>
				</g>
				<path fill="#FDC896" d="M437.1,52.3c0.2,1.1,0.2,4.4,1.1,5c1.7,1.3,1.2-3.9,0.9-4.6c-0.5-1.1-1.1-1.1-1.8-0.6L437.1,52.3z"/>
				<g>
					<path fill="#CBD3E0" d="M437.4,55.6c0,0,0,0.1,0.6,0c0.7-0.1,1.5-0.2,1.5-0.2s-0.2,0.7,0,1c0.1,0.2-1.8,0.9-1.8,0.9
						S437.4,56.6,437.4,55.6z"/>
					
						<ellipse transform="matrix(-0.1432 -0.9897 0.9897 -0.1432 445.2062 499.1162)" fill="#445E87" cx="438.7" cy="56.8" rx="0.9" ry="1.1"/>
					<path fill="#FFFFFF" d="M439.7,56.6c0.1,0.5-0.4,1-1,1c-0.6,0.1-1.2-0.2-1.2-0.7c0.2,0.5,0.9,0.6,1.2,0.1
						C439.3,56.6,439.6,56.5,439.7,56.6z"/>
					<path fill="#2B4263" d="M439.7,56.6c0.1,0.5-0.4,0.9-1,1c-0.5,0.1-1-0.1-1.2-0.5l0,0c0.1,0.5,0.6,0.7,1.2,0.7
						c0.6-0.1,1.1-0.6,1-1C439.9,56.7,439.9,56.6,439.7,56.6z"/>
					<path fill="#2B4263" d="M439.5,56.2c-0.1-0.1-0.1-0.2-0.1-0.2s0-0.1,0-0.2c0,0-0.2,0.1-1.2,0.2c-1.3,0.2-1,1.6-0.6,1
						C437.9,56.5,439.6,56.2,439.5,56.2z"/>
					<path fill="#445E87" d="M439.5,56.1c0-0.1-0.1-0.2-0.1-0.2s0-0.1,0-0.2c0,0-0.2,0.1-1.3,0.4c-1.3,0.2-1,1.6-0.6,1
						C437.8,56.5,439.4,56.2,439.5,56.1z"/>
					<path fill="#6D96CE" d="M437.7,56.1l0.2,0.5c0,0-0.2,0.1-0.4,0.2c-0.1-0.1-0.2-0.4-0.2-0.4S437.4,56.2,437.7,56.1z"/>
				</g>
				<path opacity="0.2" enable-background="new    " d="M439.1,53.2l-1.8,0.5v0.2c0,0,1.6-0.1,1.8-0.2
					C439.1,53.3,439.1,53.2,439.1,53.2z"/>
				<path opacity="0.2" enable-background="new    " d="M434.6,53.5l-2-0.1l-0.1,0.2c0,0,1.6,0.4,1.8,0.4
					C434.6,53.8,434.6,53.5,434.6,53.5z"/>
				<path fill="#5C3E35" d="M423.4,36.4c-0.6-3.1,0.1-6.4,2-8.8c1.8-2.4,4.8-3.9,7.7-4.2c3.2-0.2,6.7,0.5,8.8,3.1c4,5,2,10,1.2,11
					c0.2-0.2,1.2-0.5,1.5-0.7c-0.6,2.8-2.1,4.8-4.6,5.9c-2.1,1-3.2,1.5-5.5,1.3C433,43.9,424.9,44.6,423.4,36.4z"/>
				<path fill="#FDC896" d="M441.6,49.1h0.1c0.4,0.1,0.2-0.2-0.1-0.6c-0.2-0.1-0.2-0.2-0.4-0.4c-0.1-1-0.9-2.4-1.2-2.9l-2,0.1
					c0.2,0.4,0.6,1.8,1.1,2.9l0,0c0,0,0.2,0.5,0.1,0.6l0,0c0,0,0,0.1-0.1,0.1c-0.1,0.4,0,0.6,0.4,0.4c0.4-0.2,0.4-0.1,0.7,0.4
					c0.5,0.5,0.9,0.2,0.5-0.2c0.1,0.1,0.2,0.2,0.4,0.2c0.2,0.1,0.4-0.2,0-0.5c0.1,0.1,0.2,0.1,0.4,0.1
					C441.8,49.6,441.8,49.4,441.6,49.1z"/>
				<path fill="#FDC896" d="M429.1,48.4c0.2-0.1,0.2-0.4,0.2-0.4c0.2-1,1.2-2.2,1.6-2.8l2,0.2c-0.1,0.2-0.9,1.7-1.5,2.7
					c-0.4,0.6-0.6,0.7-0.5,0.9c0,0,0,0.6-0.2,0.6c0-0.1-0.4-0.2-0.6,0.1c-0.4-0.1-0.1-0.4-0.4-0.4c-0.1,0-0.4-0.1-0.4-0.2
					s-0.2,0-0.2-0.1c0-0.1-0.1,0-0.2-0.1C428.7,48.6,429,48.4,429.1,48.4z"/>
				<path fill="#445E87" d="M432,53.4h-0.1c0.4-1.3,0.6-2.8,0.7-3.5c0-0.1,0.1-0.6,0.1-0.7c0.5-0.4,1.3-0.2,2-0.2
					c1.1,0,2.2,0,3.3,0.1c0.5,1.2,0.7,1.7,1.1,2.9c0.1,0.5,0.4,0.9,0.5,1.6c-0.9,0.4-1.6,0.4-2.9,0.5c-0.2-1-0.7-2-1-2.7
					c-0.1,0.6-0.4,1-0.5,1.7c0,0.2-0.1,0.6-0.1,1C435,53.8,433.3,53.9,432,53.4z"/>
				<path fill="#04B9CA" d="M437.2,42.9c-1.2-0.5-2.8-0.2-3.9,0.2l0,0c-1.6,0.1-2.8,2.4-2.8,2.4c0.2-0.1,1.8,1.5,1.8,1.5l0.4-0.9
					l0,0c-0.1,1.6-0.2,3.2-0.4,3.7c0.6,0.1,4.3,0.1,6.4-0.5c-0.1-0.6-0.4-2-0.4-3.4l0.4,0.9c0,0,1.5-1.7,1.7-1.6
					C440.2,45.3,438.9,42.9,437.2,42.9z"/>
				<path fill="#FDC896" d="M441.9,33.7c-0.1,0.6-0.1,1.3-0.1,2.2c1.5-0.5,1.5,1.5,0.1,1.5c0.1,1.7-1,3.3-2.4,4
					c-0.7,0.4-1.7,0.5-2.3,0.9c-0.6,0.5-0.6,1.1-0.9,1.7c-0.6,1.3-1.1-0.5-1.8-1.1c-0.6-0.4-1.6,0.1-2.2,0.1c-0.9,0-1.6,0-2.4-0.2
					c-1.6-0.4-2.6-1.8-3.1-3.3c-1.3,0.6-1.6-1.3-0.5-1.3c0-0.6-0.2-1.2-0.2-1.8c0.7-0.2,1.6-0.4,2.3-0.5c2.7-0.6,6.8-1.7,8.1-4.5
					C436.7,31.4,437.5,34,441.9,33.7z"/>
				<path fill="#1A9AA0" d="M437.9,43.6l0.2,2.4l0.2,0.6C438.4,46.7,438.2,44.7,437.9,43.6z"/>
				
					<ellipse transform="matrix(-0.2366 -0.9716 0.9716 -0.2366 497.1785 465.3986)" fill="#4B3021" cx="431.4" cy="37.4" rx="1" ry="0.6"/>
				
					<ellipse transform="matrix(-0.2375 -0.9714 0.9714 -0.2375 506.8284 470.7064)" fill="#4B3021" cx="438.1" cy="36.4" rx="1" ry="0.6"/>
				<path fill="#F79A7A" d="M434.6,40.1c0,0.5,0.5,0.9,1,0.7c0.5,0,0.9-0.5,0.9-0.9c0-0.5-0.4-0.2-0.9-0.1
					C435.1,40,434.6,39.6,434.6,40.1z"/>
				<path fill="#F79A7A" d="M430.3,39.8c0.1,0,0.1,0.1,0.2,0.1c0.6,0.2,2.3-0.1,1.2-0.9C431.3,38.7,429.4,39.1,430.3,39.8z"/>
				<path fill="#F79A7A" d="M439.9,38.7c0,0.1-0.1,0.1-0.2,0.2c-0.6,0.4-2.4,0.7-1.6-0.5C438.4,38,440.6,37.6,439.9,38.7z"/>
			</g>
		</g>
	</g>
</g>
</svg>
