<?xml version="1.0" encoding="utf-8"?>
<!-- Generated by IcoMoon.io -->
<!DOCTYPE svg PUBLIC "-//W3C//DTD SVG 1.1//EN" "http://www.w3.org/Graphics/SVG/1.1/DTD/svg11.dtd">
<svg version="1.1" xmlns="http://www.w3.org/2000/svg" xmlns:xlink="http://www.w3.org/1999/xlink" width="46" height="32" viewBox="0 0 46 32">
<g id="icomoon-ignore">
	<line stroke-width="1" x1="" y1="" x2="" y2="" stroke="#449FDB" opacity=""></line>
</g>
	<path d="M23.786 15.972c0 5.008-4.060 9.068-9.068 9.068s-9.068-4.060-9.068-9.068c0-5.008 4.060-9.068 9.068-9.068s9.068 4.060 9.068 9.068z" fill="#9CAC3C" fill="#000000"></path>
	<path d="M14.718 30.463c-0.229 0-0.414-0.185-0.414-0.413v-16.87c0-0.229 0.185-0.414 0.414-0.414s0.414 0.185 0.414 0.414v16.87c0 0.228-0.185 0.413-0.413 0.413v0z" fill="#F2EFDC" fill="#000000"></path>
	<path d="M14.718 18.97c-0.096 0-0.192-0.033-0.271-0.101-0.173-0.149-0.191-0.411-0.042-0.584l2.688-3.102c0.149-0.173 0.411-0.191 0.584-0.042s0.191 0.411 0.042 0.584l-2.688 3.102c-0.082 0.094-0.197 0.142-0.313 0.142v0z" fill="#F2EFDC" fill="#000000"></path>
	<path d="M14.718 20.35c-0.116 0-0.231-0.049-0.313-0.143l-2.689-3.102c-0.149-0.173-0.131-0.434 0.042-0.584s0.434-0.131 0.584 0.042l2.689 3.102c0.149 0.173 0.131 0.434-0.042 0.583-0.078 0.068-0.174 0.101-0.271 0.101v0z" fill="#F2EFDC" fill="#000000"></path>
	<path d="M14.718 22.832c-0.096 0-0.192-0.033-0.271-0.101-0.173-0.149-0.191-0.411-0.042-0.584l2.688-3.103c0.149-0.173 0.41-0.192 0.584-0.042s0.191 0.411 0.042 0.584l-2.688 3.103c-0.082 0.094-0.197 0.142-0.313 0.142v0z" fill="#F2EFDC" fill="#000000"></path>
	<path d="M41.216 13.871c0 6.297-5.105 11.402-11.402 11.402s-11.402-5.105-11.402-11.402c0-6.297 5.105-11.402 11.402-11.402s11.402 5.105 11.402 11.402z" fill="#8FA000" fill="#000000"></path>
	<path d="M29.815 29.762c-0.229 0-0.413-0.185-0.413-0.414v-16.869c0-0.229 0.185-0.414 0.413-0.414s0.414 0.185 0.414 0.414v16.87c-0 0.228-0.185 0.413-0.414 0.413v0z" fill="#F2EFDC" fill="#000000"></path>
	<path d="M29.814 18.27c-0.096 0-0.192-0.033-0.271-0.101-0.173-0.149-0.191-0.411-0.042-0.584l2.688-3.102c0.15-0.173 0.411-0.191 0.584-0.042s0.191 0.411 0.042 0.584l-2.688 3.102c-0.082 0.094-0.197 0.142-0.313 0.142v0z" fill="#F2EFDC" fill="#000000"></path>
	<path d="M29.815 19.65c-0.116 0-0.231-0.048-0.313-0.143l-2.689-3.102c-0.149-0.173-0.131-0.434 0.042-0.583s0.434-0.131 0.584 0.042l2.689 3.102c0.149 0.173 0.131 0.434-0.042 0.584-0.079 0.068-0.175 0.101-0.271 0.101v0z" fill="#F2EFDC" fill="#000000"></path>
	<path d="M29.814 22.132c-0.096 0-0.192-0.033-0.271-0.101-0.173-0.149-0.191-0.411-0.042-0.583l2.688-3.103c0.149-0.173 0.411-0.191 0.584-0.042s0.191 0.411 0.042 0.584l-2.688 3.103c-0.082 0.094-0.197 0.142-0.313 0.142v0z" fill="#F2EFDC" fill="#000000"></path>
</svg>
