<?xml version="1.0" encoding="utf-8"?>
<!-- Generated by IcoMoon.io -->
<!DOCTYPE svg PUBLIC "-//W3C//DTD SVG 1.1//EN" "http://www.w3.org/Graphics/SVG/1.1/DTD/svg11.dtd">
<svg version="1.1" xmlns="http://www.w3.org/2000/svg" xmlns:xlink="http://www.w3.org/1999/xlink" width="135" height="32" viewBox="0 0 135 32">
<g id="icomoon-ignore">
	<line stroke-width="1" x1="" y1="" x2="" y2="" stroke="#449FDB" opacity=""></line>
</g>
	<path d="M129.587 27.768c-10.849-3.104-13.643-11.673-29.067-11.673-15.202 0-17.63 8.733-28.433 11.673h57.5z" fill="#BDCE31" fill="#000000"></path>
	<path d="M78.869 27.768c-4.697-4.442-5.907-16.705-12.585-16.705-6.582 0-7.634 12.497-12.31 16.705h24.895z" fill="#BDCE31" fill="#000000"></path>
	<path d="M95.183 16.833c-0.056-1.947-0.127-3.89-0.147-5.83-0.003-0.266-0.112-0.437-0.248-0.384s-0.247 0.3-0.25 0.55c-0.019 1.893-0.091 3.781-0.145 5.665h0.791z" fill="#BDCE31" fill="#000000"></path>
	<path d="M94.927 10.548c0.043 0.090 0.005 0.196-0.084 0.239s-0.196 0.005-0.238-0.084c-0.043-0.089-0.005-0.196 0.084-0.239s0.196-0.005 0.239 0.084z" fill="#FFFFFF" fill="#000000"></path>
	<path d="M99.553 16.909c-0.056-3.123-0.127-6.239-0.147-9.35-0.003-0.427-0.112-0.701-0.248-0.616-0.135 0.087-0.247 0.482-0.25 0.881-0.019 3.036-0.091 6.063-0.145 9.084h0.791z" fill="#BDCE31" fill="#000000"></path>
	<path d="M105.246 16.698c-0.056-1.947-0.127-3.89-0.147-5.83-0.003-0.266-0.112-0.437-0.248-0.384s-0.247 0.3-0.25 0.55c-0.019 1.893-0.091 3.781-0.145 5.665h0.791z" fill="#BDCE31" fill="#000000"></path>
	<path d="M111.686 18.308c-0.056-1.948-0.127-3.89-0.147-5.831-0.003-0.266-0.112-0.437-0.248-0.384-0.135 0.054-0.247 0.3-0.25 0.55-0.019 1.893-0.091 3.781-0.145 5.665h0.791z" fill="#BDCE31" fill="#000000"></path>
	<path d="M111.431 12.024c0.043 0.090 0.005 0.196-0.084 0.239s-0.196 0.005-0.238-0.084c-0.043-0.089-0.005-0.196 0.084-0.238s0.196-0.005 0.239 0.084z" fill="#FFFFFF" fill="#000000"></path>
	<path d="M83.196 4.363l-0.484-0.421c-0.121-0.105-0.319-0.278-0.441-0.383l-0.483-0.421c-0.121-0.106-0.32-0.106-0.441 0l-0.484 0.421c-0.121 0.106-0.32 0.279-0.441 0.383l-0.484 0.421c-0.121 0.105-0.089 0.192 0.072 0.192h0.26v1.584c0 0.077 0.063 0.14 0.14 0.14h0.245v-1.422h0.736v1.422h1.331c0.078 0 0.14-0.063 0.14-0.14v-1.585h0.26c0.161 0 0.194-0.087 0.073-0.192zM82.461 5.211h-0.665v-0.561h0.665v0.561z" fill="#8FA000" fill="#000000"></path>
	<path d="M85.798 5.946l-0.377-0.328c-0.094-0.082-0.249-0.216-0.343-0.299l-0.376-0.328c-0.094-0.082-0.249-0.082-0.343 0l-0.377 0.328c-0.094 0.082-0.249 0.217-0.343 0.299l-0.377 0.328c-0.094 0.082-0.069 0.149 0.056 0.149h0.203v1.235c0 0.060 0.049 0.109 0.109 0.109h1.801c0.060 0 0.11-0.049 0.11-0.109v-1.235h0.203c0.125 0 0.15-0.067 0.056-0.149zM85.225 6.607h-0.518v-0.437h0.518v0.437z" fill="#8FA000" fill="#000000"></path>
	<path d="M80.432 5.919l-0.377-0.328c-0.094-0.082-0.249-0.216-0.343-0.299l-0.376-0.328c-0.094-0.082-0.249-0.082-0.343 0l-0.377 0.328c-0.094 0.082-0.249 0.217-0.343 0.299l-0.377 0.328c-0.095 0.082-0.069 0.149 0.056 0.149h0.203v1.235c0 0.060 0.049 0.109 0.109 0.109h1.801c0.060 0 0.11-0.049 0.11-0.109v-1.235h0.203c0.125 0 0.15-0.067 0.056-0.149z" fill="#8FA000" fill="#000000"></path>
	<path d="M42.123 27.5c-5.46-2.292-6.866-8.621-14.629-8.621-7.651 0-8.873 6.45-14.31 8.621h28.939z" fill="#BDCE31" fill="#000000"></path>
	<path d="M131.009 26.641c-0.356 0.069-30.414-0.013-30.801-0.013-9.335 0-9.335-20.931-18.669-20.931s-9.334 20.931-18.668 20.931-9.334-20.931-18.668-20.931c-8.491 0-8.891 18.339-16.353 20.449-3.768 1.066-18.527 0.395-19.333 0.663l-5.226 2.235h127.614l0.103-2.403z" fill="#A1B400" fill="#000000"></path>
	<path d="M43.674 5.724c-0.070 0.006-0.139 0.012-0.208 0.021-0.066 0.009-0.131 0.021-0.197 0.032-0.050 0.009-0.101 0.016-0.151 0.026-0.075 0.015-0.149 0.033-0.223 0.051-0.037 0.009-0.075 0.018-0.111 0.027-0.082 0.022-0.163 0.046-0.244 0.072-0.026 0.008-0.052 0.016-0.078 0.025-0.087 0.029-0.174 0.061-0.26 0.095-0.017 0.006-0.033 0.013-0.050 0.020-0.092 0.038-0.184 0.077-0.274 0.12-0.008 0.004-0.016 0.008-0.023 0.011-0.097 0.046-0.192 0.094-0.286 0.146 0.015-0 0.029-0.002 0.045-0.002 7.373 0 8.454 20.73 14.804 20.73 1.248 0 6.538 0.363 7.656-0.593-0.384 0.081-0.784 0.124-1.203 0.124-8.874 0-9.312-18.92-17.355-20.783-0.040-0.009-0.080-0.018-0.121-0.027-0.033-0.007-0.067-0.014-0.1-0.020-0.11-0.020-0.22-0.038-0.331-0.052-0.006-0.001-0.013-0.002-0.019-0.002-0.118-0.015-0.237-0.026-0.357-0.034-0.008-0-0.016-0.001-0.024-0.001-0.12-0.007-0.241-0.012-0.362-0.012-0.127 0-0.252 0.005-0.376 0.013-0.052 0.004-0.103 0.010-0.154 0.015z" fill="#8FA000" fill="#000000"></path>
	<path d="M100.208 26.628c-9.335 0-9.335-20.931-18.669-20.931-2.603 0-4.48 1.628-6.036 3.976 3.441 5.898 4.83 17.626 10.349 17.626 0.306 0 28.473-0.037 28.754-0.106h16.3l0.003-0.552c-0.356 0.069-30.313-0.013-30.7-0.013z" fill="#8FA000" fill="#000000"></path>
	<path d="M14.621 27.887c0 0.624-0.506 1.129-1.13 1.129h-10.259c-0.624 0-1.13-0.505-1.13-1.129v0c0-0.624 0.505-1.129 1.13-1.129h10.259c0.623 0 1.129 0.506 1.129 1.129v0z" fill="#A1B400" fill="#000000"></path>
	<path d="M132.83 27.835c0 0.661-0.536 1.197-1.197 1.197h-7.68c-0.661 0-1.197-0.536-1.197-1.197v0c0-0.661 0.536-1.197 1.197-1.197h7.68c0.661 0 1.197 0.536 1.197 1.197v0z" fill="#A1B400" fill="#000000"></path>
	<path d="M131.656 26.918c0 0.144-0.116 0.26-0.26 0.26h-17.427c-0.144 0-0.26-0.117-0.26-0.26v0c0-0.144 0.116-0.26 0.26-0.26h17.427c0.144 0 0.26 0.117 0.26 0.26v0z" fill="#8FA000" fill="#000000"></path>
</svg>
