<?xml version="1.0" encoding="utf-8"?>
<!-- Generated by IcoMoon.io -->
<!DOCTYPE svg PUBLIC "-//W3C//DTD SVG 1.1//EN" "http://www.w3.org/Graphics/SVG/1.1/DTD/svg11.dtd">
<svg version="1.1" xmlns="http://www.w3.org/2000/svg" xmlns:xlink="http://www.w3.org/1999/xlink" width="22" height="32" viewBox="0 0 22 32">
<g id="icomoon-ignore">
	<line stroke-width="1" x1="" y1="" x2="" y2="" stroke="#449FDB" opacity=""></line>
</g>
	<path d="M4.252 5.265l-0.466-0.449-1.878 4.371h1.071l1.444-3.43z" fill="#42779C" fill="#000000"></path>
	<path d="M6.483 8.717h12.724v18.958h-12.724v-18.958z" fill="#C4E7E6" fill="#000000"></path>
	<path d="M6.483 27.675l0.003-19.033-2.1-3.625-1.736 4.043v18.539z" fill="#59B4BC" fill="#000000"></path>
	<path d="M5.85 8.749h14.083l-1.972-3.929-14.176-0.005z" fill="#0E878E" fill="#000000"></path>
	<path d="M16.212 10.255h1.595v1.862h-1.595v-1.862z" fill="#FFFFFF" fill="#000000"></path>
	<path d="M17.291 10.255h0.516v1.862h-0.516v-1.862z" fill="#63C8D1" fill="#000000"></path>
	<path d="M12.068 10.255h1.595v1.862h-1.595v-1.862z" fill="#FFFFFF" fill="#000000"></path>
	<path d="M13.147 10.255h0.516v1.862h-0.516v-1.862z" fill="#63C8D1" fill="#000000"></path>
	<path d="M7.925 10.255h1.595v1.862h-1.595v-1.862z" fill="#FFFFFF" fill="#000000"></path>
	<path d="M9.004 10.255h0.516v1.862h-0.516v-1.862z" fill="#63C8D1" fill="#000000"></path>
	<path d="M3.304 10.339h0.833v1.862h-0.833v-1.862z" fill="#FFFFFF" fill="#000000"></path>
	<path d="M3.304 10.339h0.269v1.862h-0.269v-1.862z" fill="#0E878E" fill="#000000"></path>
	<path d="M4.967 10.339h0.834v1.862h-0.834v-1.862z" fill="#FFFFFF" fill="#000000"></path>
	<path d="M4.967 10.339h0.27v1.862h-0.27v-1.862z" fill="#0E878E" fill="#000000"></path>
	<path d="M3.304 13.173h0.833v1.862h-0.833v-1.862z" fill="#FFFFFF" fill="#000000"></path>
	<path d="M3.304 13.173h0.269v1.862h-0.269v-1.862z" fill="#0E878E" fill="#000000"></path>
	<path d="M4.967 13.173h0.834v1.862h-0.834v-1.862z" fill="#FFFFFF" fill="#000000"></path>
	<path d="M4.967 13.173h0.27v1.862h-0.27v-1.862z" fill="#0E878E" fill="#000000"></path>
	<path d="M3.304 16.006h0.833v1.862h-0.833v-1.862z" fill="#FFFFFF" fill="#000000"></path>
	<path d="M3.304 16.006h0.269v1.862h-0.269v-1.862z" fill="#0E878E" fill="#000000"></path>
	<path d="M4.967 16.006h0.834v1.862h-0.834v-1.862z" fill="#FFFFFF" fill="#000000"></path>
	<path d="M4.967 16.006h0.27v1.862h-0.27v-1.862z" fill="#0E878E" fill="#000000"></path>
	<path d="M3.304 18.839h0.833v1.862h-0.833v-1.862z" fill="#FFFFFF" fill="#000000"></path>
	<path d="M3.304 18.839h0.269v1.862h-0.269v-1.862z" fill="#0E878E" fill="#000000"></path>
	<path d="M4.967 18.839h0.834v1.862h-0.834v-1.862z" fill="#FFFFFF" fill="#000000"></path>
	<path d="M4.967 18.839h0.27v1.862h-0.27v-1.862z" fill="#0E878E" fill="#000000"></path>
	<path d="M3.304 21.673h0.833v1.862h-0.833v-1.862z" fill="#FFFFFF" fill="#000000"></path>
	<path d="M3.304 21.673h0.269v1.862h-0.269v-1.862z" fill="#0E878E" fill="#000000"></path>
	<path d="M4.967 21.673h0.834v1.862h-0.834v-1.862z" fill="#FFFFFF" fill="#000000"></path>
	<path d="M4.967 21.673h0.27v1.862h-0.27v-1.862z" fill="#0E878E" fill="#000000"></path>
	<path d="M3.304 24.506h0.833v1.862h-0.833v-1.862z" fill="#FFFFFF" fill="#000000"></path>
	<path d="M3.304 24.506h0.269v1.862h-0.269v-1.862z" fill="#0E878E" fill="#000000"></path>
	<path d="M4.967 24.506h0.834v1.862h-0.834v-1.862z" fill="#FFFFFF" fill="#000000"></path>
	<path d="M4.967 24.506h0.27v1.862h-0.27v-1.862z" fill="#0E878E" fill="#000000"></path>
	<path d="M16.212 13.779h1.595v1.862h-1.595v-1.862z" fill="#FFFFFF" fill="#000000"></path>
	<path d="M17.291 13.779h0.516v1.862h-0.516v-1.862z" fill="#63C8D1" fill="#000000"></path>
	<path d="M12.068 13.779h1.595v1.862h-1.595v-1.862z" fill="#FFFFFF" fill="#000000"></path>
	<path d="M13.147 13.779h0.516v1.862h-0.516v-1.862z" fill="#63C8D1" fill="#000000"></path>
	<path d="M7.925 13.779h1.595v1.862h-1.595v-1.862z" fill="#FFFFFF" fill="#000000"></path>
	<path d="M9.004 13.779h0.516v1.862h-0.516v-1.862z" fill="#63C8D1" fill="#000000"></path>
	<path d="M16.212 17.302h1.595v1.862h-1.595v-1.862z" fill="#FFFFFF" fill="#000000"></path>
	<path d="M17.291 17.302h0.516v1.862h-0.516v-1.862z" fill="#63C8D1" fill="#000000"></path>
	<path d="M12.068 17.302h1.595v1.862h-1.595v-1.862z" fill="#FFFFFF" fill="#000000"></path>
	<path d="M13.147 17.302h0.516v1.862h-0.516v-1.862z" fill="#63C8D1" fill="#000000"></path>
	<path d="M7.925 17.302h1.595v1.862h-1.595v-1.862z" fill="#FFFFFF" fill="#000000"></path>
	<path d="M9.004 17.302h0.516v1.862h-0.516v-1.862z" fill="#63C8D1" fill="#000000"></path>
	<path d="M16.212 20.825h1.595v1.862h-1.595v-1.862z" fill="#FFFFFF" fill="#000000"></path>
	<path d="M17.291 20.825h0.516v1.862h-0.516v-1.862z" fill="#63C8D1" fill="#000000"></path>
	<path d="M12.068 20.825h1.595v1.862h-1.595v-1.862z" fill="#FFFFFF" fill="#000000"></path>
	<path d="M13.147 20.825h0.516v1.862h-0.516v-1.862z" fill="#63C8D1" fill="#000000"></path>
	<path d="M7.925 20.825h1.595v1.862h-1.595v-1.862z" fill="#FFFFFF" fill="#000000"></path>
	<path d="M9.004 20.825h0.516v1.862h-0.516v-1.862z" fill="#63C8D1" fill="#000000"></path>
	<path d="M16.212 24.349h1.595v1.862h-1.595v-1.862z" fill="#FFFFFF" fill="#000000"></path>
	<path d="M17.291 24.349h0.516v1.862h-0.516v-1.862z" fill="#63C8D1" fill="#000000"></path>
	<path d="M12.068 24.349h1.595v1.862h-1.595v-1.862z" fill="#FFFFFF" fill="#000000"></path>
	<path d="M13.147 24.349h0.516v1.862h-0.516v-1.862z" fill="#63C8D1" fill="#000000"></path>
	<path d="M7.925 24.349h1.595v1.862h-1.595v-1.862z" fill="#FFFFFF" fill="#000000"></path>
	<path d="M9.004 24.349h0.516v1.862h-0.516v-1.862z" fill="#63C8D1" fill="#000000"></path>
</svg>
