<?xml version="1.0" encoding="utf-8"?>
<!-- Generated by IcoMoon.io -->
<!DOCTYPE svg PUBLIC "-//W3C//DTD SVG 1.1//EN" "http://www.w3.org/Graphics/SVG/1.1/DTD/svg11.dtd">
<svg version="1.1" xmlns="http://www.w3.org/2000/svg" xmlns:xlink="http://www.w3.org/1999/xlink" width="27" height="32" viewBox="0 0 27 32">
<g id="icomoon-ignore">
	<line stroke-width="1" x1="" y1="" x2="" y2="" stroke="#449FDB" opacity=""></line>
</g>
	<path d="M22.274 2.45l0.566-0.546 2.28 5.306h-1.3l-1.753-4.164z" fill="#4D6E7D" fill="#000000"></path>
	<path d="M4.118 6.64h15.446v23.013h-15.446v-23.013z" fill="#59B4BC" fill="#000000"></path>
	<path d="M19.564 29.653l-0.003-23.104 2.55-4.4 2.108 4.908v22.504z" fill="#C4E7E6" fill="#000000"></path>
	<path d="M7.024 19.424h8.142v10.199h-8.142v-10.199z" fill="#59B4BC" fill="#000000"></path>
	<path d="M18.022 15.033v14.663h-2.857v-12.012z" fill="#D8E2E7" fill="#000000"></path>
	<path d="M15.209 19.808h-9.58l2.393-4.77 9.693-0.006z" fill="#15939A" fill="#000000"></path>
	<path d="M20.333 6.68h-17.095l2.393-4.769 17.208-0.006z" fill="#15939A" fill="#000000"></path>
	<path d="M15.538 19.801l-0.329 0.007 2.507-4.775h0.333z" fill="#4D6E7D" fill="#000000"></path>
	<path d="M5.82 8.508h1.936v2.26h-1.936v-2.26z" fill="#FFFFFF" fill="#000000"></path>
	<path d="M5.82 8.508h0.626v2.26h-0.626v-2.26z" fill="#4B9BA2" fill="#000000"></path>
	<path d="M9.236 24.866h2.695v4.743h-2.695v-4.743z" fill="#FFFFFF" fill="#000000"></path>
	<path d="M9.236 24.866h0.872v4.743h-0.872v-4.743z" fill="#4B9BA2" fill="#000000"></path>
	<path d="M10.849 8.508h1.936v2.26h-1.936v-2.26z" fill="#FFFFFF" fill="#000000"></path>
	<path d="M10.849 8.508h0.626v2.26h-0.626v-2.26z" fill="#4B9BA2" fill="#000000"></path>
	<path d="M7.907 20.811h1.935v2.224h-1.936v-2.224z" fill="#FFFFFF" fill="#000000"></path>
	<path d="M7.907 20.811h0.626v2.224h-0.626v-2.224z" fill="#4B9BA2" fill="#000000"></path>
	<path d="M11.684 20.811h1.936v2.224h-1.936v-2.224z" fill="#FFFFFF" fill="#000000"></path>
	<path d="M11.684 20.811h0.626v2.224h-0.626v-2.224z" fill="#4B9BA2" fill="#000000"></path>
	<path d="M15.879 8.508h1.936v2.26h-1.936v-2.26z" fill="#FFFFFF" fill="#000000"></path>
	<path d="M15.879 8.508h0.626v2.26h-0.626v-2.26z" fill="#4B9BA2" fill="#000000"></path>
	<path d="M22.413 8.61h1.012v2.26h-1.012v-2.26z" fill="#FFFFFF" fill="#000000"></path>
	<path d="M23.097 8.61h0.327v2.26h-0.327v-2.26z" fill="#59B4BC" fill="#000000"></path>
	<path d="M20.393 8.61h1.012v2.26h-1.012v-2.26z" fill="#FFFFFF" fill="#000000"></path>
	<path d="M21.078 8.61h0.328v2.26h-0.328v-2.26z" fill="#59B4BC" fill="#000000"></path>
	<path d="M22.413 12.049h1.012v2.26h-1.012v-2.26z" fill="#FFFFFF" fill="#000000"></path>
	<path d="M23.097 12.049h0.327v2.26h-0.327v-2.26z" fill="#59B4BC" fill="#000000"></path>
	<path d="M20.393 12.049h1.012v2.26h-1.012v-2.26z" fill="#FFFFFF" fill="#000000"></path>
	<path d="M21.078 12.049h0.328v2.26h-0.328v-2.26z" fill="#59B4BC" fill="#000000"></path>
	<path d="M22.413 15.488h1.012v2.26h-1.012v-2.26z" fill="#FFFFFF" fill="#000000"></path>
	<path d="M23.097 15.488h0.327v2.26h-0.327v-2.26z" fill="#59B4BC" fill="#000000"></path>
	<path d="M20.393 15.488h1.012v2.26h-1.012v-2.26z" fill="#FFFFFF" fill="#000000"></path>
	<path d="M21.078 15.488h0.328v2.26h-0.328v-2.26z" fill="#59B4BC" fill="#000000"></path>
	<path d="M22.413 18.928h1.012v2.26h-1.012v-2.26z" fill="#FFFFFF" fill="#000000"></path>
	<path d="M23.097 18.928h0.327v2.26h-0.327v-2.26z" fill="#59B4BC" fill="#000000"></path>
	<path d="M20.393 18.928h1.012v2.26h-1.012v-2.26z" fill="#FFFFFF" fill="#000000"></path>
	<path d="M21.078 18.928h0.328v2.26h-0.328v-2.26z" fill="#59B4BC" fill="#000000"></path>
	<path d="M22.413 22.367h1.012v2.26h-1.012v-2.26z" fill="#FFFFFF" fill="#000000"></path>
	<path d="M23.097 22.367h0.327v2.26h-0.327v-2.26z" fill="#59B4BC" fill="#000000"></path>
	<path d="M20.393 22.367h1.012v2.26h-1.012v-2.26z" fill="#FFFFFF" fill="#000000"></path>
	<path d="M21.078 22.367h0.328v2.26h-0.328v-2.26z" fill="#59B4BC" fill="#000000"></path>
	<path d="M22.413 25.807h1.012v2.26h-1.012v-2.26z" fill="#FFFFFF" fill="#000000"></path>
	<path d="M23.097 25.807h0.327v2.26h-0.327v-2.26z" fill="#59B4BC" fill="#000000"></path>
	<path d="M20.393 25.807h1.012v2.26h-1.012v-2.26z" fill="#FFFFFF" fill="#000000"></path>
	<path d="M21.078 25.807h0.328v2.26h-0.328v-2.26z" fill="#59B4BC" fill="#000000"></path>
	<path d="M5.82 11.902h1.936v2.26h-1.936v-2.26z" fill="#FFFFFF" fill="#000000"></path>
	<path d="M5.82 11.902h0.626v2.26h-0.626v-2.26z" fill="#4B9BA2" fill="#000000"></path>
	<path d="M10.849 11.902h1.936v2.26h-1.936v-2.26z" fill="#FFFFFF" fill="#000000"></path>
	<path d="M10.849 11.902h0.626v2.26h-0.626v-2.26z" fill="#4B9BA2" fill="#000000"></path>
	<path d="M15.879 11.902h1.936v2.26h-1.936v-2.26z" fill="#FFFFFF" fill="#000000"></path>
	<path d="M15.879 11.902h0.626v2.26h-0.626v-2.26z" fill="#4B9BA2" fill="#000000"></path>
</svg>
