<?xml version="1.0" encoding="utf-8"?>
<!-- Generated by IcoMoon.io -->
<!DOCTYPE svg PUBLIC "-//W3C//DTD SVG 1.1//EN" "http://www.w3.org/Graphics/SVG/1.1/DTD/svg11.dtd">
<svg version="1.1" xmlns="http://www.w3.org/2000/svg" xmlns:xlink="http://www.w3.org/1999/xlink" width="8" height="32" viewBox="0 0 8 32">
<g id="icomoon-ignore">
	<line stroke-width="1" x1="" y1="" x2="" y2="" stroke="#449FDB" opacity=""></line>
</g>
	<path d="M2.738 3.587h2.887v0.742h-2.887v-0.742z" fill="#FFFFFF" fill="#000000"></path>
	<path d="M1.454 14.73h5.428v15.89h-5.428v-15.89z" fill="#C4E7E6" fill="#000000"></path>
	<path d="M1.879 14.73h4.577v15.89h-4.577v-15.89z" fill="#59B4BC" fill="#000000"></path>
	<path d="M5.335 27.606h0.556v0.636h-0.556v-0.636z" fill="#FFFFFF" fill="#000000"></path>
	<path d="M5.711 27.606h0.18v0.636h-0.18v-0.636z" fill="#798F94" fill="#000000"></path>
	<path d="M3.889 27.606h0.556v0.636h-0.556v-0.636z" fill="#FFFFFF" fill="#000000"></path>
	<path d="M4.266 27.606h0.18v0.636h-0.18v-0.636z" fill="#4B9BA2" fill="#000000"></path>
	<path d="M2.444 27.606h0.556v0.636h-0.556v-0.636z" fill="#FFFFFF" fill="#000000"></path>
	<path d="M2.821 27.606h0.18v0.636h-0.18v-0.636z" fill="#4B9BA2" fill="#000000"></path>
	<path d="M5.335 26.388h0.556v0.636h-0.556v-0.636z" fill="#FFFFFF" fill="#000000"></path>
	<path d="M5.711 26.388h0.18v0.636h-0.18v-0.636z" fill="#4B9BA2" fill="#000000"></path>
	<path d="M3.889 26.388h0.556v0.636h-0.556v-0.636z" fill="#FFFFFF" fill="#000000"></path>
	<path d="M4.266 26.388h0.18v0.636h-0.18v-0.636z" fill="#4B9BA2" fill="#000000"></path>
	<path d="M2.444 26.388h0.556v0.636h-0.556v-0.636z" fill="#FFFFFF" fill="#000000"></path>
	<path d="M2.821 26.388h0.18v0.636h-0.18v-0.636z" fill="#4B9BA2" fill="#000000"></path>
	<path d="M5.335 25.17h0.556v0.636h-0.556v-0.636z" fill="#FFFFFF" fill="#000000"></path>
	<path d="M5.711 25.17h0.18v0.636h-0.18v-0.636z" fill="#4B9BA2" fill="#000000"></path>
	<path d="M3.889 25.17h0.556v0.636h-0.556v-0.636z" fill="#FFFFFF" fill="#000000"></path>
	<path d="M4.266 25.17h0.18v0.636h-0.18v-0.636z" fill="#4B9BA2" fill="#000000"></path>
	<path d="M2.444 25.17h0.556v0.636h-0.556v-0.636z" fill="#FFFFFF" fill="#000000"></path>
	<path d="M2.821 25.17h0.18v0.636h-0.18v-0.636z" fill="#4B9BA2" fill="#000000"></path>
	<path d="M5.335 23.952h0.556v0.636h-0.556v-0.636z" fill="#FFFFFF" fill="#000000"></path>
	<path d="M5.711 23.952h0.18v0.636h-0.18v-0.636z" fill="#4B9BA2" fill="#000000"></path>
	<path d="M3.889 23.952h0.556v0.636h-0.556v-0.636z" fill="#FFFFFF" fill="#000000"></path>
	<path d="M4.266 23.952h0.18v0.636h-0.18v-0.636z" fill="#4B9BA2" fill="#000000"></path>
	<path d="M2.444 23.952h0.556v0.636h-0.556v-0.636z" fill="#FFFFFF" fill="#000000"></path>
	<path d="M2.821 23.952h0.18v0.636h-0.18v-0.636z" fill="#4B9BA2" fill="#000000"></path>
	<path d="M5.335 22.734h0.556v0.636h-0.556v-0.636z" fill="#FFFFFF" fill="#000000"></path>
	<path d="M5.711 22.734h0.18v0.636h-0.18v-0.636z" fill="#4B9BA2" fill="#000000"></path>
	<path d="M3.889 22.734h0.556v0.636h-0.556v-0.636z" fill="#FFFFFF" fill="#000000"></path>
	<path d="M4.266 22.734h0.18v0.636h-0.18v-0.636z" fill="#4B9BA2" fill="#000000"></path>
	<path d="M2.444 22.734h0.556v0.636h-0.556v-0.636z" fill="#FFFFFF" fill="#000000"></path>
	<path d="M2.821 22.734h0.18v0.636h-0.18v-0.636z" fill="#4B9BA2" fill="#000000"></path>
	<path d="M5.335 21.516h0.556v0.636h-0.556v-0.636z" fill="#FFFFFF" fill="#000000"></path>
	<path d="M5.711 21.516h0.18v0.636h-0.18v-0.636z" fill="#4B9BA2" fill="#000000"></path>
	<path d="M3.889 21.516h0.556v0.636h-0.556v-0.636z" fill="#FFFFFF" fill="#000000"></path>
	<path d="M4.266 21.516h0.18v0.636h-0.18v-0.636z" fill="#4B9BA2" fill="#000000"></path>
	<path d="M2.444 21.516h0.556v0.636h-0.556v-0.636z" fill="#FFFFFF" fill="#000000"></path>
	<path d="M2.821 21.516h0.18v0.636h-0.18v-0.636z" fill="#4B9BA2" fill="#000000"></path>
	<path d="M5.335 20.299h0.556v0.636h-0.556v-0.636z" fill="#FFFFFF" fill="#000000"></path>
	<path d="M5.711 20.299h0.18v0.636h-0.18v-0.636z" fill="#4B9BA2" fill="#000000"></path>
	<path d="M3.889 20.299h0.556v0.636h-0.556v-0.636z" fill="#FFFFFF" fill="#000000"></path>
	<path d="M4.266 20.299h0.18v0.636h-0.18v-0.636z" fill="#4B9BA2" fill="#000000"></path>
	<path d="M2.444 20.299h0.556v0.636h-0.556v-0.636z" fill="#FFFFFF" fill="#000000"></path>
	<path d="M2.821 20.299h0.18v0.636h-0.18v-0.636z" fill="#4B9BA2" fill="#000000"></path>
	<path d="M5.335 19.081h0.556v0.636h-0.556v-0.636z" fill="#FFFFFF" fill="#000000"></path>
	<path d="M5.711 19.081h0.18v0.636h-0.18v-0.636z" fill="#4B9BA2" fill="#000000"></path>
	<path d="M3.889 19.081h0.556v0.636h-0.556v-0.636z" fill="#FFFFFF" fill="#000000"></path>
	<path d="M4.266 19.081h0.18v0.636h-0.18v-0.636z" fill="#4B9BA2" fill="#000000"></path>
	<path d="M2.444 19.081h0.556v0.636h-0.556v-0.636z" fill="#FFFFFF" fill="#000000"></path>
	<path d="M2.821 19.081h0.18v0.636h-0.18v-0.636z" fill="#4B9BA2" fill="#000000"></path>
	<path d="M5.335 17.863h0.556v0.636h-0.556v-0.636z" fill="#FFFFFF" fill="#000000"></path>
	<path d="M5.711 17.863h0.18v0.636h-0.18v-0.636z" fill="#4B9BA2" fill="#000000"></path>
	<path d="M3.889 17.863h0.556v0.636h-0.556v-0.636z" fill="#FFFFFF" fill="#000000"></path>
	<path d="M4.266 17.863h0.18v0.636h-0.18v-0.636z" fill="#4B9BA2" fill="#000000"></path>
	<path d="M2.444 17.863h0.556v0.636h-0.556v-0.636z" fill="#FFFFFF" fill="#000000"></path>
	<path d="M2.821 17.863h0.18v0.636h-0.18v-0.636z" fill="#4B9BA2" fill="#000000"></path>
	<path d="M5.335 16.645h0.556v0.636h-0.556v-0.636z" fill="#FFFFFF" fill="#000000"></path>
	<path d="M5.711 16.645h0.18v0.636h-0.18v-0.636z" fill="#4B9BA2" fill="#000000"></path>
	<path d="M3.889 16.645h0.556v0.636h-0.556v-0.636z" fill="#FFFFFF" fill="#000000"></path>
	<path d="M4.266 16.645h0.18v0.636h-0.18v-0.636z" fill="#4B9BA2" fill="#000000"></path>
	<path d="M2.444 16.645h0.556v0.636h-0.556v-0.636z" fill="#FFFFFF" fill="#000000"></path>
	<path d="M2.821 16.645h0.18v0.636h-0.18v-0.636z" fill="#4B9BA2" fill="#000000"></path>
	<path d="M5.335 15.427h0.556v0.636h-0.556v-0.636z" fill="#FFFFFF" fill="#000000"></path>
	<path d="M5.711 15.427h0.18v0.636h-0.18v-0.636z" fill="#4B9BA2" fill="#000000"></path>
	<path d="M3.889 15.427h0.556v0.636h-0.556v-0.636z" fill="#FFFFFF" fill="#000000"></path>
	<path d="M4.266 15.427h0.18v0.636h-0.18v-0.636z" fill="#4B9BA2" fill="#000000"></path>
	<path d="M2.444 15.427h0.556v0.636h-0.556v-0.636z" fill="#FFFFFF" fill="#000000"></path>
	<path d="M2.821 15.427h0.18v0.636h-0.18v-0.636z" fill="#4B9BA2" fill="#000000"></path>
	<path d="M3.891 28.948h0.969v1.68h-0.969v-1.68z" fill="#FFFFFF" fill="#000000"></path>
	<path d="M4.547 28.948h0.313v1.68h-0.313v-1.68z" fill="#4B9BA2" fill="#000000"></path>
	<path d="M1.258 13.841h5.779v0.816h-5.779v-0.816z" fill="#FFFFFF" fill="#000000"></path>
	<path d="M2.207 9.46h3.994v4.704h-3.994v-4.704z" fill="#C4E7E6" fill="#000000"></path>
	<path d="M2.519 9.46h3.369v4.704h-3.369v-4.704z" fill="#59B4BC" fill="#000000"></path>
	<path d="M4.959 12.554h0.556v0.636h-0.556v-0.636z" fill="#FFFFFF" fill="#000000"></path>
	<path d="M5.335 12.554h0.18v0.636h-0.18v-0.636z" fill="#4B9BA2" fill="#000000"></path>
	<path d="M3.889 12.554h0.556v0.636h-0.556v-0.636z" fill="#FFFFFF" fill="#000000"></path>
	<path d="M4.266 12.554h0.18v0.636h-0.18v-0.636z" fill="#4B9BA2" fill="#000000"></path>
	<path d="M2.82 12.554h0.556v0.636h-0.556v-0.636z" fill="#FFFFFF" fill="#000000"></path>
	<path d="M3.196 12.554h0.18v0.636h-0.18v-0.636z" fill="#4B9BA2" fill="#000000"></path>
	<path d="M4.959 11.37h0.556v0.636h-0.556v-0.636z" fill="#FFFFFF" fill="#000000"></path>
	<path d="M5.335 11.37h0.18v0.636h-0.18v-0.636z" fill="#4B9BA2" fill="#000000"></path>
	<path d="M3.889 11.37h0.556v0.636h-0.556v-0.636z" fill="#FFFFFF" fill="#000000"></path>
	<path d="M4.266 11.37h0.18v0.636h-0.18v-0.636z" fill="#4B9BA2" fill="#000000"></path>
	<path d="M2.82 11.37h0.556v0.636h-0.556v-0.636z" fill="#FFFFFF" fill="#000000"></path>
	<path d="M3.196 11.37h0.18v0.636h-0.18v-0.636z" fill="#4B9BA2" fill="#000000"></path>
	<path d="M4.959 10.186h0.556v0.636h-0.556v-0.636z" fill="#FFFFFF" fill="#000000"></path>
	<path d="M5.335 10.186h0.18v0.636h-0.18v-0.636z" fill="#4B9BA2" fill="#000000"></path>
	<path d="M3.889 10.186h0.556v0.636h-0.556v-0.636z" fill="#FFFFFF" fill="#000000"></path>
	<path d="M4.266 10.186h0.18v0.636h-0.18v-0.636z" fill="#4B9BA2" fill="#000000"></path>
	<path d="M2.82 10.186h0.556v0.636h-0.556v-0.636z" fill="#FFFFFF" fill="#000000"></path>
	<path d="M3.196 10.186h0.18v0.636h-0.18v-0.636z" fill="#4B9BA2" fill="#000000"></path>
	<path d="M1.258 14.497h5.82v0.408h-5.82v-0.408z" fill="#4B9BA2" fill="#000000"></path>
	<path d="M2.007 8.553h4.322v0.816h-4.322v-0.816z" fill="#FFFFFF" fill="#000000"></path>
	<path d="M2.863 4.398h2.683v4.589h-2.683v-4.589z" fill="#C4E7E6" fill="#000000"></path>
	<path d="M3.073 4.398h2.263v4.589h-2.263v-4.589z" fill="#59B4BC" fill="#000000"></path>
	<path d="M2.742 4.165h2.877v0.408h-2.877v-0.408z" fill="#4B9BA2" fill="#000000"></path>
	<path d="M4.437 7.492h0.556v0.636h-0.556v-0.636z" fill="#FFFFFF" fill="#000000"></path>
	<path d="M4.813 7.492h0.18v0.636h-0.18v-0.636z" fill="#4B9BA2" fill="#000000"></path>
	<path d="M3.367 7.492h0.556v0.636h-0.556v-0.636z" fill="#FFFFFF" fill="#000000"></path>
	<path d="M3.744 7.492h0.18v0.636h-0.18v-0.636z" fill="#4B9BA2" fill="#000000"></path>
	<path d="M4.437 6.308h0.556v0.636h-0.556v-0.636z" fill="#FFFFFF" fill="#000000"></path>
	<path d="M4.813 6.308h0.18v0.636h-0.18v-0.636z" fill="#4B9BA2" fill="#000000"></path>
	<path d="M3.367 6.308h0.556v0.636h-0.556v-0.636z" fill="#FFFFFF" fill="#000000"></path>
	<path d="M3.744 6.308h0.18v0.636h-0.18v-0.636z" fill="#4B9BA2" fill="#000000"></path>
	<path d="M4.437 5.124h0.556v0.636h-0.556v-0.636z" fill="#FFFFFF" fill="#000000"></path>
	<path d="M4.813 5.124h0.18v0.636h-0.18v-0.636z" fill="#4B9BA2" fill="#000000"></path>
	<path d="M3.367 5.124h0.556v0.636h-0.556v-0.636z" fill="#FFFFFF" fill="#000000"></path>
	<path d="M3.744 5.124h0.18v0.636h-0.18v-0.636z" fill="#4B9BA2" fill="#000000"></path>
	<path d="M2.039 9.227h4.283v0.408h-4.283v-0.408z" fill="#4B9BA2" fill="#000000"></path>
	<path d="M4.937 2.206c0-0.046-0.032-0.084-0.072-0.084s-0.072 0.038-0.072 0.084v1.632h0.144v-1.632z" fill="#4B9BA2" fill="#000000"></path>
	<path d="M4.583 2.843c0-0.028-0.032-0.051-0.072-0.051s-0.072 0.023-0.072 0.051v0.995h0.144v-0.995z" fill="#4B9BA2" fill="#000000"></path>
</svg>
