<?xml version="1.0" encoding="utf-8"?>
<!-- Generated by IcoMoon.io -->
<!DOCTYPE svg PUBLIC "-//W3C//DTD SVG 1.1//EN" "http://www.w3.org/Graphics/SVG/1.1/DTD/svg11.dtd">
<svg version="1.1" xmlns="http://www.w3.org/2000/svg" xmlns:xlink="http://www.w3.org/1999/xlink" width="16" height="32" viewBox="0 0 16 32">
<g id="icomoon-ignore">
	<line stroke-width="1" x1="" y1="" x2="" y2="" stroke="#449FDB" opacity=""></line>
</g>
	<path d="M1.527 14.212h5.262v16.646h-5.262v-16.646z" fill="#59B4BC" fill="#000000"></path>
	<path d="M2.146 14.905h0.763v0.913h-0.763v-0.913z" fill="#C4E7E6" fill="#000000"></path>
	<path d="M3.777 14.905h0.763v0.913h-0.763v-0.913z" fill="#C4E7E6" fill="#000000"></path>
	<path d="M5.407 14.905h0.763v0.913h-0.763v-0.913z" fill="#C4E7E6" fill="#000000"></path>
	<path d="M2.146 16.846h0.763v0.913h-0.763v-0.913z" fill="#C4E7E6" fill="#000000"></path>
	<path d="M3.777 16.846h0.763v0.913h-0.763v-0.913z" fill="#C4E7E6" fill="#000000"></path>
	<path d="M5.407 16.846h0.763v0.913h-0.763v-0.913z" fill="#C4E7E6" fill="#000000"></path>
	<path d="M2.146 18.787h0.763v0.913h-0.763v-0.913z" fill="#C4E7E6" fill="#000000"></path>
	<path d="M3.777 18.787h0.763v0.913h-0.763v-0.913z" fill="#C4E7E6" fill="#000000"></path>
	<path d="M5.407 18.787h0.763v0.913h-0.763v-0.913z" fill="#C4E7E6" fill="#000000"></path>
	<path d="M2.146 20.727h0.763v0.913h-0.763v-0.913z" fill="#C4E7E6" fill="#000000"></path>
	<path d="M3.777 20.727h0.763v0.913h-0.763v-0.913z" fill="#C4E7E6" fill="#000000"></path>
	<path d="M5.407 20.727h0.763v0.913h-0.763v-0.913z" fill="#C4E7E6" fill="#000000"></path>
	<path d="M2.146 22.668h0.763v0.913h-0.763v-0.913z" fill="#C4E7E6" fill="#000000"></path>
	<path d="M3.777 22.668h0.763v0.913h-0.763v-0.913z" fill="#C4E7E6" fill="#000000"></path>
	<path d="M5.407 22.668h0.763v0.913h-0.763v-0.913z" fill="#C4E7E6" fill="#000000"></path>
	<path d="M2.146 24.609h0.763v0.913h-0.763v-0.913z" fill="#C4E7E6" fill="#000000"></path>
	<path d="M3.777 24.609h0.763v0.913h-0.763v-0.913z" fill="#C4E7E6" fill="#000000"></path>
	<path d="M5.407 24.609h0.763v0.913h-0.763v-0.913z" fill="#C4E7E6" fill="#000000"></path>
	<path d="M2.146 26.55h0.763v0.913h-0.763v-0.913z" fill="#C4E7E6" fill="#000000"></path>
	<path d="M3.777 26.55h0.763v0.913h-0.763v-0.913z" fill="#C4E7E6" fill="#000000"></path>
	<path d="M5.407 26.55h0.763v0.913h-0.763v-0.913z" fill="#C4E7E6" fill="#000000"></path>
	<path d="M2.146 28.491h0.763v0.914h-0.763v-0.914z" fill="#C4E7E6" fill="#000000"></path>
	<path d="M3.777 28.491h0.763v0.914h-0.763v-0.914z" fill="#C4E7E6" fill="#000000"></path>
	<path d="M5.407 28.491h0.763v0.914h-0.763v-0.914z" fill="#C4E7E6" fill="#000000"></path>
	<path d="M1.522 13.516h5.267v0.721h-5.267v-0.721z" fill="#C4E7E6" fill="#000000"></path>
	<path d="M4.035 12.743h2.246v1.167h-2.246v-1.167z" fill="#59B4BC" fill="#000000"></path>
	<path d="M4.035 12.16h2.246v0.711h-2.246v-0.711z" fill="#E2ECF1" fill="#000000"></path>
	<path d="M9.692 2.431h3.017v0.775h-3.017v-0.775z" fill="#FFFFFF" fill="#000000"></path>
	<path d="M8.351 14.073h5.67v16.601h-5.67v-16.601z" fill="#C4E7E6" fill="#000000"></path>
	<path d="M8.795 14.073h4.782v16.601h-4.782v-16.601z" fill="#59B4BC" fill="#000000"></path>
	<path d="M12.405 27.525h0.581v0.665h-0.581v-0.665z" fill="#FFFFFF" fill="#000000"></path>
	<path d="M12.798 27.525h0.188v0.665h-0.188v-0.665z" fill="#798F94" fill="#000000"></path>
	<path d="M10.895 27.525h0.581v0.665h-0.581v-0.665z" fill="#FFFFFF" fill="#000000"></path>
	<path d="M11.288 27.525h0.188v0.665h-0.188v-0.665z" fill="#4B9BA2" fill="#000000"></path>
	<path d="M9.385 27.525h0.581v0.665h-0.581v-0.665z" fill="#FFFFFF" fill="#000000"></path>
	<path d="M9.778 27.525h0.188v0.665h-0.188v-0.665z" fill="#4B9BA2" fill="#000000"></path>
	<path d="M12.405 26.252h0.581v0.665h-0.581v-0.665z" fill="#FFFFFF" fill="#000000"></path>
	<path d="M12.798 26.252h0.188v0.665h-0.188v-0.665z" fill="#4B9BA2" fill="#000000"></path>
	<path d="M10.895 26.252h0.581v0.665h-0.581v-0.665z" fill="#FFFFFF" fill="#000000"></path>
	<path d="M11.288 26.252h0.188v0.665h-0.188v-0.665z" fill="#4B9BA2" fill="#000000"></path>
	<path d="M9.385 26.252h0.581v0.665h-0.581v-0.665z" fill="#FFFFFF" fill="#000000"></path>
	<path d="M9.778 26.252h0.188v0.665h-0.188v-0.665z" fill="#4B9BA2" fill="#000000"></path>
	<path d="M12.405 24.98h0.581v0.665h-0.581v-0.665z" fill="#FFFFFF" fill="#000000"></path>
	<path d="M12.798 24.98h0.188v0.665h-0.188v-0.665z" fill="#4B9BA2" fill="#000000"></path>
	<path d="M10.895 24.98h0.581v0.665h-0.581v-0.665z" fill="#FFFFFF" fill="#000000"></path>
	<path d="M11.288 24.98h0.188v0.665h-0.188v-0.665z" fill="#4B9BA2" fill="#000000"></path>
	<path d="M9.385 24.98h0.581v0.665h-0.581v-0.665z" fill="#FFFFFF" fill="#000000"></path>
	<path d="M9.778 24.98h0.188v0.665h-0.188v-0.665z" fill="#4B9BA2" fill="#000000"></path>
	<path d="M12.405 23.708h0.581v0.665h-0.581v-0.665z" fill="#FFFFFF" fill="#000000"></path>
	<path d="M12.798 23.708h0.188v0.665h-0.188v-0.665z" fill="#4B9BA2" fill="#000000"></path>
	<path d="M10.895 23.708h0.581v0.665h-0.581v-0.665z" fill="#FFFFFF" fill="#000000"></path>
	<path d="M11.288 23.708h0.188v0.665h-0.188v-0.665z" fill="#4B9BA2" fill="#000000"></path>
	<path d="M9.385 23.708h0.581v0.665h-0.581v-0.665z" fill="#FFFFFF" fill="#000000"></path>
	<path d="M9.778 23.708h0.188v0.665h-0.188v-0.665z" fill="#4B9BA2" fill="#000000"></path>
	<path d="M12.405 22.435h0.581v0.665h-0.581v-0.665z" fill="#FFFFFF" fill="#000000"></path>
	<path d="M12.798 22.435h0.188v0.665h-0.188v-0.665z" fill="#4B9BA2" fill="#000000"></path>
	<path d="M10.895 22.435h0.581v0.665h-0.581v-0.665z" fill="#FFFFFF" fill="#000000"></path>
	<path d="M11.288 22.435h0.188v0.665h-0.188v-0.665z" fill="#4B9BA2" fill="#000000"></path>
	<path d="M9.385 22.435h0.581v0.665h-0.581v-0.665z" fill="#FFFFFF" fill="#000000"></path>
	<path d="M9.778 22.435h0.188v0.665h-0.188v-0.665z" fill="#4B9BA2" fill="#000000"></path>
	<path d="M12.405 21.163h0.581v0.665h-0.581v-0.665z" fill="#FFFFFF" fill="#000000"></path>
	<path d="M12.798 21.163h0.188v0.665h-0.188v-0.665z" fill="#4B9BA2" fill="#000000"></path>
	<path d="M10.895 21.163h0.581v0.665h-0.581v-0.665z" fill="#FFFFFF" fill="#000000"></path>
	<path d="M11.288 21.163h0.188v0.665h-0.188v-0.665z" fill="#4B9BA2" fill="#000000"></path>
	<path d="M9.385 21.163h0.581v0.665h-0.581v-0.665z" fill="#FFFFFF" fill="#000000"></path>
	<path d="M9.778 21.163h0.188v0.665h-0.188v-0.665z" fill="#4B9BA2" fill="#000000"></path>
	<path d="M12.405 19.891h0.581v0.664h-0.581v-0.664z" fill="#FFFFFF" fill="#000000"></path>
	<path d="M12.798 19.891h0.188v0.664h-0.188v-0.664z" fill="#4B9BA2" fill="#000000"></path>
	<path d="M10.895 19.891h0.581v0.664h-0.581v-0.664z" fill="#FFFFFF" fill="#000000"></path>
	<path d="M11.288 19.891h0.188v0.664h-0.188v-0.664z" fill="#4B9BA2" fill="#000000"></path>
	<path d="M9.385 19.891h0.581v0.664h-0.581v-0.664z" fill="#FFFFFF" fill="#000000"></path>
	<path d="M9.778 19.891h0.188v0.664h-0.188v-0.664z" fill="#4B9BA2" fill="#000000"></path>
	<path d="M12.405 18.618h0.581v0.664h-0.581v-0.664z" fill="#FFFFFF" fill="#000000"></path>
	<path d="M12.798 18.618h0.188v0.664h-0.188v-0.664z" fill="#4B9BA2" fill="#000000"></path>
	<path d="M10.895 18.618h0.581v0.664h-0.581v-0.664z" fill="#FFFFFF" fill="#000000"></path>
	<path d="M11.288 18.618h0.188v0.664h-0.188v-0.664z" fill="#4B9BA2" fill="#000000"></path>
	<path d="M9.385 18.618h0.581v0.664h-0.581v-0.664z" fill="#FFFFFF" fill="#000000"></path>
	<path d="M9.778 18.618h0.188v0.664h-0.188v-0.664z" fill="#4B9BA2" fill="#000000"></path>
	<path d="M12.405 17.346h0.581v0.665h-0.581v-0.665z" fill="#FFFFFF" fill="#000000"></path>
	<path d="M12.798 17.346h0.188v0.665h-0.188v-0.665z" fill="#4B9BA2" fill="#000000"></path>
	<path d="M10.895 17.346h0.581v0.665h-0.581v-0.665z" fill="#FFFFFF" fill="#000000"></path>
	<path d="M11.288 17.346h0.188v0.665h-0.188v-0.665z" fill="#4B9BA2" fill="#000000"></path>
	<path d="M9.385 17.346h0.581v0.665h-0.581v-0.665z" fill="#FFFFFF" fill="#000000"></path>
	<path d="M9.778 17.346h0.188v0.665h-0.188v-0.665z" fill="#4B9BA2" fill="#000000"></path>
	<path d="M12.405 16.074h0.581v0.665h-0.581v-0.665z" fill="#FFFFFF" fill="#000000"></path>
	<path d="M12.798 16.074h0.188v0.665h-0.188v-0.665z" fill="#4B9BA2" fill="#000000"></path>
	<path d="M10.895 16.074h0.581v0.665h-0.581v-0.665z" fill="#FFFFFF" fill="#000000"></path>
	<path d="M11.288 16.074h0.188v0.665h-0.188v-0.665z" fill="#4B9BA2" fill="#000000"></path>
	<path d="M9.385 16.074h0.581v0.665h-0.581v-0.665z" fill="#FFFFFF" fill="#000000"></path>
	<path d="M9.778 16.074h0.188v0.665h-0.188v-0.665z" fill="#4B9BA2" fill="#000000"></path>
	<path d="M12.405 14.801h0.581v0.665h-0.581v-0.665z" fill="#FFFFFF" fill="#000000"></path>
	<path d="M12.798 14.801h0.188v0.665h-0.188v-0.665z" fill="#4B9BA2" fill="#000000"></path>
	<path d="M10.895 14.801h0.581v0.665h-0.581v-0.665z" fill="#FFFFFF" fill="#000000"></path>
	<path d="M11.288 14.801h0.188v0.665h-0.188v-0.665z" fill="#4B9BA2" fill="#000000"></path>
	<path d="M9.385 14.801h0.581v0.665h-0.581v-0.665z" fill="#FFFFFF" fill="#000000"></path>
	<path d="M9.778 14.801h0.188v0.665h-0.188v-0.665z" fill="#4B9BA2" fill="#000000"></path>
	<path d="M10.897 28.928h1.012v1.756h-1.012v-1.756z" fill="#FFFFFF" fill="#000000"></path>
	<path d="M11.582 28.928h0.327v1.756h-0.327v-1.756z" fill="#4B9BA2" fill="#000000"></path>
	<path d="M8.146 13.144h6.038v0.853h-6.038v-0.853z" fill="#FFFFFF" fill="#000000"></path>
	<path d="M9.137 8.567h4.173v4.915h-4.173v-4.915z" fill="#C4E7E6" fill="#000000"></path>
	<path d="M9.464 8.567h3.52v4.915h-3.52v-4.915z" fill="#59B4BC" fill="#000000"></path>
	<path d="M12.012 11.799h0.581v0.665h-0.581v-0.665z" fill="#FFFFFF" fill="#000000"></path>
	<path d="M12.405 11.799h0.188v0.665h-0.188v-0.665z" fill="#4B9BA2" fill="#000000"></path>
	<path d="M10.895 11.799h0.581v0.665h-0.581v-0.665z" fill="#FFFFFF" fill="#000000"></path>
	<path d="M11.288 11.799h0.188v0.665h-0.188v-0.665z" fill="#4B9BA2" fill="#000000"></path>
	<path d="M9.778 11.799h0.581v0.665h-0.581v-0.665z" fill="#FFFFFF" fill="#000000"></path>
	<path d="M10.171 11.799h0.188v0.665h-0.188v-0.665z" fill="#4B9BA2" fill="#000000"></path>
	<path d="M12.012 10.562h0.581v0.665h-0.581v-0.665z" fill="#FFFFFF" fill="#000000"></path>
	<path d="M12.405 10.562h0.188v0.665h-0.188v-0.665z" fill="#4B9BA2" fill="#000000"></path>
	<path d="M10.895 10.562h0.581v0.665h-0.581v-0.665z" fill="#FFFFFF" fill="#000000"></path>
	<path d="M11.288 10.562h0.188v0.665h-0.188v-0.665z" fill="#4B9BA2" fill="#000000"></path>
	<path d="M9.778 10.562h0.581v0.665h-0.581v-0.665z" fill="#FFFFFF" fill="#000000"></path>
	<path d="M10.171 10.562h0.188v0.665h-0.188v-0.665z" fill="#4B9BA2" fill="#000000"></path>
	<path d="M12.012 9.325h0.581v0.665h-0.581v-0.665z" fill="#FFFFFF" fill="#000000"></path>
	<path d="M12.405 9.325h0.188v0.665h-0.188v-0.665z" fill="#4B9BA2" fill="#000000"></path>
	<path d="M10.895 9.325h0.581v0.665h-0.581v-0.665z" fill="#FFFFFF" fill="#000000"></path>
	<path d="M11.288 9.325h0.188v0.665h-0.188v-0.665z" fill="#4B9BA2" fill="#000000"></path>
	<path d="M9.778 9.325h0.581v0.665h-0.581v-0.665z" fill="#FFFFFF" fill="#000000"></path>
	<path d="M10.171 9.325h0.188v0.665h-0.188v-0.665z" fill="#4B9BA2" fill="#000000"></path>
	<path d="M8.146 13.83h6.080v0.426h-6.081v-0.426z" fill="#4B9BA2" fill="#000000"></path>
	<path d="M8.928 7.62h4.516v0.853h-4.516v-0.853z" fill="#FFFFFF" fill="#000000"></path>
	<path d="M9.822 3.278h2.803v4.794h-2.803v-4.794z" fill="#C4E7E6" fill="#000000"></path>
	<path d="M10.042 3.278h2.364v4.794h-2.364v-4.794z" fill="#59B4BC" fill="#000000"></path>
	<path d="M9.696 3.035h3.006v0.426h-3.006v-0.426z" fill="#4B9BA2" fill="#000000"></path>
	<path d="M11.467 6.51h0.581v0.665h-0.581v-0.665z" fill="#FFFFFF" fill="#000000"></path>
	<path d="M11.86 6.51h0.188v0.665h-0.188v-0.665z" fill="#4B9BA2" fill="#000000"></path>
	<path d="M10.35 6.51h0.581v0.665h-0.581v-0.665z" fill="#FFFFFF" fill="#000000"></path>
	<path d="M10.743 6.51h0.188v0.665h-0.188v-0.665z" fill="#4B9BA2" fill="#000000"></path>
	<path d="M11.467 5.274h0.581v0.665h-0.581v-0.665z" fill="#FFFFFF" fill="#000000"></path>
	<path d="M11.86 5.274h0.188v0.665h-0.188v-0.665z" fill="#4B9BA2" fill="#000000"></path>
	<path d="M10.35 5.274h0.581v0.665h-0.581v-0.665z" fill="#FFFFFF" fill="#000000"></path>
	<path d="M10.743 5.274h0.188v0.665h-0.188v-0.665z" fill="#4B9BA2" fill="#000000"></path>
	<path d="M11.467 4.036h0.581v0.665h-0.581v-0.665z" fill="#FFFFFF" fill="#000000"></path>
	<path d="M11.86 4.036h0.188v0.665h-0.188v-0.665z" fill="#4B9BA2" fill="#000000"></path>
	<path d="M10.35 4.036h0.581v0.665h-0.581v-0.665z" fill="#FFFFFF" fill="#000000"></path>
	<path d="M10.743 4.036h0.188v0.665h-0.188v-0.665z" fill="#4B9BA2" fill="#000000"></path>
	<path d="M8.961 8.324h4.475v0.426h-4.475v-0.426z" fill="#4B9BA2" fill="#000000"></path>
	<path d="M11.99 0.988c0-0.048-0.034-0.088-0.076-0.088s-0.075 0.039-0.075 0.088v1.705h0.151v-1.705z" fill="#4B9BA2" fill="#000000"></path>
	<path d="M11.62 1.654c0-0.030-0.034-0.054-0.076-0.054s-0.076 0.024-0.076 0.054v1.040h0.151v-1.040z" fill="#4B9BA2" fill="#000000"></path>
</svg>
