<?xml version="1.0" encoding="utf-8"?>
<!-- Generated by IcoMoon.io -->
<!DOCTYPE svg PUBLIC "-//W3C//DTD SVG 1.1//EN" "http://www.w3.org/Graphics/SVG/1.1/DTD/svg11.dtd">
<svg version="1.1" xmlns="http://www.w3.org/2000/svg" xmlns:xlink="http://www.w3.org/1999/xlink" width="16" height="32" viewBox="0 0 16 32">
<g id="icomoon-ignore">
	<line stroke-width="1" x1="" y1="" x2="" y2="" stroke="#449FDB" opacity=""></line>
</g>
	<path d="M2.232 14.586h5.151v16.297h-5.151v-16.297z" fill="#59B4BC" fill="#000000"></path>
	<path d="M2.838 15.264h0.747v0.894h-0.747v-0.894z" fill="#C4E7E6" fill="#000000"></path>
	<path d="M4.434 15.264h0.747v0.894h-0.747v-0.894z" fill="#C4E7E6" fill="#000000"></path>
	<path d="M6.030 15.264h0.747v0.894h-0.747v-0.894z" fill="#C4E7E6" fill="#000000"></path>
	<path d="M2.838 17.164h0.747v0.894h-0.747v-0.894z" fill="#C4E7E6" fill="#000000"></path>
	<path d="M4.434 17.164h0.747v0.894h-0.747v-0.894z" fill="#C4E7E6" fill="#000000"></path>
	<path d="M6.030 17.164h0.747v0.894h-0.747v-0.894z" fill="#C4E7E6" fill="#000000"></path>
	<path d="M2.838 19.064h0.747v0.894h-0.747v-0.894z" fill="#C4E7E6" fill="#000000"></path>
	<path d="M4.434 19.064h0.747v0.894h-0.747v-0.894z" fill="#C4E7E6" fill="#000000"></path>
	<path d="M6.030 19.064h0.747v0.894h-0.747v-0.894z" fill="#C4E7E6" fill="#000000"></path>
	<path d="M2.838 20.965h0.747v0.894h-0.747v-0.894z" fill="#C4E7E6" fill="#000000"></path>
	<path d="M4.434 20.965h0.747v0.894h-0.747v-0.894z" fill="#C4E7E6" fill="#000000"></path>
	<path d="M6.030 20.965h0.747v0.894h-0.747v-0.894z" fill="#C4E7E6" fill="#000000"></path>
	<path d="M2.838 22.865h0.747v0.894h-0.747v-0.894z" fill="#C4E7E6" fill="#000000"></path>
	<path d="M4.434 22.865h0.747v0.894h-0.747v-0.894z" fill="#C4E7E6" fill="#000000"></path>
	<path d="M6.030 22.865h0.747v0.894h-0.747v-0.894z" fill="#C4E7E6" fill="#000000"></path>
	<path d="M2.838 24.765h0.747v0.894h-0.747v-0.894z" fill="#C4E7E6" fill="#000000"></path>
	<path d="M4.434 24.765h0.747v0.894h-0.747v-0.894z" fill="#C4E7E6" fill="#000000"></path>
	<path d="M6.030 24.765h0.747v0.894h-0.747v-0.894z" fill="#C4E7E6" fill="#000000"></path>
	<path d="M2.838 26.665h0.747v0.894h-0.747v-0.894z" fill="#C4E7E6" fill="#000000"></path>
	<path d="M4.434 26.665h0.747v0.894h-0.747v-0.894z" fill="#C4E7E6" fill="#000000"></path>
	<path d="M6.030 26.665h0.747v0.894h-0.747v-0.894z" fill="#C4E7E6" fill="#000000"></path>
	<path d="M2.838 28.565h0.747v0.894h-0.747v-0.894z" fill="#C4E7E6" fill="#000000"></path>
	<path d="M4.434 28.565h0.747v0.894h-0.747v-0.894z" fill="#C4E7E6" fill="#000000"></path>
	<path d="M6.030 28.565h0.747v0.894h-0.747v-0.894z" fill="#C4E7E6" fill="#000000"></path>
	<path d="M2.226 13.904h5.157v0.706h-5.157v-0.706z" fill="#C4E7E6" fill="#000000"></path>
	<path d="M4.687 13.148h2.199v1.143h-2.199v-1.143z" fill="#59B4BC" fill="#000000"></path>
	<path d="M4.687 12.577h2.199v0.696h-2.199v-0.696z" fill="#E2ECF1" fill="#000000"></path>
	<path d="M10.225 3.052h2.953v0.759h-2.953v-0.759z" fill="#FFFFFF" fill="#000000"></path>
	<path d="M8.912 14.45h5.551v16.252h-5.551v-16.252z" fill="#C4E7E6" fill="#000000"></path>
	<path d="M9.347 14.45h4.682v16.252h-4.682v-16.252z" fill="#59B4BC" fill="#000000"></path>
	<path d="M12.881 27.619h0.569v0.651h-0.569v-0.651z" fill="#FFFFFF" fill="#000000"></path>
	<path d="M13.266 27.619h0.184v0.651h-0.184v-0.651z" fill="#798F94" fill="#000000"></path>
	<path d="M11.403 27.619h0.569v0.651h-0.569v-0.651z" fill="#FFFFFF" fill="#000000"></path>
	<path d="M11.788 27.619h0.184v0.651h-0.184v-0.651z" fill="#4B9BA2" fill="#000000"></path>
	<path d="M9.925 27.619h0.569v0.651h-0.569v-0.651z" fill="#FFFFFF" fill="#000000"></path>
	<path d="M10.309 27.619h0.184v0.651h-0.184v-0.651z" fill="#4B9BA2" fill="#000000"></path>
	<path d="M12.881 26.373h0.569v0.651h-0.569v-0.651z" fill="#FFFFFF" fill="#000000"></path>
	<path d="M13.266 26.373h0.184v0.651h-0.184v-0.651z" fill="#4B9BA2" fill="#000000"></path>
	<path d="M11.403 26.373h0.569v0.651h-0.569v-0.651z" fill="#FFFFFF" fill="#000000"></path>
	<path d="M11.788 26.373h0.184v0.651h-0.184v-0.651z" fill="#4B9BA2" fill="#000000"></path>
	<path d="M9.925 26.373h0.569v0.651h-0.569v-0.651z" fill="#FFFFFF" fill="#000000"></path>
	<path d="M10.309 26.373h0.184v0.651h-0.184v-0.651z" fill="#4B9BA2" fill="#000000"></path>
	<path d="M12.881 25.128h0.569v0.651h-0.569v-0.651z" fill="#FFFFFF" fill="#000000"></path>
	<path d="M13.266 25.128h0.184v0.651h-0.184v-0.651z" fill="#4B9BA2" fill="#000000"></path>
	<path d="M11.403 25.128h0.569v0.651h-0.569v-0.651z" fill="#FFFFFF" fill="#000000"></path>
	<path d="M11.788 25.128h0.184v0.651h-0.184v-0.651z" fill="#4B9BA2" fill="#000000"></path>
	<path d="M9.925 25.128h0.569v0.651h-0.569v-0.651z" fill="#FFFFFF" fill="#000000"></path>
	<path d="M10.309 25.128h0.184v0.651h-0.184v-0.651z" fill="#4B9BA2" fill="#000000"></path>
	<path d="M12.881 23.882h0.569v0.651h-0.569v-0.651z" fill="#FFFFFF" fill="#000000"></path>
	<path d="M13.266 23.882h0.184v0.651h-0.184v-0.651z" fill="#4B9BA2" fill="#000000"></path>
	<path d="M11.403 23.882h0.569v0.651h-0.569v-0.651z" fill="#FFFFFF" fill="#000000"></path>
	<path d="M11.788 23.882h0.184v0.651h-0.184v-0.651z" fill="#4B9BA2" fill="#000000"></path>
	<path d="M9.925 23.882h0.569v0.651h-0.569v-0.651z" fill="#FFFFFF" fill="#000000"></path>
	<path d="M10.309 23.882h0.184v0.651h-0.184v-0.651z" fill="#4B9BA2" fill="#000000"></path>
	<path d="M12.881 22.637h0.569v0.651h-0.569v-0.651z" fill="#FFFFFF" fill="#000000"></path>
	<path d="M13.266 22.637h0.184v0.651h-0.184v-0.651z" fill="#4B9BA2" fill="#000000"></path>
	<path d="M11.403 22.637h0.569v0.651h-0.569v-0.651z" fill="#FFFFFF" fill="#000000"></path>
	<path d="M11.788 22.637h0.184v0.651h-0.184v-0.651z" fill="#4B9BA2" fill="#000000"></path>
	<path d="M9.925 22.637h0.569v0.651h-0.569v-0.651z" fill="#FFFFFF" fill="#000000"></path>
	<path d="M10.309 22.637h0.184v0.651h-0.184v-0.651z" fill="#4B9BA2" fill="#000000"></path>
	<path d="M12.881 21.391h0.569v0.651h-0.569v-0.651z" fill="#FFFFFF" fill="#000000"></path>
	<path d="M13.266 21.391h0.184v0.651h-0.184v-0.651z" fill="#4B9BA2" fill="#000000"></path>
	<path d="M11.403 21.391h0.569v0.651h-0.569v-0.651z" fill="#FFFFFF" fill="#000000"></path>
	<path d="M11.788 21.391h0.184v0.651h-0.184v-0.651z" fill="#4B9BA2" fill="#000000"></path>
	<path d="M9.925 21.391h0.569v0.651h-0.569v-0.651z" fill="#FFFFFF" fill="#000000"></path>
	<path d="M10.309 21.391h0.184v0.651h-0.184v-0.651z" fill="#4B9BA2" fill="#000000"></path>
	<path d="M12.881 20.145h0.569v0.65h-0.569v-0.65z" fill="#FFFFFF" fill="#000000"></path>
	<path d="M13.266 20.145h0.184v0.65h-0.184v-0.65z" fill="#4B9BA2" fill="#000000"></path>
	<path d="M11.403 20.145h0.569v0.65h-0.569v-0.65z" fill="#FFFFFF" fill="#000000"></path>
	<path d="M11.788 20.145h0.184v0.65h-0.184v-0.65z" fill="#4B9BA2" fill="#000000"></path>
	<path d="M9.925 20.145h0.569v0.65h-0.569v-0.65z" fill="#FFFFFF" fill="#000000"></path>
	<path d="M10.309 20.145h0.184v0.65h-0.184v-0.65z" fill="#4B9BA2" fill="#000000"></path>
	<path d="M12.881 18.9h0.569v0.65h-0.569v-0.65z" fill="#FFFFFF" fill="#000000"></path>
	<path d="M13.266 18.9h0.184v0.65h-0.184v-0.65z" fill="#4B9BA2" fill="#000000"></path>
	<path d="M11.403 18.9h0.569v0.65h-0.569v-0.65z" fill="#FFFFFF" fill="#000000"></path>
	<path d="M11.788 18.9h0.184v0.65h-0.184v-0.65z" fill="#4B9BA2" fill="#000000"></path>
	<path d="M9.925 18.9h0.569v0.65h-0.569v-0.65z" fill="#FFFFFF" fill="#000000"></path>
	<path d="M10.309 18.9h0.184v0.65h-0.184v-0.65z" fill="#4B9BA2" fill="#000000"></path>
	<path d="M12.881 17.654h0.569v0.651h-0.569v-0.651z" fill="#FFFFFF" fill="#000000"></path>
	<path d="M13.266 17.654h0.184v0.651h-0.184v-0.651z" fill="#4B9BA2" fill="#000000"></path>
	<path d="M11.403 17.654h0.569v0.651h-0.569v-0.651z" fill="#FFFFFF" fill="#000000"></path>
	<path d="M11.788 17.654h0.184v0.651h-0.184v-0.651z" fill="#4B9BA2" fill="#000000"></path>
	<path d="M9.925 17.654h0.569v0.651h-0.569v-0.651z" fill="#FFFFFF" fill="#000000"></path>
	<path d="M10.309 17.654h0.184v0.651h-0.184v-0.651z" fill="#4B9BA2" fill="#000000"></path>
	<path d="M12.881 16.408h0.569v0.651h-0.569v-0.651z" fill="#FFFFFF" fill="#000000"></path>
	<path d="M13.266 16.408h0.184v0.651h-0.184v-0.651z" fill="#4B9BA2" fill="#000000"></path>
	<path d="M11.403 16.408h0.569v0.651h-0.569v-0.651z" fill="#FFFFFF" fill="#000000"></path>
	<path d="M11.788 16.408h0.184v0.651h-0.184v-0.651z" fill="#4B9BA2" fill="#000000"></path>
	<path d="M9.925 16.408h0.569v0.651h-0.569v-0.651z" fill="#FFFFFF" fill="#000000"></path>
	<path d="M10.309 16.408h0.184v0.651h-0.184v-0.651z" fill="#4B9BA2" fill="#000000"></path>
	<path d="M12.881 15.163h0.569v0.651h-0.569v-0.651z" fill="#FFFFFF" fill="#000000"></path>
	<path d="M13.266 15.163h0.184v0.651h-0.184v-0.651z" fill="#4B9BA2" fill="#000000"></path>
	<path d="M11.403 15.163h0.569v0.651h-0.569v-0.651z" fill="#FFFFFF" fill="#000000"></path>
	<path d="M11.788 15.163h0.184v0.651h-0.184v-0.651z" fill="#4B9BA2" fill="#000000"></path>
	<path d="M9.925 15.163h0.569v0.651h-0.569v-0.651z" fill="#FFFFFF" fill="#000000"></path>
	<path d="M10.309 15.163h0.184v0.651h-0.184v-0.651z" fill="#4B9BA2" fill="#000000"></path>
	<path d="M11.405 28.992h0.991v1.719h-0.991v-1.719z" fill="#FFFFFF" fill="#000000"></path>
	<path d="M12.075 28.992h0.32v1.719h-0.32v-1.719z" fill="#4B9BA2" fill="#000000"></path>
	<path d="M8.711 13.541h5.911v0.835h-5.911v-0.835z" fill="#FFFFFF" fill="#000000"></path>
	<path d="M9.681 9.060h4.085v4.812h-4.085v-4.812z" fill="#C4E7E6" fill="#000000"></path>
	<path d="M10.001 9.060h3.446v4.812h-3.446v-4.812z" fill="#59B4BC" fill="#000000"></path>
	<path d="M12.496 12.224h0.569v0.651h-0.569v-0.651z" fill="#FFFFFF" fill="#000000"></path>
	<path d="M12.881 12.224h0.184v0.651h-0.184v-0.651z" fill="#4B9BA2" fill="#000000"></path>
	<path d="M11.403 12.224h0.569v0.651h-0.569v-0.651z" fill="#FFFFFF" fill="#000000"></path>
	<path d="M11.788 12.224h0.184v0.651h-0.184v-0.651z" fill="#4B9BA2" fill="#000000"></path>
	<path d="M10.309 12.224h0.569v0.651h-0.569v-0.651z" fill="#FFFFFF" fill="#000000"></path>
	<path d="M10.694 12.224h0.184v0.651h-0.184v-0.651z" fill="#4B9BA2" fill="#000000"></path>
	<path d="M12.496 11.013h0.569v0.651h-0.569v-0.651z" fill="#FFFFFF" fill="#000000"></path>
	<path d="M12.881 11.013h0.184v0.651h-0.184v-0.651z" fill="#4B9BA2" fill="#000000"></path>
	<path d="M11.403 11.013h0.569v0.651h-0.569v-0.651z" fill="#FFFFFF" fill="#000000"></path>
	<path d="M11.788 11.013h0.184v0.651h-0.184v-0.651z" fill="#4B9BA2" fill="#000000"></path>
	<path d="M10.309 11.013h0.569v0.651h-0.569v-0.651z" fill="#FFFFFF" fill="#000000"></path>
	<path d="M10.694 11.013h0.184v0.651h-0.184v-0.651z" fill="#4B9BA2" fill="#000000"></path>
	<path d="M12.496 9.802h0.569v0.651h-0.569v-0.651z" fill="#FFFFFF" fill="#000000"></path>
	<path d="M12.881 9.802h0.184v0.651h-0.184v-0.651z" fill="#4B9BA2" fill="#000000"></path>
	<path d="M11.403 9.802h0.569v0.651h-0.569v-0.651z" fill="#FFFFFF" fill="#000000"></path>
	<path d="M11.788 9.802h0.184v0.651h-0.184v-0.651z" fill="#4B9BA2" fill="#000000"></path>
	<path d="M10.309 9.802h0.569v0.651h-0.569v-0.651z" fill="#FFFFFF" fill="#000000"></path>
	<path d="M10.694 9.802h0.184v0.651h-0.184v-0.651z" fill="#4B9BA2" fill="#000000"></path>
	<path d="M8.711 14.212h5.953v0.417h-5.953v-0.417z" fill="#4B9BA2" fill="#000000"></path>
	<path d="M9.477 8.132h4.421v0.835h-4.421v-0.835z" fill="#FFFFFF" fill="#000000"></path>
	<path d="M10.353 3.882h2.745v4.694h-2.745v-4.694z" fill="#C4E7E6" fill="#000000"></path>
	<path d="M10.568 3.882h2.315v4.694h-2.315v-4.694z" fill="#59B4BC" fill="#000000"></path>
	<path d="M10.229 3.644h2.943v0.417h-2.943v-0.417z" fill="#4B9BA2" fill="#000000"></path>
	<path d="M11.962 7.046h0.569v0.651h-0.569v-0.651z" fill="#FFFFFF" fill="#000000"></path>
	<path d="M12.347 7.046h0.184v0.651h-0.184v-0.651z" fill="#4B9BA2" fill="#000000"></path>
	<path d="M10.869 7.046h0.569v0.651h-0.569v-0.651z" fill="#FFFFFF" fill="#000000"></path>
	<path d="M11.253 7.046h0.184v0.651h-0.184v-0.651z" fill="#4B9BA2" fill="#000000"></path>
	<path d="M11.963 5.835h0.569v0.651h-0.569v-0.651z" fill="#FFFFFF" fill="#000000"></path>
	<path d="M12.347 5.835h0.184v0.651h-0.184v-0.651z" fill="#4B9BA2" fill="#000000"></path>
	<path d="M10.869 5.835h0.569v0.651h-0.569v-0.651z" fill="#FFFFFF" fill="#000000"></path>
	<path d="M11.253 5.835h0.184v0.651h-0.184v-0.651z" fill="#4B9BA2" fill="#000000"></path>
	<path d="M11.962 4.624h0.569v0.651h-0.569v-0.651z" fill="#FFFFFF" fill="#000000"></path>
	<path d="M12.347 4.624h0.184v0.651h-0.184v-0.651z" fill="#4B9BA2" fill="#000000"></path>
	<path d="M10.869 4.624h0.569v0.651h-0.569v-0.651z" fill="#FFFFFF" fill="#000000"></path>
	<path d="M11.253 4.624h0.184v0.651h-0.184v-0.651z" fill="#4B9BA2" fill="#000000"></path>
	<path d="M9.51 8.821h4.381v0.417h-4.381v-0.417z" fill="#4B9BA2" fill="#000000"></path>
	<path d="M12.474 1.64c0-0.047-0.033-0.086-0.074-0.086s-0.074 0.038-0.074 0.086v1.669h0.148v-1.669z" fill="#4B9BA2" fill="#000000"></path>
	<path d="M12.112 2.292c0-0.029-0.033-0.052-0.074-0.052s-0.074 0.023-0.074 0.052v1.018h0.148v-1.018z" fill="#4B9BA2" fill="#000000"></path>
</svg>
