<?xml version="1.0" encoding="utf-8"?>
<!-- Generated by IcoMoon.io -->
<!DOCTYPE svg PUBLIC "-//W3C//DTD SVG 1.1//EN" "http://www.w3.org/Graphics/SVG/1.1/DTD/svg11.dtd">
<svg version="1.1" xmlns="http://www.w3.org/2000/svg" xmlns:xlink="http://www.w3.org/1999/xlink" width="10" height="32" viewBox="0 0 10 32">
<g id="icomoon-ignore">
	<line stroke-width="1" x1="" y1="" x2="" y2="" stroke="#449FDB" opacity=""></line>
</g>
	<path d="M1.605 7.453h7.006v1.232h-7.006v-1.232z" fill="#85D2DB" fill="#000000"></path>
	<path d="M7.937 5.389h-5.569l-0.763 2.064h6.999z" fill="#85D2DB" fill="#000000"></path>
	<path d="M1.875 8.976h6.563v21.089h-6.563v-21.089z" fill="#59B4BC" fill="#000000"></path>
	<path d="M4.515 27.786h1.283v2.258h-1.283v-2.258z" fill="#FFFFFF" fill="#000000"></path>
	<path d="M5.383 27.786h0.415v2.258h-0.415v-2.258z" fill="#4B9BA2" fill="#000000"></path>
	<path d="M1.605 8.66h7.020v0.409h-7.020v-0.409z" fill="#4D6E7D" fill="#000000"></path>
	<path d="M7.937 6.596h-5.569l-0.763 2.064h6.999z" fill="#4B9BA2" fill="#000000"></path>
	<path d="M2.346 5.388h5.599v1.236h-5.599v-1.236z" fill="#FFFFFF" fill="#000000"></path>
	<path d="M6.608 5.124c-0.014-0.308-0.313-5.124-1.328-5.124-0.953 0-1.371 4.816-1.394 5.124v0 1.176h2.723v-1.176z" fill="#FFFFFF" fill="#000000"></path>
	<path d="M5.28 1.16c-0.985 0-1.367 5.139-1.367 5.139h2.639c0 0-0.224-5.139-1.273-5.139z" fill="#4B9BA2" fill="#000000"></path>
	<path d="M2.659 9.867h4.892v15.054h-4.891v-15.054z" fill="#FFFFFF" fill="#000000"></path>
	<path d="M7.181 9.559v0.010h-4.722v0.015h-0.035v15.054h0.017v0.589h5.346v-15.668h-0.606zM6.591 10.102h0.589v0.523h-0.589v-0.523zM6.591 11.156h0.589v0.478h-0.589v-0.478zM6.591 12.166h0.589v0.523h-0.589v-0.523zM6.591 13.22h0.589v0.523h-0.589v-0.523zM6.591 14.275h0.589v0.55h-0.589v-0.55zM6.591 15.357h0.589v0.523h-0.589v-0.523zM6.591 16.411h0.589v0.523h-0.589v-0.523zM6.591 17.465h0.589v0.712h-0.589v-0.712zM6.591 18.709h0.589v0.523h-0.589v-0.523zM6.591 19.763h0.589v0.523h-0.589v-0.523zM6.591 20.818h0.589v0.55h-0.589v-0.55zM6.591 21.899h0.589v0.523h-0.589v-0.523zM6.591 22.954h0.589v0.522h-0.589v-0.522zM5.416 10.102h0.534v0.523h-0.534v-0.523zM5.416 11.156h0.534v0.478h-0.534v-0.478zM5.416 12.166h0.534v0.523h-0.534v-0.523zM5.416 13.22h0.534v0.523h-0.534v-0.523zM5.416 14.275h0.534v0.55h-0.534v-0.55zM5.416 15.357h0.534v0.523h-0.534v-0.523zM5.416 16.411h0.534v0.523h-0.534v-0.523zM5.416 17.465h0.534v0.712h-0.534v-0.712zM5.416 18.709h0.534v0.523h-0.534v-0.523zM5.416 19.763h0.534v0.523h-0.534v-0.523zM5.416 20.818h0.534v0.55h-0.534v-0.55zM5.416 21.899h0.534v0.523h-0.534v-0.523zM5.416 22.954h0.534v0.522h-0.534v-0.522zM5.95 24.008v0.571h-0.534v-0.571h0.534zM4.24 10.102h0.534v0.523h-0.534v-0.523zM4.24 11.156h0.534v0.478h-0.534v-0.478zM4.24 12.166h0.534v0.523h-0.534v-0.523zM4.24 13.22h0.534v0.523h-0.534v-0.523zM4.24 14.275h0.534v0.55h-0.534v-0.55zM4.24 15.357h0.534v0.523h-0.534v-0.523zM4.24 16.411h0.534v0.523h-0.534v-0.523zM4.24 17.465h0.534v0.712h-0.534v-0.712zM4.24 18.709h0.534v0.523h-0.534v-0.523zM4.24 19.763h0.534v0.523h-0.534v-0.523zM4.24 20.818h0.534v0.55h-0.534v-0.55zM4.24 21.899h0.534v0.523h-0.534v-0.523zM4.24 22.954h0.534v0.522h-0.534v-0.522zM4.774 24.008v0.571h-0.535v-0.571h0.534zM3.064 10.102h0.534v0.523h-0.534v-0.523zM3.064 11.156h0.534v0.478h-0.534v-0.478zM3.064 12.166h0.534v0.523h-0.534v-0.523zM3.064 13.22h0.534v0.523h-0.534v-0.523zM3.064 14.275h0.534v0.55h-0.534v-0.55zM3.064 15.357h0.534v0.523h-0.534v-0.523zM3.064 16.411h0.534v0.523h-0.534v-0.523zM3.064 17.465h0.534v0.712h-0.534v-0.712zM3.064 18.709h0.534v0.523h-0.534v-0.523zM3.064 19.763h0.534v0.523h-0.534v-0.523zM3.064 20.818h0.534v0.55h-0.534v-0.55zM3.064 21.899h0.534v0.523h-0.534v-0.523zM3.064 22.954h0.534v0.522h-0.534v-0.522zM3.599 24.008v0.571h-0.534v-0.571h0.534zM6.591 24.579v-0.571h0.589v0.571h-0.589z" fill="#63C8D1" fill="#000000"></path>
</svg>
