<?xml version="1.0" encoding="utf-8"?>
<!-- Generated by IcoMoon.io -->
<!DOCTYPE svg PUBLIC "-//W3C//DTD SVG 1.1//EN" "http://www.w3.org/Graphics/SVG/1.1/DTD/svg11.dtd">
<svg version="1.1" xmlns="http://www.w3.org/2000/svg" xmlns:xlink="http://www.w3.org/1999/xlink" width="11" height="32" viewBox="0 0 11 32">
<g id="icomoon-ignore">
	<line stroke-width="1" x1="" y1="" x2="" y2="" stroke="#449FDB" opacity=""></line>
</g>
	<path d="M7.381 4.407v-2.208h-4.427v2.208h-1.462v26.002h7.352v-26.002z" fill="#59B4BC" fill="#000000"></path>
	<path d="M2.696 5.739h0.515v0.829h-0.515v-0.829z" fill="#4B9BA2" fill="#000000"></path>
	<path d="M2.696 7.376h0.515v0.829h-0.515v-0.829z" fill="#4B9BA2" fill="#000000"></path>
	<path d="M2.696 9.013h0.515v0.829h-0.515v-0.829z" fill="#4B9BA2" fill="#000000"></path>
	<path d="M2.696 10.649h0.515v0.829h-0.515v-0.829z" fill="#4B9BA2" fill="#000000"></path>
	<path d="M2.696 12.286h0.515v0.829h-0.515v-0.829z" fill="#4B9BA2" fill="#000000"></path>
	<path d="M2.696 13.923h0.515v0.829h-0.515v-0.829z" fill="#4B9BA2" fill="#000000"></path>
	<path d="M2.696 15.56h0.515v0.83h-0.515v-0.829z" fill="#4B9BA2" fill="#000000"></path>
	<path d="M2.696 17.197h0.515v0.829h-0.515v-0.829z" fill="#4B9BA2" fill="#000000"></path>
	<path d="M2.696 18.833h0.515v0.829h-0.515v-0.829z" fill="#4B9BA2" fill="#000000"></path>
	<path d="M2.696 20.47h0.515v0.829h-0.515v-0.829z" fill="#4B9BA2" fill="#000000"></path>
	<path d="M2.696 22.107h0.515v0.829h-0.515v-0.829z" fill="#4B9BA2" fill="#000000"></path>
	<path d="M3.803 5.739h0.516v0.829h-0.516v-0.829z" fill="#4B9BA2" fill="#000000"></path>
	<path d="M3.803 7.376h0.516v0.829h-0.516v-0.829z" fill="#4B9BA2" fill="#000000"></path>
	<path d="M3.803 9.013h0.516v0.829h-0.516v-0.829z" fill="#4B9BA2" fill="#000000"></path>
	<path d="M3.803 10.649h0.516v0.829h-0.516v-0.829z" fill="#4B9BA2" fill="#000000"></path>
	<path d="M3.803 12.286h0.516v0.829h-0.516v-0.829z" fill="#4B9BA2" fill="#000000"></path>
	<path d="M3.803 13.923h0.516v0.829h-0.516v-0.829z" fill="#4B9BA2" fill="#000000"></path>
	<path d="M3.803 15.56h0.516v0.83h-0.516v-0.829z" fill="#4B9BA2" fill="#000000"></path>
	<path d="M3.803 17.197h0.516v0.829h-0.516v-0.829z" fill="#4B9BA2" fill="#000000"></path>
	<path d="M3.803 18.833h0.516v0.829h-0.516v-0.829z" fill="#4B9BA2" fill="#000000"></path>
	<path d="M3.803 20.47h0.516v0.829h-0.516v-0.829z" fill="#4B9BA2" fill="#000000"></path>
	<path d="M3.803 22.107h0.516v0.829h-0.516v-0.829z" fill="#4B9BA2" fill="#000000"></path>
	<path d="M4.91 5.739h0.515v0.829h-0.515v-0.829z" fill="#4B9BA2" fill="#000000"></path>
	<path d="M4.91 7.376h0.515v0.829h-0.515v-0.829z" fill="#4B9BA2" fill="#000000"></path>
	<path d="M4.91 9.013h0.515v0.829h-0.515v-0.829z" fill="#4B9BA2" fill="#000000"></path>
	<path d="M4.91 10.649h0.515v0.829h-0.515v-0.829z" fill="#4B9BA2" fill="#000000"></path>
	<path d="M4.91 12.286h0.515v0.829h-0.515v-0.829z" fill="#4B9BA2" fill="#000000"></path>
	<path d="M4.91 13.923h0.515v0.829h-0.515v-0.829z" fill="#4B9BA2" fill="#000000"></path>
	<path d="M4.91 15.56h0.515v0.83h-0.515v-0.829z" fill="#4B9BA2" fill="#000000"></path>
	<path d="M4.91 17.197h0.515v0.829h-0.515v-0.829z" fill="#4B9BA2" fill="#000000"></path>
	<path d="M4.91 18.833h0.515v0.829h-0.515v-0.829z" fill="#4B9BA2" fill="#000000"></path>
	<path d="M4.91 20.47h0.515v0.829h-0.515v-0.829z" fill="#4B9BA2" fill="#000000"></path>
	<path d="M4.91 22.107h0.515v0.829h-0.515v-0.829z" fill="#4B9BA2" fill="#000000"></path>
	<path d="M6.017 5.739h0.515v0.829h-0.515v-0.829z" fill="#4B9BA2" fill="#000000"></path>
	<path d="M3.803 3.267h0.516v0.829h-0.516v-0.829z" fill="#4B9BA2" fill="#000000"></path>
	<path d="M4.91 3.267h0.515v0.829h-0.515v-0.829z" fill="#4B9BA2" fill="#000000"></path>
	<path d="M6.017 3.267h0.515v0.829h-0.515v-0.829z" fill="#4B9BA2" fill="#000000"></path>
	<path d="M6.017 7.376h0.515v0.829h-0.515v-0.829z" fill="#4B9BA2" fill="#000000"></path>
	<path d="M6.017 9.013h0.515v0.829h-0.515v-0.829z" fill="#4B9BA2" fill="#000000"></path>
	<path d="M6.017 10.649h0.515v0.829h-0.515v-0.829z" fill="#4B9BA2" fill="#000000"></path>
	<path d="M6.017 12.286h0.515v0.829h-0.515v-0.829z" fill="#4B9BA2" fill="#000000"></path>
	<path d="M6.017 13.923h0.515v0.829h-0.515v-0.829z" fill="#4B9BA2" fill="#000000"></path>
	<path d="M6.017 15.56h0.515v0.83h-0.515v-0.829z" fill="#4B9BA2" fill="#000000"></path>
	<path d="M6.017 17.197h0.515v0.829h-0.515v-0.829z" fill="#4B9BA2" fill="#000000"></path>
	<path d="M6.017 18.833h0.515v0.829h-0.515v-0.829z" fill="#4B9BA2" fill="#000000"></path>
	<path d="M6.017 20.47h0.515v0.829h-0.515v-0.829z" fill="#4B9BA2" fill="#000000"></path>
	<path d="M6.017 22.107h0.515v0.829h-0.515v-0.829z" fill="#4B9BA2" fill="#000000"></path>
	<path d="M7.123 5.739h0.515v0.829h-0.515v-0.829z" fill="#4B9BA2" fill="#000000"></path>
	<path d="M7.123 7.376h0.515v0.829h-0.515v-0.829z" fill="#4B9BA2" fill="#000000"></path>
	<path d="M7.123 9.013h0.515v0.829h-0.515v-0.829z" fill="#4B9BA2" fill="#000000"></path>
	<path d="M7.123 10.649h0.515v0.829h-0.515v-0.829z" fill="#4B9BA2" fill="#000000"></path>
	<path d="M7.123 12.286h0.515v0.829h-0.515v-0.829z" fill="#4B9BA2" fill="#000000"></path>
	<path d="M7.123 13.923h0.515v0.829h-0.515v-0.829z" fill="#4B9BA2" fill="#000000"></path>
	<path d="M7.123 15.56h0.515v0.83h-0.515v-0.829z" fill="#4B9BA2" fill="#000000"></path>
	<path d="M7.123 17.197h0.515v0.829h-0.515v-0.829z" fill="#4B9BA2" fill="#000000"></path>
	<path d="M7.123 18.833h0.515v0.829h-0.515v-0.829z" fill="#4B9BA2" fill="#000000"></path>
	<path d="M7.123 20.47h0.515v0.829h-0.515v-0.829z" fill="#4B9BA2" fill="#000000"></path>
	<path d="M7.123 22.107h0.515v0.829h-0.515v-0.829z" fill="#4B9BA2" fill="#000000"></path>
</svg>
