<?xml version="1.0" encoding="utf-8"?>
<!-- Generated by IcoMoon.io -->
<!DOCTYPE svg PUBLIC "-//W3C//DTD SVG 1.1//EN" "http://www.w3.org/Graphics/SVG/1.1/DTD/svg11.dtd">
<svg version="1.1" xmlns="http://www.w3.org/2000/svg" xmlns:xlink="http://www.w3.org/1999/xlink" width="36" height="32" viewBox="0 0 36 32">
<g id="icomoon-ignore">
	<line stroke-width="1" x1="" y1="" x2="" y2="" stroke="#449FDB" opacity=""></line>
</g>
	<path d="M1.927 6.124h6.699v24.395h-6.699v-24.395z" fill="#59B4BC" fill="#000000"></path>
	<path d="M7.059 11.868h0.47v0.763h-0.47v-0.763z" fill="#DCDDDE" fill="#000000"></path>
	<path d="M7.059 13.374h0.47v0.763h-0.47v-0.763z" fill="#DCDDDE" fill="#000000"></path>
	<path d="M7.059 14.88h0.47v0.763h-0.47v-0.763z" fill="#DCDDDE" fill="#000000"></path>
	<path d="M7.059 16.386h0.47v0.763h-0.47v-0.763z" fill="#DCDDDE" fill="#000000"></path>
	<path d="M6.051 14.88h0.47v0.763h-0.47v-0.763z" fill="#DCDDDE" fill="#000000"></path>
	<path d="M6.051 16.386h0.47v0.763h-0.47v-0.763z" fill="#DCDDDE" fill="#000000"></path>
	<path d="M5.042 8.855h0.47v0.763h-0.47v-0.763z" fill="#DCDDDE" fill="#000000"></path>
	<path d="M5.042 10.361h0.47v0.763h-0.47v-0.763z" fill="#DCDDDE" fill="#000000"></path>
	<path d="M5.042 11.868h0.47v0.763h-0.47v-0.763z" fill="#DCDDDE" fill="#000000"></path>
	<path d="M5.042 13.374h0.47v0.763h-0.47v-0.763z" fill="#DCDDDE" fill="#000000"></path>
	<path d="M5.042 14.88h0.47v0.763h-0.47v-0.763z" fill="#DCDDDE" fill="#000000"></path>
	<path d="M5.042 16.386h0.47v0.763h-0.47v-0.763z" fill="#DCDDDE" fill="#000000"></path>
	<path d="M5.042 17.892h0.47v0.763h-0.47v-0.763z" fill="#DCDDDE" fill="#000000"></path>
	<path d="M5.042 19.398h0.47v0.763h-0.47v-0.763z" fill="#DCDDDE" fill="#000000"></path>
	<path d="M5.042 20.904h0.47v0.763h-0.47v-0.763z" fill="#DCDDDE" fill="#000000"></path>
	<path d="M4.034 11.868h0.469v0.763h-0.469v-0.763z" fill="#DCDDDE" fill="#000000"></path>
	<path d="M4.034 13.374h0.469v0.763h-0.469v-0.763z" fill="#DCDDDE" fill="#000000"></path>
	<path d="M4.034 14.88h0.469v0.763h-0.469v-0.763z" fill="#DCDDDE" fill="#000000"></path>
	<path d="M3.025 7.349h0.47v0.763h-0.47v-0.763z" fill="#DCDDDE" fill="#000000"></path>
	<path d="M3.025 8.855h0.47v0.763h-0.47v-0.763z" fill="#DCDDDE" fill="#000000"></path>
	<path d="M3.025 10.361h0.47v0.763h-0.47v-0.763z" fill="#DCDDDE" fill="#000000"></path>
	<path d="M3.025 11.868h0.47v0.763h-0.47v-0.763z" fill="#DCDDDE" fill="#000000"></path>
	<path d="M3.025 13.374h0.47v0.763h-0.47v-0.763z" fill="#DCDDDE" fill="#000000"></path>
	<path d="M3.025 14.88h0.47v0.763h-0.47v-0.763z" fill="#DCDDDE" fill="#000000"></path>
	<path d="M3.025 16.386h0.47v0.763h-0.47v-0.763z" fill="#DCDDDE" fill="#000000"></path>
	<path d="M27.678 8.484h5.842v22.035h-5.842v-22.035z" fill="#DCDDDE" fill="#000000"></path>
	<path d="M32.386 10.116h0.089v18.938h-0.089v-18.938z" fill="#DCDDDE" fill="#000000"></path>
	<path d="M32.287 9.989h0.287v19.192h-0.287v-19.192z" fill="#DCDDDE" fill="#000000"></path>
	<path d="M31.462 10.116h0.089v18.938h-0.089v-18.938z" fill="#DCDDDE" fill="#000000"></path>
	<path d="M31.363 9.989h0.287v19.192h-0.287v-19.192z" fill="#DCDDDE" fill="#000000"></path>
	<path d="M30.591 10.116h0.089v18.938h-0.089v-18.938z" fill="#DCDDDE" fill="#000000"></path>
	<path d="M30.492 9.989h0.288v19.192h-0.288v-19.192z" fill="#DCDDDE" fill="#000000"></path>
	<path d="M29.667 10.116h0.089v18.938h-0.089v-18.938z" fill="#DCDDDE" fill="#000000"></path>
	<path d="M29.568 9.989h0.287v19.192h-0.287v-19.192z" fill="#DCDDDE" fill="#000000"></path>
	<path d="M28.722 10.116h0.089v18.938h-0.089v-18.938z" fill="#DCDDDE" fill="#000000"></path>
	<path d="M28.623 9.989h0.287v19.192h-0.287v-19.192z" fill="#DCDDDE" fill="#000000"></path>
	<path d="M24.257 6.089v-2.327h-4.666v2.327h-1.541v24.43h7.749v-24.43z" fill="#DCDDDE" fill="#000000"></path>
	<path d="M19.32 7.493h0.543v0.874h-0.543v-0.874z" fill="#DCDDDE" fill="#000000"></path>
	<path d="M19.32 9.218h0.543v0.874h-0.543v-0.874z" fill="#DCDDDE" fill="#000000"></path>
	<path d="M19.32 10.943h0.543v0.874h-0.543v-0.874z" fill="#DCDDDE" fill="#000000"></path>
	<path d="M19.32 12.668h0.543v0.874h-0.543v-0.874z" fill="#59B4BC" fill="#000000"></path>
	<path d="M19.32 14.394h0.543v0.874h-0.543v-0.874z" fill="#F0EAD8" fill="#000000"></path>
	<path d="M19.32 16.119h0.543v0.874h-0.543v-0.874z" fill="#4B9BA2" fill="#000000"></path>
	<path d="M19.32 17.844h0.543v0.874h-0.543v-0.874z" fill="#F0EAD8" fill="#000000"></path>
	<path d="M19.32 19.569h0.543v0.874h-0.543v-0.874z" fill="#4B9BA2" fill="#000000"></path>
	<path d="M19.32 21.294h0.543v0.874h-0.543v-0.874z" fill="#F0EAD8" fill="#000000"></path>
	<path d="M19.32 23.019h0.543v0.874h-0.543v-0.874z" fill="#4B9BA2" fill="#000000"></path>
	<path d="M19.32 24.745h0.543v0.874h-0.543v-0.874z" fill="#F0EAD8" fill="#000000"></path>
	<path d="M20.486 7.493h0.543v0.874h-0.543v-0.874z" fill="#4B9BA2" fill="#000000"></path>
	<path d="M20.486 9.218h0.543v0.874h-0.543v-0.874z" fill="#F0EAD8" fill="#000000"></path>
	<path d="M20.486 10.943h0.543v0.874h-0.543v-0.874z" fill="#4B9BA2" fill="#000000"></path>
	<path d="M20.486 12.668h0.543v0.874h-0.543v-0.874z" fill="#59B4BC" fill="#000000"></path>
	<path d="M20.486 14.394h0.543v0.874h-0.543v-0.874z" fill="#4B9BA2" fill="#000000"></path>
	<path d="M20.486 16.119h0.543v0.874h-0.543v-0.874z" fill="#4B9BA2" fill="#000000"></path>
	<path d="M20.486 17.844h0.543v0.874h-0.543v-0.874z" fill="#4B9BA2" fill="#000000"></path>
	<path d="M20.486 19.569h0.543v0.874h-0.543v-0.874z" fill="#4B9BA2" fill="#000000"></path>
	<path d="M20.486 21.294h0.543v0.874h-0.543v-0.874z" fill="#4B9BA2" fill="#000000"></path>
	<path d="M20.486 23.019h0.543v0.874h-0.543v-0.874z" fill="#4B9BA2" fill="#000000"></path>
	<path d="M20.486 24.745h0.543v0.874h-0.543v-0.874z" fill="#4B9BA2" fill="#000000"></path>
	<path d="M21.653 7.493h0.543v0.874h-0.543v-0.874z" fill="#4B9BA2" fill="#000000"></path>
	<path d="M21.653 9.218h0.543v0.874h-0.543v-0.874z" fill="#4B9BA2" fill="#000000"></path>
	<path d="M21.653 10.943h0.543v0.874h-0.543v-0.874z" fill="#4B9BA2" fill="#000000"></path>
	<path d="M21.653 12.668h0.543v0.874h-0.543v-0.874z" fill="#4B9BA2" fill="#000000"></path>
	<path d="M21.653 14.394h0.543v0.874h-0.543v-0.874z" fill="#4B9BA2" fill="#000000"></path>
	<path d="M21.653 16.119h0.543v0.874h-0.543v-0.874z" fill="#4B9BA2" fill="#000000"></path>
	<path d="M21.653 17.844h0.543v0.874h-0.543v-0.874z" fill="#4B9BA2" fill="#000000"></path>
	<path d="M21.653 19.569h0.543v0.874h-0.543v-0.874z" fill="#4B9BA2" fill="#000000"></path>
	<path d="M21.653 21.294h0.543v0.874h-0.543v-0.874z" fill="#4B9BA2" fill="#000000"></path>
	<path d="M21.653 23.019h0.543v0.874h-0.543v-0.874z" fill="#4B9BA2" fill="#000000"></path>
	<path d="M21.653 24.745h0.543v0.874h-0.543v-0.874z" fill="#4B9BA2" fill="#000000"></path>
	<path d="M22.819 7.493h0.543v0.874h-0.543v-0.874z" fill="#4B9BA2" fill="#000000"></path>
	<path d="M20.486 4.888h0.543v0.874h-0.543v-0.874z" fill="#4B9BA2" fill="#000000"></path>
	<path d="M21.653 4.888h0.543v0.874h-0.543v-0.874z" fill="#4B9BA2" fill="#000000"></path>
	<path d="M22.819 4.888h0.543v0.874h-0.543v-0.874z" fill="#4B9BA2" fill="#000000"></path>
	<path d="M22.819 9.218h0.543v0.874h-0.543v-0.874z" fill="#4B9BA2" fill="#000000"></path>
	<path d="M22.819 10.943h0.543v0.874h-0.543v-0.874z" fill="#4B9BA2" fill="#000000"></path>
	<path d="M22.819 12.668h0.543v0.874h-0.543v-0.874z" fill="#4B9BA2" fill="#000000"></path>
	<path d="M22.819 14.394h0.543v0.874h-0.543v-0.874z" fill="#4B9BA2" fill="#000000"></path>
	<path d="M22.819 16.119h0.543v0.874h-0.543v-0.874z" fill="#4B9BA2" fill="#000000"></path>
	<path d="M22.819 17.844h0.543v0.874h-0.543v-0.874z" fill="#4B9BA2" fill="#000000"></path>
	<path d="M22.819 19.569h0.543v0.874h-0.543v-0.874z" fill="#4B9BA2" fill="#000000"></path>
	<path d="M22.819 21.294h0.543v0.874h-0.543v-0.874z" fill="#4B9BA2" fill="#000000"></path>
	<path d="M22.819 23.019h0.543v0.874h-0.543v-0.874z" fill="#4B9BA2" fill="#000000"></path>
	<path d="M22.819 24.745h0.543v0.874h-0.543v-0.874z" fill="#4B9BA2" fill="#000000"></path>
	<path d="M23.986 7.493h0.543v0.874h-0.543v-0.874z" fill="#4B9BA2" fill="#000000"></path>
	<path d="M23.986 9.218h0.543v0.874h-0.543v-0.874z" fill="#4B9BA2" fill="#000000"></path>
	<path d="M23.986 10.943h0.543v0.874h-0.543v-0.874z" fill="#4B9BA2" fill="#000000"></path>
	<path d="M23.986 12.668h0.543v0.874h-0.543v-0.874z" fill="#4B9BA2" fill="#000000"></path>
	<path d="M23.986 14.394h0.543v0.874h-0.543v-0.874z" fill="#4B9BA2" fill="#000000"></path>
	<path d="M23.986 16.119h0.543v0.874h-0.543v-0.874z" fill="#4B9BA2" fill="#000000"></path>
	<path d="M23.986 17.844h0.543v0.874h-0.543v-0.874z" fill="#4B9BA2" fill="#000000"></path>
	<path d="M23.986 19.569h0.543v0.874h-0.543v-0.874z" fill="#4B9BA2" fill="#000000"></path>
	<path d="M23.986 21.294h0.543v0.874h-0.543v-0.874z" fill="#4B9BA2" fill="#000000"></path>
	<path d="M23.986 23.019h0.543v0.874h-0.543v-0.874z" fill="#4B9BA2" fill="#000000"></path>
	<path d="M23.986 24.745h0.543v0.874h-0.543v-0.874z" fill="#4B9BA2" fill="#000000"></path>
	<path d="M9.73 6.090h7.722v24.429h-7.722v-24.429z" fill="#4B9BA2" fill="#000000"></path>
	<path d="M10.638 7.107h1.119v1.34h-1.119v-1.34z" fill="#4B9BA2" fill="#000000"></path>
	<path d="M13.031 7.107h1.119v1.34h-1.119v-1.34z" fill="#4B9BA2" fill="#000000"></path>
	<path d="M15.424 7.107h1.119v1.34h-1.119v-1.34z" fill="#4B9BA2" fill="#000000"></path>
	<path d="M10.638 9.955h1.119v1.34h-1.119v-1.34z" fill="#4B9BA2" fill="#000000"></path>
	<path d="M13.031 9.955h1.119v1.34h-1.119v-1.34z" fill="#4B9BA2" fill="#000000"></path>
	<path d="M15.424 9.955h1.119v1.34h-1.119v-1.34z" fill="#4B9BA2" fill="#000000"></path>
	<path d="M10.638 12.803h1.119v1.34h-1.119v-1.34z" fill="#4B9BA2" fill="#000000"></path>
	<path d="M13.031 12.803h1.119v1.34h-1.119v-1.34z" fill="#4B9BA2" fill="#000000"></path>
	<path d="M15.424 12.803h1.119v1.34h-1.119v-1.34z" fill="#4B9BA2" fill="#000000"></path>
	<path d="M10.638 15.652h1.119v1.34h-1.119v-1.34z" fill="#4B9BA2" fill="#000000"></path>
	<path d="M13.031 15.652h1.119v1.34h-1.119v-1.34z" fill="#4B9BA2" fill="#000000"></path>
	<path d="M15.424 15.652h1.119v1.34h-1.119v-1.34z" fill="#4B9BA2" fill="#000000"></path>
	<path d="M10.638 18.5h1.119v1.34h-1.119v-1.34z" fill="#4B9BA2" fill="#000000"></path>
	<path d="M13.031 18.5h1.119v1.34h-1.119v-1.34z" fill="#4B9BA2" fill="#000000"></path>
	<path d="M15.424 18.5h1.119v1.34h-1.119v-1.34z" fill="#4B9BA2" fill="#000000"></path>
	<path d="M10.638 21.348h1.119v1.34h-1.119v-1.34z" fill="#4B9BA2" fill="#000000"></path>
	<path d="M13.031 21.348h1.119v1.34h-1.119v-1.34z" fill="#4B9BA2" fill="#000000"></path>
	<path d="M15.424 21.348h1.119v1.34h-1.119v-1.34z" fill="#4B9BA2" fill="#000000"></path>
	<path d="M10.638 24.196h1.119v1.34h-1.119v-1.34z" fill="#4B9BA2" fill="#000000"></path>
	<path d="M13.031 24.196h1.119v1.34h-1.119v-1.34z" fill="#4B9BA2" fill="#000000"></path>
	<path d="M15.424 24.196h1.119v1.34h-1.119v-1.34z" fill="#4B9BA2" fill="#000000"></path>
	<path d="M10.638 27.045h1.119v1.34h-1.119v-1.34z" fill="#4B9BA2" fill="#000000"></path>
	<path d="M13.031 27.045h1.119v1.34h-1.119v-1.34z" fill="#4B9BA2" fill="#000000"></path>
	<path d="M15.424 27.045h1.119v1.34h-1.119v-1.34z" fill="#4B9BA2" fill="#000000"></path>
	<path d="M9.722 5.068h7.73v1.058h-7.73v-1.058z" fill="#4B9BA2" fill="#000000"></path>
	<path d="M13.41 3.934h3.296v1.713h-3.296v-1.713z" fill="#4B9BA2" fill="#000000"></path>
	<path d="M13.41 3.078h3.296v1.043h-3.296v-1.043z" fill="#4B9BA2" fill="#000000"></path>
</svg>
