<?xml version="1.0" encoding="utf-8"?>
<!-- Generated by IcoMoon.io -->
<!DOCTYPE svg PUBLIC "-//W3C//DTD SVG 1.1//EN" "http://www.w3.org/Graphics/SVG/1.1/DTD/svg11.dtd">
<svg version="1.1" xmlns="http://www.w3.org/2000/svg" xmlns:xlink="http://www.w3.org/1999/xlink" width="9" height="32" viewBox="0 0 9 32">
<g id="icomoon-ignore">
	<line stroke-width="1" x1="" y1="" x2="" y2="" stroke="#449FDB" opacity=""></line>
</g>
	<path d="M6.893 9.659c-0.18 0.034-0.347 0.084-0.503 0.145-0.060 0.024-0.119 0.048-0.176 0.075-0.183 0.087-0.348 0.19-0.497 0.305-0.244 0.186-0.447 0.402-0.615 0.622-0.274 0.356-0.46 0.726-0.594 1.006-0.013 0.027-0.027 0.054-0.041 0.080-0.15 0.279-0.369 0.51-0.615 0.701-0.2 0.156-0.419 0.284-0.635 0.389s-0.428 0.188-0.615 0.25c-0.372 0.125-0.643 0.173-0.643 0.173v16.791h5.37v-20.591c-0.153 0.008-0.297 0.026-0.435 0.052z" fill="#FFFFFF" fill="#000000"></path>
	<path d="M7.328 10.622v20.591h-5.37v-16.791c0 0 0.271-0.048 0.643-0.173 0.187-0.063 0.4-0.145 0.615-0.25s0.434-0.234 0.635-0.389c0.246-0.191 0.465-0.423 0.615-0.702 0.014-0.026 0.028-0.053 0.041-0.080 0.134-0.28 0.32-0.65 0.594-1.006 0.169-0.221 0.371-0.436 0.615-0.622 0.149-0.114 0.314-0.218 0.497-0.305 0.316-0.15 0.684-0.251 1.114-0.273z" fill="#59B4BC" fill="#000000"></path>
	<path d="M7.328 10.623v20.59h-1.114v-20.318c0.316-0.15 0.684-0.251 1.114-0.272z" fill="#4B9BA2" fill="#000000"></path>
	<path d="M3.726 29.124h1.174v2.089h-1.174v-2.089z" fill="#E2ECF1" fill="#000000"></path>
	<path d="M3.726 29.124h0.38v2.089h-0.38v-2.089z" fill="#4B9BA2" fill="#000000"></path>
	<path d="M3.217 13.999v14.565h-0.615v-14.314c0.187-0.063 0.399-0.145 0.615-0.25z" fill="#4B9BA2" fill="#000000"></path>
	<path d="M4.467 12.908v15.618h-0.615v-14.917c0.246-0.191 0.465-0.423 0.615-0.702z" fill="#4B9BA2" fill="#000000"></path>
	<path d="M5.717 11.2v17.326h-0.615v-16.704c0.169-0.221 0.371-0.436 0.615-0.622z" fill="#4B9BA2" fill="#000000"></path>
	<path d="M3.298 1.65c0 1.203 0 2.407 0 3.61 0.852 0.187 1.739 0.187 2.591 0 0-1.203 0-2.406 0-3.61-0.852-0.187-1.739-0.187-2.591 0zM5.255 4.679h-1.323v-2.449h1.323v2.449z" fill="#FFFFFF" fill="#000000"></path>
	<path d="M6.234 5.15h-3.742v1.498h4.203v-1.498z" fill="#FFFFFF" fill="#000000"></path>
	<path d="M3.298 1.944c0 1.203 0 2.407 0 3.61 0.852 0.187 1.739 0.187 2.591 0 0-1.203 0-2.407 0-3.61-0.852-0.187-1.739-0.187-2.591 0zM5.255 4.973h-1.323v-2.449h1.323v2.449z" fill="#4B9BA2" fill="#000000"></path>
	<path d="M3.168 13.57c0.215-0.105 0.434-0.233 0.635-0.389 0.246-0.191 0.465-0.422 0.615-0.701 0.014-0.026 0.028-0.053 0.041-0.080 0.134-0.28 0.32-0.65 0.594-1.006 0.169-0.221 0.371-0.436 0.615-0.622 0.149-0.114 0.314-0.218 0.497-0.305 0.022-0.011 0.046-0.020 0.070-0.030v-4.383h-3.742v7.787c0.020-0.006 0.040-0.013 0.060-0.020 0.187-0.063 0.399-0.145 0.615-0.251z" fill="#59B4BC" fill="#000000"></path>
	<path d="M5.668 10.771c0.149-0.114 0.314-0.218 0.497-0.305 0.057-0.027 0.116-0.052 0.176-0.075 0.112-0.044 0.23-0.082 0.354-0.113v-4.225h-1.209v4.869c0.058-0.052 0.118-0.102 0.182-0.151z" fill="#C4E7E6" fill="#000000"></path>
	<path d="M3.546 5.317h-0.241v0.404h2.585v-0.338z" fill="#4B9BA2" fill="#000000"></path>
</svg>
