<?xml version="1.0" encoding="utf-8"?>
<!-- Generated by IcoMoon.io -->
<!DOCTYPE svg PUBLIC "-//W3C//DTD SVG 1.1//EN" "http://www.w3.org/Graphics/SVG/1.1/DTD/svg11.dtd">
<svg version="1.1" xmlns="http://www.w3.org/2000/svg" xmlns:xlink="http://www.w3.org/1999/xlink" width="10" height="32" viewBox="0 0 10 32">
<g id="icomoon-ignore">
	<line stroke-width="1" x1="" y1="" x2="" y2="" stroke="#449FDB" opacity=""></line>
</g>
	<path d="M1.369 17.222h7.417v0.959h-7.417v-0.959z" fill="#FFFFFF" fill="#000000"></path>
	<path d="M3.277 11.862h3.99v0.958h-3.99v-0.958z" fill="#FFFFFF" fill="#000000"></path>
	<path d="M4.14 4.695h2.285v5.137h-2.285v-5.137z" fill="#59B4BC" fill="#000000"></path>
	<path d="M3.558 8.047h2.077v4.214h-2.077v-4.214z" fill="#59B4BC" fill="#000000"></path>
	<path d="M4.832 8.047h0.842v4.214h-0.842v-4.214z" fill="#4B9BA2" fill="#000000"></path>
	<path d="M5.333 9.561h1.412v2.722h-1.412v-2.722z" fill="#63C8D1" fill="#000000"></path>
	<path d="M5.333 9.561h0.672v2.722h-0.672v-2.722z" fill="#FFFFFF" fill="#000000"></path>
	<path d="M1.486 18.347h7.091v12.058h-7.091v-12.058z" fill="#C4E7E6" fill="#000000"></path>
	<path d="M1.486 18.347h0.773v12.058h-0.773v-12.058z" fill="#4B9BA2" fill="#000000"></path>
	<path d="M1.385 18.039h7.427v0.462h-7.427v-0.462z" fill="#4B9BA2" fill="#000000"></path>
	<path d="M3.334 12.855h3.394v4.829h-3.394v-4.829z" fill="#59B4BC" fill="#000000"></path>
	<path d="M5.484 12.916h1.579v4.829h-1.579v-4.829z" fill="#63C8D1" fill="#000000"></path>
	<path d="M6.627 12.916h0.538v4.829h-0.538v-4.829z" fill="#FFFFFF" fill="#000000"></path>
	<path d="M3.266 12.67h3.999v0.461h-3.999v-0.461z" fill="#4B9BA2" fill="#000000"></path>
	<path d="M3.502 7.74h2.218v0.492h-2.218v-0.492z" fill="#4B9BA2" fill="#000000"></path>
	<path d="M4.443 27.52h2.732v2.909h-2.732v-2.909z" fill="#C4E7E6" fill="#000000"></path>
	<path d="M3.018 26.008l0.014 4.443h1.411v-3.926z" fill="#4B9BA2" fill="#000000"></path>
	<path d="M4.428 27.63l3.418-0.007-0.803-1.361-3.456 0.005z" fill="#4B9BA2" fill="#000000"></path>
	<path d="M4.318 27.628l0.11 0.002-0.841-1.362h-0.112z" fill="#4D6E7D" fill="#000000"></path>
	<path d="M5.528 29.073h0.904v1.353h-0.904v-1.353z" fill="#FFFFFF" fill="#000000"></path>
	<path d="M6.14 29.073h0.293v1.353h-0.293v-1.353z" fill="#4B9BA2" fill="#000000"></path>
	<path d="M6.229 27.916h0.65v0.634h-0.65v-0.634z" fill="#FFFFFF" fill="#000000"></path>
	<path d="M6.668 27.916h0.21v0.634h-0.21v-0.634z" fill="#4B9BA2" fill="#000000"></path>
	<path d="M4.961 27.916h0.65v0.634h-0.65v-0.634z" fill="#FFFFFF" fill="#000000"></path>
	<path d="M5.401 27.916h0.21v0.634h-0.21v-0.634z" fill="#4B9BA2" fill="#000000"></path>
	<path d="M7.378 22.51h0.65v0.759h-0.65v-0.759z" fill="#FFFFFF" fill="#000000"></path>
	<path d="M7.817 22.51h0.21v0.759h-0.21v-0.759z" fill="#4B9BA2" fill="#000000"></path>
	<path d="M5.848 22.51h0.65v0.759h-0.65v-0.759z" fill="#FFFFFF" fill="#000000"></path>
	<path d="M6.288 22.51h0.21v0.759h-0.21v-0.759z" fill="#4B9BA2" fill="#000000"></path>
	<path d="M4.319 22.51h0.65v0.759h-0.65v-0.759z" fill="#FFFFFF" fill="#000000"></path>
	<path d="M4.758 22.51h0.21v0.759h-0.21v-0.759z" fill="#4B9BA2" fill="#000000"></path>
	<path d="M2.789 22.51h0.65v0.759h-0.65v-0.759z" fill="#FFFFFF" fill="#000000"></path>
	<path d="M3.229 22.51h0.21v0.759h-0.21v-0.759z" fill="#4B9BA2" fill="#000000"></path>
	<path d="M7.378 24.058h0.65v0.758h-0.65v-0.758z" fill="#FFFFFF" fill="#000000"></path>
	<path d="M7.817 24.058h0.21v0.758h-0.21v-0.758z" fill="#4B9BA2" fill="#000000"></path>
	<path d="M5.848 24.058h0.65v0.758h-0.65v-0.758z" fill="#FFFFFF" fill="#000000"></path>
	<path d="M6.288 24.058h0.21v0.758h-0.21v-0.758z" fill="#4B9BA2" fill="#000000"></path>
	<path d="M4.319 24.058h0.65v0.758h-0.65v-0.758z" fill="#FFFFFF" fill="#000000"></path>
	<path d="M4.758 24.058h0.21v0.758h-0.21v-0.758z" fill="#4B9BA2" fill="#000000"></path>
	<path d="M2.789 24.058h0.65v0.758h-0.65v-0.758z" fill="#FFFFFF" fill="#000000"></path>
	<path d="M3.229 24.058h0.21v0.758h-0.21v-0.758z" fill="#4B9BA2" fill="#000000"></path>
	<path d="M7.378 20.849h0.65v0.759h-0.65v-0.759z" fill="#FFFFFF" fill="#000000"></path>
	<path d="M7.817 20.849h0.21v0.759h-0.21v-0.759z" fill="#4B9BA2" fill="#000000"></path>
	<path d="M5.848 20.849h0.65v0.759h-0.65v-0.759z" fill="#FFFFFF" fill="#000000"></path>
	<path d="M6.288 20.849h0.21v0.759h-0.21v-0.759z" fill="#4B9BA2" fill="#000000"></path>
	<path d="M4.319 20.849h0.65v0.759h-0.65v-0.759z" fill="#FFFFFF" fill="#000000"></path>
	<path d="M4.758 20.849h0.21v0.759h-0.21v-0.759z" fill="#4B9BA2" fill="#000000"></path>
	<path d="M2.789 20.849h0.65v0.759h-0.65v-0.759z" fill="#FFFFFF" fill="#000000"></path>
	<path d="M3.229 20.849h0.21v0.759h-0.21v-0.759z" fill="#4B9BA2" fill="#000000"></path>
	<path d="M7.378 19.188h0.65v0.758h-0.65v-0.758z" fill="#FFFFFF" fill="#000000"></path>
	<path d="M7.817 19.188h0.21v0.758h-0.21v-0.758z" fill="#4B9BA2" fill="#000000"></path>
	<path d="M5.848 19.188h0.65v0.758h-0.65v-0.758z" fill="#FFFFFF" fill="#000000"></path>
	<path d="M6.288 19.188h0.21v0.758h-0.21v-0.758z" fill="#4B9BA2" fill="#000000"></path>
	<path d="M4.319 19.188h0.65v0.758h-0.65v-0.758z" fill="#FFFFFF" fill="#000000"></path>
	<path d="M4.758 19.188h0.21v0.758h-0.21v-0.758z" fill="#4B9BA2" fill="#000000"></path>
	<path d="M2.789 19.188h0.65v0.758h-0.65v-0.758z" fill="#FFFFFF" fill="#000000"></path>
	<path d="M3.229 19.188h0.21v0.758h-0.21v-0.758z" fill="#4B9BA2" fill="#000000"></path>
	<path d="M4.145 4.12h2.277v0.871h-2.277v-0.871z" fill="#FFFFFF" fill="#000000"></path>
	<path d="M5.24 2.159h0.202v2.245h-0.202v-2.245z" fill="#4B9BA2" fill="#000000"></path>
	<path d="M5.644 2.836h0.168v1.815h-0.168v-1.815z" fill="#4B9BA2" fill="#000000"></path>
	<path d="M3.485 7.275h2.238v0.534h-2.238v-0.534z" fill="#FFFFFF" fill="#000000"></path>
	<path d="M5.333 9.217h1.485v0.345h-1.485v-0.345z" fill="#FFFFFF" fill="#000000"></path>
	<path d="M6.533 25.995h-3.557l0.508 0.273h3.557z" fill="#FFFFFF" fill="#000000"></path>
</svg>
