<?xml version="1.0" encoding="utf-8"?>
<!-- Generated by IcoMoon.io -->
<!DOCTYPE svg PUBLIC "-//W3C//DTD SVG 1.1//EN" "http://www.w3.org/Graphics/SVG/1.1/DTD/svg11.dtd">
<svg version="1.1" xmlns="http://www.w3.org/2000/svg" xmlns:xlink="http://www.w3.org/1999/xlink" width="41" height="32" viewBox="0 0 41 32">
<g id="icomoon-ignore">
	<line stroke-width="1" x1="" y1="" x2="" y2="" stroke="#449FDB" opacity=""></line>
</g>
	<path d="M26.437 19.956c1.037-1.013 1.906-2.056 2.748-3.197 1.692-2.3 3.151-4.854 4.107-7.42 0.431-1.157 0.644-2.317 0.23-3.426-0.444-1.189-1.949-1.214-3.165-0.654-2.38 1.095-4.324 2.705-6.151 4.455-1.037 0.994-2.209 1.921-3.146 2.988-0.504 0.574-1.005 1.14-1.17 1.837-0.173 0.728 0.043 1.101 0.355 1.718 0.525 1.037 1.023 2.048 1.422 3.143 0.194 0.533 0.453 1.072 0.593 1.622 0.154 0.612 0.011 1.365 0 1.998 0.39 0.016 0.69-0.309 1.277-0.195 0-0 1.96-1.948 2.901-2.869z" fill="#F48351" fill="#000000"></path>
	<path d="M18.312 25.443c-1.156 0.004-1.91-0.149-3.068-0.191-0.633-0.026-0.861-0.589-1.502-0.47-0.585 0.106-1.573 0.234-2.166 0.219-0.479-0.015-1.256 0.149-1.649-0.241-0.463-0.455 0.17-1.132-0.259-1.652-0.44-0.533-1.099-0.173-0.827-1.071 0.149-0.494 0.299-1.207-0.217-1.539-0.355-0.23-1.225-0.131-1.665-0.156-0.402-0.022-1.459-0.024-1.588-0.602-0.118-0.531 0.681-0.879 1.038-0.919 0.583-0.070 1.207 0.068 1.744 0.309 0.666 0.299 2.726 1.48 3.195 0.406 0.173-0.39-0.095-0.602 0.402-0.772 0.337-0.114 0.743 0.083 1.091 0.077 0.432-0.007 0.616-0.089 0.838-0.436 0.29-0.457 0.287-0.455 0.845-0.366 0.305 0.049 0.78 0.221 1.086 0.163 0.309-0.062 0.527-0.329 0.857-0.395 0.667-0.135 3.001 1.163 4.634 3.336 0.543 0.723 1.603 2.556 0.322 3.548 0-0-0.806 0.742-3.111 0.751z" fill="#F48351" fill="#000000"></path>
	<path d="M23.932 19.792c0.52-1.281 0.883-2.558 1.183-3.928 0.606-2.763 0.919-5.736 0.796-8.61-0.056-1.3-0.299-2.552-1.067-3.612-0.823-1.134-2.124-0.831-2.965 0.022-1.646 1.661-2.721 3.765-3.65 5.986-0.525 1.262-1.191 2.483-1.603 3.796-0.224 0.708-0.444 1.407-0.328 2.167 0.116 0.795 0.444 1.136 0.937 1.706 0.835 0.96 1.638 1.901 2.385 2.95 0.364 0.51 0.785 1.014 1.106 1.553 0.359 0.604 0.513 1.415 0.742 2.078 0.337-0.072 0.486-0.268 1.033-0.28 0 0 0.958-2.662 1.43-3.827z" fill="#E55913" fill="#000000"></path>
	<path d="M26.242 22c-0.299 0.11-0.636-0.058-0.75-0.374s0.037-0.659 0.338-0.767c0.299-0.11 0.636 0.058 0.75 0.372 0.117 0.315-0.038 0.663-0.338 0.769z" fill="#9B5408" fill="#000000"></path>
	<path d="M24.152 23.776c-1.161 0.751-2.323 1.022-2.588 0.609-0.268-0.412 0.459-1.356 1.622-2.107 1.164-0.751 2.326-1.023 2.591-0.61s-0.461 1.356-1.625 2.108z" fill="#9B5408" fill="#000000"></path>
	<path d="M19.519 24.434c-1.146 0.904-3.227 1.502-2.975 1.959 0.249 0.457 1.384 1.146 3.884-0.302 1.352-0.78 2.278-1.729 2.026-2.186-0.25-0.458-1.707-0.439-2.935 0.529z" fill="#9B5408" fill="#000000"></path>
	<path d="M26.515 21.249c-0.003 0.004 0.39-0.108 0.877-0.433 0.497-0.314 1.078-0.82 1.689-1.286 0.628-0.453 1.27-0.897 1.817-1.136 0.544-0.248 0.962-0.246 0.971-0.24 0.053-0.001 0.096-0.018 0.099-0.037 0.003-0.020-0.041-0.038-0.098-0.037-0.008-0.008-0.451-0.004-1.005 0.252-0.555 0.246-1.197 0.697-1.822 1.156-0.609 0.474-1.182 0.984-1.671 1.302-0.479 0.331-0.865 0.451-0.858 0.458z" fill="#000" fill="#000000"></path>
	<path d="M26.253 21.252c-0.011-0.009 0.287-0.314 0.642-0.842 0.359-0.525 0.75-1.282 1.159-2.030 0.745-1.583 2.242-2.582 2.262-2.571 0.049-0.034 0.1-0.045 0.115-0.023 0.011 0.022-0.014 0.065-0.062 0.098-0.027-0.007-1.503 0.958-2.258 2.527-0.417 0.741-0.817 1.496-1.188 2.017-0.366 0.525-0.669 0.825-0.669 0.825z" fill="#000" fill="#000000"></path>
</svg>
