<?xml version="1.0" encoding="utf-8"?>
<!-- Generated by IcoMoon.io -->
<!DOCTYPE svg PUBLIC "-//W3C//DTD SVG 1.1//EN" "http://www.w3.org/Graphics/SVG/1.1/DTD/svg11.dtd">
<svg version="1.1" xmlns="http://www.w3.org/2000/svg" xmlns:xlink="http://www.w3.org/1999/xlink" width="32" height="32" viewBox="0 0 32 32">
<g id="icomoon-ignore">
	<line stroke-width="1" x1="" y1="" x2="" y2="" stroke="#449FDB" opacity=""></line>
</g>
	<path d="M14.093 1.841c0.099-0.051 0.223-0.010 0.275 0.090s0.015 0.223-0.084 0.274c-0.014 0.007-0.031 0.016-0.050 0.027-0.87 0.482-1.652 1.87-2.050 3.472-0.399 1.609-0.402 3.421 0.29 4.738 0.018 0.035 0.039 0.072 0.061 0.111 0.056 0.099 0.023 0.223-0.074 0.277s-0.222 0.018-0.278-0.080c-0.022-0.038-0.044-0.079-0.068-0.124-0.744-1.414-0.747-3.334-0.327-5.028 0.422-1.701 1.276-3.188 2.241-3.723 0.018-0.010 0.039-0.021 0.063-0.033v0z" fill="#FCDEDE" fill="#000000"></path>
	<path d="M3.759 9.109c-0.086 0.071-0.214 0.057-0.287-0.030s-0.062-0.216 0.024-0.286c0.021-0.017 0.039-0.032 0.056-0.044 0.873-0.671 2.589-0.87 4.334-0.59 1.738 0.278 3.522 1.030 4.545 2.261 0.032 0.039 0.062 0.075 0.089 0.11 0.070 0.090 0.054 0.218-0.034 0.285s-0.217 0.050-0.286-0.040c-0.028-0.036-0.054-0.069-0.079-0.099-0.953-1.146-2.638-1.85-4.29-2.114-1.644-0.263-3.239-0.091-4.027 0.514-0.018 0.013-0.032 0.025-0.045 0.035v0z" fill="#FCDEDE" fill="#000000"></path>
	<path d="M29.632 20.694c2.109-1.593-0.839-6.224-3.347-7.442s-9.696-1.906-10.494 0.45c-0.797 2.355 9.718 10.106 13.841 6.992v0z" fill="#BBF99B" fill="#000000"></path>
	<path d="M14.963 30.258c-2.304 1.301-5.457-3.195-5.61-5.958s2.014-9.587 4.515-9.395c2.5 0.193 5.599 12.809 1.095 15.353v0z" fill="#84A51C" fill="#000000"></path>
	<path d="M16.212 1.441c2.637-1.49 7.308 2.81 7.483 5.973s-2.94 9.14-5.802 8.919c-2.862-0.22-6.836-11.98-1.681-14.893v0z" fill="#84A51C" fill="#000000"></path>
	<path d="M12.32 10.597c0.736-0.483 1.738-0.269 2.237 0.477s0.307 1.744-0.43 2.227c-0.736 0.483-1.738 0.269-2.237-0.477s-0.307-1.744 0.43-2.227v0z" fill="#C4D199" fill="#000000"></path>
	<path d="M13.826 1.481c0.295-0.194 0.696-0.108 0.897 0.191s0.123 0.699-0.172 0.892c-0.295 0.193-0.697 0.108-0.897-0.191s-0.123-0.699 0.172-0.892v0z" fill="#BBF99B" fill="#000000"></path>
	<path d="M3.266 8.408c-0.295 0.194-0.372 0.593-0.172 0.892s0.602 0.385 0.897 0.191c0.295-0.194 0.372-0.593 0.172-0.892s-0.602-0.385-0.897-0.191v0z" fill="#BBF99B" fill="#000000"></path>
	<path d="M2.313 10.501c-2.414 1.824-0.241 7.762 2.63 9.157s9.641 0.886 10.554-1.81c0.913-2.696-8.465-10.912-13.184-7.346v0z" fill="#BBF99B" fill="#000000"></path>
</svg>
