<?xml version="1.0" encoding="utf-8"?>
<!-- Generated by IcoMoon.io -->
<!DOCTYPE svg PUBLIC "-//W3C//DTD SVG 1.1//EN" "http://www.w3.org/Graphics/SVG/1.1/DTD/svg11.dtd">
<svg version="1.1" xmlns="http://www.w3.org/2000/svg" xmlns:xlink="http://www.w3.org/1999/xlink" width="32" height="32" viewBox="0 0 32 32">
<g id="icomoon-ignore">
	<line stroke-width="1" x1="" y1="" x2="" y2="" stroke="#449FDB" opacity=""></line>
</g>
	<path d="M18.93 15.391c0.89-0.096 1.743-0.104 2.634-0.058 1.793 0.088 3.638 0.387 5.311 0.923 0.755 0.242 1.434 0.587 1.863 1.211 0.464 0.666-0.054 1.382-0.773 1.738-1.412 0.698-2.933 0.99-4.49 1.175-0.884 0.106-1.778 0.3-2.662 0.33-0.48 0.017-0.951 0.033-1.37-0.156-0.442-0.199-0.559-0.445-0.77-0.829-0.354-0.644-0.704-1.269-1.137-1.877-0.208-0.295-0.395-0.627-0.635-0.901-0.265-0.31-0.707-0.53-1.039-0.771 0.129-0.188 0.404-0.205 0.553-0.524 0 0 1.705-0.172 2.517-0.26z" fill="#217CAA" fill="#000000"></path>
	<path d="M13.606 18.373c-0.347 0.744-0.467 1.261-0.783 2.016-0.174 0.412 0.136 0.684-0.133 1.070-0.246 0.354-0.628 0.962-0.792 1.347-0.136 0.313-0.474 0.775-0.332 1.116 0.167 0.398 0.808 0.14 1.029 0.532 0.227 0.403-0.209 0.747 0.471 0.772 0.376 0.014 0.897 0.076 0.969 0.48 0.047 0.281-0.278 0.82-0.395 1.108-0.104 0.262-0.417 0.944-0.066 1.156 0.319 0.194 0.786-0.243 0.922-0.464 0.221-0.358 0.316-0.793 0.313-1.191-0.003-0.496-0.18-2.082 0.679-2.149 0.313-0.022 0.376 0.197 0.638-0.085 0.177-0.191 0.164-0.496 0.272-0.72 0.133-0.276 0.243-0.377 0.54-0.441 0.395-0.085 0.395-0.084 0.499-0.464 0.057-0.205 0.082-0.549 0.215-0.734s0.376-0.265 0.518-0.462c0.291-0.4 0.117-2.19-0.852-3.726-0.322-0.51-1.235-1.601-2.28-0.996-0 0-0.736 0.352-1.43 1.835z" fill="#0C0C91" fill="#000000"></path>
	<path d="M17.446 13.307c0.505-0.692 0.906-1.393 1.276-2.149 0.745-1.525 1.313-3.188 1.579-4.819 0.12-0.736 0.104-1.459-0.287-2.103-0.42-0.688-1.339-0.594-2.011-0.163-1.317 0.843-2.299 1.966-3.196 3.167-0.508 0.682-1.108 1.333-1.547 2.050-0.234 0.387-0.471 0.769-0.483 1.204-0.016 0.456 0.164 0.668 0.433 1.020 0.448 0.592 0.878 1.171 1.257 1.808 0.186 0.31 0.41 0.617 0.565 0.943 0.167 0.362 0.174 0.829 0.249 1.216 0.237-0.019 0.382-0.238 0.751-0.215 0-0 0.954-1.33 1.415-1.959z" fill="#0C0C91" fill="#000000"></path>
	<path d="M12.148 16.327c-0.865-0.057-1.418-0.196-2.28-0.284-0.474-0.049-0.587-0.431-1.080-0.387-0.448 0.041-1.203 0.073-1.645 0.032-0.36-0.033-0.957 0.033-1.216-0.243-0.3-0.322 0.24-0.734-0.028-1.097-0.278-0.373-0.808-0.17-0.515-0.747 0.158-0.316 0.341-0.777-0.009-1.020-0.246-0.17-0.906-0.152-1.235-0.189-0.3-0.035-1.092-0.092-1.13-0.478-0.035-0.354 0.594-0.54 0.868-0.55 0.442-0.016 0.897 0.107 1.276 0.294 0.471 0.232 1.898 1.111 2.356 0.431 0.167-0.248-0.013-0.399 0.376-0.485 0.265-0.059 0.549 0.091 0.812 0.106 0.325 0.019 0.47-0.025 0.67-0.242 0.262-0.286 0.262-0.286 0.669-0.197 0.224 0.049 0.562 0.186 0.799 0.163s0.426-0.19 0.679-0.215c0.515-0.054 2.135 0.919 3.148 2.43 0.335 0.504 0.95 1.762-0.107 2.346-0 0-0.676 0.445-2.406 0.333z" fill="#217CAA" fill="#000000"></path>
	<path d="M17.083 15.55c-0.161 0.099-0.344 0.11-0.404 0.022-0.063-0.088 0.019-0.239 0.18-0.34 0.164-0.1 0.344-0.109 0.407-0.020 0.063 0.087-0.019 0.238-0.183 0.338z" fill="#5A3D1C" fill="#000000"></path>
	<path d="M16.704 15.012c-0.164 0.1-0.347 0.109-0.407 0.020-0.063-0.087 0.019-0.238 0.183-0.338 0.161-0.1 0.344-0.109 0.404-0.021 0.063 0.087-0.019 0.238-0.18 0.338z" fill="#5A3D1C" fill="#000000"></path>
	<path d="M16.932 15.304c-0.218 0.133-0.452 0.156-0.524 0.052-0.073-0.103 0.044-0.292 0.259-0.423 0.218-0.131 0.452-0.155 0.524-0.052s-0.044 0.292-0.259 0.423z" fill="#000" fill="#000000"></path>
	<path d="M15.517 16.444c-0.704 0.43-1.402 0.6-1.557 0.379-0.158-0.221 0.287-0.748 0.992-1.178 0.704-0.431 1.402-0.6 1.56-0.379 0.155 0.221-0.291 0.747-0.995 1.178z" fill="#FFBF00" fill="#000000"></path>
	<path d="M13.13 17.901c-0.805 0.344-1.74 1.203-1.895 0.982-0.158-0.221-0.161-0.911 1.329-1.781 0.805-0.471 1.563-0.7 1.721-0.48 0.155 0.221-0.294 0.91-1.156 1.279z" fill="#FFBF00" fill="#000000"></path>
	<path d="M17.14 14.938c-0.003 0 0.243-0.101 0.638-0.134 0.391-0.043 0.909-0.020 1.43-0.032 0.518-0.024 1.045-0.058 1.424-0.159 0.385-0.095 0.591-0.264 0.594-0.27 0.025-0.022 0.057-0.032 0.066-0.022s-0.003 0.036-0.031 0.058c-0.003 0.008-0.224 0.185-0.616 0.278-0.388 0.1-0.916 0.131-1.437 0.15-0.524 0.008-1.042-0.021-1.43 0.016-0.388 0.027-0.638 0.122-0.638 0.115z" fill="#000" fill="#000000"></path>
	<path d="M17.089 14.884c-0.006-0.003 0.177-0.174 0.398-0.466 0.224-0.29 0.474-0.707 0.733-1.118 0.474-0.872 1.389-1.432 1.402-1.426 0.028-0.019 0.060-0.025 0.066-0.014 0.010 0.011-0.009 0.035-0.038 0.054-0.016-0.003-0.919 0.538-1.399 1.402-0.262 0.409-0.518 0.824-0.748 1.112-0.227 0.29-0.414 0.458-0.414 0.456z" fill="#000" fill="#000000"></path>
</svg>
