<?xml version="1.0" encoding="utf-8"?>
<!-- Generated by IcoMoon.io -->
<!DOCTYPE svg PUBLIC "-//W3C//DTD SVG 1.1//EN" "http://www.w3.org/Graphics/SVG/1.1/DTD/svg11.dtd">
<svg version="1.1" xmlns="http://www.w3.org/2000/svg" xmlns:xlink="http://www.w3.org/1999/xlink" width="32" height="32" viewBox="0 0 32 32">
<g id="icomoon-ignore">
	<line stroke-width="1" x1="" y1="" x2="" y2="" stroke="#449FDB" opacity=""></line>
</g>
	<path d="M14.395 2.89c0.092-0.047 0.206-0.010 0.255 0.083s0.014 0.207-0.078 0.254c-0.013 0.007-0.029 0.015-0.046 0.025-0.806 0.447-1.531 1.733-1.9 3.218-0.37 1.491-0.373 3.171 0.269 4.391 0.017 0.032 0.036 0.066 0.057 0.103 0.052 0.091 0.021 0.206-0.069 0.257s-0.206 0.017-0.258-0.074c-0.020-0.036-0.041-0.074-0.063-0.115-0.69-1.31-0.692-3.090-0.303-4.66 0.391-1.577 1.183-2.955 2.077-3.45 0.017-0.010 0.037-0.020 0.058-0.031v0z" fill="#FCDEDE" fill="#000000"></path>
	<path d="M4.818 9.626c-0.080 0.065-0.199 0.053-0.266-0.028s-0.057-0.2 0.022-0.265c0.019-0.015 0.036-0.029 0.051-0.041 0.81-0.622 2.4-0.806 4.017-0.547 1.611 0.258 3.264 0.955 4.213 2.095 0.030 0.036 0.057 0.070 0.082 0.102 0.064 0.083 0.050 0.202-0.032 0.264s-0.201 0.046-0.265-0.037c-0.026-0.033-0.050-0.064-0.074-0.092-0.883-1.062-2.445-1.715-3.976-1.96-1.524-0.244-3.002-0.085-3.732 0.476-0.016 0.012-0.030 0.023-0.041 0.033v0z" fill="#FCDEDE" fill="#000000"></path>
	<path d="M28.798 20.364c1.954-1.477-0.777-5.769-3.102-6.898s-8.987-1.766-9.726 0.417c-0.739 2.183 9.007 9.367 12.828 6.48v0z" fill="#E254A2" fill="#000000"></path>
	<path d="M15.202 29.229c-2.135 1.206-5.058-2.961-5.199-5.522s1.867-8.886 4.184-8.708c2.317 0.178 5.189 11.872 1.015 14.23v0z" fill="#ED4575" fill="#000000"></path>
	<path d="M16.36 2.519c2.444-1.381 6.774 2.605 6.936 5.536s-2.725 8.471-5.378 8.267c-2.653-0.204-6.336-11.104-1.558-13.803v0z" fill="#ED4575" fill="#000000"></path>
	<path d="M12.752 11.006c0.683-0.448 1.611-0.249 2.073 0.443s0.284 1.616-0.398 2.064c-0.682 0.448-1.611 0.249-2.073-0.443s-0.284-1.616 0.398-2.064v0z" fill="#C4D199" fill="#000000"></path>
	<path d="M14.149 2.556c0.273-0.179 0.646-0.1 0.831 0.177s0.114 0.648-0.159 0.827c-0.274 0.179-0.646 0.1-0.831-0.177s-0.114-0.648 0.16-0.827v0z" fill="#BBF99B" fill="#000000"></path>
	<path d="M4.36 8.977c-0.273 0.179-0.345 0.55-0.16 0.827s0.558 0.357 0.831 0.177c0.273-0.179 0.345-0.55 0.16-0.827s-0.558-0.357-0.831-0.177v0z" fill="#BBF99B" fill="#000000"></path>
	<path d="M3.477 10.916c-2.237 1.69-0.223 7.195 2.438 8.487s8.936 0.821 9.782-1.678c0.846-2.499-7.846-10.114-12.22-6.809v0z" fill="#E254A2" fill="#000000"></path>
</svg>
