<?xml version="1.0" encoding="utf-8"?>
<!-- Generated by IcoMoon.io -->
<!DOCTYPE svg PUBLIC "-//W3C//DTD SVG 1.1//EN" "http://www.w3.org/Graphics/SVG/1.1/DTD/svg11.dtd">
<svg version="1.1" xmlns="http://www.w3.org/2000/svg" xmlns:xlink="http://www.w3.org/1999/xlink" width="34" height="32" viewBox="0 0 34 32">
<g id="icomoon-ignore">
	<line stroke-width="1" x1="" y1="" x2="" y2="" stroke="#449FDB" opacity=""></line>
</g>
	<path d="M15.252 12.552c0.127 1.402 0.261 2.883 0.369 4.412 0.038 0.54 0.347 1.204 0.736 1.58 0.092 0.085 0.189 0.151 0.288 0.193 0.226 0.096 0.465 0.076 0.66-0.052 0.179-0.118 0.388-0.38 0.379-0.945-0.024-1.607-0.024-3.196-0.026-4.761 0.001-2.295 0-4.463-0.079-6.53 0.003-0.015 0.092-1.586-0.766-1.952-0.196-0.084-0.512-0.132-0.917 0.104-1.15 0.685-1.062 2.989-1.016 3.212 0.076 1.434 0.22 3.038 0.373 4.738z" fill="#BDCE31" fill="#000000"></path>
	<path d="M15.822 18.903c-0.188-0.080-0.508-0.118-0.976 0.157-1.385 0.829-2.766 1.628-4.124 2.412-1.983 1.147-3.856 2.228-5.603 3.325-0.013 0.005-1.288 0.65-1.313 1.511-0.005 0.205 0.059 0.591 0.556 0.872l0.129 0.064c1.182 0.505 3.010-0.654 3.162-0.79 1.211-0.786 2.536-1.719 3.939-2.706 1.142-0.806 2.352-1.656 3.614-2.511 0.449-0.306 0.869-0.905 1.001-1.43 0.118-0.496-0.134-0.798-0.384-0.905z" fill="#BDCE31" fill="#000000"></path>
	<path d="M29.683 25.879c-0.019-1.42-2.235-2.446-2.275-2.487-1.281-0.652-2.743-1.33-4.292-2.046-1.276-0.593-2.621-1.216-4.079-1.923-0.476-0.204-1.172-0.253-1.66-0.115-0.489 0.147-0.578 0.49-0.595 0.629-0.019 0.2 0.032 0.587 0.626 0.922 1.41 0.78 2.788 1.58 4.145 2.361 1.987 1.146 3.862 2.228 5.687 3.193 0.111 0.075 0.308 0.185 0.534 0.282 0.641 0.274 1.147 0.292 1.499 0.058 0.188-0.125 0.414-0.379 0.41-0.874z" fill="#BDCE31" fill="#000000"></path>
	<path d="M18.907 19.231c0.056 1.351-0.996 2.492-2.346 2.553-1.352 0.054-2.492-0.993-2.552-2.345-0.055-1.352 0.991-2.493 2.345-2.551 1.349-0.059 2.493 0.99 2.553 2.343z" fill="#BDCE31" fill="#000000"></path>
	<path d="M17.515 19.289c0.025 0.588-0.428 1.077-1.013 1.103s-1.078-0.427-1.1-1.012c-0.024-0.584 0.427-1.078 1.011-1.103s1.078 0.429 1.103 1.012z" fill="#FFFFFF" fill="#000000"></path>
</svg>
