<?xml version="1.0" encoding="utf-8"?>
<!-- Generated by IcoMoon.io -->
<!DOCTYPE svg PUBLIC "-//W3C//DTD SVG 1.1//EN" "http://www.w3.org/Graphics/SVG/1.1/DTD/svg11.dtd">
<svg version="1.1" xmlns="http://www.w3.org/2000/svg" xmlns:xlink="http://www.w3.org/1999/xlink" width="78" height="32" viewBox="0 0 78 32">
<g id="icomoon-ignore">
	<line stroke-width="1" x1="" y1="" x2="" y2="" stroke="#449FDB" opacity=""></line>
</g>
	<path d="M73.781 16.671c-3.745-5.687-10.192-10.125-14.544-5.987-0.738-0.152-1.544 0.022-2.132 0.525-0.847 0.725-0.955 1.886-0.304 2.721-0.063 0.007-0.126 0.015-0.188 0.023-1.644-0.826-3.704-0.756-5.284 0.227-3.896-2.282-8.473-2.48-11.648 1.21-5.501-6.707-14.694-4.197-20.519 0.369-2.425-0.748-5.33-0.719-7.706 0.080-0.102-0.009-0.204-0.017-0.307-0.025 1.061-0.912 0.885-2.18-0.497-2.972-0.96-0.55-2.275-0.739-3.479-0.574-0.061-0.177-0.148-0.351-0.26-0.521 0.314-0.458 0.496-0.998 0.496-1.576 0-1.66-1.497-3.006-3.343-3.006-1.548 0-2.85 0.946-3.231 2.231-0.014 0.029-0.028 0.059-0.042 0.088-0.248-0.102-0.524-0.134-0.79-0.096v22.612h78.188v-14.838c-1.375-0.603-2.93-0.767-4.407-0.491z" fill="#000000"></path>
</svg>
