<?xml version="1.0" encoding="utf-8"?>
<!-- Generated by IcoMoon.io -->
<!DOCTYPE svg PUBLIC "-//W3C//DTD SVG 1.1//EN" "http://www.w3.org/Graphics/SVG/1.1/DTD/svg11.dtd">
<svg version="1.1" xmlns="http://www.w3.org/2000/svg" xmlns:xlink="http://www.w3.org/1999/xlink" width="34" height="32" viewBox="0 0 34 32">
<g id="icomoon-ignore">
	<line stroke-width="1" x1="" y1="" x2="" y2="" stroke="#449FDB" opacity=""></line>
</g>
	<path d="M25.66 16.030c0-2.022-1.64-3.663-3.664-3.663-0.435 0-0.85 0.080-1.235 0.221-0.446-1.889-2.137-3.3-4.162-3.3-2.332 0-4.228 1.87-4.274 4.192-0.207-0.043-0.421-0.066-0.639-0.066-1.734 0-3.141 1.405-3.141 3.14 0 1.42 0.943 2.617 2.235 3.006 0.26 0.085 0.536 0.134 0.827 0.134h10.573c0.323 0 0.633-0.063 0.918-0.17 1.485-0.466 2.563-1.855 2.563-3.495z" fill="#000000"></path>
</svg>
