<?xml version="1.0" encoding="utf-8"?>
<!-- Generator: Adobe Illustrator 16.0.0, SVG Export Plug-In . SVG Version: 6.00 Build 0)  -->
<!DOCTYPE svg PUBLIC "-//W3C//DTD SVG 1.1//EN" "http://www.w3.org/Graphics/SVG/1.1/DTD/svg11.dtd">
<svg version="1.1" id="Layer_1" xmlns="http://www.w3.org/2000/svg" xmlns:xlink="http://www.w3.org/1999/xlink" x="0px" y="0px"
	 width="348.37px" height="287.739px" viewBox="0 0 348.37 287.739" enable-background="new 0 0 348.37 287.739"
	 xml:space="preserve">
<g>
	<rect x="14.942" y="14.781" fill="#FFFFFF" width="29.144" height="7.485"/>
	<g>
		<rect x="1.98" y="127.265" fill="#C4E7E6" width="54.786" height="160.39"/>
		<rect x="6.272" y="127.265" fill="#59B4BC" width="46.201" height="160.39"/>
		<g>
			<g>
				<g>
					<rect x="41.153" y="257.224" fill="#FFFFFF" width="5.616" height="6.424"/>
					<rect x="44.952" y="257.224" fill="#798F94" width="1.817" height="6.424"/>
				</g>
				<g>
					<rect x="26.564" y="257.224" fill="#FFFFFF" width="5.617" height="6.424"/>
					<rect x="30.363" y="257.224" fill="#4B9BA2" width="1.817" height="6.424"/>
				</g>
				<g>
					<rect x="11.977" y="257.224" fill="#FFFFFF" width="5.614" height="6.424"/>
					<rect x="15.775" y="257.224" fill="#4B9BA2" width="1.815" height="6.424"/>
				</g>
			</g>
			<g>
				<g>
					<rect x="41.153" y="244.931" fill="#FFFFFF" width="5.616" height="6.422"/>
					<rect x="44.952" y="244.931" fill="#4B9BA2" width="1.817" height="6.422"/>
				</g>
				<g>
					<rect x="26.564" y="244.931" fill="#FFFFFF" width="5.617" height="6.422"/>
					<rect x="30.363" y="244.931" fill="#4B9BA2" width="1.817" height="6.422"/>
				</g>
				<g>
					<rect x="11.977" y="244.931" fill="#FFFFFF" width="5.614" height="6.422"/>
					<rect x="15.775" y="244.931" fill="#4B9BA2" width="1.815" height="6.422"/>
				</g>
			</g>
			<g>
				<rect x="41.153" y="232.64" fill="#FFFFFF" width="5.616" height="6.42"/>
				<rect x="44.952" y="232.64" fill="#4B9BA2" width="1.817" height="6.42"/>
			</g>
			<g>
				<rect x="26.564" y="232.64" fill="#FFFFFF" width="5.617" height="6.42"/>
				<rect x="30.363" y="232.64" fill="#4B9BA2" width="1.817" height="6.42"/>
			</g>
			<g>
				<rect x="11.977" y="232.64" fill="#FFFFFF" width="5.614" height="6.42"/>
				<rect x="15.775" y="232.64" fill="#4B9BA2" width="1.815" height="6.42"/>
			</g>
			<g>
				<rect x="41.153" y="220.346" fill="#FFFFFF" width="5.616" height="6.422"/>
				<rect x="44.952" y="220.346" fill="#4B9BA2" width="1.817" height="6.422"/>
			</g>
			<g>
				<rect x="26.564" y="220.346" fill="#FFFFFF" width="5.617" height="6.422"/>
				<rect x="30.363" y="220.346" fill="#4B9BA2" width="1.817" height="6.422"/>
			</g>
			<g>
				<rect x="11.977" y="220.346" fill="#FFFFFF" width="5.614" height="6.422"/>
				<rect x="15.775" y="220.346" fill="#4B9BA2" width="1.815" height="6.422"/>
			</g>
			<g>
				<rect x="41.153" y="208.054" fill="#FFFFFF" width="5.616" height="6.422"/>
				<rect x="44.952" y="208.054" fill="#4B9BA2" width="1.817" height="6.422"/>
			</g>
			<g>
				<rect x="26.564" y="208.054" fill="#FFFFFF" width="5.617" height="6.422"/>
				<rect x="30.363" y="208.054" fill="#4B9BA2" width="1.817" height="6.422"/>
			</g>
			<g>
				<rect x="11.977" y="208.054" fill="#FFFFFF" width="5.614" height="6.422"/>
				<rect x="15.775" y="208.054" fill="#4B9BA2" width="1.815" height="6.422"/>
			</g>
			<g>
				<rect x="41.153" y="195.76" fill="#FFFFFF" width="5.616" height="6.422"/>
				<rect x="44.952" y="195.76" fill="#4B9BA2" width="1.817" height="6.422"/>
			</g>
			<g>
				<rect x="26.564" y="195.76" fill="#FFFFFF" width="5.617" height="6.422"/>
				<rect x="30.363" y="195.76" fill="#4B9BA2" width="1.817" height="6.422"/>
			</g>
			<g>
				<rect x="11.977" y="195.76" fill="#FFFFFF" width="5.614" height="6.422"/>
				<rect x="15.775" y="195.76" fill="#4B9BA2" width="1.815" height="6.422"/>
			</g>
			<g>
				<rect x="41.153" y="183.468" fill="#FFFFFF" width="5.616" height="6.418"/>
				<rect x="44.952" y="183.468" fill="#4B9BA2" width="1.817" height="6.418"/>
			</g>
			<g>
				<rect x="26.564" y="183.468" fill="#FFFFFF" width="5.617" height="6.418"/>
				<rect x="30.363" y="183.468" fill="#4B9BA2" width="1.817" height="6.418"/>
			</g>
			<g>
				<rect x="11.977" y="183.468" fill="#FFFFFF" width="5.614" height="6.418"/>
				<rect x="15.775" y="183.468" fill="#4B9BA2" width="1.815" height="6.418"/>
			</g>
			<g>
				<rect x="41.153" y="171.178" fill="#FFFFFF" width="5.616" height="6.417"/>
				<rect x="44.952" y="171.178" fill="#4B9BA2" width="1.817" height="6.417"/>
			</g>
			<g>
				<rect x="26.564" y="171.178" fill="#FFFFFF" width="5.617" height="6.417"/>
				<rect x="30.363" y="171.178" fill="#4B9BA2" width="1.817" height="6.417"/>
			</g>
			<g>
				<rect x="11.977" y="171.178" fill="#FFFFFF" width="5.614" height="6.417"/>
				<rect x="15.775" y="171.178" fill="#4B9BA2" width="1.815" height="6.417"/>
			</g>
			<g>
				<rect x="41.153" y="158.882" fill="#FFFFFF" width="5.616" height="6.421"/>
				<rect x="44.952" y="158.882" fill="#4B9BA2" width="1.817" height="6.421"/>
			</g>
			<g>
				<rect x="26.564" y="158.882" fill="#FFFFFF" width="5.617" height="6.421"/>
				<rect x="30.363" y="158.882" fill="#4B9BA2" width="1.817" height="6.421"/>
			</g>
			<g>
				<rect x="11.977" y="158.882" fill="#FFFFFF" width="5.614" height="6.421"/>
				<rect x="15.775" y="158.882" fill="#4B9BA2" width="1.815" height="6.421"/>
			</g>
			<g>
				<rect x="41.153" y="146.589" fill="#FFFFFF" width="5.616" height="6.421"/>
				<rect x="44.952" y="146.589" fill="#4B9BA2" width="1.817" height="6.421"/>
			</g>
			<g>
				<rect x="26.564" y="146.589" fill="#FFFFFF" width="5.617" height="6.421"/>
				<rect x="30.363" y="146.589" fill="#4B9BA2" width="1.817" height="6.421"/>
			</g>
			<g>
				<rect x="11.977" y="146.589" fill="#FFFFFF" width="5.614" height="6.421"/>
				<rect x="15.775" y="146.589" fill="#4B9BA2" width="1.815" height="6.421"/>
			</g>
			<g>
				<rect x="41.153" y="134.294" fill="#FFFFFF" width="5.616" height="6.424"/>
				<rect x="44.952" y="134.294" fill="#4B9BA2" width="1.817" height="6.424"/>
			</g>
			<g>
				<rect x="26.564" y="134.294" fill="#FFFFFF" width="5.617" height="6.424"/>
				<rect x="30.363" y="134.294" fill="#4B9BA2" width="1.817" height="6.424"/>
			</g>
			<g>
				<rect x="11.977" y="134.294" fill="#FFFFFF" width="5.614" height="6.424"/>
				<rect x="15.775" y="134.294" fill="#4B9BA2" width="1.815" height="6.424"/>
			</g>
		</g>
		<g>
			<rect x="26.584" y="270.775" fill="#FFFFFF" width="9.779" height="16.964"/>
			<rect x="33.201" y="270.775" fill="#4B9BA2" width="3.163" height="16.964"/>
		</g>
	</g>
	<g>
		<rect y="118.289" fill="#FFFFFF" width="58.332" height="8.237"/>
		<g>
			<rect x="9.578" y="74.067" fill="#C4E7E6" width="40.318" height="47.486"/>
			<rect x="12.736" y="74.067" fill="#59B4BC" width="34.004" height="47.486"/>
		</g>
		<g>
			<g>
				<g>
					<rect x="37.359" y="105.294" fill="#FFFFFF" width="5.614" height="6.421"/>
					<rect x="41.157" y="105.294" fill="#4B9BA2" width="1.816" height="6.421"/>
				</g>
				<g>
					<rect x="26.564" y="105.294" fill="#FFFFFF" width="5.617" height="6.421"/>
					<rect x="30.363" y="105.294" fill="#4B9BA2" width="1.817" height="6.421"/>
				</g>
				<g>
					<rect x="15.771" y="105.294" fill="#FFFFFF" width="5.616" height="6.421"/>
					<rect x="19.57" y="105.294" fill="#4B9BA2" width="1.817" height="6.421"/>
				</g>
			</g>
			<g>
				<g>
					<rect x="37.359" y="93.343" fill="#FFFFFF" width="5.614" height="6.422"/>
					<rect x="41.157" y="93.343" fill="#4B9BA2" width="1.816" height="6.422"/>
				</g>
				<g>
					<rect x="26.564" y="93.343" fill="#FFFFFF" width="5.617" height="6.422"/>
					<rect x="30.363" y="93.343" fill="#4B9BA2" width="1.817" height="6.422"/>
				</g>
				<g>
					<rect x="15.771" y="93.343" fill="#FFFFFF" width="5.616" height="6.422"/>
					<rect x="19.57" y="93.343" fill="#4B9BA2" width="1.817" height="6.422"/>
				</g>
			</g>
			<g>
				<g>
					<rect x="37.359" y="81.393" fill="#FFFFFF" width="5.614" height="6.42"/>
					<rect x="41.157" y="81.393" fill="#4B9BA2" width="1.816" height="6.42"/>
				</g>
				<g>
					<rect x="26.564" y="81.393" fill="#FFFFFF" width="5.617" height="6.42"/>
					<rect x="30.363" y="81.393" fill="#4B9BA2" width="1.817" height="6.42"/>
				</g>
				<g>
					<rect x="15.771" y="81.393" fill="#FFFFFF" width="5.616" height="6.42"/>
					<rect x="19.57" y="81.393" fill="#4B9BA2" width="1.817" height="6.42"/>
				</g>
			</g>
		</g>
		<rect y="124.914" fill="#4B9BA2" width="58.746" height="4.114"/>
	</g>
	<g>
		<rect x="7.559" y="64.915" fill="#FFFFFF" width="43.628" height="8.237"/>
		<rect x="16.201" y="22.971" fill="#C4E7E6" width="27.084" height="46.321"/>
		<rect x="18.323" y="22.971" fill="#59B4BC" width="22.844" height="46.321"/>
		<rect x="14.979" y="20.621" fill="#4B9BA2" width="29.042" height="4.117"/>
		<g>
			<g>
				<g>
					<rect x="32.088" y="54.197" fill="#FFFFFF" width="5.617" height="6.421"/>
					<rect x="35.885" y="54.197" fill="#4B9BA2" width="1.819" height="6.421"/>
				</g>
				<g>
					<rect x="21.293" y="54.197" fill="#FFFFFF" width="5.616" height="6.421"/>
					<rect x="25.091" y="54.197" fill="#4B9BA2" width="1.818" height="6.421"/>
				</g>
			</g>
			<g>
				<g>
					<rect x="32.088" y="42.247" fill="#FFFFFF" width="5.616" height="6.421"/>
					<rect x="35.885" y="42.247" fill="#4B9BA2" width="1.819" height="6.421"/>
				</g>
				<g>
					<rect x="21.293" y="42.247" fill="#FFFFFF" width="5.617" height="6.421"/>
					<rect x="25.091" y="42.247" fill="#4B9BA2" width="1.819" height="6.421"/>
				</g>
			</g>
			<g>
				<g>
					<rect x="32.088" y="30.295" fill="#FFFFFF" width="5.617" height="6.422"/>
					<rect x="35.885" y="30.295" fill="#4B9BA2" width="1.819" height="6.422"/>
				</g>
				<g>
					<rect x="21.293" y="30.295" fill="#FFFFFF" width="5.616" height="6.422"/>
					<rect x="25.091" y="30.295" fill="#4B9BA2" width="1.818" height="6.422"/>
				</g>
			</g>
		</g>
		<rect x="7.882" y="71.715" fill="#4B9BA2" width="43.234" height="4.116"/>
	</g>
	<path fill="#4B9BA2" d="M37.141,0.846C37.141,0.379,36.813,0,36.41,0c-0.403,0-0.728,0.379-0.728,0.846v16.472h1.458V0.846z"/>
	<path fill="#4B9BA2" d="M33.568,7.275c0-0.286-0.326-0.517-0.729-0.517c-0.404,0-0.73,0.23-0.73,0.517v10.042h1.459V7.275z"/>
</g>
<g>
	<g>
		<rect x="82.991" y="156.648" fill="#59B4BC" width="41.438" height="131.091"/>
		<g>
			<rect x="87.866" y="162.104" fill="#C4E7E6" width="6.006" height="7.192"/>
			<rect x="100.707" y="162.104" fill="#C4E7E6" width="6.007" height="7.192"/>
			<rect x="113.549" y="162.104" fill="#C4E7E6" width="6.006" height="7.192"/>
		</g>
		<g>
			<rect x="87.866" y="177.389" fill="#C4E7E6" width="6.006" height="7.192"/>
			<rect x="100.707" y="177.389" fill="#C4E7E6" width="6.007" height="7.192"/>
			<rect x="113.549" y="177.389" fill="#C4E7E6" width="6.006" height="7.192"/>
		</g>
		<g>
			<rect x="87.866" y="192.673" fill="#C4E7E6" width="6.006" height="7.193"/>
			<rect x="100.707" y="192.673" fill="#C4E7E6" width="6.007" height="7.193"/>
			<rect x="113.549" y="192.673" fill="#C4E7E6" width="6.006" height="7.193"/>
		</g>
		<g>
			<rect x="87.866" y="207.957" fill="#C4E7E6" width="6.006" height="7.193"/>
			<rect x="100.707" y="207.957" fill="#C4E7E6" width="6.007" height="7.193"/>
			<rect x="113.549" y="207.957" fill="#C4E7E6" width="6.006" height="7.193"/>
		</g>
		<g>
			<rect x="87.866" y="223.241" fill="#C4E7E6" width="6.006" height="7.193"/>
			<rect x="100.707" y="223.241" fill="#C4E7E6" width="6.007" height="7.193"/>
			<rect x="113.549" y="223.241" fill="#C4E7E6" width="6.006" height="7.193"/>
		</g>
		<g>
			<rect x="87.866" y="238.526" fill="#C4E7E6" width="6.006" height="7.193"/>
			<rect x="100.707" y="238.526" fill="#C4E7E6" width="6.007" height="7.193"/>
			<rect x="113.549" y="238.526" fill="#C4E7E6" width="6.006" height="7.193"/>
		</g>
		<g>
			<rect x="87.866" y="253.811" fill="#C4E7E6" width="6.006" height="7.192"/>
			<rect x="100.707" y="253.811" fill="#C4E7E6" width="6.007" height="7.192"/>
			<rect x="113.549" y="253.811" fill="#C4E7E6" width="6.006" height="7.192"/>
		</g>
		<g>
			<rect x="87.866" y="269.095" fill="#C4E7E6" width="6.006" height="7.194"/>
			<rect x="100.707" y="269.095" fill="#C4E7E6" width="6.007" height="7.194"/>
			<rect x="113.549" y="269.095" fill="#C4E7E6" width="6.006" height="7.194"/>
		</g>
	</g>
	<rect x="82.95" y="151.163" fill="#C4E7E6" width="41.48" height="5.68"/>
	<rect x="102.741" y="145.081" fill="#59B4BC" width="17.689" height="9.193"/>
	<rect x="102.741" y="140.484" fill="#E2ECF1" width="17.689" height="5.597"/>
</g>
<g>
	<rect x="147.292" y="65.25" fill="#FFFFFF" width="23.755" height="6.102"/>
	<g>
		<rect x="136.727" y="156.936" fill="#C4E7E6" width="44.655" height="130.734"/>
		<rect x="140.225" y="156.936" fill="#59B4BC" width="37.659" height="130.734"/>
		<g>
			<g>
				<g>
					<rect x="168.656" y="262.866" fill="#FFFFFF" width="4.578" height="5.235"/>
					<rect x="171.753" y="262.866" fill="#798F94" width="1.481" height="5.235"/>
				</g>
				<g>
					<rect x="156.765" y="262.866" fill="#FFFFFF" width="4.578" height="5.235"/>
					<rect x="159.861" y="262.866" fill="#4B9BA2" width="1.481" height="5.235"/>
				</g>
				<g>
					<rect x="144.874" y="262.866" fill="#FFFFFF" width="4.576" height="5.235"/>
					<rect x="147.971" y="262.866" fill="#4B9BA2" width="1.479" height="5.235"/>
				</g>
			</g>
			<g>
				<g>
					<rect x="168.656" y="252.846" fill="#FFFFFF" width="4.578" height="5.234"/>
					<rect x="171.753" y="252.846" fill="#4B9BA2" width="1.481" height="5.234"/>
				</g>
				<g>
					<rect x="156.765" y="252.846" fill="#FFFFFF" width="4.578" height="5.234"/>
					<rect x="159.861" y="252.846" fill="#4B9BA2" width="1.481" height="5.234"/>
				</g>
				<g>
					<rect x="144.874" y="252.846" fill="#FFFFFF" width="4.576" height="5.234"/>
					<rect x="147.971" y="252.846" fill="#4B9BA2" width="1.479" height="5.234"/>
				</g>
			</g>
			<g>
				<rect x="168.656" y="242.827" fill="#FFFFFF" width="4.578" height="5.233"/>
				<rect x="171.753" y="242.827" fill="#4B9BA2" width="1.481" height="5.233"/>
			</g>
			<g>
				<rect x="156.765" y="242.827" fill="#FFFFFF" width="4.578" height="5.233"/>
				<rect x="159.861" y="242.827" fill="#4B9BA2" width="1.481" height="5.233"/>
			</g>
			<g>
				<rect x="144.874" y="242.827" fill="#FFFFFF" width="4.576" height="5.233"/>
				<rect x="147.971" y="242.827" fill="#4B9BA2" width="1.479" height="5.233"/>
			</g>
			<g>
				<rect x="168.656" y="232.807" fill="#FFFFFF" width="4.578" height="5.234"/>
				<rect x="171.753" y="232.807" fill="#4B9BA2" width="1.481" height="5.234"/>
			</g>
			<g>
				<rect x="156.765" y="232.807" fill="#FFFFFF" width="4.578" height="5.234"/>
				<rect x="159.861" y="232.807" fill="#4B9BA2" width="1.481" height="5.234"/>
			</g>
			<g>
				<rect x="144.874" y="232.807" fill="#FFFFFF" width="4.576" height="5.234"/>
				<rect x="147.971" y="232.807" fill="#4B9BA2" width="1.479" height="5.234"/>
			</g>
			<g>
				<rect x="168.656" y="222.787" fill="#FFFFFF" width="4.578" height="5.234"/>
				<rect x="171.753" y="222.787" fill="#4B9BA2" width="1.481" height="5.234"/>
			</g>
			<g>
				<rect x="156.765" y="222.787" fill="#FFFFFF" width="4.578" height="5.234"/>
				<rect x="159.861" y="222.787" fill="#4B9BA2" width="1.481" height="5.234"/>
			</g>
			<g>
				<rect x="144.874" y="222.787" fill="#FFFFFF" width="4.576" height="5.234"/>
				<rect x="147.971" y="222.787" fill="#4B9BA2" width="1.479" height="5.234"/>
			</g>
			<g>
				<rect x="168.656" y="212.767" fill="#FFFFFF" width="4.578" height="5.234"/>
				<rect x="171.753" y="212.767" fill="#4B9BA2" width="1.481" height="5.234"/>
			</g>
			<g>
				<rect x="156.765" y="212.767" fill="#FFFFFF" width="4.578" height="5.234"/>
				<rect x="159.861" y="212.767" fill="#4B9BA2" width="1.481" height="5.234"/>
			</g>
			<g>
				<rect x="144.874" y="212.767" fill="#FFFFFF" width="4.576" height="5.234"/>
				<rect x="147.971" y="212.767" fill="#4B9BA2" width="1.479" height="5.234"/>
			</g>
			<g>
				<rect x="168.656" y="202.747" fill="#FFFFFF" width="4.578" height="5.232"/>
				<rect x="171.753" y="202.747" fill="#4B9BA2" width="1.481" height="5.232"/>
			</g>
			<g>
				<rect x="156.765" y="202.747" fill="#FFFFFF" width="4.578" height="5.232"/>
				<rect x="159.861" y="202.747" fill="#4B9BA2" width="1.481" height="5.232"/>
			</g>
			<g>
				<rect x="144.874" y="202.747" fill="#FFFFFF" width="4.576" height="5.232"/>
				<rect x="147.971" y="202.747" fill="#4B9BA2" width="1.479" height="5.232"/>
			</g>
			<g>
				<rect x="168.656" y="192.729" fill="#FFFFFF" width="4.578" height="5.232"/>
				<rect x="171.753" y="192.729" fill="#4B9BA2" width="1.481" height="5.232"/>
			</g>
			<g>
				<rect x="156.765" y="192.729" fill="#FFFFFF" width="4.578" height="5.232"/>
				<rect x="159.861" y="192.729" fill="#4B9BA2" width="1.481" height="5.232"/>
			</g>
			<g>
				<rect x="144.874" y="192.729" fill="#FFFFFF" width="4.576" height="5.232"/>
				<rect x="147.971" y="192.729" fill="#4B9BA2" width="1.479" height="5.232"/>
			</g>
			<g>
				<rect x="168.656" y="182.707" fill="#FFFFFF" width="4.578" height="5.234"/>
				<rect x="171.753" y="182.707" fill="#4B9BA2" width="1.481" height="5.234"/>
			</g>
			<g>
				<rect x="156.765" y="182.707" fill="#FFFFFF" width="4.578" height="5.234"/>
				<rect x="159.861" y="182.707" fill="#4B9BA2" width="1.481" height="5.234"/>
			</g>
			<g>
				<rect x="144.874" y="182.707" fill="#FFFFFF" width="4.576" height="5.234"/>
				<rect x="147.971" y="182.707" fill="#4B9BA2" width="1.479" height="5.234"/>
			</g>
			<g>
				<rect x="168.656" y="172.688" fill="#FFFFFF" width="4.578" height="5.233"/>
				<rect x="171.753" y="172.688" fill="#4B9BA2" width="1.481" height="5.233"/>
			</g>
			<g>
				<rect x="156.765" y="172.688" fill="#FFFFFF" width="4.578" height="5.233"/>
				<rect x="159.861" y="172.688" fill="#4B9BA2" width="1.481" height="5.233"/>
			</g>
			<g>
				<rect x="144.874" y="172.688" fill="#FFFFFF" width="4.576" height="5.233"/>
				<rect x="147.971" y="172.688" fill="#4B9BA2" width="1.479" height="5.233"/>
			</g>
			<g>
				<rect x="168.656" y="162.666" fill="#FFFFFF" width="4.578" height="5.235"/>
				<rect x="171.753" y="162.666" fill="#4B9BA2" width="1.481" height="5.235"/>
			</g>
			<g>
				<rect x="156.765" y="162.666" fill="#FFFFFF" width="4.578" height="5.235"/>
				<rect x="159.861" y="162.666" fill="#4B9BA2" width="1.481" height="5.235"/>
			</g>
			<g>
				<rect x="144.874" y="162.666" fill="#FFFFFF" width="4.576" height="5.235"/>
				<rect x="147.971" y="162.666" fill="#4B9BA2" width="1.479" height="5.235"/>
			</g>
		</g>
		<g>
			<rect x="156.781" y="273.913" fill="#FFFFFF" width="7.971" height="13.826"/>
			<rect x="162.174" y="273.913" fill="#4B9BA2" width="2.578" height="13.826"/>
		</g>
	</g>
	<g>
		<rect x="135.112" y="149.62" fill="#FFFFFF" width="47.546" height="6.714"/>
		<g>
			<rect x="142.919" y="113.574" fill="#C4E7E6" width="32.864" height="38.706"/>
			<rect x="145.493" y="113.574" fill="#59B4BC" width="27.717" height="38.706"/>
		</g>
		<g>
			<g>
				<g>
					<rect x="165.563" y="139.026" fill="#FFFFFF" width="4.576" height="5.234"/>
					<rect x="168.659" y="139.026" fill="#4B9BA2" width="1.48" height="5.234"/>
				</g>
				<g>
					<rect x="156.765" y="139.026" fill="#FFFFFF" width="4.578" height="5.234"/>
					<rect x="159.861" y="139.026" fill="#4B9BA2" width="1.481" height="5.234"/>
				</g>
				<g>
					<rect x="147.968" y="139.026" fill="#FFFFFF" width="4.577" height="5.234"/>
					<rect x="151.063" y="139.026" fill="#4B9BA2" width="1.481" height="5.234"/>
				</g>
			</g>
			<g>
				<g>
					<rect x="165.563" y="129.286" fill="#FFFFFF" width="4.576" height="5.233"/>
					<rect x="168.659" y="129.286" fill="#4B9BA2" width="1.48" height="5.233"/>
				</g>
				<g>
					<rect x="156.765" y="129.286" fill="#FFFFFF" width="4.578" height="5.233"/>
					<rect x="159.861" y="129.286" fill="#4B9BA2" width="1.481" height="5.233"/>
				</g>
				<g>
					<rect x="147.968" y="129.286" fill="#FFFFFF" width="4.577" height="5.233"/>
					<rect x="151.063" y="129.286" fill="#4B9BA2" width="1.481" height="5.233"/>
				</g>
			</g>
			<g>
				<g>
					<rect x="165.563" y="119.545" fill="#FFFFFF" width="4.576" height="5.233"/>
					<rect x="168.659" y="119.545" fill="#4B9BA2" width="1.48" height="5.233"/>
				</g>
				<g>
					<rect x="156.765" y="119.545" fill="#FFFFFF" width="4.578" height="5.233"/>
					<rect x="159.861" y="119.545" fill="#4B9BA2" width="1.481" height="5.233"/>
				</g>
				<g>
					<rect x="147.968" y="119.545" fill="#FFFFFF" width="4.577" height="5.233"/>
					<rect x="151.063" y="119.545" fill="#4B9BA2" width="1.481" height="5.233"/>
				</g>
			</g>
		</g>
		<rect x="135.112" y="155.02" fill="#4B9BA2" width="47.884" height="3.354"/>
	</g>
	<g>
		<rect x="141.273" y="106.114" fill="#FFFFFF" width="35.562" height="6.714"/>
		<rect x="148.317" y="71.926" fill="#C4E7E6" width="22.077" height="37.756"/>
		<rect x="150.047" y="71.926" fill="#59B4BC" width="18.62" height="37.756"/>
		<rect x="147.321" y="70.01" fill="#4B9BA2" width="23.672" height="3.355"/>
		<g>
			<g>
				<g>
					<rect x="161.267" y="97.378" fill="#FFFFFF" width="4.578" height="5.234"/>
					<rect x="164.362" y="97.378" fill="#4B9BA2" width="1.482" height="5.234"/>
				</g>
				<g>
					<rect x="152.469" y="97.378" fill="#FFFFFF" width="4.577" height="5.234"/>
					<rect x="155.564" y="97.378" fill="#4B9BA2" width="1.481" height="5.234"/>
				</g>
			</g>
			<g>
				<g>
					<rect x="161.268" y="87.638" fill="#FFFFFF" width="4.577" height="5.233"/>
					<rect x="164.362" y="87.638" fill="#4B9BA2" width="1.482" height="5.233"/>
				</g>
				<g>
					<rect x="152.469" y="87.638" fill="#FFFFFF" width="4.578" height="5.233"/>
					<rect x="155.564" y="87.638" fill="#4B9BA2" width="1.482" height="5.233"/>
				</g>
			</g>
			<g>
				<g>
					<rect x="161.267" y="77.896" fill="#FFFFFF" width="4.578" height="5.234"/>
					<rect x="164.362" y="77.896" fill="#4B9BA2" width="1.482" height="5.234"/>
				</g>
				<g>
					<rect x="152.469" y="77.896" fill="#FFFFFF" width="4.577" height="5.234"/>
					<rect x="155.564" y="77.896" fill="#4B9BA2" width="1.481" height="5.234"/>
				</g>
			</g>
		</g>
		<rect x="141.537" y="111.657" fill="#4B9BA2" width="35.24" height="3.355"/>
	</g>
	<path fill="#4B9BA2" d="M165.386,53.892c0-0.381-0.267-0.689-0.596-0.689c-0.328,0-0.594,0.309-0.594,0.689v13.427h1.189V53.892z"
		/>
	<path fill="#4B9BA2" d="M162.474,59.133c0-0.233-0.266-0.422-0.595-0.422s-0.595,0.188-0.595,0.422v8.186h1.189V59.133z"/>
</g>
<g>
	<path fill="#FFFFFF" d="M261.985,157.676c-1.086,0.208-2.095,0.508-3.035,0.877c-0.362,0.143-0.719,0.291-1.062,0.454
		c-1.102,0.524-2.097,1.149-2.999,1.84c-1.472,1.123-2.696,2.422-3.714,3.755c-1.651,2.148-2.776,4.38-3.583,6.07
		c-0.076,0.164-0.161,0.323-0.247,0.482c-0.906,1.684-2.227,3.08-3.713,4.233c-1.209,0.938-2.53,1.711-3.83,2.349
		c-1.303,0.637-2.584,1.132-3.714,1.511c-2.245,0.753-3.883,1.043-3.883,1.043v101.321h32.406v-124.25
		C263.689,157.407,262.815,157.518,261.985,157.676z"/>
	<g>
		<path fill="#59B4BC" d="M264.611,163.488v124.251h-32.406v-101.32c0,0,1.638-0.291,3.883-1.043
			c1.13-0.379,2.411-0.874,3.714-1.511c1.3-0.638,2.621-1.41,3.83-2.349c1.487-1.152,2.808-2.55,3.713-4.233
			c0.085-0.16,0.17-0.319,0.247-0.483c0.808-1.691,1.932-3.921,3.583-6.071c1.018-1.331,2.242-2.631,3.714-3.754
			c0.902-0.69,1.897-1.315,2.999-1.839C259.795,164.229,262.018,163.62,264.611,163.488z"/>
		<path fill="#4B9BA2" d="M264.609,163.492v124.247h-6.721V165.136C259.794,164.229,262.019,163.62,264.609,163.492z"/>
	</g>
	<g>
		<rect x="242.874" y="275.136" fill="#E2ECF1" width="7.084" height="12.604"/>
		<rect x="242.874" y="275.136" fill="#4B9BA2" width="2.293" height="12.604"/>
	</g>
	<path fill="#4B9BA2" d="M239.801,183.865v87.887h-3.714v-86.376C237.217,184.997,238.499,184.502,239.801,183.865z"/>
	<path fill="#4B9BA2" d="M247.345,177.283v94.244h-3.713v-90.011C245.118,180.364,246.439,178.967,247.345,177.283z"/>
	<path fill="#4B9BA2" d="M254.889,166.975v104.553h-3.714V170.729C252.193,169.397,253.417,168.098,254.889,166.975z"/>
	<g>
		<path fill="#FFFFFF" d="M240.293,109.347c0,7.262,0,14.522,0,21.782c5.139,1.129,10.494,1.129,15.633,0c0-7.26,0-14.521,0-21.782
			C250.788,108.218,245.432,108.218,240.293,109.347z M252.101,127.628h-7.982V112.85h7.982V127.628z"/>
		<polygon fill="#FFFFFF" points="258.011,130.472 253.493,130.472 235.429,130.472 235.429,139.509 253.493,139.509 
			258.011,139.509 260.79,139.509 260.79,130.472 		"/>
		<path fill="#4B9BA2" d="M240.293,111.121c0,7.261,0,14.521,0,21.782c5.139,1.129,10.494,1.129,15.633,0c0-7.261,0-14.521,0-21.782
			C250.788,109.993,245.432,109.993,240.293,111.121z M252.101,129.401h-7.982v-14.778h7.982V129.401z"/>
		<g>
			<path fill="#59B4BC" d="M239.504,181.276c1.299-0.636,2.621-1.408,3.83-2.349c1.487-1.151,2.808-2.549,3.713-4.232
				c0.085-0.159,0.17-0.318,0.246-0.481c0.808-1.691,1.933-3.923,3.584-6.071c1.018-1.332,2.241-2.632,3.714-3.756
				c0.9-0.69,1.897-1.315,3-1.839c0.135-0.063,0.28-0.118,0.419-0.179V135.92h-22.582v46.987c0.119-0.038,0.239-0.077,0.361-0.118
				C236.92,182.409,238.201,181.915,239.504,181.276z"/>
			<path fill="#C4E7E6" d="M254.592,164.387c0.9-0.69,1.897-1.315,3-1.839c0.342-0.161,0.698-0.312,1.062-0.454
				c0.675-0.266,1.387-0.492,2.137-0.679V135.92h-7.296v29.378C253.844,164.984,254.208,164.68,254.592,164.387z"/>
		</g>
		<polygon fill="#4B9BA2" points="241.785,131.477 240.333,131.477 240.333,133.917 255.932,133.917 255.932,131.877 		"/>
	</g>
</g>
<g>
	<rect x="282.163" y="170.28" fill="#FFFFFF" width="66.207" height="8.556"/>
	<rect x="299.199" y="122.438" fill="#FFFFFF" width="35.619" height="8.555"/>
	<rect x="306.903" y="58.458" fill="#59B4BC" width="20.397" height="45.852"/>
	<rect x="301.709" y="88.386" fill="#59B4BC" width="18.54" height="37.616"/>
	<rect x="313.081" y="88.386" fill="#4B9BA2" width="7.519" height="37.616"/>
	<g>
		<rect x="317.551" y="101.9" fill="#63C8D1" width="12.601" height="24.301"/>
		<rect x="317.551" y="101.9" fill="#FFFFFF" width="6" height="24.301"/>
	</g>
	<rect x="283.207" y="180.32" fill="#C4E7E6" width="63.292" height="107.629"/>
	<rect x="283.207" y="180.32" fill="#4B9BA2" width="6.898" height="107.629"/>
	<rect x="282.305" y="177.573" fill="#4B9BA2" width="66.292" height="4.12"/>
	<g>
		<rect x="299.704" y="131.299" fill="#59B4BC" width="30.296" height="43.106"/>
		<rect x="318.902" y="131.846" fill="#63C8D1" width="14.098" height="43.107"/>
		<rect x="329.1" y="131.846" fill="#FFFFFF" width="4.8" height="43.107"/>
		<rect x="299.103" y="129.651" fill="#4B9BA2" width="35.696" height="4.119"/>
	</g>
	<rect x="301.203" y="85.64" fill="#4B9BA2" width="19.799" height="4.393"/>
	<g>
		<rect x="309.602" y="262.207" fill="#C4E7E6" width="24.389" height="25.97"/>
		<polygon fill="#4B9BA2" points="296.882,248.704 297.008,288.361 309.602,288.361 309.602,253.318 		"/>
		<polygon fill="#4B9BA2" points="309.471,263.184 339.982,263.123 332.814,250.979 301.962,251.023 		"/>
		<polygon fill="#4D6E7D" points="308.486,263.166 309.471,263.184 301.962,251.023 300.966,251.023 		"/>
		<g>
			<rect x="319.291" y="276.065" fill="#FFFFFF" width="8.072" height="12.076"/>
			<rect x="324.75" y="276.065" fill="#4B9BA2" width="2.612" height="12.076"/>
		</g>
		<g>
			<rect x="325.544" y="265.738" fill="#FFFFFF" width="5.798" height="5.662"/>
			<rect x="329.468" y="265.738" fill="#4B9BA2" width="1.874" height="5.662"/>
		</g>
		<g>
			<rect x="314.23" y="265.738" fill="#FFFFFF" width="5.799" height="5.662"/>
			<rect x="318.153" y="265.738" fill="#4B9BA2" width="1.876" height="5.662"/>
		</g>
	</g>
	<g>
		<g>
			<rect x="335.8" y="217.48" fill="#FFFFFF" width="5.798" height="6.771"/>
			<rect x="339.722" y="217.48" fill="#4B9BA2" width="1.876" height="6.771"/>
		</g>
		<g>
			<rect x="322.147" y="217.48" fill="#FFFFFF" width="5.799" height="6.771"/>
			<rect x="326.07" y="217.48" fill="#4B9BA2" width="1.876" height="6.771"/>
		</g>
		<g>
			<rect x="308.495" y="217.48" fill="#FFFFFF" width="5.799" height="6.771"/>
			<rect x="312.418" y="217.48" fill="#4B9BA2" width="1.875" height="6.771"/>
		</g>
		<g>
			<rect x="294.842" y="217.48" fill="#FFFFFF" width="5.799" height="6.771"/>
			<rect x="298.765" y="217.48" fill="#4B9BA2" width="1.876" height="6.771"/>
		</g>
	</g>
	<g>
		<g>
			<rect x="335.8" y="231.299" fill="#FFFFFF" width="5.798" height="6.769"/>
			<rect x="339.722" y="231.299" fill="#4B9BA2" width="1.876" height="6.769"/>
		</g>
		<g>
			<rect x="322.147" y="231.299" fill="#FFFFFF" width="5.799" height="6.769"/>
			<rect x="326.07" y="231.299" fill="#4B9BA2" width="1.876" height="6.769"/>
		</g>
		<g>
			<rect x="308.495" y="231.299" fill="#FFFFFF" width="5.799" height="6.769"/>
			<rect x="312.418" y="231.299" fill="#4B9BA2" width="1.875" height="6.769"/>
		</g>
		<g>
			<rect x="294.842" y="231.299" fill="#FFFFFF" width="5.799" height="6.769"/>
			<rect x="298.765" y="231.299" fill="#4B9BA2" width="1.876" height="6.769"/>
		</g>
	</g>
	<g>
		<g>
			<rect x="335.8" y="202.653" fill="#FFFFFF" width="5.798" height="6.771"/>
			<rect x="339.722" y="202.653" fill="#4B9BA2" width="1.876" height="6.771"/>
		</g>
		<g>
			<rect x="322.147" y="202.653" fill="#FFFFFF" width="5.799" height="6.771"/>
			<rect x="326.07" y="202.653" fill="#4B9BA2" width="1.876" height="6.771"/>
		</g>
		<g>
			<rect x="308.495" y="202.653" fill="#FFFFFF" width="5.799" height="6.771"/>
			<rect x="312.418" y="202.653" fill="#4B9BA2" width="1.875" height="6.771"/>
		</g>
		<g>
			<rect x="294.842" y="202.653" fill="#FFFFFF" width="5.799" height="6.771"/>
			<rect x="298.765" y="202.653" fill="#4B9BA2" width="1.876" height="6.771"/>
		</g>
	</g>
	<g>
		<g>
			<rect x="335.8" y="187.828" fill="#FFFFFF" width="5.798" height="6.77"/>
			<rect x="339.722" y="187.828" fill="#4B9BA2" width="1.876" height="6.77"/>
		</g>
		<g>
			<rect x="322.147" y="187.828" fill="#FFFFFF" width="5.799" height="6.77"/>
			<rect x="326.07" y="187.828" fill="#4B9BA2" width="1.876" height="6.77"/>
		</g>
		<g>
			<rect x="308.495" y="187.828" fill="#FFFFFF" width="5.799" height="6.77"/>
			<rect x="312.418" y="187.828" fill="#4B9BA2" width="1.875" height="6.77"/>
		</g>
		<g>
			<rect x="294.842" y="187.828" fill="#FFFFFF" width="5.799" height="6.77"/>
			<rect x="298.765" y="187.828" fill="#4B9BA2" width="1.876" height="6.77"/>
		</g>
	</g>
	<rect x="306.943" y="53.33" fill="#FFFFFF" width="20.326" height="7.777"/>
	<rect x="316.724" y="35.824" fill="#4B9BA2" width="1.801" height="20.043"/>
	<rect x="320.325" y="41.865" fill="#4B9BA2" width="1.499" height="16.199"/>
	<rect x="301.055" y="81.489" fill="#FFFFFF" width="19.974" height="4.763"/>
	<rect x="317.551" y="98.821" fill="#FFFFFF" width="13.257" height="3.079"/>
	<polygon fill="#FFFFFF" points="328.261,248.59 296.508,248.59 301.045,251.023 332.799,251.023 	"/>
</g>
</svg>
