<?xml version="1.0" encoding="utf-8"?>
<!-- Generator: Adobe Illustrator 16.0.0, SVG Export Plug-In . SVG Version: 6.00 Build 0)  -->
<!DOCTYPE svg PUBLIC "-//W3C//DTD SVG 1.1//EN" "http://www.w3.org/Graphics/SVG/1.1/DTD/svg11.dtd">
<svg version="1.1" id="Layer_1" xmlns="http://www.w3.org/2000/svg" xmlns:xlink="http://www.w3.org/1999/xlink" x="0px" y="0px"
	 width="258.497px" height="234.537px" viewBox="0 0 258.497 234.537" enable-background="new 0 0 258.497 234.537"
	 xml:space="preserve">
<g>
	<polygon fill="#59B4BC" points="37.544,68.772 37.544,54.696 9.323,54.696 9.323,68.772 0,68.772 0,234.537 46.867,234.537 
		46.867,68.772 	"/>
	<g>
		<rect x="7.68" y="77.264" fill="#4B9BA2" width="3.286" height="5.285"/>
		<rect x="7.68" y="87.698" fill="#4B9BA2" width="3.286" height="5.286"/>
		<rect x="7.68" y="98.133" fill="#4B9BA2" width="3.286" height="5.286"/>
		<rect x="7.68" y="108.566" fill="#4B9BA2" width="3.286" height="5.287"/>
		<rect x="7.68" y="119.003" fill="#4B9BA2" width="3.286" height="5.285"/>
		<rect x="7.68" y="87.698" fill="#4B9BA2" width="3.286" height="5.286"/>
		<rect x="7.68" y="98.133" fill="#4B9BA2" width="3.286" height="5.286"/>
		<rect x="7.68" y="108.566" fill="#4B9BA2" width="3.286" height="5.287"/>
		<rect x="7.68" y="119.003" fill="#4B9BA2" width="3.286" height="5.285"/>
		<rect x="7.68" y="129.438" fill="#4B9BA2" width="3.286" height="5.286"/>
		<rect x="7.68" y="98.133" fill="#4B9BA2" width="3.286" height="5.286"/>
		<rect x="7.68" y="108.566" fill="#4B9BA2" width="3.286" height="5.287"/>
		<rect x="7.68" y="119.003" fill="#4B9BA2" width="3.286" height="5.285"/>
		<rect x="7.68" y="129.438" fill="#4B9BA2" width="3.286" height="5.286"/>
		<rect x="7.68" y="139.871" fill="#4B9BA2" width="3.286" height="5.288"/>
		<rect x="7.68" y="108.566" fill="#4B9BA2" width="3.286" height="5.287"/>
		<rect x="7.68" y="119.003" fill="#4B9BA2" width="3.286" height="5.285"/>
		<rect x="7.68" y="129.438" fill="#4B9BA2" width="3.286" height="5.286"/>
		<rect x="7.68" y="139.871" fill="#4B9BA2" width="3.286" height="5.288"/>
		<rect x="7.68" y="150.306" fill="#4B9BA2" width="3.286" height="5.287"/>
		<rect x="7.68" y="119.003" fill="#4B9BA2" width="3.286" height="5.285"/>
		<rect x="7.68" y="129.438" fill="#4B9BA2" width="3.286" height="5.286"/>
		<rect x="7.68" y="139.871" fill="#4B9BA2" width="3.286" height="5.288"/>
		<rect x="7.68" y="150.306" fill="#4B9BA2" width="3.286" height="5.287"/>
		<rect x="7.68" y="160.741" fill="#4B9BA2" width="3.286" height="5.286"/>
		<rect x="7.68" y="129.438" fill="#4B9BA2" width="3.286" height="5.286"/>
		<rect x="7.68" y="139.871" fill="#4B9BA2" width="3.286" height="5.288"/>
		<rect x="7.68" y="150.306" fill="#4B9BA2" width="3.286" height="5.287"/>
		<rect x="7.68" y="160.741" fill="#4B9BA2" width="3.286" height="5.286"/>
		<rect x="7.68" y="171.177" fill="#4B9BA2" width="3.286" height="5.285"/>
		<rect x="7.68" y="139.871" fill="#4B9BA2" width="3.286" height="5.288"/>
		<rect x="7.68" y="150.306" fill="#4B9BA2" width="3.286" height="5.287"/>
		<rect x="7.68" y="160.741" fill="#4B9BA2" width="3.286" height="5.286"/>
		<rect x="7.68" y="171.177" fill="#4B9BA2" width="3.286" height="5.285"/>
		<rect x="7.68" y="181.611" fill="#4B9BA2" width="3.286" height="5.286"/>
		<rect x="14.734" y="77.264" fill="#4B9BA2" width="3.287" height="5.285"/>
		<rect x="14.734" y="87.698" fill="#4B9BA2" width="3.287" height="5.286"/>
		<rect x="14.734" y="98.133" fill="#4B9BA2" width="3.287" height="5.286"/>
		<rect x="14.734" y="108.566" fill="#4B9BA2" width="3.287" height="5.287"/>
		<rect x="14.734" y="119.003" fill="#4B9BA2" width="3.287" height="5.285"/>
		<rect x="14.734" y="129.438" fill="#4B9BA2" width="3.287" height="5.286"/>
		<rect x="14.734" y="139.871" fill="#4B9BA2" width="3.287" height="5.288"/>
		<rect x="14.734" y="150.306" fill="#4B9BA2" width="3.287" height="5.287"/>
		<rect x="14.734" y="160.741" fill="#4B9BA2" width="3.287" height="5.286"/>
		<rect x="14.734" y="171.177" fill="#4B9BA2" width="3.287" height="5.285"/>
		<rect x="14.734" y="181.611" fill="#4B9BA2" width="3.287" height="5.286"/>
		<rect x="21.791" y="77.264" fill="#4B9BA2" width="3.286" height="5.285"/>
		<rect x="21.791" y="87.698" fill="#4B9BA2" width="3.286" height="5.286"/>
		<rect x="21.791" y="98.133" fill="#4B9BA2" width="3.286" height="5.286"/>
		<rect x="21.791" y="108.566" fill="#4B9BA2" width="3.286" height="5.287"/>
		<rect x="21.791" y="119.003" fill="#4B9BA2" width="3.286" height="5.285"/>
		<rect x="21.791" y="129.438" fill="#4B9BA2" width="3.286" height="5.286"/>
		<rect x="21.791" y="139.871" fill="#4B9BA2" width="3.286" height="5.288"/>
		<rect x="21.791" y="150.306" fill="#4B9BA2" width="3.286" height="5.287"/>
		<rect x="21.791" y="160.741" fill="#4B9BA2" width="3.286" height="5.286"/>
		<rect x="21.791" y="171.177" fill="#4B9BA2" width="3.286" height="5.285"/>
		<rect x="21.791" y="181.611" fill="#4B9BA2" width="3.286" height="5.286"/>
		<rect x="28.847" y="77.264" fill="#4B9BA2" width="3.286" height="5.285"/>
		<rect x="14.734" y="61.508" fill="#4B9BA2" width="3.287" height="5.287"/>
		<rect x="21.791" y="61.508" fill="#4B9BA2" width="3.286" height="5.287"/>
		<rect x="28.847" y="61.508" fill="#4B9BA2" width="3.286" height="5.287"/>
		<rect x="28.847" y="87.698" fill="#4B9BA2" width="3.286" height="5.286"/>
		<rect x="28.847" y="98.133" fill="#4B9BA2" width="3.286" height="5.286"/>
		<rect x="28.847" y="108.566" fill="#4B9BA2" width="3.286" height="5.287"/>
		<rect x="28.847" y="119.003" fill="#4B9BA2" width="3.286" height="5.285"/>
		<rect x="28.847" y="129.438" fill="#4B9BA2" width="3.286" height="5.286"/>
		<rect x="28.847" y="139.871" fill="#4B9BA2" width="3.286" height="5.288"/>
		<rect x="28.847" y="150.306" fill="#4B9BA2" width="3.286" height="5.287"/>
		<rect x="28.847" y="160.741" fill="#4B9BA2" width="3.286" height="5.286"/>
		<rect x="28.847" y="171.177" fill="#4B9BA2" width="3.286" height="5.285"/>
		<rect x="28.847" y="181.611" fill="#4B9BA2" width="3.286" height="5.286"/>
		<rect x="35.901" y="77.264" fill="#4B9BA2" width="3.286" height="5.285"/>
		<rect x="35.901" y="87.698" fill="#4B9BA2" width="3.286" height="5.286"/>
		<rect x="35.901" y="98.133" fill="#4B9BA2" width="3.286" height="5.286"/>
		<rect x="35.901" y="108.566" fill="#4B9BA2" width="3.286" height="5.287"/>
		<rect x="35.901" y="119.003" fill="#4B9BA2" width="3.286" height="5.285"/>
		<rect x="35.901" y="129.438" fill="#4B9BA2" width="3.286" height="5.286"/>
		<rect x="35.901" y="139.871" fill="#4B9BA2" width="3.286" height="5.288"/>
		<rect x="35.901" y="150.306" fill="#4B9BA2" width="3.286" height="5.287"/>
		<rect x="35.901" y="160.741" fill="#4B9BA2" width="3.286" height="5.286"/>
		<rect x="35.901" y="171.177" fill="#4B9BA2" width="3.286" height="5.285"/>
		<rect x="35.901" y="181.611" fill="#4B9BA2" width="3.286" height="5.286"/>
	</g>
</g>
<g>
	<polygon fill="#4D6E7D" points="117.815,152.255 119.53,150.602 126.442,166.686 122.499,166.686 117.187,154.063 	"/>
	<rect x="62.782" y="164.955" fill="#59B4BC" width="46.82" height="69.758"/>
	<polygon fill="#C4E7E6" points="109.603,234.713 109.592,164.679 117.321,151.341 123.71,166.218 123.71,234.433 	"/>
	<rect x="71.588" y="203.707" fill="#59B4BC" width="24.679" height="30.915"/>
	<polygon fill="#D8E2E7" points="104.927,190.396 104.927,234.842 96.267,234.842 96.267,198.432 	"/>
	<polygon fill="#15939A" points="96.399,204.871 67.361,204.871 74.615,190.413 103.997,190.396 	"/>
	<polygon fill="#15939A" points="111.933,165.076 60.113,165.076 67.367,150.619 119.53,150.602 	"/>
	<polygon fill="#4D6E7D" points="97.397,204.851 96.399,204.871 103.997,190.396 105.007,190.396 	"/>
	<g>
		<rect x="67.939" y="170.617" fill="#FFFFFF" width="5.867" height="6.851"/>
		<rect x="67.939" y="170.617" fill="#4B9BA2" width="1.897" height="6.851"/>
	</g>
	<g>
		<rect x="78.295" y="220.203" fill="#FFFFFF" width="8.168" height="14.377"/>
		<rect x="78.295" y="220.203" fill="#4B9BA2" width="2.643" height="14.377"/>
	</g>
	<g>
		<rect x="83.185" y="170.617" fill="#FFFFFF" width="5.868" height="6.851"/>
		<rect x="83.185" y="170.617" fill="#4B9BA2" width="1.898" height="6.851"/>
	</g>
	<g>
		<rect x="74.268" y="207.91" fill="#FFFFFF" width="5.867" height="6.741"/>
		<rect x="74.268" y="207.91" fill="#4B9BA2" width="1.897" height="6.741"/>
	</g>
	<g>
		<rect x="85.716" y="207.91" fill="#FFFFFF" width="5.868" height="6.741"/>
		<rect x="85.716" y="207.91" fill="#4B9BA2" width="1.898" height="6.741"/>
	</g>
	<g>
		<rect x="98.431" y="170.617" fill="#FFFFFF" width="5.868" height="6.851"/>
		<rect x="98.431" y="170.617" fill="#4B9BA2" width="1.898" height="6.851"/>
	</g>
	<g>
		<rect x="118.235" y="170.926" fill="#FFFFFF" width="3.067" height="6.851"/>
		<rect x="120.312" y="170.926" fill="#59B4BC" width="0.991" height="6.851"/>
	</g>
	<g>
		<rect x="112.114" y="170.926" fill="#FFFFFF" width="3.068" height="6.851"/>
		<rect x="114.189" y="170.926" fill="#59B4BC" width="0.993" height="6.851"/>
	</g>
	<g>
		<rect x="118.235" y="181.352" fill="#FFFFFF" width="3.067" height="6.851"/>
		<rect x="120.312" y="181.352" fill="#59B4BC" width="0.991" height="6.851"/>
	</g>
	<g>
		<rect x="112.114" y="181.352" fill="#FFFFFF" width="3.068" height="6.851"/>
		<rect x="114.189" y="181.352" fill="#59B4BC" width="0.993" height="6.851"/>
	</g>
	<g>
		<rect x="118.235" y="191.777" fill="#FFFFFF" width="3.067" height="6.852"/>
		<rect x="120.312" y="191.777" fill="#59B4BC" width="0.991" height="6.852"/>
	</g>
	<g>
		<rect x="112.114" y="191.777" fill="#FFFFFF" width="3.068" height="6.852"/>
		<rect x="114.189" y="191.777" fill="#59B4BC" width="0.993" height="6.852"/>
	</g>
	<g>
		<rect x="118.235" y="202.204" fill="#FFFFFF" width="3.067" height="6.85"/>
		<rect x="120.312" y="202.204" fill="#59B4BC" width="0.991" height="6.85"/>
	</g>
	<g>
		<rect x="112.114" y="202.204" fill="#FFFFFF" width="3.068" height="6.85"/>
		<rect x="114.189" y="202.204" fill="#59B4BC" width="0.993" height="6.85"/>
	</g>
	<g>
		<rect x="118.235" y="212.629" fill="#FFFFFF" width="3.067" height="6.85"/>
		<rect x="120.312" y="212.629" fill="#59B4BC" width="0.991" height="6.85"/>
	</g>
	<g>
		<rect x="112.114" y="212.629" fill="#FFFFFF" width="3.068" height="6.85"/>
		<rect x="114.189" y="212.629" fill="#59B4BC" width="0.993" height="6.85"/>
	</g>
	<g>
		<rect x="118.235" y="223.055" fill="#FFFFFF" width="3.067" height="6.851"/>
		<rect x="120.312" y="223.055" fill="#59B4BC" width="0.991" height="6.851"/>
	</g>
	<g>
		<rect x="112.114" y="223.055" fill="#FFFFFF" width="3.068" height="6.851"/>
		<rect x="114.189" y="223.055" fill="#59B4BC" width="0.993" height="6.851"/>
	</g>
	<g>
		<rect x="67.939" y="180.905" fill="#FFFFFF" width="5.867" height="6.85"/>
		<rect x="67.939" y="180.905" fill="#4B9BA2" width="1.897" height="6.85"/>
	</g>
	<g>
		<rect x="83.185" y="180.905" fill="#FFFFFF" width="5.868" height="6.85"/>
		<rect x="83.185" y="180.905" fill="#4B9BA2" width="1.898" height="6.85"/>
	</g>
	<g>
		<rect x="98.431" y="180.905" fill="#FFFFFF" width="5.868" height="6.85"/>
		<rect x="98.431" y="180.905" fill="#4B9BA2" width="1.898" height="6.85"/>
	</g>
</g>
<g>
	<g>
		<rect x="157.492" y="103.446" fill="#59B4BC" width="41.438" height="131.091"/>
		<g>
			<rect x="162.367" y="108.902" fill="#C4E7E6" width="6.006" height="7.192"/>
			<rect x="175.208" y="108.902" fill="#C4E7E6" width="6.007" height="7.192"/>
			<rect x="188.05" y="108.902" fill="#C4E7E6" width="6.006" height="7.192"/>
		</g>
		<g>
			<rect x="162.367" y="124.187" fill="#C4E7E6" width="6.006" height="7.192"/>
			<rect x="175.208" y="124.187" fill="#C4E7E6" width="6.007" height="7.192"/>
			<rect x="188.05" y="124.187" fill="#C4E7E6" width="6.006" height="7.192"/>
		</g>
		<g>
			<rect x="162.367" y="139.471" fill="#C4E7E6" width="6.006" height="7.193"/>
			<rect x="175.208" y="139.471" fill="#C4E7E6" width="6.007" height="7.193"/>
			<rect x="188.05" y="139.471" fill="#C4E7E6" width="6.006" height="7.193"/>
		</g>
		<g>
			<rect x="162.367" y="154.755" fill="#C4E7E6" width="6.006" height="7.193"/>
			<rect x="175.208" y="154.755" fill="#C4E7E6" width="6.007" height="7.193"/>
			<rect x="188.05" y="154.755" fill="#C4E7E6" width="6.006" height="7.193"/>
		</g>
		<g>
			<rect x="162.367" y="170.039" fill="#C4E7E6" width="6.006" height="7.193"/>
			<rect x="175.208" y="170.039" fill="#C4E7E6" width="6.007" height="7.193"/>
			<rect x="188.05" y="170.039" fill="#C4E7E6" width="6.006" height="7.193"/>
		</g>
		<g>
			<rect x="162.367" y="185.324" fill="#C4E7E6" width="6.006" height="7.193"/>
			<rect x="175.208" y="185.324" fill="#C4E7E6" width="6.007" height="7.193"/>
			<rect x="188.05" y="185.324" fill="#C4E7E6" width="6.006" height="7.193"/>
		</g>
		<g>
			<rect x="162.367" y="200.608" fill="#C4E7E6" width="6.006" height="7.192"/>
			<rect x="175.208" y="200.608" fill="#C4E7E6" width="6.007" height="7.192"/>
			<rect x="188.05" y="200.608" fill="#C4E7E6" width="6.006" height="7.192"/>
		</g>
		<g>
			<rect x="162.367" y="215.893" fill="#C4E7E6" width="6.006" height="7.194"/>
			<rect x="175.208" y="215.893" fill="#C4E7E6" width="6.007" height="7.194"/>
			<rect x="188.05" y="215.893" fill="#C4E7E6" width="6.006" height="7.194"/>
		</g>
	</g>
	<rect x="157.451" y="97.961" fill="#C4E7E6" width="41.48" height="5.68"/>
	<rect x="177.242" y="91.879" fill="#59B4BC" width="17.689" height="9.193"/>
	<rect x="177.242" y="87.282" fill="#E2ECF1" width="17.689" height="5.597"/>
</g>
<g>
	<rect x="222.793" y="12.048" fill="#FFFFFF" width="23.755" height="6.102"/>
	<g>
		<rect x="212.228" y="103.733" fill="#C4E7E6" width="44.655" height="130.734"/>
		<rect x="215.726" y="103.733" fill="#59B4BC" width="37.659" height="130.734"/>
		<g>
			<g>
				<g>
					<rect x="244.157" y="209.664" fill="#FFFFFF" width="4.578" height="5.235"/>
					<rect x="247.254" y="209.664" fill="#798F94" width="1.481" height="5.235"/>
				</g>
				<g>
					<rect x="232.266" y="209.664" fill="#FFFFFF" width="4.578" height="5.235"/>
					<rect x="235.362" y="209.664" fill="#4B9BA2" width="1.481" height="5.235"/>
				</g>
				<g>
					<rect x="220.375" y="209.664" fill="#FFFFFF" width="4.576" height="5.235"/>
					<rect x="223.472" y="209.664" fill="#4B9BA2" width="1.479" height="5.235"/>
				</g>
			</g>
			<g>
				<g>
					<rect x="244.157" y="199.644" fill="#FFFFFF" width="4.578" height="5.234"/>
					<rect x="247.254" y="199.644" fill="#4B9BA2" width="1.481" height="5.234"/>
				</g>
				<g>
					<rect x="232.266" y="199.644" fill="#FFFFFF" width="4.578" height="5.234"/>
					<rect x="235.362" y="199.644" fill="#4B9BA2" width="1.481" height="5.234"/>
				</g>
				<g>
					<rect x="220.375" y="199.644" fill="#FFFFFF" width="4.576" height="5.234"/>
					<rect x="223.472" y="199.644" fill="#4B9BA2" width="1.479" height="5.234"/>
				</g>
			</g>
			<g>
				<rect x="244.157" y="189.625" fill="#FFFFFF" width="4.578" height="5.233"/>
				<rect x="247.254" y="189.625" fill="#4B9BA2" width="1.481" height="5.233"/>
			</g>
			<g>
				<rect x="232.266" y="189.625" fill="#FFFFFF" width="4.578" height="5.233"/>
				<rect x="235.362" y="189.625" fill="#4B9BA2" width="1.481" height="5.233"/>
			</g>
			<g>
				<rect x="220.375" y="189.625" fill="#FFFFFF" width="4.576" height="5.233"/>
				<rect x="223.472" y="189.625" fill="#4B9BA2" width="1.479" height="5.233"/>
			</g>
			<g>
				<rect x="244.157" y="179.604" fill="#FFFFFF" width="4.578" height="5.234"/>
				<rect x="247.254" y="179.604" fill="#4B9BA2" width="1.481" height="5.234"/>
			</g>
			<g>
				<rect x="232.266" y="179.604" fill="#FFFFFF" width="4.578" height="5.234"/>
				<rect x="235.362" y="179.604" fill="#4B9BA2" width="1.481" height="5.234"/>
			</g>
			<g>
				<rect x="220.375" y="179.604" fill="#FFFFFF" width="4.576" height="5.234"/>
				<rect x="223.472" y="179.604" fill="#4B9BA2" width="1.479" height="5.234"/>
			</g>
			<g>
				<rect x="244.157" y="169.585" fill="#FFFFFF" width="4.578" height="5.234"/>
				<rect x="247.254" y="169.585" fill="#4B9BA2" width="1.481" height="5.234"/>
			</g>
			<g>
				<rect x="232.266" y="169.585" fill="#FFFFFF" width="4.578" height="5.234"/>
				<rect x="235.362" y="169.585" fill="#4B9BA2" width="1.481" height="5.234"/>
			</g>
			<g>
				<rect x="220.375" y="169.585" fill="#FFFFFF" width="4.576" height="5.234"/>
				<rect x="223.472" y="169.585" fill="#4B9BA2" width="1.479" height="5.234"/>
			</g>
			<g>
				<rect x="244.157" y="159.564" fill="#FFFFFF" width="4.578" height="5.234"/>
				<rect x="247.254" y="159.564" fill="#4B9BA2" width="1.481" height="5.234"/>
			</g>
			<g>
				<rect x="232.266" y="159.564" fill="#FFFFFF" width="4.578" height="5.234"/>
				<rect x="235.362" y="159.564" fill="#4B9BA2" width="1.481" height="5.234"/>
			</g>
			<g>
				<rect x="220.375" y="159.564" fill="#FFFFFF" width="4.576" height="5.234"/>
				<rect x="223.472" y="159.564" fill="#4B9BA2" width="1.479" height="5.234"/>
			</g>
			<g>
				<rect x="244.157" y="149.545" fill="#FFFFFF" width="4.578" height="5.232"/>
				<rect x="247.254" y="149.545" fill="#4B9BA2" width="1.481" height="5.232"/>
			</g>
			<g>
				<rect x="232.266" y="149.545" fill="#FFFFFF" width="4.578" height="5.232"/>
				<rect x="235.362" y="149.545" fill="#4B9BA2" width="1.481" height="5.232"/>
			</g>
			<g>
				<rect x="220.375" y="149.545" fill="#FFFFFF" width="4.576" height="5.232"/>
				<rect x="223.472" y="149.545" fill="#4B9BA2" width="1.479" height="5.232"/>
			</g>
			<g>
				<rect x="244.157" y="139.526" fill="#FFFFFF" width="4.578" height="5.232"/>
				<rect x="247.254" y="139.526" fill="#4B9BA2" width="1.481" height="5.232"/>
			</g>
			<g>
				<rect x="232.266" y="139.526" fill="#FFFFFF" width="4.578" height="5.232"/>
				<rect x="235.362" y="139.526" fill="#4B9BA2" width="1.481" height="5.232"/>
			</g>
			<g>
				<rect x="220.375" y="139.526" fill="#FFFFFF" width="4.576" height="5.232"/>
				<rect x="223.472" y="139.526" fill="#4B9BA2" width="1.479" height="5.232"/>
			</g>
			<g>
				<rect x="244.157" y="129.505" fill="#FFFFFF" width="4.578" height="5.234"/>
				<rect x="247.254" y="129.505" fill="#4B9BA2" width="1.481" height="5.234"/>
			</g>
			<g>
				<rect x="232.266" y="129.505" fill="#FFFFFF" width="4.578" height="5.234"/>
				<rect x="235.362" y="129.505" fill="#4B9BA2" width="1.481" height="5.234"/>
			</g>
			<g>
				<rect x="220.375" y="129.505" fill="#FFFFFF" width="4.576" height="5.234"/>
				<rect x="223.472" y="129.505" fill="#4B9BA2" width="1.479" height="5.234"/>
			</g>
			<g>
				<rect x="244.157" y="119.485" fill="#FFFFFF" width="4.578" height="5.233"/>
				<rect x="247.254" y="119.485" fill="#4B9BA2" width="1.481" height="5.233"/>
			</g>
			<g>
				<rect x="232.266" y="119.485" fill="#FFFFFF" width="4.578" height="5.233"/>
				<rect x="235.362" y="119.485" fill="#4B9BA2" width="1.481" height="5.233"/>
			</g>
			<g>
				<rect x="220.375" y="119.485" fill="#FFFFFF" width="4.576" height="5.233"/>
				<rect x="223.472" y="119.485" fill="#4B9BA2" width="1.479" height="5.233"/>
			</g>
			<g>
				<rect x="244.157" y="109.464" fill="#FFFFFF" width="4.578" height="5.235"/>
				<rect x="247.254" y="109.464" fill="#4B9BA2" width="1.481" height="5.235"/>
			</g>
			<g>
				<rect x="232.266" y="109.464" fill="#FFFFFF" width="4.578" height="5.235"/>
				<rect x="235.362" y="109.464" fill="#4B9BA2" width="1.481" height="5.235"/>
			</g>
			<g>
				<rect x="220.375" y="109.464" fill="#FFFFFF" width="4.576" height="5.235"/>
				<rect x="223.472" y="109.464" fill="#4B9BA2" width="1.479" height="5.235"/>
			</g>
		</g>
		<g>
			<rect x="232.282" y="220.711" fill="#FFFFFF" width="7.971" height="13.826"/>
			<rect x="237.675" y="220.711" fill="#4B9BA2" width="2.578" height="13.826"/>
		</g>
	</g>
	<g>
		<rect x="210.613" y="96.418" fill="#FFFFFF" width="47.546" height="6.714"/>
		<g>
			<rect x="218.42" y="60.372" fill="#C4E7E6" width="32.864" height="38.706"/>
			<rect x="220.994" y="60.372" fill="#59B4BC" width="27.717" height="38.706"/>
		</g>
		<g>
			<g>
				<g>
					<rect x="241.064" y="85.824" fill="#FFFFFF" width="4.576" height="5.234"/>
					<rect x="244.16" y="85.824" fill="#4B9BA2" width="1.48" height="5.234"/>
				</g>
				<g>
					<rect x="232.266" y="85.824" fill="#FFFFFF" width="4.578" height="5.234"/>
					<rect x="235.362" y="85.824" fill="#4B9BA2" width="1.481" height="5.234"/>
				</g>
				<g>
					<rect x="223.469" y="85.824" fill="#FFFFFF" width="4.577" height="5.234"/>
					<rect x="226.564" y="85.824" fill="#4B9BA2" width="1.481" height="5.234"/>
				</g>
			</g>
			<g>
				<g>
					<rect x="241.064" y="76.084" fill="#FFFFFF" width="4.576" height="5.233"/>
					<rect x="244.16" y="76.084" fill="#4B9BA2" width="1.48" height="5.233"/>
				</g>
				<g>
					<rect x="232.266" y="76.084" fill="#FFFFFF" width="4.578" height="5.233"/>
					<rect x="235.362" y="76.084" fill="#4B9BA2" width="1.481" height="5.233"/>
				</g>
				<g>
					<rect x="223.469" y="76.084" fill="#FFFFFF" width="4.577" height="5.233"/>
					<rect x="226.564" y="76.084" fill="#4B9BA2" width="1.481" height="5.233"/>
				</g>
			</g>
			<g>
				<g>
					<rect x="241.064" y="66.343" fill="#FFFFFF" width="4.576" height="5.233"/>
					<rect x="244.16" y="66.343" fill="#4B9BA2" width="1.48" height="5.233"/>
				</g>
				<g>
					<rect x="232.266" y="66.343" fill="#FFFFFF" width="4.578" height="5.233"/>
					<rect x="235.362" y="66.343" fill="#4B9BA2" width="1.481" height="5.233"/>
				</g>
				<g>
					<rect x="223.469" y="66.343" fill="#FFFFFF" width="4.577" height="5.233"/>
					<rect x="226.564" y="66.343" fill="#4B9BA2" width="1.481" height="5.233"/>
				</g>
			</g>
		</g>
		<rect x="210.613" y="101.817" fill="#4B9BA2" width="47.884" height="3.354"/>
	</g>
	<g>
		<rect x="216.774" y="52.912" fill="#FFFFFF" width="35.562" height="6.714"/>
		<rect x="223.818" y="18.724" fill="#C4E7E6" width="22.077" height="37.756"/>
		<rect x="225.548" y="18.724" fill="#59B4BC" width="18.62" height="37.756"/>
		<rect x="222.822" y="16.808" fill="#4B9BA2" width="23.672" height="3.355"/>
		<g>
			<g>
				<g>
					<rect x="236.768" y="44.176" fill="#FFFFFF" width="4.578" height="5.234"/>
					<rect x="239.863" y="44.176" fill="#4B9BA2" width="1.482" height="5.234"/>
				</g>
				<g>
					<rect x="227.97" y="44.176" fill="#FFFFFF" width="4.577" height="5.234"/>
					<rect x="231.065" y="44.176" fill="#4B9BA2" width="1.481" height="5.234"/>
				</g>
			</g>
			<g>
				<g>
					<rect x="236.769" y="34.436" fill="#FFFFFF" width="4.577" height="5.233"/>
					<rect x="239.863" y="34.436" fill="#4B9BA2" width="1.482" height="5.233"/>
				</g>
				<g>
					<rect x="227.97" y="34.436" fill="#FFFFFF" width="4.578" height="5.233"/>
					<rect x="231.065" y="34.436" fill="#4B9BA2" width="1.482" height="5.233"/>
				</g>
			</g>
			<g>
				<g>
					<rect x="236.768" y="24.693" fill="#FFFFFF" width="4.578" height="5.234"/>
					<rect x="239.863" y="24.693" fill="#4B9BA2" width="1.482" height="5.234"/>
				</g>
				<g>
					<rect x="227.97" y="24.693" fill="#FFFFFF" width="4.577" height="5.234"/>
					<rect x="231.065" y="24.693" fill="#4B9BA2" width="1.481" height="5.234"/>
				</g>
			</g>
		</g>
		<rect x="217.038" y="58.455" fill="#4B9BA2" width="35.24" height="3.355"/>
	</g>
	<path fill="#4B9BA2" d="M240.887,0.689c0-0.381-0.267-0.689-0.596-0.689c-0.328,0-0.594,0.309-0.594,0.689v13.427h1.189V0.689z"/>
	<path fill="#4B9BA2" d="M237.975,5.931c0-0.233-0.266-0.422-0.595-0.422s-0.595,0.188-0.595,0.422v8.186h1.189V5.931z"/>
</g>
</svg>
