<?xml version="1.0" encoding="utf-8"?>
<!-- Generated by IcoMoon.io -->
<!DOCTYPE svg PUBLIC "-//W3C//DTD SVG 1.1//EN" "http://www.w3.org/Graphics/SVG/1.1/DTD/svg11.dtd">
<svg version="1.1" xmlns="http://www.w3.org/2000/svg" xmlns:xlink="http://www.w3.org/1999/xlink" width="32" height="32" viewBox="0 0 32 32">
<g id="icomoon-ignore">
	<line stroke-width="1" x1="" y1="" x2="" y2="" stroke="#449FDB" opacity=""></line>
</g>
	<path d="M28.915 16.336c0 7.315-5.93 13.244-13.244 13.244s-13.244-5.93-13.244-13.244c0-7.315 5.93-13.244 13.244-13.244s13.244 5.93 13.244 13.244z" fill="#818d13"></path>
	<path d="M25.937 18.145c-0.289-0.087-0.668-0.040-1.13 0.143-0.419 0.181-0.798 0.443-1.14 0.787-0.34 0.343-0.679 0.719-1.016 1.129s-0.712 0.801-1.122 1.176c-0.034 0.019-0.064 0.037-0.098 0.053-0.033 0.018-0.064 0.033-0.094 0.046-0.279 0.107-0.534 0.098-0.759-0.030-0.228-0.128-0.434-0.338-0.617-0.63-0.045-0.066-0.085-0.136-0.126-0.207-0.005-0.033-0.015-0.064-0.029-0.091-0.315-0.575-0.527-1.329-0.636-2.262-0.112-0.935-0.177-2.015-0.193-3.244-0.009-0.457-0.015-0.992-0.025-1.602s-0.023-1.387-0.041-2.329c-0.035-0.121-0.148-0.236-0.34-0.35-0.191-0.112-0.417-0.205-0.678-0.278-0.262-0.072-0.517-0.107-0.763-0.105-0.187 0.003-0.311 0-0.474 0.097-0.378 0.224-0.192 0.971-0.183 1.115 0.057 0.92-0.313 1.652-0.48 2.224s-0.327 1.019-0.481 1.336c-0.091 0.186-0.18 0.348-0.267 0.485s-0.179 0.25-0.272 0.335c-0.019-0.058-0.045-0.135-0.076-0.236-0.031-0.099-0.064-0.223-0.1-0.366-0.061-0.239-0.148-0.583-0.258-1.032s-0.244-1.039-0.405-1.766c-0.102-0.52-0.19-0.959-0.261-1.317-0.073-0.359-0.193-0.628-0.353-0.811-0.163-0.183-0.47-0.291-0.797-0.265-0.717 0.059-1.205 1.055-0.812 1.657-0.322 1.416-0.651 2.714-0.887 3.619s-0.424 1.597-0.564 2.075c-0.14 0.477-0.243 0.83-0.31 1.054-0.068 0.226-0.11 0.415-0.129 0.562s-0.023 0.348-0.016 0.595c0.025 0.406 0.2 0.706 0.523 0.899 0.321 0.193 0.691 0.317 1.108 0.371s0.782 0.074 1.094 0.064l0.354-0.009c0.023 0 0.048-0.001 0.067-0.003 0.021-0.003 0.040-0.006 0.059-0.012-0.239-0.487-0.414-1.012-0.516-1.578-0.104-0.564-0.161-1.139-0.17-1.725-0.009-0.592 0.007-1.165 0.051-1.72 0.044-0.557 0.098-1.063 0.16-1.525 0.217 0.811 0.459 1.709 0.722 2.694 0.264 0.987 0.556 2.053 0.874 3.201 0.022 0.087 0.156 0.164 0.403 0.231s0.493 0.1 0.74 0.1c0.087-0.003 0.161-0.009 0.219-0.026 0.058-0.014 0.101-0.038 0.132-0.070 0.091-0.904 0.228-1.785 0.413-2.643 0.185-0.856 0.378-1.61 0.574-2.257 0.099 1.263 0.232 2.441 0.399 3.535 0.166 1.093 0.23 3.908 2.010 4.14 0.826 0.108 1.4-0.056 2.059-0.564 0.34-0.265 0.486-0.536 0.726-0.839 0.24-0.302 0.505-0.591 0.797-0.865s0.639-0.499 1.042-0.671c0.314-0.133 0.677-0.213 1.089-0.242s0.885-0.016 1.421 0.129c0.185-0.314 0.248-0.612 0.273-0.892 0.028-0.282-0.002-0.527-0.088-0.738-0.112-0.281-0.312-0.465-0.601-0.55z" fill="#fff"></path>
</svg>
