<?xml version="1.0" encoding="utf-8"?>
<!-- Generator: Adobe Illustrator 16.0.0, SVG Export Plug-In . SVG Version: 6.00 Build 0)  -->
<!DOCTYPE svg PUBLIC "-//W3C//DTD SVG 1.1//EN" "http://www.w3.org/Graphics/SVG/1.1/DTD/svg11.dtd">
<svg version="1.1" id="Layer_4" xmlns="http://www.w3.org/2000/svg" xmlns:xlink="http://www.w3.org/1999/xlink" x="0px" y="0px"
	 width="71.138px" height="40.528px" viewBox="0 0 71.138 40.528" enable-background="new 0 0 71.138 40.528" xml:space="preserve">
<g>
	<path fill="#DBF6FB" d="M62.546,24.636c0-7.388-5.995-13.386-13.391-13.386c-1.588,0-3.107,0.291-4.515,0.808
		C43.012,5.152,36.83,0,29.431,0C20.91,0,13.98,6.833,13.813,15.319c-0.756-0.156-1.538-0.24-2.335-0.24
		C5.14,15.079,0,20.212,0,26.553c0,5.188,3.447,9.563,8.168,10.985c0.949,0.312,1.959,0.49,3.021,0.49h38.637
		c1.18,0,2.313-0.229,3.355-0.621C58.607,35.703,62.546,30.63,62.546,24.636z"/>
</g>
<g>
	<path fill="#FFFFFF" d="M70.546,27.136c0-7.388-5.995-13.386-13.391-13.386c-1.588,0-3.107,0.291-4.515,0.808
		C51.012,7.652,44.83,2.5,37.431,2.5c-8.521,0-15.45,6.833-15.618,15.319c-0.756-0.156-1.538-0.24-2.335-0.24
		C13.14,17.579,8,22.712,8,29.053c0,5.188,3.447,9.563,8.168,10.985c0.949,0.312,1.959,0.49,3.021,0.49h38.637
		c1.18,0,2.313-0.229,3.355-0.621C66.607,38.203,70.546,33.13,70.546,27.136z"/>
</g>
</svg>
