<?xml version="1.0" encoding="utf-8"?>
<!-- Generator: Adobe Illustrator 16.0.0, SVG Export Plug-In . SVG Version: 6.00 Build 0)  -->
<!DOCTYPE svg PUBLIC "-//W3C//DTD SVG 1.1//EN" "http://www.w3.org/Graphics/SVG/1.1/DTD/svg11.dtd">
<svg version="1.1" id="Layer_4" xmlns="http://www.w3.org/2000/svg" xmlns:xlink="http://www.w3.org/1999/xlink" x="0px" y="0px"
	 width="744.552px" height="209.996px" viewBox="0 0 744.552 209.996" enable-background="new 0 0 744.552 209.996"
	 xml:space="preserve">

<style type="text/css"><![CDATA[

	.edificio{
		-webkit-transform: translate(0,250px);
		-moz-transform: translate(0,250px);
		-ms-transform: translate(0,250px);
		-o-transform: translate(0,250px);
		transform: translate(0,250px);
	}
	.complete .edificio{
		-webkit-transform: translate(0,0);
		-moz-transform: translate(0,0);
		-ms-transform: translate(0,0);
		-o-transform: translate(0,0);
		transform: translate(0,0);
	}
	.arbol{
		-webkit-transform: translate(0,250px);
		-ms-transform: translate(0,250px);
		-o-transform: translate(0,250px);
		-moz-transform: translate(0,250px);
		transform: translate(0,250px);
	}
	.complete .arbol{
		-webkit-transform: translate(0,0);
		-ms-transform: translate(0,0);
		-o-transform: translate(0,0);
		-moz-transform: translate(0,0);
		transform: translate(0,0);
	}

	.arbol1{
		-webkit-transition: all 1s ease-in-out 0s;
		-ms-transition: all 1s ease-in-out 0s;
		-o-transition: all 1s ease-in-out 0s;
		-ms-transition: all 1s ease-in-out 0s;
		-moz-transition: all 1s ease-in-out 0s;
		transition: all 1s ease-in-out 0s;
	}
	.arbol2{
		-webkit-transition: all 1s ease-in-out 0.2s;
		-ms-transition: all 1s ease-in-out 0.2s;
		-o-transition: all 1s ease-in-out 0.2s;
		-ms-transition: all 1s ease-in-out 0.2s;
		-moz-transition: all 1s ease-in-out 0.2s;
		transition: all 1s ease-in-out 0.2s;
	}

	.edificio1{	
		-webkit-transition: all 1s ease-in-out 0.2s;
		-moz-transition: all 1s ease-in-out 0.2s;
		-ms-transition: all 1s ease-in-out 0.2s;
		-o-transition: all 1s ease-in-out 0.2s;
	}
	.edificio2{		
		-webkit-transition: all 1s ease-in-out 0.5s;
		-moz-transition: all 1s ease-in-out 0.5s;
		-ms-transition: all 1s ease-in-out 0.5s;
		-o-transition: all 1s ease-in-out 0.5s;
	}
	.edificio3{	
		-webkit-transition: all 1s ease-in-out 0.7s;
		-moz-transition: all 1s ease-in-out 0.7s;
		-ms-transition: all 1s ease-in-out 0.7s;
		-o-transition: all 1s ease-in-out 0.7s;
	}
	.edificio4{	
		-webkit-transition: all 1s ease-in-out 1s;
		-moz-transition: all 1s ease-in-out 1s;
		-ms-transition: all 1s ease-in-out 1s;
		-o-transition: all 1s ease-in-out 1s;
	}
	.edificio5{	
		-webkit-transition: all 1s ease-in-out 1.3s;
		-moz-transition: all 1s ease-in-out 1.3s;
		-ms-transition: all 1s ease-in-out 1.3s;
		-o-transition: all 1s ease-in-out 1.3s;
	}
	.edificio6{	
		-webkit-transition: all 1s ease-in-out 1.5s;
		-moz-transition: all 1s ease-in-out 1.5s;
		-ms-transition: all 1s ease-in-out 1.5s;
		-o-transition: all 1s ease-in-out 1.5s;
	}


  	.helice{
  		transform-origin: 50% 50%;
	    -webkit-transform-origin: 50% 50%;
	    -o-transform-origin: 50% 50%;
	    -ms-transform-origin: 50% 50%;
  	}
	#helice-1{			
		-webkit-animation: rotation 2s infinite linear;		
		-o-animation: rotation 2s infinite linear;
	}
	#helice-2{		
		-webkit-animation: rotation 4s infinite linear;
		-o-animation: rotation 4s infinite linear;		
	}
	#helice-3{				
		-webkit-animation: rotation 2s infinite linear;	
		-o-animation: rotation 2s infinite linear;
	}


	@-webkit-keyframes rotation {
	    from {-webkit-transform: rotate(0deg);}
	    to   {-webkit-transform: rotate(359deg);}
	}
	@-moz-keyframes rotation {
	    from {-moz-transform: rotate(0deg);}
	    to   {-moz-transform: rotate(359deg);}
	}
	@-o-keyframes rotation {
	    from {-o-transform: rotate(0deg);}
	    to   {-o-transform: rotate(359deg);}
	}
	@keyframes rotation {
	    from {transform: rotate(0deg);}
	    to   {transform: rotate(359deg);}
	}

]]>
</style>


<g class="edificio edificio1">
	<rect x="57.432" y="28.05" fill="#59B4BC" width="43.756" height="159.332"/>
	<g>
		<rect x="90.95" y="65.564" fill="#DCDDDE" width="3.067" height="4.984"/>
		<rect x="90.95" y="75.401" fill="#DCDDDE" width="3.067" height="4.981"/>
		<rect x="90.95" y="65.564" fill="#DCDDDE" width="3.067" height="4.984"/>
		<rect x="90.95" y="75.401" fill="#DCDDDE" width="3.067" height="4.981"/>
		<rect x="90.95" y="85.238" fill="#DCDDDE" width="3.067" height="4.981"/>
		<rect x="90.95" y="65.564" fill="#DCDDDE" width="3.067" height="4.984"/>
		<rect x="90.95" y="75.401" fill="#DCDDDE" width="3.067" height="4.981"/>
		<rect x="90.95" y="85.238" fill="#DCDDDE" width="3.067" height="4.981"/>
		<rect x="90.95" y="95.077" fill="#DCDDDE" width="3.067" height="4.981"/>
		<rect x="90.95" y="65.564" fill="#DCDDDE" width="3.067" height="4.984"/>
		<rect x="90.95" y="75.401" fill="#DCDDDE" width="3.067" height="4.981"/>
		<rect x="90.95" y="85.238" fill="#DCDDDE" width="3.067" height="4.981"/>
		<rect x="90.95" y="95.077" fill="#DCDDDE" width="3.067" height="4.981"/>
		<rect x="90.95" y="75.401" fill="#DCDDDE" width="3.067" height="4.981"/>
		<rect x="90.95" y="85.238" fill="#DCDDDE" width="3.067" height="4.981"/>
		<rect x="90.95" y="95.077" fill="#DCDDDE" width="3.067" height="4.981"/>
		<rect x="90.95" y="85.238" fill="#DCDDDE" width="3.067" height="4.981"/>
		<rect x="90.95" y="95.077" fill="#DCDDDE" width="3.067" height="4.981"/>
		<rect x="90.95" y="95.077" fill="#DCDDDE" width="3.067" height="4.981"/>
		<rect x="84.363" y="85.238" fill="#DCDDDE" width="3.067" height="4.981"/>
		<rect x="84.363" y="95.077" fill="#DCDDDE" width="3.067" height="4.981"/>
		<rect x="77.775" y="45.89" fill="#DCDDDE" width="3.069" height="4.983"/>
		<rect x="77.775" y="55.728" fill="#DCDDDE" width="3.069" height="4.981"/>
		<rect x="77.775" y="65.564" fill="#DCDDDE" width="3.069" height="4.984"/>
		<rect x="77.775" y="75.401" fill="#DCDDDE" width="3.069" height="4.981"/>
		<rect x="77.775" y="85.238" fill="#DCDDDE" width="3.069" height="4.981"/>
		<rect x="77.775" y="95.077" fill="#DCDDDE" width="3.069" height="4.981"/>
		<rect x="77.775" y="104.911" fill="#DCDDDE" width="3.069" height="4.985"/>
		<rect x="77.775" y="114.749" fill="#DCDDDE" width="3.069" height="4.985"/>
		<rect x="77.775" y="124.587" fill="#DCDDDE" width="3.069" height="4.984"/>
		<rect x="71.19" y="65.564" fill="#DCDDDE" width="3.066" height="4.984"/>
		<rect x="71.19" y="75.401" fill="#DCDDDE" width="3.066" height="4.981"/>
		<rect x="71.19" y="85.238" fill="#DCDDDE" width="3.066" height="4.981"/>
		<rect x="64.603" y="36.054" fill="#DCDDDE" width="3.067" height="4.983"/>
		<rect x="64.603" y="45.89" fill="#DCDDDE" width="3.067" height="4.983"/>
		<rect x="64.603" y="55.728" fill="#DCDDDE" width="3.067" height="4.981"/>
		<rect x="64.603" y="65.564" fill="#DCDDDE" width="3.067" height="4.984"/>
		<rect x="64.603" y="75.401" fill="#DCDDDE" width="3.067" height="4.981"/>
		<rect x="64.603" y="85.238" fill="#DCDDDE" width="3.067" height="4.981"/>
		<rect x="64.603" y="95.077" fill="#DCDDDE" width="3.067" height="4.981"/>
	</g>
</g>

<g class="edificio edificio2">
	<g>
		<rect x="108.391" y="27.83" fill="#59B4BC" width="50.434" height="159.552"/>
		<g>
			<rect x="114.324" y="34.47" fill="#FFFFFF" width="7.31" height="8.754"/>
			<rect x="129.953" y="34.47" fill="#FFFFFF" width="7.311" height="8.754"/>
			<rect x="145.583" y="34.47" fill="#FFFFFF" width="7.31" height="8.754"/>
		</g>
		<g>
			<rect x="114.324" y="53.073" fill="#FFFFFF" width="7.31" height="8.754"/>
			<rect x="129.953" y="53.073" fill="#FFFFFF" width="7.311" height="8.754"/>
			<rect x="145.583" y="53.073" fill="#FFFFFF" width="7.31" height="8.754"/>
		</g>
		<g>
			<rect x="114.324" y="71.676" fill="#FFFFFF" width="7.31" height="8.755"/>
			<rect x="129.953" y="71.676" fill="#FFFFFF" width="7.311" height="8.755"/>
			<rect x="145.583" y="71.676" fill="#FFFFFF" width="7.31" height="8.755"/>
		</g>
		<g>
			<rect x="114.324" y="90.278" fill="#FFFFFF" width="7.31" height="8.754"/>
			<rect x="129.953" y="90.278" fill="#FFFFFF" width="7.311" height="8.754"/>
			<rect x="145.583" y="90.278" fill="#FFFFFF" width="7.31" height="8.754"/>
		</g>
		<g>
			<rect x="114.324" y="108.881" fill="#FFFFFF" width="7.31" height="8.755"/>
			<rect x="129.953" y="108.881" fill="#FFFFFF" width="7.311" height="8.755"/>
			<rect x="145.583" y="108.881" fill="#FFFFFF" width="7.31" height="8.755"/>
		</g>
		<g>
			<rect x="114.324" y="127.484" fill="#FFFFFF" width="7.31" height="8.755"/>
			<rect x="129.953" y="127.484" fill="#FFFFFF" width="7.311" height="8.755"/>
			<rect x="145.583" y="127.484" fill="#FFFFFF" width="7.31" height="8.755"/>
		</g>
		<g>
			<rect x="114.324" y="146.087" fill="#FFFFFF" width="7.31" height="8.754"/>
			<rect x="129.953" y="146.087" fill="#FFFFFF" width="7.311" height="8.754"/>
			<rect x="145.583" y="146.087" fill="#FFFFFF" width="7.31" height="8.754"/>
		</g>
		<g>
			<rect x="114.324" y="164.69" fill="#FFFFFF" width="7.31" height="8.755"/>
			<rect x="129.953" y="164.69" fill="#FFFFFF" width="7.311" height="8.755"/>
			<rect x="145.583" y="164.69" fill="#FFFFFF" width="7.31" height="8.755"/>
		</g>
	</g>
	<rect x="108.34" y="21.153" fill="#E2ECF1" width="50.487" height="6.913"/>
	<rect x="132.43" y="13.751" fill="#59B4BC" width="21.527" height="11.19"/>
	<rect x="132.43" y="8.156" fill="#E2ECF1" width="21.527" height="6.812"/>
</g>

<g class="edificio edificio3">
	<polygon fill="#59B4BC" points="203.275,27.823 203.275,12.624 172.801,12.624 172.801,27.823 162.734,27.823 162.734,187.382 
		213.342,187.382 213.342,27.823 	"/>
	<g>
		<rect x="171.027" y="36.993" fill="#4B9BA2" width="3.548" height="5.706"/>
		<rect x="171.027" y="48.26" fill="#4B9BA2" width="3.548" height="5.708"/>
		<rect x="171.027" y="59.527" fill="#4B9BA2" width="3.548" height="5.708"/>
		<rect x="171.027" y="70.794" fill="#4B9BA2" width="3.548" height="5.709"/>
		<rect x="171.027" y="82.063" fill="#4B9BA2" width="3.548" height="5.706"/>
		<rect x="171.027" y="48.26" fill="#4B9BA2" width="3.548" height="5.708"/>
		<rect x="171.027" y="59.527" fill="#4B9BA2" width="3.548" height="5.708"/>
		<rect x="171.027" y="70.794" fill="#4B9BA2" width="3.548" height="5.709"/>
		<rect x="171.027" y="82.063" fill="#4B9BA2" width="3.548" height="5.706"/>
		<rect x="171.027" y="93.331" fill="#4B9BA2" width="3.548" height="5.708"/>
		<rect x="171.027" y="59.527" fill="#4B9BA2" width="3.548" height="5.708"/>
		<rect x="171.027" y="70.794" fill="#4B9BA2" width="3.548" height="5.709"/>
		<rect x="171.027" y="82.063" fill="#4B9BA2" width="3.548" height="5.706"/>
		<rect x="171.027" y="93.331" fill="#4B9BA2" width="3.548" height="5.708"/>
		<rect x="171.027" y="104.597" fill="#4B9BA2" width="3.548" height="5.71"/>
		<rect x="171.027" y="70.794" fill="#4B9BA2" width="3.548" height="5.709"/>
		<rect x="171.027" y="82.063" fill="#4B9BA2" width="3.548" height="5.706"/>
		<rect x="171.027" y="93.331" fill="#4B9BA2" width="3.548" height="5.708"/>
		<rect x="171.027" y="104.597" fill="#4B9BA2" width="3.548" height="5.71"/>
		<rect x="171.027" y="115.864" fill="#4B9BA2" width="3.548" height="5.709"/>
		<rect x="171.027" y="82.063" fill="#4B9BA2" width="3.548" height="5.706"/>
		<rect x="171.027" y="93.331" fill="#4B9BA2" width="3.548" height="5.708"/>
		<rect x="171.027" y="104.597" fill="#4B9BA2" width="3.548" height="5.71"/>
		<rect x="171.027" y="115.864" fill="#4B9BA2" width="3.548" height="5.709"/>
		<rect x="171.027" y="127.132" fill="#4B9BA2" width="3.548" height="5.709"/>
		<rect x="171.027" y="93.331" fill="#4B9BA2" width="3.548" height="5.708"/>
		<rect x="171.027" y="104.597" fill="#4B9BA2" width="3.548" height="5.71"/>
		<rect x="171.027" y="115.864" fill="#4B9BA2" width="3.548" height="5.709"/>
		<rect x="171.027" y="127.132" fill="#4B9BA2" width="3.548" height="5.709"/>
		<rect x="171.027" y="138.4" fill="#4B9BA2" width="3.548" height="5.708"/>
		<rect x="171.027" y="104.597" fill="#4B9BA2" width="3.548" height="5.71"/>
		<rect x="171.027" y="115.864" fill="#4B9BA2" width="3.548" height="5.709"/>
		<rect x="171.027" y="127.132" fill="#4B9BA2" width="3.548" height="5.709"/>
		<rect x="171.027" y="138.4" fill="#4B9BA2" width="3.548" height="5.708"/>
		<rect x="171.027" y="149.668" fill="#4B9BA2" width="3.548" height="5.709"/>
		<rect x="178.646" y="36.993" fill="#4B9BA2" width="3.548" height="5.706"/>
		<rect x="178.646" y="48.26" fill="#4B9BA2" width="3.548" height="5.708"/>
		<rect x="178.646" y="59.527" fill="#4B9BA2" width="3.548" height="5.708"/>
		<rect x="178.646" y="70.794" fill="#4B9BA2" width="3.548" height="5.709"/>
		<rect x="178.646" y="82.063" fill="#4B9BA2" width="3.548" height="5.706"/>
		<rect x="178.646" y="93.331" fill="#4B9BA2" width="3.548" height="5.708"/>
		<rect x="178.646" y="104.597" fill="#4B9BA2" width="3.548" height="5.71"/>
		<rect x="178.646" y="115.864" fill="#4B9BA2" width="3.548" height="5.709"/>
		<rect x="178.646" y="127.132" fill="#4B9BA2" width="3.548" height="5.709"/>
		<rect x="178.646" y="138.4" fill="#4B9BA2" width="3.548" height="5.708"/>
		<rect x="178.646" y="149.668" fill="#4B9BA2" width="3.548" height="5.709"/>
		<rect x="186.265" y="36.993" fill="#4B9BA2" width="3.548" height="5.706"/>
		<rect x="186.265" y="48.26" fill="#4B9BA2" width="3.548" height="5.708"/>
		<rect x="186.265" y="59.527" fill="#4B9BA2" width="3.548" height="5.708"/>
		<rect x="186.265" y="70.794" fill="#4B9BA2" width="3.548" height="5.709"/>
		<rect x="186.265" y="82.063" fill="#4B9BA2" width="3.548" height="5.706"/>
		<rect x="186.265" y="93.331" fill="#4B9BA2" width="3.548" height="5.708"/>
		<rect x="186.265" y="104.597" fill="#4B9BA2" width="3.548" height="5.71"/>
		<rect x="186.265" y="115.864" fill="#4B9BA2" width="3.548" height="5.709"/>
		<rect x="186.265" y="127.132" fill="#4B9BA2" width="3.548" height="5.709"/>
		<rect x="186.265" y="138.4" fill="#4B9BA2" width="3.548" height="5.708"/>
		<rect x="186.265" y="149.668" fill="#4B9BA2" width="3.548" height="5.709"/>
		<rect x="193.883" y="36.993" fill="#4B9BA2" width="3.548" height="5.706"/>
		<rect x="178.646" y="19.979" fill="#4B9BA2" width="3.548" height="5.709"/>
		<rect x="186.265" y="19.979" fill="#4B9BA2" width="3.548" height="5.709"/>
		<rect x="193.883" y="19.979" fill="#4B9BA2" width="3.548" height="5.709"/>
		<rect x="193.883" y="48.26" fill="#4B9BA2" width="3.548" height="5.708"/>
		<rect x="193.883" y="59.527" fill="#4B9BA2" width="3.548" height="5.708"/>
		<rect x="193.883" y="70.794" fill="#4B9BA2" width="3.548" height="5.709"/>
		<rect x="193.883" y="82.063" fill="#4B9BA2" width="3.548" height="5.706"/>
		<rect x="193.883" y="93.331" fill="#4B9BA2" width="3.548" height="5.708"/>
		<rect x="193.883" y="104.597" fill="#4B9BA2" width="3.548" height="5.71"/>
		<rect x="193.883" y="115.864" fill="#4B9BA2" width="3.548" height="5.709"/>
		<rect x="193.883" y="127.132" fill="#4B9BA2" width="3.548" height="5.709"/>
		<rect x="193.883" y="138.4" fill="#4B9BA2" width="3.548" height="5.708"/>
		<rect x="193.883" y="149.668" fill="#4B9BA2" width="3.548" height="5.709"/>
		<rect x="201.502" y="36.993" fill="#4B9BA2" width="3.547" height="5.706"/>
		<rect x="201.502" y="48.26" fill="#4B9BA2" width="3.547" height="5.708"/>
		<rect x="201.502" y="59.527" fill="#4B9BA2" width="3.547" height="5.708"/>
		<rect x="201.502" y="70.794" fill="#4B9BA2" width="3.547" height="5.709"/>
		<rect x="201.502" y="82.063" fill="#4B9BA2" width="3.547" height="5.706"/>
		<rect x="201.502" y="93.331" fill="#4B9BA2" width="3.547" height="5.708"/>
		<rect x="201.502" y="104.597" fill="#4B9BA2" width="3.547" height="5.71"/>
		<rect x="201.502" y="115.864" fill="#4B9BA2" width="3.547" height="5.709"/>
		<rect x="201.502" y="127.132" fill="#4B9BA2" width="3.547" height="5.709"/>
		<rect x="201.502" y="138.4" fill="#4B9BA2" width="3.547" height="5.708"/>
		<rect x="201.502" y="149.668" fill="#4B9BA2" width="3.547" height="5.709"/>
	</g>
</g>

<g class="edificio edificio4">
	<rect x="225.612" y="43.468" fill="#59B4BC" width="38.158" height="143.914"/>
	<g>
		<g>
			<g>
				<rect x="256.365" y="54.124" fill="#F0EAD8" width="0.581" height="123.691"/>
				<rect x="255.718" y="53.296" fill="#4B9BA2" width="1.876" height="125.348"/>
			</g>
		</g>
		<g>
			<g>
				<rect x="250.329" y="54.124" fill="#F0EAD8" width="0.583" height="123.691"/>
				<rect x="249.683" y="53.296" fill="#4B9BA2" width="1.877" height="125.348"/>
			</g>
		</g>
		<g>
			<g>
				<rect x="244.642" y="54.124" fill="#F0EAD8" width="0.582" height="123.691"/>
				<rect x="243.994" y="53.296" fill="#4B9BA2" width="1.878" height="125.348"/>
			</g>
		</g>
		<g>
			<g>
				<rect x="238.607" y="54.124" fill="#F0EAD8" width="0.583" height="123.691"/>
				<rect x="237.96" y="53.296" fill="#4B9BA2" width="1.877" height="125.348"/>
			</g>
		</g>
		<g>
			<g>
				<rect x="232.435" y="54.124" fill="#F0EAD8" width="0.583" height="123.691"/>
				<rect x="231.788" y="53.296" fill="#4B9BA2" width="1.877" height="125.348"/>
			</g>
		</g>
	</g>
</g>

<g class="edificio edificio5">
	<polygon fill="#42779C" points="361.805,78.619 360.391,77.258 354.698,90.508 357.945,90.508 362.322,80.111 	"/>
	<rect x="368.57" y="89.083" fill="#C4E7E6" width="38.57" height="57.466"/>
	<polygon fill="#59B4BC" points="368.57,146.549 368.579,88.854 362.212,77.867 356.949,90.122 356.949,146.318 	"/>
	<polygon fill="#0E878E" points="366.651,89.182 409.34,89.182 403.363,77.272 360.391,77.258 	"/>
	<g>
		<g>
			<rect x="398.06" y="93.747" fill="#FFFFFF" width="4.834" height="5.644"/>
			<rect x="401.329" y="93.747" fill="#63C8D1" width="1.564" height="5.644"/>
		</g>
		<g>
			<rect x="385.499" y="93.747" fill="#FFFFFF" width="4.834" height="5.644"/>
			<rect x="388.77" y="93.747" fill="#63C8D1" width="1.563" height="5.644"/>
		</g>
		<g>
			<rect x="372.939" y="93.747" fill="#FFFFFF" width="4.835" height="5.644"/>
			<rect x="376.21" y="93.747" fill="#63C8D1" width="1.564" height="5.644"/>
		</g>
	</g>
	<g>
		<rect x="358.933" y="94.001" fill="#FFFFFF" width="2.525" height="5.643"/>
		<rect x="358.933" y="94.001" fill="#0E878E" width="0.816" height="5.643"/>
	</g>
	<g>
		<rect x="363.974" y="94.001" fill="#FFFFFF" width="2.527" height="5.643"/>
		<rect x="363.974" y="94.001" fill="#0E878E" width="0.817" height="5.643"/>
	</g>
	<g>
		<rect x="358.933" y="102.59" fill="#FFFFFF" width="2.525" height="5.643"/>
		<rect x="358.933" y="102.59" fill="#0E878E" width="0.816" height="5.643"/>
	</g>
	<g>
		<rect x="363.974" y="102.59" fill="#FFFFFF" width="2.527" height="5.643"/>
		<rect x="363.974" y="102.59" fill="#0E878E" width="0.817" height="5.643"/>
	</g>
	<g>
		<rect x="358.933" y="111.178" fill="#FFFFFF" width="2.525" height="5.645"/>
		<rect x="358.933" y="111.178" fill="#0E878E" width="0.816" height="5.645"/>
	</g>
	<g>
		<rect x="363.974" y="111.178" fill="#FFFFFF" width="2.527" height="5.645"/>
		<rect x="363.974" y="111.178" fill="#0E878E" width="0.817" height="5.645"/>
	</g>
	<g>
		<rect x="358.933" y="119.767" fill="#FFFFFF" width="2.525" height="5.644"/>
		<rect x="358.933" y="119.767" fill="#0E878E" width="0.816" height="5.644"/>
	</g>
	<g>
		<rect x="363.974" y="119.767" fill="#FFFFFF" width="2.527" height="5.644"/>
		<rect x="363.974" y="119.767" fill="#0E878E" width="0.817" height="5.644"/>
	</g>
	<g>
		<rect x="358.933" y="128.356" fill="#FFFFFF" width="2.525" height="5.643"/>
		<rect x="358.933" y="128.356" fill="#0E878E" width="0.816" height="5.643"/>
	</g>
	<g>
		<rect x="363.974" y="128.356" fill="#FFFFFF" width="2.527" height="5.643"/>
		<rect x="363.974" y="128.356" fill="#0E878E" width="0.817" height="5.643"/>
	</g>
	<g>
		<rect x="358.933" y="136.945" fill="#FFFFFF" width="2.525" height="5.643"/>
		<rect x="358.933" y="136.945" fill="#0E878E" width="0.816" height="5.643"/>
	</g>
	<g>
		<rect x="363.974" y="136.945" fill="#FFFFFF" width="2.527" height="5.643"/>
		<rect x="363.974" y="136.945" fill="#0E878E" width="0.817" height="5.643"/>
	</g>
	<g>
		<g>
			<rect x="398.06" y="104.427" fill="#FFFFFF" width="4.834" height="5.644"/>
			<rect x="401.329" y="104.427" fill="#63C8D1" width="1.564" height="5.644"/>
		</g>
		<g>
			<rect x="385.499" y="104.427" fill="#FFFFFF" width="4.834" height="5.644"/>
			<rect x="388.77" y="104.427" fill="#63C8D1" width="1.563" height="5.644"/>
		</g>
		<g>
			<rect x="372.939" y="104.427" fill="#FFFFFF" width="4.835" height="5.644"/>
			<rect x="376.21" y="104.427" fill="#63C8D1" width="1.564" height="5.644"/>
		</g>
	</g>
	<g>
		<g>
			<rect x="398.06" y="115.106" fill="#FFFFFF" width="4.834" height="5.644"/>
			<rect x="401.329" y="115.106" fill="#63C8D1" width="1.564" height="5.644"/>
		</g>
		<g>
			<rect x="385.499" y="115.106" fill="#FFFFFF" width="4.834" height="5.644"/>
			<rect x="388.77" y="115.106" fill="#63C8D1" width="1.563" height="5.644"/>
		</g>
		<g>
			<rect x="372.939" y="115.106" fill="#FFFFFF" width="4.835" height="5.644"/>
			<rect x="376.21" y="115.106" fill="#63C8D1" width="1.564" height="5.644"/>
		</g>
	</g>
	<g>
		<g>
			<rect x="398.06" y="125.787" fill="#FFFFFF" width="4.834" height="5.644"/>
			<rect x="401.329" y="125.787" fill="#63C8D1" width="1.564" height="5.644"/>
		</g>
		<g>
			<rect x="385.499" y="125.787" fill="#FFFFFF" width="4.834" height="5.644"/>
			<rect x="388.77" y="125.787" fill="#63C8D1" width="1.563" height="5.644"/>
		</g>
		<g>
			<rect x="372.939" y="125.787" fill="#FFFFFF" width="4.835" height="5.644"/>
			<rect x="376.21" y="125.787" fill="#63C8D1" width="1.564" height="5.644"/>
		</g>
	</g>
	<g>
		<g>
			<rect x="398.06" y="136.467" fill="#FFFFFF" width="4.834" height="5.645"/>
			<rect x="401.329" y="136.467" fill="#63C8D1" width="1.564" height="5.645"/>
		</g>
		<g>
			<rect x="385.499" y="136.467" fill="#FFFFFF" width="4.834" height="5.645"/>
			<rect x="388.77" y="136.467" fill="#63C8D1" width="1.563" height="5.645"/>
		</g>
		<g>
			<rect x="372.939" y="136.467" fill="#FFFFFF" width="4.835" height="5.645"/>
			<rect x="376.21" y="136.467" fill="#63C8D1" width="1.564" height="5.645"/>
		</g>
	</g>
</g>

<g class="edificio edificio6">
	<rect x="682.737" y="52.097" fill="#85D2DB" width="48.971" height="8.61"/>
	<polygon fill="#85D2DB" points="726.997,37.669 688.067,37.669 682.737,52.097 731.661,52.097 	"/>
	<rect x="684.629" y="62.743" fill="#59B4BC" width="45.873" height="147.408"/>
	<g>
		<rect x="703.08" y="194.221" fill="#FFFFFF" width="8.971" height="15.785"/>
		<rect x="709.148" y="194.221" fill="#4B9BA2" width="2.902" height="15.785"/>
	</g>
	<rect x="682.737" y="60.53" fill="#4D6E7D" width="49.072" height="2.858"/>
	<polygon fill="#4B9BA2" points="726.997,46.103 688.067,46.103 682.737,60.53 731.661,60.53 	"/>
	<rect x="687.918" y="37.663" fill="#FFFFFF" width="39.133" height="8.643"/>
	<path fill="#FFFFFF" d="M717.711,35.813C717.61,33.66,715.521,0,708.427,0c-6.664,0-9.581,33.66-9.747,35.813l0,0v8.223h19.031
		V35.813L717.711,35.813z"/>
	<path fill="#4B9BA2" d="M708.427,8.109c-6.883,0-9.552,35.922-9.552,35.922h18.447C717.322,44.031,715.756,8.109,708.427,8.109z"/>
	<g>
		<rect x="690.107" y="68.968" fill="#FFFFFF" width="34.191" height="105.223"/>
	</g>
	<path fill="#63C8D1" d="M721.712,66.819v0.072h-33.007v0.107h-0.247v105.223h0.12v4.117h37.369v-4.117v-0.418V66.819H721.712z
		 M717.593,70.609h4.119v3.653h-4.119V70.609z M717.593,77.979h4.119v3.343h-4.119V77.979z M717.593,85.039h4.119v3.653h-4.119
		V85.039z M717.593,92.409h4.119v3.653h-4.119V92.409z M717.593,99.779h4.119v3.844h-4.119V99.779z M717.593,107.34h4.119v3.653
		h-4.119V107.34z M717.593,114.71h4.119v3.653h-4.119V114.71z M717.593,122.08h4.119v4.977h-4.119V122.08z M717.593,130.773h4.119
		v3.654h-4.119V130.773z M717.593,138.144h4.119v3.653h-4.119V138.144z M717.593,145.515h4.119v3.843h-4.119V145.515z
		 M717.593,153.074h4.119v3.653h-4.119V153.074z M717.593,160.445h4.119v3.652h-4.119V160.445z M709.375,70.609h3.736v3.653h-3.736
		V70.609z M709.375,77.979h3.736v3.343h-3.736V77.979z M709.375,85.039h3.736v3.653h-3.736V85.039z M709.375,92.409h3.736v3.653
		h-3.736V92.409z M709.375,99.779h3.736v3.844h-3.736V99.779z M709.375,107.34h3.736v3.653h-3.736V107.34z M709.375,114.71h3.736
		v3.653h-3.736V114.71z M709.375,122.08h3.736v4.977h-3.736V122.08z M709.375,130.773h3.736v3.654h-3.736V130.773z M709.375,138.144
		h3.736v3.653h-3.736V138.144z M709.375,145.515h3.736v3.843h-3.736V145.515z M709.375,153.074h3.736v3.653h-3.736V153.074z
		 M709.375,160.445h3.736v3.652h-3.736V160.445z M713.111,167.814v3.989h-3.736v-3.989H713.111z M701.157,70.609h3.736v3.653h-3.736
		V70.609z M701.157,77.979h3.736v3.343h-3.736V77.979z M701.157,85.039h3.736v3.653h-3.736V85.039z M701.157,92.409h3.736v3.653
		h-3.736V92.409z M701.157,99.779h3.736v3.844h-3.736V99.779z M701.157,107.34h3.736v3.653h-3.736V107.34z M701.157,114.71h3.736
		v3.653h-3.736V114.71z M701.157,122.08h3.736v4.977h-3.736V122.08z M701.157,130.773h3.736v3.654h-3.736V130.773z M701.157,138.144
		h3.736v3.653h-3.736V138.144z M701.157,145.515h3.736v3.843h-3.736V145.515z M701.157,153.074h3.736v3.653h-3.736V153.074z
		 M701.157,160.445h3.736v3.652h-3.736V160.445z M704.894,167.814v3.989h-3.736v-3.989H704.894z M692.939,70.609h3.736v3.653h-3.736
		V70.609z M692.939,77.979h3.736v3.343h-3.736V77.979z M692.939,85.039h3.736v3.653h-3.736V85.039z M692.939,92.409h3.736v3.653
		h-3.736V92.409z M692.939,99.779h3.736v3.844h-3.736V99.779z M692.939,107.34h3.736v3.653h-3.736V107.34z M692.939,114.71h3.736
		v3.653h-3.736V114.71z M692.939,122.08h3.736v4.977h-3.736V122.08z M692.939,130.773h3.736v3.654h-3.736V130.773z M692.939,138.144
		h3.736v3.653h-3.736V138.144z M692.939,145.515h3.736v3.843h-3.736V145.515z M692.939,153.074h3.736v3.653h-3.736V153.074z
		 M692.939,160.445h3.736v3.652h-3.736V160.445z M696.676,167.814v3.989h-3.736v-3.989H696.676z M717.593,171.804v-3.989h4.119
		v3.989H717.593z"/>
</g>

<g class="otros">
	<path fill="#BDCE31" d="M765.579,217.518c-72.209-20.66-90.806-77.697-193.469-77.697c-101.18,0-117.347,58.127-189.249,77.697
	H765.579z"/>
	<path fill="#BDCE31" d="M428.001,217.518c-31.265-29.565-39.315-111.188-83.765-111.188c-43.808,0-50.808,83.183-81.938,111.188
		H428.001z"/>
	<path fill="#BDCE31" d="M536.586,144.729c-0.371-12.962-0.846-25.894-0.975-38.807c-0.021-1.771-0.748-2.911-1.653-2.555
		c-0.901,0.362-1.647,2-1.667,3.658c-0.124,12.602-0.607,25.166-0.967,37.704H536.586z"/>
	<path fill="#FFFFFF" d="M534.886,102.897c0.286,0.597,0.032,1.304-0.56,1.589c-0.593,0.285-1.305,0.035-1.586-0.559
		c-0.284-0.594-0.034-1.305,0.558-1.588C533.891,102.055,534.604,102.307,534.886,102.897z"/>
	<path fill="#FFFFFF" d="M644.733,112.721c0.285,0.597,0.032,1.304-0.561,1.589c-0.593,0.285-1.305,0.035-1.585-0.56
		c-0.285-0.594-0.035-1.305,0.557-1.587C643.738,111.878,644.45,112.13,644.733,112.721z"/>
	<path fill="#8FA000" d="M456.804,61.729l-3.222-2.804c-0.805-0.698-2.126-1.848-2.934-2.552l-3.216-2.799
		c-0.807-0.704-2.129-0.704-2.932,0l-3.22,2.799c-0.807,0.704-2.127,1.854-2.934,2.552l-3.219,2.804
		c-0.807,0.7-0.591,1.277,0.478,1.277h1.734v10.546c0,0.514,0.417,0.932,0.932,0.932h1.632v-9.465h4.896v9.465h8.856
		c0.517,0,0.934-0.417,0.934-0.932V63.006h1.733C457.393,63.006,457.608,62.43,456.804,61.729z M451.909,67.375h-4.429v-3.731h4.429
		V67.375z"/>
	<path fill="#8FA000" d="M474.118,72.267l-2.511-2.185c-0.627-0.544-1.656-1.44-2.285-1.988l-2.506-2.182
		c-0.629-0.548-1.66-0.548-2.285,0l-2.509,2.182c-0.629,0.548-1.657,1.444-2.286,1.988l-2.508,2.185
		c-0.629,0.546-0.461,0.995,0.372,0.995h1.351v8.218c0,0.401,0.326,0.726,0.727,0.726h1.271h3.816h6.9
		c0.402,0,0.728-0.325,0.728-0.726v-8.218h1.351C474.577,73.262,474.745,72.813,474.118,72.267z M470.305,76.667h-3.451v-2.908h3.451
		V76.667z"/>
	<path fill="#8FA000" d="M438.403,72.087l-2.511-2.185c-0.627-0.544-1.656-1.44-2.285-1.988l-2.506-2.182
		c-0.629-0.548-1.66-0.548-2.285,0l-2.509,2.182c-0.629,0.548-1.657,1.444-2.286,1.988l-2.508,2.185
		c-0.629,0.546-0.461,0.995,0.372,0.995h1.351V81.3c0,0.401,0.326,0.726,0.727,0.726h1.271h3.816h6.9
		c0.402,0,0.728-0.325,0.728-0.726v-8.218h1.351C438.862,73.082,439.03,72.633,438.403,72.087z"/>
	<path fill="#BDCE31" d="M183.422,215.731c-36.342-15.258-45.701-57.383-97.369-57.383c-50.922,0-59.06,42.93-95.246,57.383H183.422z
		"/>
	<path fill="#A1B400" d="M775.045,210.012c-2.371,0.459-202.432-0.086-205.008-0.086c-62.13,0-62.13-139.318-124.259-139.318
		c-62.126,0-62.126,139.318-124.252,139.318S259.4,70.607,197.273,70.607c-56.514,0-59.178,122.062-108.844,136.107
		c-25.082,7.093-123.318,2.628-128.678,4.414l-34.783,14.873h849.391L775.045,210.012z"/>
	<path fill="#8FA000" d="M193.75,70.789c-0.463,0.042-0.927,0.082-1.382,0.141c-0.441,0.059-0.875,0.137-1.31,0.21
		c-0.336,0.057-0.674,0.108-1.006,0.174c-0.5,0.1-0.994,0.217-1.484,0.337c-0.247,0.06-0.496,0.117-0.74,0.182
		c-0.547,0.146-1.086,0.308-1.621,0.479c-0.174,0.055-0.349,0.109-0.521,0.167c-0.582,0.196-1.16,0.407-1.729,0.632
		c-0.11,0.043-0.221,0.087-0.331,0.132c-0.614,0.25-1.223,0.514-1.823,0.796c-0.052,0.024-0.104,0.05-0.155,0.075
		c-0.645,0.306-1.279,0.627-1.906,0.97c0.101-0.001,0.197-0.013,0.299-0.013c49.074,0,56.266,137.979,98.537,137.979
		c8.304,0,43.515,2.417,50.958-3.949c-2.553,0.537-5.216,0.823-8.008,0.823c-59.067,0-61.978-125.929-115.514-138.333
		c-0.269-0.059-0.535-0.123-0.804-0.177c-0.223-0.046-0.444-0.092-0.669-0.134c-0.73-0.134-1.464-0.253-2.2-0.348
		c-0.042-0.005-0.084-0.01-0.125-0.016c-0.788-0.099-1.579-0.174-2.373-0.226c-0.054-0.003-0.107-0.005-0.16-0.008
		c-0.8-0.049-1.602-0.077-2.408-0.077c-0.847,0-1.679,0.031-2.5,0.084C194.428,70.714,194.092,70.757,193.75,70.789z"/>
	<path fill="#8FA000" d="M570.037,209.926c-62.13,0-62.13-139.318-124.259-139.318c-17.325,0-29.818,10.838-40.176,26.465
		c22.907,39.258,32.146,117.318,68.88,117.318c2.035,0,189.512-0.245,191.386-0.704h108.491l0.017-3.675
		C772.004,210.471,572.613,209.926,570.037,209.926z"/>
	<path fill="#A1B400" d="M0.372,218.31c0,4.151-3.366,7.516-7.517,7.516H-75.43c-4.152,0-7.517-3.365-7.517-7.516l0,0
		c0-4.151,3.364-7.516,7.517-7.516h68.285C-2.994,210.793,0.372,214.158,0.372,218.31L0.372,218.31z"/>
	<path fill="#A1B400" d="M787.162,217.964c0,4.401-3.567,7.968-7.968,7.968h-51.116c-4.401,0-7.969-3.567-7.969-7.968l0,0
		c0-4.401,3.567-7.968,7.969-7.968h51.116C783.595,209.996,787.162,213.563,787.162,217.964L787.162,217.964z"/>
	<path fill="#8FA000" d="M779.348,211.856c0,0.958-0.775,1.733-1.732,1.733H661.626c-0.957,0-1.733-0.776-1.733-1.733l0,0
		c0-0.957,0.776-1.733,1.733-1.733h115.989C778.572,210.124,779.348,210.899,779.348,211.856L779.348,211.856z"/>
</g>


<g class="arbol1 arbol">
	<circle fill="#9CAC3C" cx="25.903" cy="176.007" r="25.903"/>
	<g>
		<g>
			<g>
				<path fill="#F2EFDC" d="M25.903,217.402c-0.653,0-1.182-0.529-1.182-1.182v-48.19c0-0.653,0.529-1.182,1.182-1.182
					s1.182,0.529,1.182,1.182v48.19C27.085,216.873,26.556,217.402,25.903,217.402L25.903,217.402z"/>
			</g>
			<g>
				<path fill="#F2EFDC" d="M25.903,184.573c-0.274,0-0.55-0.095-0.773-0.289c-0.493-0.427-0.546-1.174-0.119-1.667l7.68-8.862
					c0.427-0.494,1.174-0.547,1.667-0.119c0.493,0.427,0.546,1.174,0.119,1.667l-7.68,8.862
					C26.563,184.435,26.233,184.573,25.903,184.573L25.903,184.573z"/>
			</g>
			<g>
				<path fill="#F2EFDC" d="M25.904,188.513c-0.331,0-0.66-0.138-0.894-0.408l-7.681-8.861c-0.427-0.493-0.374-1.239,0.119-1.667
					c0.494-0.428,1.239-0.374,1.667,0.119l7.681,8.861c0.427,0.493,0.374,1.239-0.119,1.667
					C26.454,188.418,26.178,188.513,25.904,188.513L25.904,188.513z"/>
			</g>
			<g>
				<path fill="#F2EFDC" d="M25.903,195.604c-0.274,0-0.55-0.095-0.773-0.289c-0.493-0.427-0.546-1.174-0.119-1.667l7.68-8.864
					c0.427-0.493,1.173-0.547,1.667-0.119c0.493,0.427,0.546,1.174,0.119,1.667l-7.68,8.864
					C26.563,195.466,26.234,195.604,25.903,195.604L25.903,195.604z"/>
			</g>
		</g>
	</g>
</g>

<g class="arbol2 arbol">
	<circle fill="#8FA000" cx="69.028" cy="170.007" r="32.57"/>
	<g>
		<g>
			<g>
				<path fill="#F2EFDC" d="M69.028,215.402c-0.653,0-1.182-0.529-1.182-1.182v-48.19c0-0.653,0.529-1.182,1.182-1.182
					s1.182,0.529,1.182,1.182v48.19C70.21,214.873,69.681,215.402,69.028,215.402L69.028,215.402z"/>
			</g>
			<g>
				<path fill="#F2EFDC" d="M69.028,182.573c-0.274,0-0.55-0.095-0.773-0.289c-0.493-0.427-0.546-1.174-0.119-1.667l7.68-8.862
					c0.428-0.494,1.174-0.547,1.667-0.119c0.493,0.427,0.546,1.174,0.119,1.667l-7.68,8.862
					C69.688,182.435,69.358,182.573,69.028,182.573L69.028,182.573z"/>
			</g>
			<g>
				<path fill="#F2EFDC" d="M69.029,186.513c-0.331,0-0.66-0.138-0.894-0.408l-7.681-8.861c-0.427-0.493-0.374-1.239,0.119-1.667
					s1.239-0.374,1.667,0.119l7.681,8.861c0.427,0.493,0.374,1.239-0.119,1.667C69.579,186.418,69.303,186.513,69.029,186.513
					L69.029,186.513z"/>
			</g>
			<g>
				<path fill="#F2EFDC" d="M69.028,193.604c-0.274,0-0.55-0.095-0.773-0.289c-0.493-0.427-0.546-1.174-0.119-1.667l7.68-8.864
					c0.427-0.493,1.173-0.547,1.667-0.119c0.493,0.427,0.546,1.174,0.119,1.667l-7.68,8.864
					C69.688,193.466,69.359,193.604,69.028,193.604L69.028,193.604z"/>
			</g>
		</g>
	</g>
</g>

<!-- Hélices -->

<g class="molino molino1">
	<g class="estaca">
		<path fill="#C0CC44" d="M650.968,105.277c-0.1-2.175-0.021-4.164-1.929-4.164c-1.909,0-2.232,1.959-2.336,4.371 c-0.104,2.413-0.483,51.242-0.583,56.424c2.517-0.012,3.063,0,5.592,0C651.492,157.615,651.066,107.452,650.968,105.277z"/>
	</g>	
	<g id="helice-1" class="helice">
		<path fill="#C0CC44" d="M646.57,103.89c1.107-1.215,2.213-2.236,1.193-3.255c-1.02-1.02-2.238-0.146-3.583,1.088
		c-1.344,1.233-6.104,5.589-8.927,8.304c-2.823,2.714-6.087,5.38-4.209,7.257c1.877,1.877,5.11-1.945,7.286-4.357
		C640.507,110.515,645.46,105.106,646.57,103.89z"/>
		<path fill="#C0CC44" d="M651.321,94.836c-1.106,1.215-2.212,2.235-1.192,3.255c1.019,1.019,2.238,0.145,3.582-1.088
			c1.347-1.235,6.104-5.589,8.928-8.304c2.824-2.714,6.087-5.38,4.209-7.257c-1.877-1.877-5.109,1.946-7.286,4.357
			C657.386,88.212,652.431,93.62,651.321,94.836z"/>
		<path fill="#C0CC44" d="M644.395,96.968c1.216,1.108,2.237,2.213,3.257,1.193c1.02-1.02,0.145-2.239-1.088-3.582
			c-1.235-1.345-5.589-6.105-8.306-8.928c-2.714-2.823-5.379-6.086-7.256-4.209c-1.878,1.877,1.945,5.11,4.357,7.287
			C637.772,90.904,643.178,95.858,644.395,96.968z"/>
		<path fill="#C0CC44" d="M653.522,101.793c-1.215-1.108-2.234-2.213-3.254-1.193c-1.021,1.019-0.146,2.237,1.087,3.582
			c1.234,1.345,5.59,6.104,8.304,8.928c2.715,2.822,5.379,6.086,7.258,4.209c1.877-1.877-1.946-5.109-4.358-7.286
			C660.147,107.855,654.738,102.902,653.522,101.793z"/>	
	</g>
	<g class="bolitas">
		<path fill="#C0CC44" d="M651.905,102.082c-1.501,1.632-4.042,1.736-5.68,0.24c-1.63-1.505-1.738-4.041-0.239-5.679 c1.503-1.63,4.04-1.741,5.677-0.237C653.295,97.903,653.406,100.448,651.905,102.082z"/>
		<path fill="#FFFFFF" d="M650.226,100.537c-0.652,0.71-1.746,0.751-2.453,0.104c-0.71-0.649-0.758-1.746-0.104-2.45 c0.648-0.705,1.744-0.755,2.45-0.107C650.827,98.733,650.869,99.833,650.226,100.537z"/>	
	</g>
</g>

<g class="molino molino2">
	<g class="estaca">		
		<path fill="#C0CC44" d="M593.468,89.711c-0.1-2.175-0.021-4.164-1.929-4.164c-1.909,0-2.232,1.959-2.336,4.371 c-0.104,2.413-0.483,51.242-0.583,56.424c2.517-0.012,3.063,0,5.592,0C593.992,142.049,593.566,91.886,593.468,89.711z"/>
	</g>	
	<g id="helice-2"  class="helice">
		<path fill="#C0CC44" d="M589.07,88.323c1.107-1.215,2.213-2.236,1.193-3.255c-1.02-1.02-2.238-0.146-3.583,1.088
		c-1.344,1.233-6.104,5.589-8.927,8.304c-2.823,2.714-6.087,5.38-4.209,7.257c1.877,1.877,5.11-1.945,7.286-4.357
		C583.007,94.948,587.96,89.54,589.07,88.323z"/>
		<path fill="#C0CC44" d="M593.821,79.27c-1.106,1.215-2.212,2.235-1.192,3.255c1.019,1.019,2.238,0.145,3.582-1.088
			c1.347-1.235,6.104-5.589,8.928-8.304c2.824-2.714,6.087-5.38,4.209-7.257c-1.877-1.877-5.109,1.946-7.286,4.357
			C599.886,72.646,594.931,78.053,593.821,79.27z"/>
		<path fill="#C0CC44" d="M586.895,81.401c1.216,1.108,2.237,2.213,3.257,1.193c1.02-1.02,0.145-2.239-1.088-3.582
			c-1.235-1.345-5.589-6.105-8.306-8.928c-2.714-2.823-5.379-6.086-7.256-4.209c-1.878,1.877,1.945,5.11,4.357,7.287
			C580.272,75.338,585.678,80.292,586.895,81.401z"/>
		<path fill="#C0CC44" d="M596.022,86.227c-1.215-1.108-2.234-2.213-3.254-1.193c-1.021,1.019-0.146,2.237,1.087,3.582
			c1.234,1.345,5.59,6.104,8.304,8.928c2.715,2.822,5.379,6.086,7.258,4.209c1.877-1.877-1.946-5.109-4.358-7.286
			C602.647,92.289,597.238,87.336,596.022,86.227z"/>
	</g>
	<g class="bolitas">
		<path fill="#C0CC44" d="M594.405,86.516c-1.501,1.632-4.042,1.736-5.68,0.24c-1.63-1.505-1.738-4.041-0.239-5.679
			c1.503-1.63,4.04-1.741,5.677-0.237C595.795,82.337,595.906,84.881,594.405,86.516z"/>
		<path fill="#FFFFFF" d="M592.726,84.971c-0.652,0.71-1.746,0.751-2.453,0.104c-0.71-0.649-0.758-1.746-0.104-2.45
			c0.648-0.705,1.744-0.755,2.45-0.107C593.327,83.167,593.369,84.266,592.726,84.971z"/>
	</g>
</g>

<g class="molino molino3">
	<g class="estaca">		
		<path fill="#C0CC44" d="M537.753,101.752c-0.1-2.175-0.021-4.164-1.929-4.164c-1.909,0-2.232,1.959-2.336,4.371  c-0.104,2.413-0.483,51.242-0.583,56.424c2.517-0.012,3.063,0,5.592,0C538.277,154.09,537.851,103.927,537.753,101.752z"/>
	</g>	
	<g id="helice-3"  class="helice">
		<path fill="#C0CC44" d="M533.355,100.364c1.107-1.215,2.213-2.236,1.193-3.255c-1.02-1.02-2.238-0.146-3.583,1.088   c-1.344,1.233-6.104,5.589-8.927,8.304c-2.823,2.714-6.087,5.38-4.209,7.257c1.877,1.877,5.11-1.945,7.286-4.357   C527.292,106.989,532.245,101.581,533.355,100.364z"/>
		<path fill="#C0CC44" d="M538.106,91.311c-1.106,1.215-2.212,2.235-1.192,3.255c1.019,1.019,2.238,0.145,3.582-1.088   c1.347-1.235,6.104-5.589,8.928-8.304c2.824-2.714,6.087-5.38,4.209-7.257c-1.877-1.877-5.109,1.946-7.286,4.357   C544.172,84.687,539.217,90.094,538.106,91.311z"/>
		<path fill="#C0CC44" d="M531.18,93.442c1.216,1.108,2.237,2.213,3.257,1.193c1.02-1.02,0.145-2.239-1.088-3.582   c-1.235-1.345-5.589-6.105-8.306-8.928c-2.714-2.823-5.379-6.086-7.256-4.209c-1.878,1.877,1.945,5.11,4.357,7.287   C524.557,87.379,529.964,92.333,531.18,93.442z"/>
		<path fill="#C0CC44" d="M540.307,98.268c-1.215-1.108-2.234-2.213-3.254-1.193c-1.021,1.019-0.146,2.237,1.087,3.582   c1.234,1.345,5.59,6.104,8.304,8.928c2.715,2.822,5.379,6.086,7.258,4.209c1.877-1.877-1.946-5.109-4.358-7.286   C546.932,104.33,541.523,99.377,540.307,98.268z"/>
	</g>
	<g class="bolitas">
		<path fill="#C0CC44" d="M538.69,98.557c-1.501,1.632-4.042,1.736-5.68,0.24c-1.63-1.505-1.738-4.041-0.239-5.679
			c1.503-1.63,4.04-1.741,5.677-0.237C540.08,94.378,540.191,96.922,538.69,98.557z"/>
		<path fill="#FFFFFF" d="M537.011,97.012c-0.652,0.71-1.746,0.751-2.453,0.104c-0.71-0.649-0.758-1.746-0.104-2.45
			c0.648-0.705,1.744-0.755,2.45-0.107C537.612,95.208,537.654,96.307,537.011,97.012z"/>
	</g>
</g>
<!-- Niños -->
<g xmlns="http://www.w3.org/2000/svg">
	<g>
		<g>
			<g>
				<path fill="#FDC896" d="M185.2,69.8c0,1-1.2,3.9-0.6,4.6c0.7,1,1.5-0.1,2-1.5c0.4-1,0.5-2.1,0.5-2.3c-0.1-1.1-0.7-1.2-1.7-1.1      L185.2,69.8z"/>
				<path fill="#FDC896" d="M188.3,70c0.2,1,0,4,0.9,4.6c1.7,1.2,1.6-3.7,1.2-4.4c-0.4-1-1.1-1-2-0.5L188.3,70z"/>
				<g>
					<path fill="#DEE466" d="M184.4,73c0,0,0,0.1,0.6,0.1c0.7,0,1.3-0.1,1.3-0.1s-0.4,0.7-0.2,1c0.1,0.2-1.8,0.5-1.8,0.5       S184.3,73.9,184.4,73z"/>
					<ellipse fill="#AFBA36" cx="185.4" cy="74.3" rx="1.1" ry="0.9"/>
					<path fill="#828936" d="M186.5,74.2c0,0.5-0.5,0.9-1.1,0.9c-0.5,0-1-0.4-1.1-0.6l0,0c0,0.5,0.5,0.9,1.1,0.9s1.1-0.4,1.1-0.9       C186.6,74.3,186.5,74.3,186.5,74.2z"/>
					<path fill="#828936" d="M186.4,73.8c-0.1-0.1-0.1-0.2-0.1-0.2s0-0.1,0-0.2c0,0-0.2,0.1-1.2,0.1c-1.3,0-1.1,1.3-0.7,0.9       C184.8,73.8,186.5,73.9,186.4,73.8z"/>
					<path fill="#AFBA36" d="M186.4,73.8c0-0.1,0-0.2,0-0.2s0-0.1,0-0.2c0,0-0.2,0.1-1.3,0.1c-1.3,0-1.1,1.3-0.7,0.9       C184.7,73.8,186.3,73.9,186.4,73.8z"/>
					<path fill="#DEE466" d="M184.5,73.6l0.2,0.5c0,0-0.2,0-0.4,0.2c-0.1-0.1-0.2-0.4-0.2-0.4S184.3,73.6,184.5,73.6z"/>
				</g>
				<g>
					<path fill="#DEE466" d="M188.7,73.2c0,0,0,0.1,0.6,0c0.6-0.1,1.3-0.4,1.3-0.4s-0.1,0.7,0,1c0.1,0.2-1.7,1-1.7,1       S188.7,74.2,188.7,73.2z"/>
					
						<ellipse transform="matrix(-0.2196 -0.9756 0.9756 -0.2196 159.1934 275.9127)" fill="#AFBA36" cx="189.9" cy="74.3" rx="0.9" ry="1.1"/>
					<path fill="#828936" d="M191,73.9c0.1,0.5-0.4,0.9-0.9,1c-0.5,0.1-1-0.1-1.2-0.4l0,0c0.1,0.5,0.6,0.7,1.2,0.6       c0.6-0.1,1-0.6,0.9-1.1C191,74.1,191,74.1,191,73.9z"/>
					<path fill="#828936" d="M190.8,73.7c-0.1-0.1-0.1-0.2-0.1-0.2s0-0.1,0-0.2c0,0-0.2,0.1-1.2,0.4c-1.3,0.4-0.7,1.6-0.5,1       C189.2,74.1,190.9,73.7,190.8,73.7z"/>
					<path fill="#AFBA36" d="M190.7,73.6c-0.1-0.1-0.1-0.2-0.1-0.2s0-0.1,0-0.2c0,0-0.2,0.1-1.2,0.4c-1.3,0.4-0.7,1.6-0.5,1       C189.1,73.9,190.7,73.7,190.7,73.6z"/>
					<path fill="#DEE466" d="M188.9,73.7l0.4,0.4c0,0-0.2,0.1-0.4,0.2c-0.1-0.1-0.2-0.4-0.2-0.4S188.7,73.8,188.9,73.7z"/>
				</g>
				<path opacity="0.2" enable-background="new    " d="M188.6,71.5v0.4c0,0,1.5-0.4,2-0.6c0-0.1,0-0.1,0-0.1S189.1,71.4,188.6,71.5      z"/>
				<path opacity="0.2" enable-background="new    " d="M184.8,71.5l-0.1,0.5c0,0,1.6,0,2.2-0.1c0-0.1,0.1-0.7,0.1-0.7      S185.3,71.5,184.8,71.5z"/>
				<path fill="#69452A" d="M194.4,58.3c0.1-0.5,0.1-1.1,0.2-1.6c0.1-1.1,0.2-2.1,0.2-2.9c0.1-0.5,0.1-1,0.1-1.5      c0-5.9-4.8-10.6-10.6-10.6c-5.9,0-10.6,4.8-10.6,10.6c0,0.2,0,0.4,0,0.6c-0.2,1.6-0.2,3.3,0,4.8c0.7,3.8,2.3,5.6,4.5,7.6      c0.2,0.2,0.6,0.5,1,0.7c1.1,0.6,2.4,0.7,3.7,0.9c2.3,0.1,4.9-0.5,7.1-1.7c2.7-1.5,4.3-3.9,5.1-7.5      C194.9,57.9,194.7,58,194.4,58.3z"/>
				<g>
					<path fill="#D4A65B" d="M183,60.2c0,0-2.3-0.5-3.5,3.4c0,0-1,2.6-1,3.8c0,0,0.9,2.4,2.8,2.6l1.5-7l1.8-0.5l1.7-0.1l0.7-1.6       l-1-0.9L183,60.2z"/>
					<path fill="#A2782B" d="M178.8,65.5c1.5,2,2.2,1.7,2.2,1.7l-0.1,1.1c-0.6,0.2-2.1-1.1-2.3-2C178.7,66.1,178.8,65.7,178.8,65.5z       "/>
					<path fill="#A2782B" d="M186,61.8l-2.7,0.1c0,0-1.1,0-1.7,2.4c0,0-1,3.9-0.7,5.5c0,0,0.7,0.4,1.1,0l1.8-4.3l1.7-1.6l0.7-1.5       C186.3,62.6,186.5,62.3,186,61.8z"/>
				</g>
				<path opacity="0.2" enable-background="new    " d="M180.3,65.6c-0.1,0-0.1,0-0.1,0c-0.4-0.1-0.1-0.4,0.4-0.5      c0.2,0,0.4-0.1,0.4-0.1c0.5-0.9,1.7-2,2.2-2.3l1.7,0.9c-0.2,0.2-1.2,1.5-2.1,2.3l0,0c0,0-0.4,0.4-0.4,0.6l0,0v0.1      c0,0.4-0.2,0.6-0.5,0.2c-0.2-0.4-0.2-0.2-0.9,0.1c-0.6,0.2-0.9,0-0.4-0.4c-0.1,0.1-0.2,0.1-0.4,0.1c-0.4,0-0.2-0.2,0.1-0.5      c-0.1,0-0.2,0-0.4,0C179.8,66.1,179.9,65.7,180.3,65.6z"/>
				<path fill="#FDC896" d="M180.1,65.5c-0.1,0-0.1,0-0.1,0c-0.4-0.1-0.1-0.4,0.4-0.5c0.2,0,0.4-0.1,0.4-0.1c0.5-0.9,1.7-2,2.2-2.3      l1.7,0.9c-0.2,0.2-1.2,1.5-2.1,2.3l0,0c0,0-0.4,0.4-0.4,0.6l0,0v0.1c0,0.4-0.2,0.6-0.5,0.2c-0.2-0.4-0.2-0.2-0.9,0.1      c-0.6,0.2-0.9,0-0.4-0.4c-0.1,0.1-0.2,0.1-0.4,0.1c-0.4,0-0.2-0.2,0.1-0.5c-0.1,0-0.2,0-0.4,0C179.7,66,179.8,65.6,180.1,65.5z"/>
				<path fill="#FDC896" d="M194.4,64.4c0.1,0,0.1,0,0.1,0c0.4-0.1,0-0.4-0.4-0.4c-0.2,0-0.4,0-0.5-0.1c-0.6-0.7-2-1.6-2.6-2      l-1.6,1.1c0.4,0.1,1.5,1.2,2.4,2l0,0c0,0,0.4,0.2,0.4,0.5l0,0v0.1c0,0.4,0.4,0.5,0.5,0.1s0.2-0.2,0.9-0.1s0.9-0.2,0.4-0.5      c0.1,0,0.4,0,0.5,0c0.4,0,0.1-0.4-0.2-0.5c0.1,0,0.2,0,0.4,0C195.1,64.8,194.9,64.5,194.4,64.4z"/>
				<path fill="#FFFFFF" d="M192,62.2c-0.6,0.6-1.1,1.3-1.8,1.8c-1,0.6-1.7,0.5-2.7,0.4c-0.7,0-1.3,0-2.1,0.2c0.5-0.7,1.2-1.2,1.7-2      c0.5-0.9,1.1-1.1,1.8-1.8C189.8,60.4,192,62.2,192,62.2z"/>
				<path fill="#FFFFFF" d="M186.3,60.7l-1.3,0.5c-1.1,0.4-0.7,0.1-2.7,1.7c0.4,0,1.6,1.1,1.8,2c0.6-0.1,1.2-0.5,1.8-0.7      c0.1-0.6,0-1.1,0.1-1.8C186.3,61.8,186.3,61.3,186.3,60.7z"/>
				<path fill="#FFFFFF" d="M188.5,62.4c0,1-0.4,1.7-1.3,2.1c-2.2,0.7-2.4-2.8-1.5-4c0.5-0.6,1.6-1.1,2.3-0.6      C189.1,60.5,188.5,61.6,188.5,62.4z"/>
				<path fill="#AFBA36" d="M184.7,60.9c0.4-0.1,0.9-0.1,1.1-0.1c0,0.7,0.4,4.3,2.2,2.8c0.6-0.5,0.2-2.4,0.2-3.2      c0.2,0.1,0.7,0.1,1.1,0.2c0.2,1.3,0.4,1.3,0.5,2.1c0.7,4.9,3.5,6.2,3.7,6.6l0,0c-3.3,3.4-12,2.2-12.3,2.2l0,0      c0.4-1.5,2.2-4.4,3.5-8.8C184.9,62.1,185,60.7,184.7,60.9L184.7,60.9z"/>
				<path fill="#CED728" d="M193,68.9c-3.3,2.4-9.8,1.8-11.4,1.5c-0.1,0.1-0.5,0.9-0.5,1.2c0.4,0,9,1.2,12.3-2.2      C193.5,69.4,193.2,69.3,193,68.9z"/>
				<path opacity="0.2" enable-background="new    " d="M184.8,60.7c0,0,1.6,5.9-2.6,6.1l-0.2,0.9c0,0,5,0.9,3.7-6.6L184.8,60.7z"/>
				<path fill="#A2782B" d="M184.5,60.6c0,0,1.6,5.9-2.6,6.1l-0.2,0.9c0,0,5.1,0.7,3.8-6.7L184.5,60.6z"/>
				<path fill="#A2782B" d="M188.7,60.5c0,0,1.8,1.8,2.2,6c0,0-1-2.7-2.8-5.5L188.7,60.5z"/>
				<path fill="#FDC896" d="M193.5,52.2c-0.1,0.6-0.2,1.3-0.1,2.2c1.5-0.5,1.5,1.5,0.1,1.5c0.1,1.7-1.1,3.4-2.6,4.2      c-0.7,0.4-1.7,0.4-2.3,0.9c-0.6,0.5-0.6,1.1-0.9,1.7c-0.6,1.3-1.3-0.4-1.8-1.1c-0.6-0.4-1.6,0.1-2.2,0.1c-4.4,0-5-2.2-5.4-3.7      c-1.3,0.6-1.6-1.5-0.5-1.3c0-0.6-0.2-1.2-0.1-2c0.7-0.2,1.5-0.2,2.1-0.4c1.1-0.2,2.3-0.7,3.3-1.2c0.4-0.1,2.4-2,2.1-2.3      C185,50.6,188.2,53.4,193.5,52.2z"/>
				<path opacity="0.2" enable-background="new    " d="M190.4,45.4c-2.6-0.4-4.8,0.4-5.9,1.5c-1.5-0.7-3.8-0.7-6,0.2      c-3.2,1.3-5,4-4.2,5.9c0.9,1.8,4,2.2,7.2,0.9c1.6-0.7,2.9-1.8,3.7-2.9c1,0.9,2.6,1.5,4.4,1.7c1.8,0.2,3.7-0.1,4.9-0.7      C195.3,51.6,193.8,45.8,190.4,45.4z"/>
				<path fill="#69452A" d="M190.4,45.2c-2.6-0.4-4.8,0.4-5.9,1.5c-1.5-0.7-3.8-0.7-6,0.2c-3.2,1.3-5.1,4.4-4.4,6.2      c0.5,1.1,1.3,1.7,2.8,1.7c1.2,0,3.1-0.6,4.5-1.2c1.6-0.7,2.9-1.8,3.7-2.9c1,0.9,2.6,1.5,4.4,1.7c1.8,0.2,3.9,0.1,5.1-0.5      C195.7,51.6,193.8,45.6,190.4,45.2z"/>
				<path fill="#DCA576" d="M178.2,57.4c0,0-0.5-0.9-1-0.4C177.5,56.9,178.1,57.2,178.2,57.4z"/>
				<path fill="#DCA576" d="M193.5,55.4c0,0,0.4-1,0.9-0.6C194.1,54.7,193.6,55.1,193.5,55.4z"/>
				<path opacity="0.2" enable-background="new    " d="M188.1,61.3c0,0,0.9-0.6,1.2-0.6c0.6-0.2,1-0.5,1-0.5S188.5,60.4,188.1,61.3      z"/>
				
					<ellipse transform="matrix(-0.2191 -0.9757 0.9757 -0.2191 168.1598 246.5161)" fill="#4B3021" cx="182.7" cy="56" rx="1" ry="0.6"/>
				
					<ellipse transform="matrix(-0.2184 -0.9759 0.9759 -0.2184 177.1845 252.1407)" fill="#4B3021" cx="189.6" cy="55.1" rx="1" ry="0.6"/>
				<path fill="#F79A7A" d="M185.9,58.8c0.1,0.5,0.5,0.7,1.1,0.7c0.5-0.1,0.9-0.5,0.9-1c-0.1-0.5-0.4-0.1-0.9-0.1      C186.4,58.5,185.8,58.3,185.9,58.8z"/>
				<path fill="#F79A7A" d="M181.6,58.4c0.1,0,0.1,0.1,0.2,0.1c0.6,0.2,2.3-0.1,1.3-0.9C182.6,57.3,180.6,57.6,181.6,58.4z"/>
				<path fill="#F79A7A" d="M191.3,57.4c0,0.1-0.1,0.1-0.2,0.2c-0.6,0.4-2.6,0.6-1.6-0.5C189.8,56.6,192,56.3,191.3,57.4z"/>
			</g>
		</g>
	</g>
	<g>
		<g>
			<g>
				<g>
					<g>
						<path fill="#69452A" d="M195.4,69.8c0.1,0.7,6.5,4,7.1,3.9c0.6-0.1,2.4-3.9,2.2-4.4c-0.1-0.4-6.1-3.5-6.6-3.4        c0,0-0.2,0.1-0.4,0.1C197,66.6,195.3,69.3,195.4,69.8z"/>
						<path fill="#3F2B1E" d="M204.4,69.4l-2,4.5c0,0,0.2,0,0.7-0.2c0.5-0.2,1.6-4.3,1.6-4.3H204.4z"/>
						<path fill="#A2782B" d="M195.2,70.1c0.1,0.7,6.5,3.9,7.2,3.8c0.6-0.1,1.8-3.7,2-4.6c-0.1-0.4-6-3.4-6.5-3.3        C197.3,66.1,195.2,69.5,195.2,70.1z"/>
						<path fill="#D4A65B" d="M196.6,70.1c0,0.5,4.8,2.8,5.3,2.8c0-0.1,1.1-2.6,1.5-3.2c-0.1-0.2-4.9-0.9-4.9-2.8        C198,67,196.5,69.8,196.6,70.1z"/>
						<path fill="#D4A65B" d="M201.4,65.9c-1-0.1-1.7,0.9-1.7,0.9l0.6,0.2c0.2-0.2,0.6-0.7,1.1-0.6c0.9,0.1,1.1,0.9,0.7,1.6l0.5,0.2        C202.9,67.2,203,66,201.4,65.9z"/>
					</g>
					<path fill="#6E5224" d="M203.3,69.8c0,0-4.6-2.4-4.9-2.7c0,0.2,0.2,1.3,3.2,2.2C202.6,69.5,203.3,69.8,203.3,69.8z"/>
				</g>
				<path opacity="0.2" enable-background="new    " d="M206.7,70.9l-1.8,0.5v0.2c0,0,1.6-0.1,1.8-0.2      C206.7,71,206.7,70.9,206.7,70.9z"/>
				<path fill="#FDC896" d="M205.5,69c-0.1,1.1-1.5,4.2-1,5c1,2,2.7-3.1,2.6-3.9c0-1.2-0.5-1.3-1.5-1.3L205.5,69z"/>
				<g>
					<path fill="#CBD3E0" d="M204.2,73c0,0,0,0.1,0.6,0.1s1.5-0.1,1.5-0.1s-0.4,0.7-0.2,1c0.1,0.2-2,0.5-2,0.5S204,73.9,204.2,73z"/>
					<ellipse fill="#445E87" cx="205.3" cy="74.3" rx="1.1" ry="0.9"/>
					<path fill="#FFFFFF" d="M206.4,74.3c0,0.5-0.5,0.9-1.1,0.9s-1.1-0.4-1.1-0.9c0.1,0.5,0.7,0.7,1.2,0.2       C205.9,74.2,206.3,74.2,206.4,74.3z"/>
					<path fill="#2B4263" d="M206.4,74.2c0,0.5-0.5,0.9-1.1,0.9c-0.5,0-1-0.4-1.1-0.7l0,0c0,0.5,0.5,0.9,1.1,0.9s1.1-0.4,1.1-0.9       C206.4,74.3,206.4,74.3,206.4,74.2z"/>
					<path fill="#2B4263" d="M206.2,73.8c-0.1-0.1-0.1-0.2-0.1-0.2s0-0.1,0-0.2c0,0-0.2,0.1-1.3,0.1c-1.3,0-1.1,1.5-0.7,1       C204.6,73.8,206.3,73.9,206.2,73.8z"/>
					<path fill="#445E87" d="M206.2,73.8c0-0.1,0-0.2,0-0.2s0-0.1,0-0.2c0,0-0.4,0.1-1.3,0.1c-1.3,0-1.1,1.5-0.7,1       C204.5,73.8,206.1,73.9,206.2,73.8z"/>
					<path fill="#6D96CE" d="M204.4,73.6l0.2,0.5c0,0-0.2,0-0.5,0.2c-0.1-0.2-0.2-0.5-0.2-0.5S204.1,73.6,204.4,73.6z"/>
				</g>
				<path fill="#FDC896" d="M209.2,69.9c0.2,1.1,0.2,4.4,1.1,5c1.7,1.3,1.2-3.9,0.9-4.6c-0.5-1.1-1.1-1.1-1.8-0.6L209.2,69.9z"/>
				<g>
					<path fill="#CBD3E0" d="M209.6,73.2c0,0,0,0.1,0.6,0c0.7-0.1,1.5-0.2,1.5-0.2s-0.2,0.7,0,1c0.1,0.2-1.8,0.9-1.8,0.9       S209.6,74.2,209.6,73.2z"/>
					
						<ellipse transform="matrix(-0.1432 -0.9897 0.9897 -0.1432 167.3696 293.7612)" fill="#445E87" cx="210.8" cy="74.4" rx="0.9" ry="1.1"/>
					<path fill="#FFFFFF" d="M211.9,74.2c0.1,0.5-0.4,1-1,1c-0.6,0.1-1.2-0.2-1.2-0.7c0.2,0.5,0.9,0.6,1.2,0.1       C211.4,74.2,211.8,74.1,211.9,74.2z"/>
					<path fill="#2B4263" d="M211.9,74.2c0.1,0.5-0.4,0.9-1,1c-0.5,0.1-1-0.1-1.2-0.5l0,0c0.1,0.5,0.6,0.7,1.2,0.7       c0.6-0.1,1.1-0.6,1-1C212.1,74.3,212.1,74.2,211.9,74.2z"/>
					<path fill="#2B4263" d="M211.7,73.8c-0.1-0.1-0.1-0.2-0.1-0.2s0-0.1,0-0.2c0,0-0.2,0.1-1.2,0.2c-1.3,0.2-1,1.6-0.6,1       C210.1,74.1,211.8,73.8,211.7,73.8z"/>
					<path fill="#445E87" d="M211.7,73.7c0-0.1-0.1-0.2-0.1-0.2s0-0.1,0-0.2c0,0-0.2,0.1-1.3,0.4c-1.3,0.2-1,1.6-0.6,1       C210,74.1,211.6,73.8,211.7,73.7z"/>
					<path fill="#6D96CE" d="M209.9,73.7l0.2,0.5c0,0-0.2,0.1-0.4,0.2c-0.1-0.1-0.2-0.4-0.2-0.4S209.6,73.8,209.9,73.7z"/>
				</g>
				<path opacity="0.2" enable-background="new    " d="M211.3,70.8l-1.8,0.5v0.2c0,0,1.6-0.1,1.8-0.2      C211.3,70.9,211.3,70.8,211.3,70.8z"/>
				<path opacity="0.2" enable-background="new    " d="M206.8,71.1l-2-0.1l-0.1,0.2c0,0,1.6,0.4,1.8,0.4      C206.8,71.4,206.8,71.1,206.8,71.1z"/>
				<path fill="#5C3E35" d="M195.6,54c-0.6-3.1,0.1-6.4,2-8.8c1.8-2.4,4.8-3.9,7.7-4.2c3.2-0.2,6.7,0.5,8.8,3.1c4,5,2,10,1.2,11      c0.2-0.2,1.2-0.5,1.5-0.7c-0.6,2.8-2.1,4.8-4.6,5.9c-2.1,1-3.2,1.5-5.5,1.3C205.2,61.5,197.1,62.2,195.6,54z"/>
				<path fill="#FDC896" d="M213.8,66.7h0.1c0.4,0.1,0.2-0.2-0.1-0.6c-0.2-0.1-0.2-0.2-0.4-0.4c-0.1-1-0.9-2.4-1.2-2.9l-2,0.1      c0.2,0.4,0.6,1.8,1.1,2.9l0,0c0,0,0.2,0.5,0.1,0.6l0,0c0,0,0,0.1-0.1,0.1c-0.1,0.4,0,0.6,0.4,0.4s0.4-0.1,0.7,0.4      c0.5,0.5,0.9,0.2,0.5-0.2c0.1,0.1,0.2,0.2,0.4,0.2c0.2,0.1,0.4-0.2,0-0.5c0.1,0.1,0.2,0.1,0.4,0.1C214,67.2,214,67,213.8,66.7z"/>
				<path fill="#FDC896" d="M201.3,66c0.2-0.1,0.2-0.4,0.2-0.4c0.2-1,1.2-2.2,1.6-2.8l2,0.2c-0.1,0.2-0.9,1.7-1.5,2.7      c-0.4,0.6-0.6,0.7-0.5,0.9c0,0,0,0.6-0.2,0.6c0-0.1-0.4-0.2-0.6,0.1c-0.4-0.1-0.1-0.4-0.4-0.4c-0.1,0-0.4-0.1-0.4-0.2      c0-0.1-0.2,0-0.2-0.1c0-0.1-0.1,0-0.2-0.1C200.9,66.2,201.2,66,201.3,66z"/>
				<path fill="#445E87" d="M204.2,71h-0.1c0.4-1.3,0.6-2.8,0.7-3.5c0-0.1,0.1-0.6,0.1-0.7c0.5-0.4,1.3-0.2,2-0.2      c1.1,0,2.2,0,3.3,0.1c0.5,1.2,0.7,1.7,1.1,2.9c0.1,0.5,0.4,0.9,0.5,1.6c-0.9,0.4-1.6,0.4-2.9,0.5c-0.2-1-0.7-2-1-2.7      c-0.1,0.6-0.4,1-0.5,1.7c0,0.2-0.1,0.6-0.1,1C207.2,71.4,205.5,71.5,204.2,71z"/>
				<path fill="#04B9CA" d="M209.4,60.5c-1.2-0.5-2.8-0.2-3.9,0.2l0,0c-1.6,0.1-2.8,2.4-2.8,2.4c0.2-0.1,1.8,1.5,1.8,1.5l0.4-0.9      l0,0c-0.1,1.6-0.2,3.2-0.4,3.7c0.6,0.1,4.3,0.1,6.4-0.5c-0.1-0.6-0.4-2-0.4-3.4l0.4,0.9c0,0,1.5-1.7,1.7-1.6      C212.4,62.9,211.1,60.5,209.4,60.5z"/>
				<path fill="#FDC896" d="M214.1,51.3c-0.1,0.6-0.1,1.3-0.1,2.2c1.5-0.5,1.5,1.5,0.1,1.5c0.1,1.7-1,3.3-2.4,4      c-0.7,0.4-1.7,0.5-2.3,0.9c-0.6,0.5-0.6,1.1-0.9,1.7c-0.6,1.3-1.1-0.5-1.8-1.1c-0.6-0.4-1.6,0.1-2.2,0.1c-0.9,0-1.6,0-2.4-0.2      c-1.6-0.4-2.6-1.8-3.1-3.3c-1.3,0.6-1.6-1.3-0.5-1.3c0-0.6-0.2-1.2-0.2-1.8c0.7-0.2,1.6-0.4,2.3-0.5c2.7-0.6,6.8-1.7,8.1-4.5      C208.9,49,209.7,51.6,214.1,51.3z"/>
				<path fill="#1A9AA0" d="M210.1,61.2l0.2,2.4l0.2,0.6C210.6,64.3,210.3,62.3,210.1,61.2z"/>
				
					<ellipse transform="matrix(-0.2366 -0.9716 0.9716 -0.2366 198.3776 265.8079)" fill="#4B3021" cx="203.6" cy="55" rx="1" ry="0.6"/>
				
					<ellipse transform="matrix(-0.2375 -0.9714 0.9714 -0.2375 207.8168 271.1845)" fill="#4B3021" cx="210.3" cy="54" rx="1" ry="0.6"/>
				<path fill="#F79A7A" d="M206.8,57.7c0,0.5,0.5,0.9,1,0.7c0.5,0,0.9-0.5,0.9-0.9c0-0.5-0.4-0.2-0.9-0.1      C207.3,57.6,206.8,57.2,206.8,57.7z"/>
				<path fill="#F79A7A" d="M202.5,57.4c0.1,0,0.1,0.1,0.2,0.1c0.6,0.2,2.3-0.1,1.2-0.9C203.5,56.3,201.5,56.7,202.5,57.4z"/>
				<path fill="#F79A7A" d="M212.1,56.3c0,0.1-0.1,0.1-0.2,0.2c-0.6,0.4-2.4,0.7-1.6-0.5C210.6,55.6,212.8,55.2,212.1,56.3z"/>
			</g>
		</g>
	</g>
</g>

</svg>
