<?xml version="1.0" encoding="utf-8"?>
<!-- Generator: Adobe Illustrator 16.0.0, SVG Export Plug-In . SVG Version: 6.00 Build 0)  -->
<!DOCTYPE svg PUBLIC "-//W3C//DTD SVG 1.1//EN" "http://www.w3.org/Graphics/SVG/1.1/DTD/svg11.dtd">
<svg version="1.1" id="Layer_4" xmlns="http://www.w3.org/2000/svg" xmlns:xlink="http://www.w3.org/1999/xlink" x="0px" y="0px"
	 width="744.6px" height="210px" viewBox="0 0 744.6 210" enable-background="new 0 0 744.6 210" xml:space="preserve">
<g>
	<rect x="57.4" y="28" fill="#59B4BC" width="43.8" height="159.3"/>
	<g>
		<rect x="90.9" y="65.6" fill="#DCDDDE" width="3.1" height="5"/>
		<rect x="90.9" y="75.4" fill="#DCDDDE" width="3.1" height="5"/>
		<rect x="90.9" y="65.6" fill="#DCDDDE" width="3.1" height="5"/>
		<rect x="90.9" y="75.4" fill="#DCDDDE" width="3.1" height="5"/>
		<rect x="90.9" y="85.2" fill="#DCDDDE" width="3.1" height="5"/>
		<rect x="90.9" y="65.6" fill="#DCDDDE" width="3.1" height="5"/>
		<rect x="90.9" y="75.4" fill="#DCDDDE" width="3.1" height="5"/>
		<rect x="90.9" y="85.2" fill="#DCDDDE" width="3.1" height="5"/>
		<rect x="90.9" y="95.1" fill="#DCDDDE" width="3.1" height="5"/>
		<rect x="90.9" y="65.6" fill="#DCDDDE" width="3.1" height="5"/>
		<rect x="90.9" y="75.4" fill="#DCDDDE" width="3.1" height="5"/>
		<rect x="90.9" y="85.2" fill="#DCDDDE" width="3.1" height="5"/>
		<rect x="90.9" y="95.1" fill="#DCDDDE" width="3.1" height="5"/>
		<rect x="90.9" y="75.4" fill="#DCDDDE" width="3.1" height="5"/>
		<rect x="90.9" y="85.2" fill="#DCDDDE" width="3.1" height="5"/>
		<rect x="90.9" y="95.1" fill="#DCDDDE" width="3.1" height="5"/>
		<rect x="90.9" y="85.2" fill="#DCDDDE" width="3.1" height="5"/>
		<rect x="90.9" y="95.1" fill="#DCDDDE" width="3.1" height="5"/>
		<rect x="90.9" y="95.1" fill="#DCDDDE" width="3.1" height="5"/>
		<rect x="84.4" y="85.2" fill="#DCDDDE" width="3.1" height="5"/>
		<rect x="84.4" y="95.1" fill="#DCDDDE" width="3.1" height="5"/>
		<rect x="77.8" y="45.9" fill="#DCDDDE" width="3.1" height="5"/>
		<rect x="77.8" y="55.7" fill="#DCDDDE" width="3.1" height="5"/>
		<rect x="77.8" y="65.6" fill="#DCDDDE" width="3.1" height="5"/>
		<rect x="77.8" y="75.4" fill="#DCDDDE" width="3.1" height="5"/>
		<rect x="77.8" y="85.2" fill="#DCDDDE" width="3.1" height="5"/>
		<rect x="77.8" y="95.1" fill="#DCDDDE" width="3.1" height="5"/>
		<rect x="77.8" y="104.9" fill="#DCDDDE" width="3.1" height="5"/>
		<rect x="77.8" y="114.7" fill="#DCDDDE" width="3.1" height="5"/>
		<rect x="77.8" y="124.6" fill="#DCDDDE" width="3.1" height="5"/>
		<rect x="71.2" y="65.6" fill="#DCDDDE" width="3.1" height="5"/>
		<rect x="71.2" y="75.4" fill="#DCDDDE" width="3.1" height="5"/>
		<rect x="71.2" y="85.2" fill="#DCDDDE" width="3.1" height="5"/>
		<rect x="64.6" y="36.1" fill="#DCDDDE" width="3.1" height="5"/>
		<rect x="64.6" y="45.9" fill="#DCDDDE" width="3.1" height="5"/>
		<rect x="64.6" y="55.7" fill="#DCDDDE" width="3.1" height="5"/>
		<rect x="64.6" y="65.6" fill="#DCDDDE" width="3.1" height="5"/>
		<rect x="64.6" y="75.4" fill="#DCDDDE" width="3.1" height="5"/>
		<rect x="64.6" y="85.2" fill="#DCDDDE" width="3.1" height="5"/>
		<rect x="64.6" y="95.1" fill="#DCDDDE" width="3.1" height="5"/>
	</g>
</g>
<g>
	<g>
		<rect x="108.4" y="27.8" fill="#59B4BC" width="50.4" height="159.6"/>
		<g>
			<rect x="114.3" y="34.5" fill="#FFFFFF" width="7.3" height="8.8"/>
			<rect x="130" y="34.5" fill="#FFFFFF" width="7.3" height="8.8"/>
			<rect x="145.6" y="34.5" fill="#FFFFFF" width="7.3" height="8.8"/>
		</g>
		<g>
			<rect x="114.3" y="53.1" fill="#FFFFFF" width="7.3" height="8.8"/>
			<rect x="130" y="53.1" fill="#FFFFFF" width="7.3" height="8.8"/>
			<rect x="145.6" y="53.1" fill="#FFFFFF" width="7.3" height="8.8"/>
		</g>
		<g>
			<rect x="114.3" y="71.7" fill="#FFFFFF" width="7.3" height="8.8"/>
			<rect x="130" y="71.7" fill="#FFFFFF" width="7.3" height="8.8"/>
			<rect x="145.6" y="71.7" fill="#FFFFFF" width="7.3" height="8.8"/>
		</g>
		<g>
			<rect x="114.3" y="90.3" fill="#FFFFFF" width="7.3" height="8.8"/>
			<rect x="130" y="90.3" fill="#FFFFFF" width="7.3" height="8.8"/>
			<rect x="145.6" y="90.3" fill="#FFFFFF" width="7.3" height="8.8"/>
		</g>
		<g>
			<rect x="114.3" y="108.9" fill="#FFFFFF" width="7.3" height="8.8"/>
			<rect x="130" y="108.9" fill="#FFFFFF" width="7.3" height="8.8"/>
			<rect x="145.6" y="108.9" fill="#FFFFFF" width="7.3" height="8.8"/>
		</g>
		<g>
			<rect x="114.3" y="127.5" fill="#FFFFFF" width="7.3" height="8.8"/>
			<rect x="130" y="127.5" fill="#FFFFFF" width="7.3" height="8.8"/>
			<rect x="145.6" y="127.5" fill="#FFFFFF" width="7.3" height="8.8"/>
		</g>
		<g>
			<rect x="114.3" y="146.1" fill="#FFFFFF" width="7.3" height="8.8"/>
			<rect x="130" y="146.1" fill="#FFFFFF" width="7.3" height="8.8"/>
			<rect x="145.6" y="146.1" fill="#FFFFFF" width="7.3" height="8.8"/>
		</g>
		<g>
			<rect x="114.3" y="164.7" fill="#FFFFFF" width="7.3" height="8.8"/>
			<rect x="130" y="164.7" fill="#FFFFFF" width="7.3" height="8.8"/>
			<rect x="145.6" y="164.7" fill="#FFFFFF" width="7.3" height="8.8"/>
		</g>
	</g>
	<rect x="108.3" y="21.2" fill="#E2ECF1" width="50.5" height="6.9"/>
	<rect x="132.4" y="13.8" fill="#59B4BC" width="21.5" height="11.2"/>
	<rect x="132.4" y="8.2" fill="#E2ECF1" width="21.5" height="6.8"/>
</g>
<g>
	<polygon fill="#59B4BC" points="203.3,27.8 203.3,12.6 172.8,12.6 172.8,27.8 162.7,27.8 162.7,187.4 213.3,187.4 213.3,27.8 	"/>
	<g>
		<rect x="171" y="37" fill="#4B9BA2" width="3.5" height="5.7"/>
		<rect x="171" y="48.3" fill="#4B9BA2" width="3.5" height="5.7"/>
		<rect x="171" y="59.5" fill="#4B9BA2" width="3.5" height="5.7"/>
		<rect x="171" y="70.8" fill="#4B9BA2" width="3.5" height="5.7"/>
		<rect x="171" y="82.1" fill="#4B9BA2" width="3.5" height="5.7"/>
		<rect x="171" y="48.3" fill="#4B9BA2" width="3.5" height="5.7"/>
		<rect x="171" y="59.5" fill="#4B9BA2" width="3.5" height="5.7"/>
		<rect x="171" y="70.8" fill="#4B9BA2" width="3.5" height="5.7"/>
		<rect x="171" y="82.1" fill="#4B9BA2" width="3.5" height="5.7"/>
		<rect x="171" y="93.3" fill="#4B9BA2" width="3.5" height="5.7"/>
		<rect x="171" y="59.5" fill="#4B9BA2" width="3.5" height="5.7"/>
		<rect x="171" y="70.8" fill="#4B9BA2" width="3.5" height="5.7"/>
		<rect x="171" y="82.1" fill="#4B9BA2" width="3.5" height="5.7"/>
		<rect x="171" y="93.3" fill="#4B9BA2" width="3.5" height="5.7"/>
		<rect x="171" y="104.6" fill="#4B9BA2" width="3.5" height="5.7"/>
		<rect x="171" y="70.8" fill="#4B9BA2" width="3.5" height="5.7"/>
		<rect x="171" y="82.1" fill="#4B9BA2" width="3.5" height="5.7"/>
		<rect x="171" y="93.3" fill="#4B9BA2" width="3.5" height="5.7"/>
		<rect x="171" y="104.6" fill="#4B9BA2" width="3.5" height="5.7"/>
		<rect x="171" y="115.9" fill="#4B9BA2" width="3.5" height="5.7"/>
		<rect x="171" y="82.1" fill="#4B9BA2" width="3.5" height="5.7"/>
		<rect x="171" y="93.3" fill="#4B9BA2" width="3.5" height="5.7"/>
		<rect x="171" y="104.6" fill="#4B9BA2" width="3.5" height="5.7"/>
		<rect x="171" y="115.9" fill="#4B9BA2" width="3.5" height="5.7"/>
		<rect x="171" y="127.1" fill="#4B9BA2" width="3.5" height="5.7"/>
		<rect x="171" y="93.3" fill="#4B9BA2" width="3.5" height="5.7"/>
		<rect x="171" y="104.6" fill="#4B9BA2" width="3.5" height="5.7"/>
		<rect x="171" y="115.9" fill="#4B9BA2" width="3.5" height="5.7"/>
		<rect x="171" y="127.1" fill="#4B9BA2" width="3.5" height="5.7"/>
		<rect x="171" y="138.4" fill="#4B9BA2" width="3.5" height="5.7"/>
		<rect x="171" y="104.6" fill="#4B9BA2" width="3.5" height="5.7"/>
		<rect x="171" y="115.9" fill="#4B9BA2" width="3.5" height="5.7"/>
		<rect x="171" y="127.1" fill="#4B9BA2" width="3.5" height="5.7"/>
		<rect x="171" y="138.4" fill="#4B9BA2" width="3.5" height="5.7"/>
		<rect x="171" y="149.7" fill="#4B9BA2" width="3.5" height="5.7"/>
		<rect x="178.6" y="37" fill="#4B9BA2" width="3.5" height="5.7"/>
		<rect x="178.6" y="48.3" fill="#4B9BA2" width="3.5" height="5.7"/>
		<rect x="178.6" y="59.5" fill="#4B9BA2" width="3.5" height="5.7"/>
		<rect x="178.6" y="70.8" fill="#4B9BA2" width="3.5" height="5.7"/>
		<rect x="178.6" y="82.1" fill="#4B9BA2" width="3.5" height="5.7"/>
		<rect x="178.6" y="93.3" fill="#4B9BA2" width="3.5" height="5.7"/>
		<rect x="178.6" y="104.6" fill="#4B9BA2" width="3.5" height="5.7"/>
		<rect x="178.6" y="115.9" fill="#4B9BA2" width="3.5" height="5.7"/>
		<rect x="178.6" y="127.1" fill="#4B9BA2" width="3.5" height="5.7"/>
		<rect x="178.6" y="138.4" fill="#4B9BA2" width="3.5" height="5.7"/>
		<rect x="178.6" y="149.7" fill="#4B9BA2" width="3.5" height="5.7"/>
		<rect x="186.3" y="37" fill="#4B9BA2" width="3.5" height="5.7"/>
		<rect x="186.3" y="48.3" fill="#4B9BA2" width="3.5" height="5.7"/>
		<rect x="186.3" y="59.5" fill="#4B9BA2" width="3.5" height="5.7"/>
		<rect x="186.3" y="70.8" fill="#4B9BA2" width="3.5" height="5.7"/>
		<rect x="186.3" y="82.1" fill="#4B9BA2" width="3.5" height="5.7"/>
		<rect x="186.3" y="93.3" fill="#4B9BA2" width="3.5" height="5.7"/>
		<rect x="186.3" y="104.6" fill="#4B9BA2" width="3.5" height="5.7"/>
		<rect x="186.3" y="115.9" fill="#4B9BA2" width="3.5" height="5.7"/>
		<rect x="186.3" y="127.1" fill="#4B9BA2" width="3.5" height="5.7"/>
		<rect x="186.3" y="138.4" fill="#4B9BA2" width="3.5" height="5.7"/>
		<rect x="186.3" y="149.7" fill="#4B9BA2" width="3.5" height="5.7"/>
		<rect x="193.9" y="37" fill="#4B9BA2" width="3.5" height="5.7"/>
		<rect x="178.6" y="20" fill="#4B9BA2" width="3.5" height="5.7"/>
		<rect x="186.3" y="20" fill="#4B9BA2" width="3.5" height="5.7"/>
		<rect x="193.9" y="20" fill="#4B9BA2" width="3.5" height="5.7"/>
		<rect x="193.9" y="48.3" fill="#4B9BA2" width="3.5" height="5.7"/>
		<rect x="193.9" y="59.5" fill="#4B9BA2" width="3.5" height="5.7"/>
		<rect x="193.9" y="70.8" fill="#4B9BA2" width="3.5" height="5.7"/>
		<rect x="193.9" y="82.1" fill="#4B9BA2" width="3.5" height="5.7"/>
		<rect x="193.9" y="93.3" fill="#4B9BA2" width="3.5" height="5.7"/>
		<rect x="193.9" y="104.6" fill="#4B9BA2" width="3.5" height="5.7"/>
		<rect x="193.9" y="115.9" fill="#4B9BA2" width="3.5" height="5.7"/>
		<rect x="193.9" y="127.1" fill="#4B9BA2" width="3.5" height="5.7"/>
		<rect x="193.9" y="138.4" fill="#4B9BA2" width="3.5" height="5.7"/>
		<rect x="193.9" y="149.7" fill="#4B9BA2" width="3.5" height="5.7"/>
		<rect x="201.5" y="37" fill="#4B9BA2" width="3.5" height="5.7"/>
		<rect x="201.5" y="48.3" fill="#4B9BA2" width="3.5" height="5.7"/>
		<rect x="201.5" y="59.5" fill="#4B9BA2" width="3.5" height="5.7"/>
		<rect x="201.5" y="70.8" fill="#4B9BA2" width="3.5" height="5.7"/>
		<rect x="201.5" y="82.1" fill="#4B9BA2" width="3.5" height="5.7"/>
		<rect x="201.5" y="93.3" fill="#4B9BA2" width="3.5" height="5.7"/>
		<rect x="201.5" y="104.6" fill="#4B9BA2" width="3.5" height="5.7"/>
		<rect x="201.5" y="115.9" fill="#4B9BA2" width="3.5" height="5.7"/>
		<rect x="201.5" y="127.1" fill="#4B9BA2" width="3.5" height="5.7"/>
		<rect x="201.5" y="138.4" fill="#4B9BA2" width="3.5" height="5.7"/>
		<rect x="201.5" y="149.7" fill="#4B9BA2" width="3.5" height="5.7"/>
	</g>
</g>
<g>
	<rect x="225.6" y="43.5" fill="#59B4BC" width="38.2" height="143.9"/>
	<g>
		<g>
			<g>
				<rect x="256.4" y="54.1" fill="#F0EAD8" width="0.6" height="123.7"/>
				<rect x="255.7" y="53.3" fill="#4B9BA2" width="1.9" height="125.3"/>
			</g>
		</g>
		<g>
			<g>
				<rect x="250.3" y="54.1" fill="#F0EAD8" width="0.6" height="123.7"/>
				<rect x="249.7" y="53.3" fill="#4B9BA2" width="1.9" height="125.3"/>
			</g>
		</g>
		<g>
			<g>
				<rect x="244.6" y="54.1" fill="#F0EAD8" width="0.6" height="123.7"/>
				<rect x="244" y="53.3" fill="#4B9BA2" width="1.9" height="125.3"/>
			</g>
		</g>
		<g>
			<g>
				<rect x="238.6" y="54.1" fill="#F0EAD8" width="0.6" height="123.7"/>
				<rect x="238" y="53.3" fill="#4B9BA2" width="1.9" height="125.3"/>
			</g>
		</g>
		<g>
			<g>
				<rect x="232.4" y="54.1" fill="#F0EAD8" width="0.6" height="123.7"/>
				<rect x="231.8" y="53.3" fill="#4B9BA2" width="1.9" height="125.3"/>
			</g>
		</g>
	</g>
</g>
<g>
	<polygon fill="#42779C" points="361.8,78.6 360.4,77.3 354.7,90.5 357.9,90.5 362.3,80.1 	"/>
	<rect x="368.6" y="89.1" fill="#C4E7E6" width="38.6" height="57.5"/>
	<polygon fill="#59B4BC" points="368.6,146.5 368.6,88.9 362.2,77.9 356.9,90.1 356.9,146.3 	"/>
	<polygon fill="#0E878E" points="366.7,89.2 409.3,89.2 403.4,77.3 360.4,77.3 	"/>
	<g>
		<g>
			<rect x="398.1" y="93.7" fill="#FFFFFF" width="4.8" height="5.6"/>
			<rect x="401.3" y="93.7" fill="#63C8D1" width="1.6" height="5.6"/>
		</g>
		<g>
			<rect x="385.5" y="93.7" fill="#FFFFFF" width="4.8" height="5.6"/>
			<rect x="388.8" y="93.7" fill="#63C8D1" width="1.6" height="5.6"/>
		</g>
		<g>
			<rect x="372.9" y="93.7" fill="#FFFFFF" width="4.8" height="5.6"/>
			<rect x="376.2" y="93.7" fill="#63C8D1" width="1.6" height="5.6"/>
		</g>
	</g>
	<g>
		<rect x="358.9" y="94" fill="#FFFFFF" width="2.5" height="5.6"/>
		<rect x="358.9" y="94" fill="#0E878E" width="0.8" height="5.6"/>
	</g>
	<g>
		<rect x="364" y="94" fill="#FFFFFF" width="2.5" height="5.6"/>
		<rect x="364" y="94" fill="#0E878E" width="0.8" height="5.6"/>
	</g>
	<g>
		<rect x="358.9" y="102.6" fill="#FFFFFF" width="2.5" height="5.6"/>
		<rect x="358.9" y="102.6" fill="#0E878E" width="0.8" height="5.6"/>
	</g>
	<g>
		<rect x="364" y="102.6" fill="#FFFFFF" width="2.5" height="5.6"/>
		<rect x="364" y="102.6" fill="#0E878E" width="0.8" height="5.6"/>
	</g>
	<g>
		<rect x="358.9" y="111.2" fill="#FFFFFF" width="2.5" height="5.6"/>
		<rect x="358.9" y="111.2" fill="#0E878E" width="0.8" height="5.6"/>
	</g>
	<g>
		<rect x="364" y="111.2" fill="#FFFFFF" width="2.5" height="5.6"/>
		<rect x="364" y="111.2" fill="#0E878E" width="0.8" height="5.6"/>
	</g>
	<g>
		<rect x="358.9" y="119.8" fill="#FFFFFF" width="2.5" height="5.6"/>
		<rect x="358.9" y="119.8" fill="#0E878E" width="0.8" height="5.6"/>
	</g>
	<g>
		<rect x="364" y="119.8" fill="#FFFFFF" width="2.5" height="5.6"/>
		<rect x="364" y="119.8" fill="#0E878E" width="0.8" height="5.6"/>
	</g>
	<g>
		<rect x="358.9" y="128.4" fill="#FFFFFF" width="2.5" height="5.6"/>
		<rect x="358.9" y="128.4" fill="#0E878E" width="0.8" height="5.6"/>
	</g>
	<g>
		<rect x="364" y="128.4" fill="#FFFFFF" width="2.5" height="5.6"/>
		<rect x="364" y="128.4" fill="#0E878E" width="0.8" height="5.6"/>
	</g>
	<g>
		<rect x="358.9" y="136.9" fill="#FFFFFF" width="2.5" height="5.6"/>
		<rect x="358.9" y="136.9" fill="#0E878E" width="0.8" height="5.6"/>
	</g>
	<g>
		<rect x="364" y="136.9" fill="#FFFFFF" width="2.5" height="5.6"/>
		<rect x="364" y="136.9" fill="#0E878E" width="0.8" height="5.6"/>
	</g>
	<g>
		<g>
			<rect x="398.1" y="104.4" fill="#FFFFFF" width="4.8" height="5.6"/>
			<rect x="401.3" y="104.4" fill="#63C8D1" width="1.6" height="5.6"/>
		</g>
		<g>
			<rect x="385.5" y="104.4" fill="#FFFFFF" width="4.8" height="5.6"/>
			<rect x="388.8" y="104.4" fill="#63C8D1" width="1.6" height="5.6"/>
		</g>
		<g>
			<rect x="372.9" y="104.4" fill="#FFFFFF" width="4.8" height="5.6"/>
			<rect x="376.2" y="104.4" fill="#63C8D1" width="1.6" height="5.6"/>
		</g>
	</g>
	<g>
		<g>
			<rect x="398.1" y="115.1" fill="#FFFFFF" width="4.8" height="5.6"/>
			<rect x="401.3" y="115.1" fill="#63C8D1" width="1.6" height="5.6"/>
		</g>
		<g>
			<rect x="385.5" y="115.1" fill="#FFFFFF" width="4.8" height="5.6"/>
			<rect x="388.8" y="115.1" fill="#63C8D1" width="1.6" height="5.6"/>
		</g>
		<g>
			<rect x="372.9" y="115.1" fill="#FFFFFF" width="4.8" height="5.6"/>
			<rect x="376.2" y="115.1" fill="#63C8D1" width="1.6" height="5.6"/>
		</g>
	</g>
	<g>
		<g>
			<rect x="398.1" y="125.8" fill="#FFFFFF" width="4.8" height="5.6"/>
			<rect x="401.3" y="125.8" fill="#63C8D1" width="1.6" height="5.6"/>
		</g>
		<g>
			<rect x="385.5" y="125.8" fill="#FFFFFF" width="4.8" height="5.6"/>
			<rect x="388.8" y="125.8" fill="#63C8D1" width="1.6" height="5.6"/>
		</g>
		<g>
			<rect x="372.9" y="125.8" fill="#FFFFFF" width="4.8" height="5.6"/>
			<rect x="376.2" y="125.8" fill="#63C8D1" width="1.6" height="5.6"/>
		</g>
	</g>
	<g>
		<g>
			<rect x="398.1" y="136.5" fill="#FFFFFF" width="4.8" height="5.6"/>
			<rect x="401.3" y="136.5" fill="#63C8D1" width="1.6" height="5.6"/>
		</g>
		<g>
			<rect x="385.5" y="136.5" fill="#FFFFFF" width="4.8" height="5.6"/>
			<rect x="388.8" y="136.5" fill="#63C8D1" width="1.6" height="5.6"/>
		</g>
		<g>
			<rect x="372.9" y="136.5" fill="#FFFFFF" width="4.8" height="5.6"/>
			<rect x="376.2" y="136.5" fill="#63C8D1" width="1.6" height="5.6"/>
		</g>
	</g>
</g>
<g>
	<rect x="682.7" y="52.1" fill="#85D2DB" width="49" height="8.6"/>
	<polygon fill="#85D2DB" points="727,37.7 688.1,37.7 682.7,52.1 731.7,52.1 	"/>
	<rect x="684.6" y="62.7" fill="#59B4BC" width="45.9" height="147.4"/>
	<g>
		<rect x="703.1" y="194.2" fill="#FFFFFF" width="9" height="15.8"/>
		<rect x="709.1" y="194.2" fill="#4B9BA2" width="2.9" height="15.8"/>
	</g>
	<rect x="682.7" y="60.5" fill="#4D6E7D" width="49.1" height="2.9"/>
	<polygon fill="#4B9BA2" points="727,46.1 688.1,46.1 682.7,60.5 731.7,60.5 	"/>
	<rect x="687.9" y="37.7" fill="#FFFFFF" width="39.1" height="8.6"/>
	<path fill="#FFFFFF" d="M717.7,35.8c-0.1-2.2-2.2-35.8-9.3-35.8c-6.7,0-9.6,33.7-9.7,35.8l0,0V44h19V35.8L717.7,35.8z"/>
	<path fill="#4B9BA2" d="M708.4,8.1c-6.9,0-9.6,35.9-9.6,35.9h18.4C717.3,44,715.8,8.1,708.4,8.1z"/>
	<g>
		<rect x="690.1" y="69" fill="#FFFFFF" width="34.2" height="105.2"/>
	</g>
	<path fill="#63C8D1" d="M721.7,66.8L721.7,66.8l-33,0.1V67h-0.2v105.2h0.1v4.1h37.4v-4.1v-0.4v-105H721.7z M717.6,70.6h4.1v3.7
		h-4.1V70.6z M717.6,78h4.1v3.3h-4.1V78z M717.6,85h4.1v3.7h-4.1V85z M717.6,92.4h4.1v3.7h-4.1V92.4z M717.6,99.8h4.1v3.8h-4.1V99.8
		z M717.6,107.3h4.1v3.7h-4.1V107.3z M717.6,114.7h4.1v3.7h-4.1V114.7z M717.6,122.1h4.1v5h-4.1V122.1z M717.6,130.8h4.1v3.7h-4.1
		V130.8z M717.6,138.1h4.1v3.7h-4.1V138.1z M717.6,145.5h4.1v3.8h-4.1V145.5z M717.6,153.1h4.1v3.7h-4.1V153.1z M717.6,160.4h4.1
		v3.7h-4.1V160.4z M709.4,70.6h3.7v3.7h-3.7V70.6z M709.4,78h3.7v3.3h-3.7V78z M709.4,85h3.7v3.7h-3.7V85z M709.4,92.4h3.7v3.7h-3.7
		V92.4z M709.4,99.8h3.7v3.8h-3.7V99.8z M709.4,107.3h3.7v3.7h-3.7V107.3z M709.4,114.7h3.7v3.7h-3.7V114.7z M709.4,122.1h3.7v5
		h-3.7V122.1z M709.4,130.8h3.7v3.7h-3.7V130.8z M709.4,138.1h3.7v3.7h-3.7V138.1z M709.4,145.5h3.7v3.8h-3.7V145.5z M709.4,153.1
		h3.7v3.7h-3.7V153.1z M709.4,160.4h3.7v3.7h-3.7V160.4z M713.1,167.8v4h-3.7v-4H713.1z M701.2,70.6h3.7v3.7h-3.7V70.6z M701.2,78
		h3.7v3.3h-3.7V78z M701.2,85h3.7v3.7h-3.7V85z M701.2,92.4h3.7v3.7h-3.7V92.4z M701.2,99.8h3.7v3.8h-3.7V99.8z M701.2,107.3h3.7
		v3.7h-3.7V107.3z M701.2,114.7h3.7v3.7h-3.7V114.7z M701.2,122.1h3.7v5h-3.7V122.1z M701.2,130.8h3.7v3.7h-3.7V130.8z M701.2,138.1
		h3.7v3.7h-3.7V138.1z M701.2,145.5h3.7v3.8h-3.7V145.5z M701.2,153.1h3.7v3.7h-3.7V153.1z M701.2,160.4h3.7v3.7h-3.7V160.4z
		 M704.9,167.8v4h-3.7v-4H704.9z M692.9,70.6h3.7v3.7h-3.7V70.6z M692.9,78h3.7v3.3h-3.7V78z M692.9,85h3.7v3.7h-3.7V85z
		 M692.9,92.4h3.7v3.7h-3.7V92.4z M692.9,99.8h3.7v3.8h-3.7V99.8z M692.9,107.3h3.7v3.7h-3.7V107.3z M692.9,114.7h3.7v3.7h-3.7
		V114.7z M692.9,122.1h3.7v5h-3.7V122.1z M692.9,130.8h3.7v3.7h-3.7V130.8z M692.9,138.1h3.7v3.7h-3.7V138.1z M692.9,145.5h3.7v3.8
		h-3.7V145.5z M692.9,153.1h3.7v3.7h-3.7V153.1z M692.9,160.4h3.7v3.7h-3.7V160.4z M696.7,167.8v4h-3.7v-4H696.7z M717.6,171.8v-4
		h4.1v4H717.6z"/>
</g>
<g>
	<path fill="#BDCE31" d="M765.6,217.5c-72.2-20.7-90.8-77.7-193.5-77.7c-101.2,0-117.3,58.1-189.2,77.7H765.6z"/>
	<path fill="#BDCE31" d="M428,217.5c-31.3-29.6-39.3-111.2-83.8-111.2c-43.8,0-50.8,83.2-81.9,111.2H428z"/>
	<path fill="#BDCE31" d="M536.6,144.7c-0.4-13-0.8-25.9-1-38.8c0-1.8-0.7-2.9-1.7-2.6c-0.9,0.4-1.6,2-1.7,3.7
		c-0.1,12.6-0.6,25.2-1,37.7H536.6z"/>
	<path fill="#FFFFFF" d="M534.9,102.9c0.3,0.6,0,1.3-0.6,1.6c-0.6,0.3-1.3,0-1.6-0.6c-0.3-0.6,0-1.3,0.6-1.6
		C533.9,102.1,534.6,102.3,534.9,102.9z"/>
	<path fill="#FFFFFF" d="M644.7,112.7c0.3,0.6,0,1.3-0.6,1.6c-0.6,0.3-1.3,0-1.6-0.6c-0.3-0.6,0-1.3,0.6-1.6
		C643.7,111.9,644.4,112.1,644.7,112.7z"/>
	<path fill="#8FA000" d="M456.8,61.7l-3.2-2.8c-0.8-0.7-2.1-1.8-2.9-2.6l-3.2-2.8c-0.8-0.7-2.1-0.7-2.9,0l-3.2,2.8
		c-0.8,0.7-2.1,1.9-2.9,2.6l-3.2,2.8c-0.8,0.7-0.6,1.3,0.5,1.3h1.7v10.5c0,0.5,0.4,0.9,0.9,0.9h1.6V65h4.9v9.5h8.9
		c0.5,0,0.9-0.4,0.9-0.9V63h1.7C457.4,63,457.6,62.4,456.8,61.7z M451.9,67.4h-4.4v-3.7h4.4V67.4z"/>
	<path fill="#8FA000" d="M474.1,72.3l-2.5-2.2c-0.6-0.5-1.7-1.4-2.3-2l-2.5-2.2c-0.6-0.5-1.7-0.5-2.3,0l-2.5,2.2
		c-0.6,0.5-1.7,1.4-2.3,2l-2.5,2.2c-0.6,0.5-0.5,1,0.4,1h1.4v8.2c0,0.4,0.3,0.7,0.7,0.7h1.3h3.8h6.9c0.4,0,0.7-0.3,0.7-0.7v-8.2h1.4
		C474.6,73.3,474.7,72.8,474.1,72.3z M470.3,76.7h-3.5v-2.9h3.5V76.7z"/>
	<path fill="#8FA000" d="M438.4,72.1l-2.5-2.2c-0.6-0.5-1.7-1.4-2.3-2l-2.5-2.2c-0.6-0.5-1.7-0.5-2.3,0l-2.5,2.2
		c-0.6,0.5-1.7,1.4-2.3,2l-2.5,2.2c-0.6,0.5-0.5,1,0.4,1h1.4v8.2c0,0.4,0.3,0.7,0.7,0.7h1.3h3.8h6.9c0.4,0,0.7-0.3,0.7-0.7v-8.2h1.4
		C438.9,73.1,439,72.6,438.4,72.1z"/>
	<path fill="#BDCE31" d="M183.4,215.7c-36.3-15.3-45.7-57.4-97.4-57.4c-50.9,0-59.1,42.9-95.2,57.4H183.4z"/>
	<path fill="#A1B400" d="M775,210c-2.4,0.5-202.4-0.1-205-0.1c-62.1,0-62.1-139.3-124.3-139.3c-62.1,0-62.1,139.3-124.3,139.3
		S259.4,70.6,197.3,70.6c-56.5,0-59.2,122.1-108.8,136.1c-25.1,7.1-123.3,2.6-128.7,4.4L-75,226h849.4L775,210z"/>
	<path fill="#8FA000" d="M193.7,70.8c-0.5,0-0.9,0.1-1.4,0.1c-0.4,0.1-0.9,0.1-1.3,0.2c-0.3,0.1-0.7,0.1-1,0.2
		c-0.5,0.1-1,0.2-1.5,0.3c-0.2,0.1-0.5,0.1-0.7,0.2c-0.5,0.1-1.1,0.3-1.6,0.5c-0.2,0.1-0.3,0.1-0.5,0.2c-0.6,0.2-1.2,0.4-1.7,0.6
		c-0.1,0-0.2,0.1-0.3,0.1c-0.6,0.3-1.2,0.5-1.8,0.8c-0.1,0-0.1,0-0.2,0.1c-0.6,0.3-1.3,0.6-1.9,1c0.1,0,0.2,0,0.3,0
		c49.1,0,56.3,138,98.5,138c8.3,0,43.5,2.4,51-3.9c-2.6,0.5-5.2,0.8-8,0.8c-59.1,0-62-125.9-115.5-138.3c-0.3-0.1-0.5-0.1-0.8-0.2
		c-0.2,0-0.4-0.1-0.7-0.1c-0.7-0.1-1.5-0.3-2.2-0.3c0,0-0.1,0-0.1,0c-0.8-0.1-1.6-0.2-2.4-0.2c-0.1,0-0.1,0-0.2,0
		c-0.8,0-1.6-0.1-2.4-0.1c-0.8,0-1.7,0-2.5,0.1C194.4,70.7,194.1,70.8,193.7,70.8z"/>
	<path fill="#8FA000" d="M570,209.9c-62.1,0-62.1-139.3-124.3-139.3c-17.3,0-29.8,10.8-40.2,26.5c22.9,39.3,32.1,117.3,68.9,117.3
		c2,0,189.5-0.2,191.4-0.7h108.5l0-3.7C772,210.5,572.6,209.9,570,209.9z"/>
	<path fill="#A1B400" d="M0.4,218.3c0,4.2-3.4,7.5-7.5,7.5h-68.3c-4.2,0-7.5-3.4-7.5-7.5l0,0c0-4.2,3.4-7.5,7.5-7.5h68.3
		C-3,210.8,0.4,214.2,0.4,218.3L0.4,218.3z"/>
	<path fill="#A1B400" d="M787.2,218c0,4.4-3.6,8-8,8h-51.1c-4.4,0-8-3.6-8-8l0,0c0-4.4,3.6-8,8-8h51.1
		C783.6,210,787.2,213.6,787.2,218L787.2,218z"/>
	<path fill="#8FA000" d="M779.3,211.9c0,1-0.8,1.7-1.7,1.7h-116c-1,0-1.7-0.8-1.7-1.7l0,0c0-1,0.8-1.7,1.7-1.7h116
		C778.6,210.1,779.3,210.9,779.3,211.9L779.3,211.9z"/>
</g>
<g>
	<circle fill="#9CAC3C" cx="25.9" cy="176" r="25.9"/>
	<g>
		<g>
			<g>
				<path fill="#F2EFDC" d="M25.9,217.4c-0.7,0-1.2-0.5-1.2-1.2V168c0-0.7,0.5-1.2,1.2-1.2s1.2,0.5,1.2,1.2v48.2
					C27.1,216.9,26.6,217.4,25.9,217.4L25.9,217.4z"/>
			</g>
			<g>
				<path fill="#F2EFDC" d="M25.9,184.6c-0.3,0-0.5-0.1-0.8-0.3c-0.5-0.4-0.5-1.2-0.1-1.7l7.7-8.9c0.4-0.5,1.2-0.5,1.7-0.1
					c0.5,0.4,0.5,1.2,0.1,1.7l-7.7,8.9C26.6,184.4,26.2,184.6,25.9,184.6L25.9,184.6z"/>
			</g>
			<g>
				<path fill="#F2EFDC" d="M25.9,188.5c-0.3,0-0.7-0.1-0.9-0.4l-7.7-8.9c-0.4-0.5-0.4-1.2,0.1-1.7c0.5-0.4,1.2-0.4,1.7,0.1l7.7,8.9
					c0.4,0.5,0.4,1.2-0.1,1.7C26.5,188.4,26.2,188.5,25.9,188.5L25.9,188.5z"/>
			</g>
			<g>
				<path fill="#F2EFDC" d="M25.9,195.6c-0.3,0-0.5-0.1-0.8-0.3c-0.5-0.4-0.5-1.2-0.1-1.7l7.7-8.9c0.4-0.5,1.2-0.5,1.7-0.1
					c0.5,0.4,0.5,1.2,0.1,1.7l-7.7,8.9C26.6,195.5,26.2,195.6,25.9,195.6L25.9,195.6z"/>
			</g>
		</g>
	</g>
</g>
<g>
	<circle fill="#8FA000" cx="69" cy="170" r="32.6"/>
	<g>
		<g>
			<g>
				<path fill="#F2EFDC" d="M69,215.4c-0.7,0-1.2-0.5-1.2-1.2V166c0-0.7,0.5-1.2,1.2-1.2s1.2,0.5,1.2,1.2v48.2
					C70.2,214.9,69.7,215.4,69,215.4L69,215.4z"/>
			</g>
			<g>
				<path fill="#F2EFDC" d="M69,182.6c-0.3,0-0.5-0.1-0.8-0.3c-0.5-0.4-0.5-1.2-0.1-1.7l7.7-8.9c0.4-0.5,1.2-0.5,1.7-0.1
					c0.5,0.4,0.5,1.2,0.1,1.7l-7.7,8.9C69.7,182.4,69.4,182.6,69,182.6L69,182.6z"/>
			</g>
			<g>
				<path fill="#F2EFDC" d="M69,186.5c-0.3,0-0.7-0.1-0.9-0.4l-7.7-8.9c-0.4-0.5-0.4-1.2,0.1-1.7c0.5-0.4,1.2-0.4,1.7,0.1l7.7,8.9
					c0.4,0.5,0.4,1.2-0.1,1.7C69.6,186.4,69.3,186.5,69,186.5L69,186.5z"/>
			</g>
			<g>
				<path fill="#F2EFDC" d="M69,193.6c-0.3,0-0.5-0.1-0.8-0.3c-0.5-0.4-0.5-1.2-0.1-1.7l7.7-8.9c0.4-0.5,1.2-0.5,1.7-0.1
					c0.5,0.4,0.5,1.2,0.1,1.7l-7.7,8.9C69.7,193.5,69.4,193.6,69,193.6L69,193.6z"/>
			</g>
		</g>
	</g>
</g>
<g>
	<g>
		<path fill="#C0CC44" d="M651,105.3c-0.1-2.2,0-4.2-1.9-4.2s-2.2,2-2.3,4.4c-0.1,2.4-0.5,51.2-0.6,56.4c2.5,0,3.1,0,5.6,0
			C651.5,157.6,651.1,107.5,651,105.3z"/>
	</g>
	<g id="helice-1">
		<path fill="#C0CC44" d="M646.6,103.9c1.1-1.2,2.2-2.2,1.2-3.3c-1-1-2.2-0.1-3.6,1.1c-1.3,1.2-6.1,5.6-8.9,8.3
			c-2.8,2.7-6.1,5.4-4.2,7.3c1.9,1.9,5.1-1.9,7.3-4.4C640.5,110.5,645.5,105.1,646.6,103.9z"/>
		<path fill="#C0CC44" d="M651.3,94.8c-1.1,1.2-2.2,2.2-1.2,3.3c1,1,2.2,0.1,3.6-1.1c1.3-1.2,6.1-5.6,8.9-8.3
			c2.8-2.7,6.1-5.4,4.2-7.3c-1.9-1.9-5.1,1.9-7.3,4.4C657.4,88.2,652.4,93.6,651.3,94.8z"/>
		<path fill="#C0CC44" d="M644.4,97c1.2,1.1,2.2,2.2,3.3,1.2c1-1,0.1-2.2-1.1-3.6c-1.2-1.3-5.6-6.1-8.3-8.9
			c-2.7-2.8-5.4-6.1-7.3-4.2c-1.9,1.9,1.9,5.1,4.4,7.3C637.8,90.9,643.2,95.9,644.4,97z"/>
		<path fill="#C0CC44" d="M653.5,101.8c-1.2-1.1-2.2-2.2-3.3-1.2c-1,1-0.1,2.2,1.1,3.6c1.2,1.3,5.6,6.1,8.3,8.9
			c2.7,2.8,5.4,6.1,7.3,4.2c1.9-1.9-1.9-5.1-4.4-7.3C660.1,107.9,654.7,102.9,653.5,101.8z"/>
	</g>
	<g>
		<path fill="#C0CC44" d="M651.9,102.1c-1.5,1.6-4,1.7-5.7,0.2c-1.6-1.5-1.7-4-0.2-5.7c1.5-1.6,4-1.7,5.7-0.2
			C653.3,97.9,653.4,100.4,651.9,102.1z"/>
		<path fill="#FFFFFF" d="M650.2,100.5c-0.7,0.7-1.7,0.8-2.5,0.1c-0.7-0.6-0.8-1.7-0.1-2.5c0.6-0.7,1.7-0.8,2.4-0.1
			C650.8,98.7,650.9,99.8,650.2,100.5z"/>
	</g>
</g>
<g>
	<g>
		<path fill="#C0CC44" d="M593.5,89.7c-0.1-2.2,0-4.2-1.9-4.2s-2.2,2-2.3,4.4c-0.1,2.4-0.5,51.2-0.6,56.4c2.5,0,3.1,0,5.6,0
			C594,142,593.6,91.9,593.5,89.7z"/>
	</g>
	<g id="helice-2">
		<path fill="#C0CC44" d="M589.1,88.3c1.1-1.2,2.2-2.2,1.2-3.3c-1-1-2.2-0.1-3.6,1.1c-1.3,1.2-6.1,5.6-8.9,8.3
			c-2.8,2.7-6.1,5.4-4.2,7.3c1.9,1.9,5.1-1.9,7.3-4.4C583,94.9,588,89.5,589.1,88.3z"/>
		<path fill="#C0CC44" d="M593.8,79.3c-1.1,1.2-2.2,2.2-1.2,3.3c1,1,2.2,0.1,3.6-1.1c1.3-1.2,6.1-5.6,8.9-8.3
			c2.8-2.7,6.1-5.4,4.2-7.3c-1.9-1.9-5.1,1.9-7.3,4.4C599.9,72.6,594.9,78.1,593.8,79.3z"/>
		<path fill="#C0CC44" d="M586.9,81.4c1.2,1.1,2.2,2.2,3.3,1.2c1-1,0.1-2.2-1.1-3.6c-1.2-1.3-5.6-6.1-8.3-8.9
			c-2.7-2.8-5.4-6.1-7.3-4.2c-1.9,1.9,1.9,5.1,4.4,7.3C580.3,75.3,585.7,80.3,586.9,81.4z"/>
		<path fill="#C0CC44" d="M596,86.2c-1.2-1.1-2.2-2.2-3.3-1.2c-1,1-0.1,2.2,1.1,3.6c1.2,1.3,5.6,6.1,8.3,8.9
			c2.7,2.8,5.4,6.1,7.3,4.2c1.9-1.9-1.9-5.1-4.4-7.3C602.6,92.3,597.2,87.3,596,86.2z"/>
	</g>
	<g>
		<path fill="#C0CC44" d="M594.4,86.5c-1.5,1.6-4,1.7-5.7,0.2c-1.6-1.5-1.7-4-0.2-5.7c1.5-1.6,4-1.7,5.7-0.2
			C595.8,82.3,595.9,84.9,594.4,86.5z"/>
		<path fill="#FFFFFF" d="M592.7,85c-0.7,0.7-1.7,0.8-2.5,0.1c-0.7-0.6-0.8-1.7-0.1-2.5c0.6-0.7,1.7-0.8,2.4-0.1
			C593.3,83.2,593.4,84.3,592.7,85z"/>
	</g>
</g>
<g>
	<g>
		<path fill="#C0CC44" d="M537.8,101.8c-0.1-2.2,0-4.2-1.9-4.2c-1.9,0-2.2,2-2.3,4.4c-0.1,2.4-0.5,51.2-0.6,56.4c2.5,0,3.1,0,5.6,0
			C538.3,154.1,537.9,103.9,537.8,101.8z"/>
	</g>
	<g id="helice-3">
		<path fill="#C0CC44" d="M533.4,100.4c1.1-1.2,2.2-2.2,1.2-3.3c-1-1-2.2-0.1-3.6,1.1c-1.3,1.2-6.1,5.6-8.9,8.3
			c-2.8,2.7-6.1,5.4-4.2,7.3c1.9,1.9,5.1-1.9,7.3-4.4C527.3,107,532.2,101.6,533.4,100.4z"/>
		<path fill="#C0CC44" d="M538.1,91.3c-1.1,1.2-2.2,2.2-1.2,3.3c1,1,2.2,0.1,3.6-1.1c1.3-1.2,6.1-5.6,8.9-8.3
			c2.8-2.7,6.1-5.4,4.2-7.3c-1.9-1.9-5.1,1.9-7.3,4.4C544.2,84.7,539.2,90.1,538.1,91.3z"/>
		<path fill="#C0CC44" d="M531.2,93.4c1.2,1.1,2.2,2.2,3.3,1.2c1-1,0.1-2.2-1.1-3.6c-1.2-1.3-5.6-6.1-8.3-8.9
			c-2.7-2.8-5.4-6.1-7.3-4.2c-1.9,1.9,1.9,5.1,4.4,7.3C524.6,87.4,530,92.3,531.2,93.4z"/>
		<path fill="#C0CC44" d="M540.3,98.3c-1.2-1.1-2.2-2.2-3.3-1.2c-1,1-0.1,2.2,1.1,3.6c1.2,1.3,5.6,6.1,8.3,8.9
			c2.7,2.8,5.4,6.1,7.3,4.2c1.9-1.9-1.9-5.1-4.4-7.3S541.5,99.4,540.3,98.3z"/>
	</g>
	<g>
		<path fill="#C0CC44" d="M538.7,98.6c-1.5,1.6-4,1.7-5.7,0.2c-1.6-1.5-1.7-4-0.2-5.7c1.5-1.6,4-1.7,5.7-0.2
			C540.1,94.4,540.2,96.9,538.7,98.6z"/>
		<path fill="#FFFFFF" d="M537,97c-0.7,0.7-1.7,0.8-2.5,0.1c-0.7-0.6-0.8-1.7-0.1-2.5c0.6-0.7,1.7-0.8,2.5-0.1
			C537.6,95.2,537.7,96.3,537,97z"/>
	</g>
</g>
<g>
	<g>
		<g>
			<g>
				<path fill="#FDC896" d="M185.2,69.8c0,1-1.2,3.9-0.6,4.6c0.7,1,1.5-0.1,2-1.5c0.4-1,0.5-2.1,0.5-2.3c-0.1-1.1-0.7-1.2-1.7-1.1
					L185.2,69.8z"/>
				<path fill="#FDC896" d="M188.3,70c0.2,1,0,4,0.9,4.6c1.7,1.2,1.6-3.7,1.2-4.4c-0.4-1-1.1-1-2-0.5L188.3,70z"/>
				<g>
					<path fill="#DEE466" d="M184.4,73c0,0,0,0.1,0.6,0.1c0.7,0,1.3-0.1,1.3-0.1s-0.4,0.7-0.2,1c0.1,0.2-1.8,0.5-1.8,0.5
						S184.3,73.9,184.4,73z"/>
					<ellipse fill="#AFBA36" cx="185.4" cy="74.3" rx="1.1" ry="0.9"/>
					<path fill="#828936" d="M186.5,74.2c0,0.5-0.5,0.9-1.1,0.9c-0.5,0-1-0.4-1.1-0.6l0,0c0,0.5,0.5,0.9,1.1,0.9s1.1-0.4,1.1-0.9
						C186.6,74.3,186.5,74.3,186.5,74.2z"/>
					<path fill="#828936" d="M186.4,73.8c-0.1-0.1-0.1-0.2-0.1-0.2s0-0.1,0-0.2c0,0-0.2,0.1-1.2,0.1c-1.3,0-1.1,1.3-0.7,0.9
						C184.8,73.8,186.5,73.9,186.4,73.8z"/>
					<path fill="#AFBA36" d="M186.4,73.8c0-0.1,0-0.2,0-0.2s0-0.1,0-0.2c0,0-0.2,0.1-1.3,0.1c-1.3,0-1.1,1.3-0.7,0.9
						C184.7,73.8,186.3,73.9,186.4,73.8z"/>
					<path fill="#DEE466" d="M184.5,73.6l0.2,0.5c0,0-0.2,0-0.4,0.2c-0.1-0.1-0.2-0.4-0.2-0.4S184.3,73.6,184.5,73.6z"/>
				</g>
				<g>
					<path fill="#DEE466" d="M188.7,73.2c0,0,0,0.1,0.6,0c0.6-0.1,1.3-0.4,1.3-0.4s-0.1,0.7,0,1c0.1,0.2-1.7,1-1.7,1
						S188.7,74.2,188.7,73.2z"/>
					
						<ellipse transform="matrix(-0.2196 -0.9756 0.9756 -0.2196 159.1934 275.9127)" fill="#AFBA36" cx="189.9" cy="74.3" rx="0.9" ry="1.1"/>
					<path fill="#828936" d="M191,73.9c0.1,0.5-0.4,0.9-0.9,1c-0.5,0.1-1-0.1-1.2-0.4l0,0c0.1,0.5,0.6,0.7,1.2,0.6
						c0.6-0.1,1-0.6,0.9-1.1C191,74.1,191,74.1,191,73.9z"/>
					<path fill="#828936" d="M190.8,73.7c-0.1-0.1-0.1-0.2-0.1-0.2s0-0.1,0-0.2c0,0-0.2,0.1-1.2,0.4c-1.3,0.4-0.7,1.6-0.5,1
						C189.2,74.1,190.9,73.7,190.8,73.7z"/>
					<path fill="#AFBA36" d="M190.7,73.6c-0.1-0.1-0.1-0.2-0.1-0.2s0-0.1,0-0.2c0,0-0.2,0.1-1.2,0.4c-1.3,0.4-0.7,1.6-0.5,1
						C189.1,73.9,190.7,73.7,190.7,73.6z"/>
					<path fill="#DEE466" d="M188.9,73.7l0.4,0.4c0,0-0.2,0.1-0.4,0.2c-0.1-0.1-0.2-0.4-0.2-0.4S188.7,73.8,188.9,73.7z"/>
				</g>
				<path opacity="0.2" enable-background="new    " d="M188.6,71.5v0.4c0,0,1.5-0.4,2-0.6c0-0.1,0-0.1,0-0.1S189.1,71.4,188.6,71.5
					z"/>
				<path opacity="0.2" enable-background="new    " d="M184.8,71.5l-0.1,0.5c0,0,1.6,0,2.2-0.1c0-0.1,0.1-0.7,0.1-0.7
					S185.3,71.5,184.8,71.5z"/>
				<path fill="#69452A" d="M194.4,58.3c0.1-0.5,0.1-1.1,0.2-1.6c0.1-1.1,0.2-2.1,0.2-2.9c0.1-0.5,0.1-1,0.1-1.5
					c0-5.9-4.8-10.6-10.6-10.6c-5.9,0-10.6,4.8-10.6,10.6c0,0.2,0,0.4,0,0.6c-0.2,1.6-0.2,3.3,0,4.8c0.7,3.8,2.3,5.6,4.5,7.6
					c0.2,0.2,0.6,0.5,1,0.7c1.1,0.6,2.4,0.7,3.7,0.9c2.3,0.1,4.9-0.5,7.1-1.7c2.7-1.5,4.3-3.9,5.1-7.5
					C194.9,57.9,194.7,58,194.4,58.3z"/>
				<g>
					<path fill="#D4A65B" d="M183,60.2c0,0-2.3-0.5-3.5,3.4c0,0-1,2.6-1,3.8c0,0,0.9,2.4,2.8,2.6l1.5-7l1.8-0.5l1.7-0.1l0.7-1.6
						l-1-0.9L183,60.2z"/>
					<path fill="#A2782B" d="M178.8,65.5c1.5,2,2.2,1.7,2.2,1.7l-0.1,1.1c-0.6,0.2-2.1-1.1-2.3-2C178.7,66.1,178.8,65.7,178.8,65.5z
						"/>
					<path fill="#A2782B" d="M186,61.8l-2.7,0.1c0,0-1.1,0-1.7,2.4c0,0-1,3.9-0.7,5.5c0,0,0.7,0.4,1.1,0l1.8-4.3l1.7-1.6l0.7-1.5
						C186.3,62.6,186.5,62.3,186,61.8z"/>
				</g>
				<path opacity="0.2" enable-background="new    " d="M180.3,65.6c-0.1,0-0.1,0-0.1,0c-0.4-0.1-0.1-0.4,0.4-0.5
					c0.2,0,0.4-0.1,0.4-0.1c0.5-0.9,1.7-2,2.2-2.3l1.7,0.9c-0.2,0.2-1.2,1.5-2.1,2.3l0,0c0,0-0.4,0.4-0.4,0.6l0,0v0.1
					c0,0.4-0.2,0.6-0.5,0.2c-0.2-0.4-0.2-0.2-0.9,0.1c-0.6,0.2-0.9,0-0.4-0.4c-0.1,0.1-0.2,0.1-0.4,0.1c-0.4,0-0.2-0.2,0.1-0.5
					c-0.1,0-0.2,0-0.4,0C179.8,66.1,179.9,65.7,180.3,65.6z"/>
				<path fill="#FDC896" d="M180.1,65.5c-0.1,0-0.1,0-0.1,0c-0.4-0.1-0.1-0.4,0.4-0.5c0.2,0,0.4-0.1,0.4-0.1c0.5-0.9,1.7-2,2.2-2.3
					l1.7,0.9c-0.2,0.2-1.2,1.5-2.1,2.3l0,0c0,0-0.4,0.4-0.4,0.6l0,0v0.1c0,0.4-0.2,0.6-0.5,0.2c-0.2-0.4-0.2-0.2-0.9,0.1
					c-0.6,0.2-0.9,0-0.4-0.4c-0.1,0.1-0.2,0.1-0.4,0.1c-0.4,0-0.2-0.2,0.1-0.5c-0.1,0-0.2,0-0.4,0C179.7,66,179.8,65.6,180.1,65.5z"
					/>
				<path fill="#FDC896" d="M194.4,64.4c0.1,0,0.1,0,0.1,0c0.4-0.1,0-0.4-0.4-0.4c-0.2,0-0.4,0-0.5-0.1c-0.6-0.7-2-1.6-2.6-2
					l-1.6,1.1c0.4,0.1,1.5,1.2,2.4,2l0,0c0,0,0.4,0.2,0.4,0.5l0,0v0.1c0,0.4,0.4,0.5,0.5,0.1s0.2-0.2,0.9-0.1s0.9-0.2,0.4-0.5
					c0.1,0,0.4,0,0.5,0c0.4,0,0.1-0.4-0.2-0.5c0.1,0,0.2,0,0.4,0C195.1,64.8,194.9,64.5,194.4,64.4z"/>
				<path fill="#FFFFFF" d="M192,62.2c-0.6,0.6-1.1,1.3-1.8,1.8c-1,0.6-1.7,0.5-2.7,0.4c-0.7,0-1.3,0-2.1,0.2c0.5-0.7,1.2-1.2,1.7-2
					c0.5-0.9,1.1-1.1,1.8-1.8C189.8,60.4,192,62.2,192,62.2z"/>
				<path fill="#FFFFFF" d="M186.3,60.7l-1.3,0.5c-1.1,0.4-0.7,0.1-2.7,1.7c0.4,0,1.6,1.1,1.8,2c0.6-0.1,1.2-0.5,1.8-0.7
					c0.1-0.6,0-1.1,0.1-1.8C186.3,61.8,186.3,61.3,186.3,60.7z"/>
				<path fill="#FFFFFF" d="M188.5,62.4c0,1-0.4,1.7-1.3,2.1c-2.2,0.7-2.4-2.8-1.5-4c0.5-0.6,1.6-1.1,2.3-0.6
					C189.1,60.5,188.5,61.6,188.5,62.4z"/>
				<path fill="#AFBA36" d="M184.7,60.9c0.4-0.1,0.9-0.1,1.1-0.1c0,0.7,0.4,4.3,2.2,2.8c0.6-0.5,0.2-2.4,0.2-3.2
					c0.2,0.1,0.7,0.1,1.1,0.2c0.2,1.3,0.4,1.3,0.5,2.1c0.7,4.9,3.5,6.2,3.7,6.6l0,0c-3.3,3.4-12,2.2-12.3,2.2l0,0
					c0.4-1.5,2.2-4.4,3.5-8.8C184.9,62.1,185,60.7,184.7,60.9L184.7,60.9z"/>
				<path fill="#CED728" d="M193,68.9c-3.3,2.4-9.8,1.8-11.4,1.5c-0.1,0.1-0.5,0.9-0.5,1.2c0.4,0,9,1.2,12.3-2.2
					C193.5,69.4,193.2,69.3,193,68.9z"/>
				<path opacity="0.2" enable-background="new    " d="M184.8,60.7c0,0,1.6,5.9-2.6,6.1l-0.2,0.9c0,0,5,0.9,3.7-6.6L184.8,60.7z"/>
				<path fill="#A2782B" d="M184.5,60.6c0,0,1.6,5.9-2.6,6.1l-0.2,0.9c0,0,5.1,0.7,3.8-6.7L184.5,60.6z"/>
				<path fill="#A2782B" d="M188.7,60.5c0,0,1.8,1.8,2.2,6c0,0-1-2.7-2.8-5.5L188.7,60.5z"/>
				<path fill="#FDC896" d="M193.5,52.2c-0.1,0.6-0.2,1.3-0.1,2.2c1.5-0.5,1.5,1.5,0.1,1.5c0.1,1.7-1.1,3.4-2.6,4.2
					c-0.7,0.4-1.7,0.4-2.3,0.9c-0.6,0.5-0.6,1.1-0.9,1.7c-0.6,1.3-1.3-0.4-1.8-1.1c-0.6-0.4-1.6,0.1-2.2,0.1c-4.4,0-5-2.2-5.4-3.7
					c-1.3,0.6-1.6-1.5-0.5-1.3c0-0.6-0.2-1.2-0.1-2c0.7-0.2,1.5-0.2,2.1-0.4c1.1-0.2,2.3-0.7,3.3-1.2c0.4-0.1,2.4-2,2.1-2.3
					C185,50.6,188.2,53.4,193.5,52.2z"/>
				<path opacity="0.2" enable-background="new    " d="M190.4,45.4c-2.6-0.4-4.8,0.4-5.9,1.5c-1.5-0.7-3.8-0.7-6,0.2
					c-3.2,1.3-5,4-4.2,5.9c0.9,1.8,4,2.2,7.2,0.9c1.6-0.7,2.9-1.8,3.7-2.9c1,0.9,2.6,1.5,4.4,1.7c1.8,0.2,3.7-0.1,4.9-0.7
					C195.3,51.6,193.8,45.8,190.4,45.4z"/>
				<path fill="#69452A" d="M190.4,45.2c-2.6-0.4-4.8,0.4-5.9,1.5c-1.5-0.7-3.8-0.7-6,0.2c-3.2,1.3-5.1,4.4-4.4,6.2
					c0.5,1.1,1.3,1.7,2.8,1.7c1.2,0,3.1-0.6,4.5-1.2c1.6-0.7,2.9-1.8,3.7-2.9c1,0.9,2.6,1.5,4.4,1.7c1.8,0.2,3.9,0.1,5.1-0.5
					C195.7,51.6,193.8,45.6,190.4,45.2z"/>
				<path fill="#DCA576" d="M178.2,57.4c0,0-0.5-0.9-1-0.4C177.5,56.9,178.1,57.2,178.2,57.4z"/>
				<path fill="#DCA576" d="M193.5,55.4c0,0,0.4-1,0.9-0.6C194.1,54.7,193.6,55.1,193.5,55.4z"/>
				<path opacity="0.2" enable-background="new    " d="M188.1,61.3c0,0,0.9-0.6,1.2-0.6c0.6-0.2,1-0.5,1-0.5S188.5,60.4,188.1,61.3
					z"/>
				
					<ellipse transform="matrix(-0.2191 -0.9757 0.9757 -0.2191 168.1598 246.5161)" fill="#4B3021" cx="182.7" cy="56" rx="1" ry="0.6"/>
				
					<ellipse transform="matrix(-0.2184 -0.9759 0.9759 -0.2184 177.1845 252.1407)" fill="#4B3021" cx="189.6" cy="55.1" rx="1" ry="0.6"/>
				<path fill="#F79A7A" d="M185.9,58.8c0.1,0.5,0.5,0.7,1.1,0.7c0.5-0.1,0.9-0.5,0.9-1c-0.1-0.5-0.4-0.1-0.9-0.1
					C186.4,58.5,185.8,58.3,185.9,58.8z"/>
				<path fill="#F79A7A" d="M181.6,58.4c0.1,0,0.1,0.1,0.2,0.1c0.6,0.2,2.3-0.1,1.3-0.9C182.6,57.3,180.6,57.6,181.6,58.4z"/>
				<path fill="#F79A7A" d="M191.3,57.4c0,0.1-0.1,0.1-0.2,0.2c-0.6,0.4-2.6,0.6-1.6-0.5C189.8,56.6,192,56.3,191.3,57.4z"/>
			</g>
		</g>
	</g>
	<g>
		<g>
			<g>
				<g>
					<g>
						<path fill="#69452A" d="M195.4,69.8c0.1,0.7,6.5,4,7.1,3.9c0.6-0.1,2.4-3.9,2.2-4.4c-0.1-0.4-6.1-3.5-6.6-3.4
							c0,0-0.2,0.1-0.4,0.1C197,66.6,195.3,69.3,195.4,69.8z"/>
						<path fill="#3F2B1E" d="M204.4,69.4l-2,4.5c0,0,0.2,0,0.7-0.2c0.5-0.2,1.6-4.3,1.6-4.3H204.4z"/>
						<path fill="#A2782B" d="M195.2,70.1c0.1,0.7,6.5,3.9,7.2,3.8c0.6-0.1,1.8-3.7,2-4.6c-0.1-0.4-6-3.4-6.5-3.3
							C197.3,66.1,195.2,69.5,195.2,70.1z"/>
						<path fill="#D4A65B" d="M196.6,70.1c0,0.5,4.8,2.8,5.3,2.8c0-0.1,1.1-2.6,1.5-3.2c-0.1-0.2-4.9-0.9-4.9-2.8
							C198,67,196.5,69.8,196.6,70.1z"/>
						<path fill="#D4A65B" d="M201.4,65.9c-1-0.1-1.7,0.9-1.7,0.9l0.6,0.2c0.2-0.2,0.6-0.7,1.1-0.6c0.9,0.1,1.1,0.9,0.7,1.6l0.5,0.2
							C202.9,67.2,203,66,201.4,65.9z"/>
					</g>
					<path fill="#6E5224" d="M203.3,69.8c0,0-4.6-2.4-4.9-2.7c0,0.2,0.2,1.3,3.2,2.2C202.6,69.5,203.3,69.8,203.3,69.8z"/>
				</g>
				<path opacity="0.2" enable-background="new    " d="M206.7,70.9l-1.8,0.5v0.2c0,0,1.6-0.1,1.8-0.2
					C206.7,71,206.7,70.9,206.7,70.9z"/>
				<path fill="#FDC896" d="M205.5,69c-0.1,1.1-1.5,4.2-1,5c1,2,2.7-3.1,2.6-3.9c0-1.2-0.5-1.3-1.5-1.3L205.5,69z"/>
				<g>
					<path fill="#CBD3E0" d="M204.2,73c0,0,0,0.1,0.6,0.1s1.5-0.1,1.5-0.1s-0.4,0.7-0.2,1c0.1,0.2-2,0.5-2,0.5S204,73.9,204.2,73z"
						/>
					<ellipse fill="#445E87" cx="205.3" cy="74.3" rx="1.1" ry="0.9"/>
					<path fill="#FFFFFF" d="M206.4,74.3c0,0.5-0.5,0.9-1.1,0.9s-1.1-0.4-1.1-0.9c0.1,0.5,0.7,0.7,1.2,0.2
						C205.9,74.2,206.3,74.2,206.4,74.3z"/>
					<path fill="#2B4263" d="M206.4,74.2c0,0.5-0.5,0.9-1.1,0.9c-0.5,0-1-0.4-1.1-0.7l0,0c0,0.5,0.5,0.9,1.1,0.9s1.1-0.4,1.1-0.9
						C206.4,74.3,206.4,74.3,206.4,74.2z"/>
					<path fill="#2B4263" d="M206.2,73.8c-0.1-0.1-0.1-0.2-0.1-0.2s0-0.1,0-0.2c0,0-0.2,0.1-1.3,0.1c-1.3,0-1.1,1.5-0.7,1
						C204.6,73.8,206.3,73.9,206.2,73.8z"/>
					<path fill="#445E87" d="M206.2,73.8c0-0.1,0-0.2,0-0.2s0-0.1,0-0.2c0,0-0.4,0.1-1.3,0.1c-1.3,0-1.1,1.5-0.7,1
						C204.5,73.8,206.1,73.9,206.2,73.8z"/>
					<path fill="#6D96CE" d="M204.4,73.6l0.2,0.5c0,0-0.2,0-0.5,0.2c-0.1-0.2-0.2-0.5-0.2-0.5S204.1,73.6,204.4,73.6z"/>
				</g>
				<path fill="#FDC896" d="M209.2,69.9c0.2,1.1,0.2,4.4,1.1,5c1.7,1.3,1.2-3.9,0.9-4.6c-0.5-1.1-1.1-1.1-1.8-0.6L209.2,69.9z"/>
				<g>
					<path fill="#CBD3E0" d="M209.6,73.2c0,0,0,0.1,0.6,0c0.7-0.1,1.5-0.2,1.5-0.2s-0.2,0.7,0,1c0.1,0.2-1.8,0.9-1.8,0.9
						S209.6,74.2,209.6,73.2z"/>
					
						<ellipse transform="matrix(-0.1432 -0.9897 0.9897 -0.1432 167.3696 293.7612)" fill="#445E87" cx="210.8" cy="74.4" rx="0.9" ry="1.1"/>
					<path fill="#FFFFFF" d="M211.9,74.2c0.1,0.5-0.4,1-1,1c-0.6,0.1-1.2-0.2-1.2-0.7c0.2,0.5,0.9,0.6,1.2,0.1
						C211.4,74.2,211.8,74.1,211.9,74.2z"/>
					<path fill="#2B4263" d="M211.9,74.2c0.1,0.5-0.4,0.9-1,1c-0.5,0.1-1-0.1-1.2-0.5l0,0c0.1,0.5,0.6,0.7,1.2,0.7
						c0.6-0.1,1.1-0.6,1-1C212.1,74.3,212.1,74.2,211.9,74.2z"/>
					<path fill="#2B4263" d="M211.7,73.8c-0.1-0.1-0.1-0.2-0.1-0.2s0-0.1,0-0.2c0,0-0.2,0.1-1.2,0.2c-1.3,0.2-1,1.6-0.6,1
						C210.1,74.1,211.8,73.8,211.7,73.8z"/>
					<path fill="#445E87" d="M211.7,73.7c0-0.1-0.1-0.2-0.1-0.2s0-0.1,0-0.2c0,0-0.2,0.1-1.3,0.4c-1.3,0.2-1,1.6-0.6,1
						C210,74.1,211.6,73.8,211.7,73.7z"/>
					<path fill="#6D96CE" d="M209.9,73.7l0.2,0.5c0,0-0.2,0.1-0.4,0.2c-0.1-0.1-0.2-0.4-0.2-0.4S209.6,73.8,209.9,73.7z"/>
				</g>
				<path opacity="0.2" enable-background="new    " d="M211.3,70.8l-1.8,0.5v0.2c0,0,1.6-0.1,1.8-0.2
					C211.3,70.9,211.3,70.8,211.3,70.8z"/>
				<path opacity="0.2" enable-background="new    " d="M206.8,71.1l-2-0.1l-0.1,0.2c0,0,1.6,0.4,1.8,0.4
					C206.8,71.4,206.8,71.1,206.8,71.1z"/>
				<path fill="#5C3E35" d="M195.6,54c-0.6-3.1,0.1-6.4,2-8.8c1.8-2.4,4.8-3.9,7.7-4.2c3.2-0.2,6.7,0.5,8.8,3.1c4,5,2,10,1.2,11
					c0.2-0.2,1.2-0.5,1.5-0.7c-0.6,2.8-2.1,4.8-4.6,5.9c-2.1,1-3.2,1.5-5.5,1.3C205.2,61.5,197.1,62.2,195.6,54z"/>
				<path fill="#FDC896" d="M213.8,66.7h0.1c0.4,0.1,0.2-0.2-0.1-0.6c-0.2-0.1-0.2-0.2-0.4-0.4c-0.1-1-0.9-2.4-1.2-2.9l-2,0.1
					c0.2,0.4,0.6,1.8,1.1,2.9l0,0c0,0,0.2,0.5,0.1,0.6l0,0c0,0,0,0.1-0.1,0.1c-0.1,0.4,0,0.6,0.4,0.4s0.4-0.1,0.7,0.4
					c0.5,0.5,0.9,0.2,0.5-0.2c0.1,0.1,0.2,0.2,0.4,0.2c0.2,0.1,0.4-0.2,0-0.5c0.1,0.1,0.2,0.1,0.4,0.1C214,67.2,214,67,213.8,66.7z"
					/>
				<path fill="#FDC896" d="M201.3,66c0.2-0.1,0.2-0.4,0.2-0.4c0.2-1,1.2-2.2,1.6-2.8l2,0.2c-0.1,0.2-0.9,1.7-1.5,2.7
					c-0.4,0.6-0.6,0.7-0.5,0.9c0,0,0,0.6-0.2,0.6c0-0.1-0.4-0.2-0.6,0.1c-0.4-0.1-0.1-0.4-0.4-0.4c-0.1,0-0.4-0.1-0.4-0.2
					c0-0.1-0.2,0-0.2-0.1c0-0.1-0.1,0-0.2-0.1C200.9,66.2,201.2,66,201.3,66z"/>
				<path fill="#445E87" d="M204.2,71h-0.1c0.4-1.3,0.6-2.8,0.7-3.5c0-0.1,0.1-0.6,0.1-0.7c0.5-0.4,1.3-0.2,2-0.2
					c1.1,0,2.2,0,3.3,0.1c0.5,1.2,0.7,1.7,1.1,2.9c0.1,0.5,0.4,0.9,0.5,1.6c-0.9,0.4-1.6,0.4-2.9,0.5c-0.2-1-0.7-2-1-2.7
					c-0.1,0.6-0.4,1-0.5,1.7c0,0.2-0.1,0.6-0.1,1C207.2,71.4,205.5,71.5,204.2,71z"/>
				<path fill="#04B9CA" d="M209.4,60.5c-1.2-0.5-2.8-0.2-3.9,0.2l0,0c-1.6,0.1-2.8,2.4-2.8,2.4c0.2-0.1,1.8,1.5,1.8,1.5l0.4-0.9
					l0,0c-0.1,1.6-0.2,3.2-0.4,3.7c0.6,0.1,4.3,0.1,6.4-0.5c-0.1-0.6-0.4-2-0.4-3.4l0.4,0.9c0,0,1.5-1.7,1.7-1.6
					C212.4,62.9,211.1,60.5,209.4,60.5z"/>
				<path fill="#FDC896" d="M214.1,51.3c-0.1,0.6-0.1,1.3-0.1,2.2c1.5-0.5,1.5,1.5,0.1,1.5c0.1,1.7-1,3.3-2.4,4
					c-0.7,0.4-1.7,0.5-2.3,0.9c-0.6,0.5-0.6,1.1-0.9,1.7c-0.6,1.3-1.1-0.5-1.8-1.1c-0.6-0.4-1.6,0.1-2.2,0.1c-0.9,0-1.6,0-2.4-0.2
					c-1.6-0.4-2.6-1.8-3.1-3.3c-1.3,0.6-1.6-1.3-0.5-1.3c0-0.6-0.2-1.2-0.2-1.8c0.7-0.2,1.6-0.4,2.3-0.5c2.7-0.6,6.8-1.7,8.1-4.5
					C208.9,49,209.7,51.6,214.1,51.3z"/>
				<path fill="#1A9AA0" d="M210.1,61.2l0.2,2.4l0.2,0.6C210.6,64.3,210.3,62.3,210.1,61.2z"/>
				
					<ellipse transform="matrix(-0.2366 -0.9716 0.9716 -0.2366 198.3776 265.8079)" fill="#4B3021" cx="203.6" cy="55" rx="1" ry="0.6"/>
				
					<ellipse transform="matrix(-0.2375 -0.9714 0.9714 -0.2375 207.8168 271.1845)" fill="#4B3021" cx="210.3" cy="54" rx="1" ry="0.6"/>
				<path fill="#F79A7A" d="M206.8,57.7c0,0.5,0.5,0.9,1,0.7c0.5,0,0.9-0.5,0.9-0.9c0-0.5-0.4-0.2-0.9-0.1
					C207.3,57.6,206.8,57.2,206.8,57.7z"/>
				<path fill="#F79A7A" d="M202.5,57.4c0.1,0,0.1,0.1,0.2,0.1c0.6,0.2,2.3-0.1,1.2-0.9C203.5,56.3,201.5,56.7,202.5,57.4z"/>
				<path fill="#F79A7A" d="M212.1,56.3c0,0.1-0.1,0.1-0.2,0.2c-0.6,0.4-2.4,0.7-1.6-0.5C210.6,55.6,212.8,55.2,212.1,56.3z"/>
			</g>
		</g>
	</g>
</g>
</svg>
